M48
; DRILL file {KiCad (6.0.0)} date Tue Mar  8 15:04:02 2022
; FORMAT={-:-/ absolute / metric / decimal}
; #@! TF.CreationDate,2022-03-08T15:04:02-05:00
; #@! TF.GenerationSoftware,Kicad,Pcbnew,(6.0.0)
; #@! TF.FileFunction,Plated,1,2,PTH
FMAT,2
METRIC
; #@! TA.AperFunction,Plated,PTH,ViaDrill
T1C0.300
; #@! TA.AperFunction,Plated,PTH,ViaDrill
T2C0.400
; #@! TA.AperFunction,Plated,PTH,ComponentDrill
T3C0.700
; #@! TA.AperFunction,Plated,PTH,ComponentDrill
T4C0.900
; #@! TA.AperFunction,Plated,PTH,ComponentDrill
T5C1.240
; #@! TA.AperFunction,Plated,PTH,ComponentDrill
T6C1.400
%
G90
G05
T1
X139.0Y-85.25
X157.5Y-100.75
X170.0Y-95.0
X174.0Y-112.5
X179.25Y-102.25
X183.0Y-108.0
X192.75Y-98.25
X194.25Y-118.5
X196.0Y-48.0
X197.5Y-94.25
X203.75Y-85.25
X204.75Y-86.5
X206.5Y-78.5
X216.5Y-94.25
X218.25Y-106.75
X221.25Y-106.75
X228.5Y-106.75
X231.75Y-106.25
X233.5Y-92.25
X279.506Y-104.256
X297.25Y-105.0
X319.25Y-104.75
X333.0Y-105.0
X361.75Y-104.5
X376.0Y-86.0
T2
X194.0Y-106.0
X194.125Y-110.125
X197.0Y-119.5
X205.75Y-101.0
X216.0Y-117.5
X216.5Y-111.25
X223.5Y-111.25
T3
X180.975Y-36.581
X180.975Y-44.381
X190.5Y-55.631
X190.5Y-63.431
X195.262Y-74.681
X195.262Y-82.481
X204.787Y-88.969
X204.787Y-96.769
X219.075Y-36.581
X219.075Y-44.381
X228.6Y-55.631
X228.6Y-63.431
X233.362Y-74.681
X233.362Y-82.481
X242.887Y-88.969
X242.887Y-96.769
T4
X37.25Y-47.625
X39.79Y-47.625
X137.21Y-91.0
X139.75Y-91.0
X370.71Y-91.0
X373.25Y-91.0
T5
X355.5Y-110.75
X355.5Y-117.25
T6
X33.6Y-102.275
X34.1Y-107.275
X35.6Y-34.1
X35.6Y-53.15
X35.6Y-72.2
X35.6Y-91.25
X35.6Y-110.3
X40.6Y-33.6
X40.6Y-52.65
X40.6Y-71.7
X40.6Y-90.75
X40.6Y-109.8
X45.125Y-110.3
X50.125Y-109.8
X54.65Y-34.1
X54.65Y-53.15
X54.65Y-72.2
X54.65Y-91.25
X54.65Y-110.3
X59.65Y-33.6
X59.65Y-52.65
X59.65Y-71.7
X59.65Y-90.75
X59.65Y-109.8
X64.175Y-110.3
X69.175Y-109.8
X73.7Y-34.1
X73.7Y-53.15
X73.7Y-72.2
X73.7Y-91.25
X73.7Y-110.3
X78.7Y-33.6
X78.7Y-52.65
X78.7Y-71.7
X78.7Y-90.75
X78.7Y-109.8
X83.225Y-110.3
X88.225Y-109.8
X92.75Y-34.1
X92.75Y-53.15
X92.75Y-72.2
X92.75Y-91.25
X92.75Y-110.3
X97.75Y-33.6
X97.75Y-52.65
X97.75Y-71.7
X97.75Y-90.75
X97.75Y-109.8
X99.25Y-102.275
X99.75Y-107.275
X111.8Y-34.1
X116.562Y-53.15
X116.562Y-110.3
X116.8Y-33.6
X118.944Y-72.2
X121.562Y-52.65
X121.562Y-109.8
X123.706Y-91.25
X123.944Y-71.7
X128.706Y-90.75
X130.85Y-34.1
X135.85Y-33.6
X140.375Y-53.15
X145.137Y-72.2
X145.137Y-110.3
X145.375Y-52.65
X149.9Y-34.1
X150.137Y-71.7
X150.137Y-109.8
X154.662Y-91.25
X154.9Y-33.6
X159.425Y-53.15
X159.662Y-90.75
X164.188Y-72.2
X164.425Y-52.65
X168.95Y-34.1
X169.188Y-71.7
X173.713Y-91.25
X173.95Y-33.6
X178.475Y-53.15
X178.713Y-90.75
X183.237Y-72.2
X183.475Y-52.65
X188.0Y-34.1
X188.237Y-71.7
X192.762Y-91.25
X193.0Y-33.6
X197.525Y-53.15
X197.762Y-90.75
X202.287Y-72.2
X202.525Y-52.65
X207.05Y-34.1
X207.287Y-71.7
X211.812Y-91.25
X212.05Y-33.6
X216.575Y-53.15
X216.812Y-90.75
X221.337Y-72.2
X221.575Y-52.65
X226.1Y-34.1
X226.337Y-71.7
X230.862Y-91.25
X231.1Y-33.6
X235.625Y-53.15
X235.862Y-90.75
X240.387Y-72.2
X240.387Y-110.3
X240.625Y-52.65
X245.15Y-34.1
X245.387Y-71.7
X245.387Y-109.8
X249.912Y-91.25
X250.15Y-33.6
X254.675Y-53.15
X254.912Y-90.75
X259.438Y-72.2
X259.675Y-52.65
X264.2Y-34.1
X264.438Y-71.7
X268.962Y-91.25
X269.2Y-33.6
X273.725Y-53.15
X273.962Y-90.75
X278.488Y-72.2
X278.725Y-52.65
X283.25Y-34.1
X283.488Y-71.7
X288.012Y-91.25
X288.25Y-33.6
X292.775Y-53.15
X293.012Y-90.75
X297.537Y-72.2
X297.775Y-52.65
X302.3Y-34.1
X302.537Y-71.7
X307.062Y-91.25
X307.3Y-33.6
X311.825Y-53.15
X312.062Y-90.75
X316.587Y-72.2
X316.825Y-52.65
X321.35Y-34.1
X321.587Y-71.7
X326.113Y-91.25
X326.35Y-33.6
X330.875Y-53.15
X331.113Y-90.75
X335.637Y-72.2
X335.637Y-110.3
X335.875Y-52.65
X340.4Y-34.1
X340.637Y-71.7
X340.637Y-109.8
X345.4Y-33.6
X349.925Y-53.15
X354.925Y-52.65
X357.069Y-91.25
X361.831Y-72.2
X362.069Y-90.75
X363.975Y-110.3
X364.212Y-34.1
X366.831Y-71.7
X368.975Y-53.15
X368.975Y-109.8
X369.212Y-33.6
X373.975Y-52.65
T3
X201.137Y-24.925G85X201.137Y-27.425
G05
X208.438Y-24.925G85X208.438Y-27.425
G05
T0
M30
