G04 #@! TF.GenerationSoftware,KiCad,Pcbnew,(6.0.0)*
G04 #@! TF.CreationDate,2022-03-08T15:03:57-05:00*
G04 #@! TF.ProjectId,next,6e657874-2e6b-4696-9361-645f70636258,rev?*
G04 #@! TF.SameCoordinates,Original*
G04 #@! TF.FileFunction,Paste,Bot*
G04 #@! TF.FilePolarity,Positive*
%FSLAX46Y46*%
G04 Gerber Fmt 4.6, Leading zero omitted, Abs format (unit mm)*
G04 Created by KiCad (PCBNEW (6.0.0)) date 2022-03-08 15:03:57*
%MOMM*%
%LPD*%
G01*
G04 APERTURE LIST*
G04 Aperture macros list*
%AMRoundRect*
0 Rectangle with rounded corners*
0 $1 Rounding radius*
0 $2 $3 $4 $5 $6 $7 $8 $9 X,Y pos of 4 corners*
0 Add a 4 corners polygon primitive as box body*
4,1,4,$2,$3,$4,$5,$6,$7,$8,$9,$2,$3,0*
0 Add four circle primitives for the rounded corners*
1,1,$1+$1,$2,$3*
1,1,$1+$1,$4,$5*
1,1,$1+$1,$6,$7*
1,1,$1+$1,$8,$9*
0 Add four rect primitives between the rounded corners*
20,1,$1+$1,$2,$3,$4,$5,0*
20,1,$1+$1,$4,$5,$6,$7,0*
20,1,$1+$1,$6,$7,$8,$9,0*
20,1,$1+$1,$8,$9,$2,$3,0*%
G04 Aperture macros list end*
%ADD10R,1.200000X0.900000*%
%ADD11O,1.500000X4.000000*%
%ADD12R,0.500000X1.400000*%
%ADD13RoundRect,0.250000X-0.250000X-0.475000X0.250000X-0.475000X0.250000X0.475000X-0.250000X0.475000X0*%
%ADD14RoundRect,0.250000X0.262500X0.450000X-0.262500X0.450000X-0.262500X-0.450000X0.262500X-0.450000X0*%
%ADD15RoundRect,0.250000X0.450000X-0.262500X0.450000X0.262500X-0.450000X0.262500X-0.450000X-0.262500X0*%
%ADD16RoundRect,0.250000X0.475000X-0.250000X0.475000X0.250000X-0.475000X0.250000X-0.475000X-0.250000X0*%
%ADD17RoundRect,0.250000X0.250000X0.475000X-0.250000X0.475000X-0.250000X-0.475000X0.250000X-0.475000X0*%
%ADD18RoundRect,0.250000X-0.450000X0.262500X-0.450000X-0.262500X0.450000X-0.262500X0.450000X0.262500X0*%
%ADD19R,1.400000X1.200000*%
%ADD20RoundRect,0.250000X-0.475000X0.250000X-0.475000X-0.250000X0.475000X-0.250000X0.475000X0.250000X0*%
%ADD21RoundRect,0.137500X0.521491X-0.327037X-0.327037X0.521491X-0.521491X0.327037X0.327037X-0.521491X0*%
%ADD22RoundRect,0.137500X0.521491X0.327037X0.327037X0.521491X-0.521491X-0.327037X-0.327037X-0.521491X0*%
G04 APERTURE END LIST*
D10*
X42862500Y-42131250D03*
X42862500Y-38831250D03*
X42862500Y-61181250D03*
X42862500Y-57881250D03*
X42862500Y-80231250D03*
X42862500Y-76931250D03*
X42862500Y-99281250D03*
X42862500Y-95981250D03*
X61912500Y-42131250D03*
X61912500Y-38831250D03*
X61912500Y-61181250D03*
X61912500Y-57881250D03*
X61912500Y-80231250D03*
X61912500Y-76931250D03*
X61912500Y-99281250D03*
X61912500Y-95981250D03*
X61912500Y-118331250D03*
X61912500Y-115031250D03*
X80962500Y-42131250D03*
X80962500Y-38831250D03*
X80962500Y-61181250D03*
X80962500Y-57881250D03*
X80962500Y-80231250D03*
X80962500Y-76931250D03*
X80962500Y-99281250D03*
X80962500Y-95981250D03*
X80962500Y-118331250D03*
X80962500Y-115031250D03*
X100012500Y-42131250D03*
X100012500Y-38831250D03*
X100012500Y-61181250D03*
X100012500Y-57881250D03*
X100012500Y-80231250D03*
X100012500Y-76931250D03*
X100012500Y-99281250D03*
X100012500Y-95981250D03*
X100012500Y-118331250D03*
X100012500Y-115031250D03*
X119062500Y-42131250D03*
X119062500Y-38831250D03*
X123825000Y-61181250D03*
X123825000Y-57881250D03*
X126206250Y-80231250D03*
X126206250Y-76931250D03*
X130968750Y-99281250D03*
X130968750Y-95981250D03*
X123825000Y-118331250D03*
X123825000Y-115031250D03*
X138112500Y-42131250D03*
X138112500Y-38831250D03*
X147637500Y-61181250D03*
X147637500Y-57881250D03*
X152400000Y-80231250D03*
X152400000Y-76931250D03*
X161925000Y-99281250D03*
X161925000Y-95981250D03*
X157162500Y-42131250D03*
X157162500Y-38831250D03*
X166687500Y-61181250D03*
X166687500Y-57881250D03*
X171450000Y-80231250D03*
X171450000Y-76931250D03*
X180975000Y-99281250D03*
X180975000Y-95981250D03*
X176212500Y-42131250D03*
X176212500Y-38831250D03*
X190500000Y-80231250D03*
X190500000Y-76931250D03*
X242887500Y-61181250D03*
X242887500Y-57881250D03*
X247650000Y-80231250D03*
X247650000Y-76931250D03*
X252412500Y-42131250D03*
X252412500Y-38831250D03*
X261937500Y-61181250D03*
X261937500Y-57881250D03*
X266700000Y-80231250D03*
X266700000Y-76931250D03*
X276225000Y-99281250D03*
X276225000Y-95981250D03*
X271462500Y-42131250D03*
X271462500Y-38831250D03*
X280987500Y-61181250D03*
X280987500Y-57881250D03*
X285750000Y-80231250D03*
X285750000Y-76931250D03*
X295275000Y-99281250D03*
X295275000Y-95981250D03*
X290512500Y-42131250D03*
X290512500Y-38831250D03*
X300037500Y-61181250D03*
X300037500Y-57881250D03*
X304800000Y-80231250D03*
X304800000Y-76931250D03*
X314325000Y-99281250D03*
X314325000Y-95981250D03*
X309562500Y-42131250D03*
X309562500Y-38831250D03*
X319087500Y-61181250D03*
X319087500Y-57881250D03*
X323850000Y-80231250D03*
X323850000Y-76931250D03*
X333375000Y-99281250D03*
X333375000Y-95981250D03*
X342900000Y-118331250D03*
X342900000Y-115031250D03*
X328612500Y-42131250D03*
X328612500Y-38831250D03*
X338137500Y-61181250D03*
X338137500Y-57881250D03*
X342900000Y-80231250D03*
X342900000Y-76931250D03*
X357187500Y-61181250D03*
X357187500Y-57881250D03*
X347662500Y-42131250D03*
X347662500Y-38831250D03*
X376237500Y-61181250D03*
X376237500Y-57881250D03*
D11*
X201137500Y-26175000D03*
D12*
X203187500Y-28575000D03*
X203987500Y-28575000D03*
X204787500Y-28575000D03*
X205587500Y-28575000D03*
X206387500Y-28575000D03*
D11*
X208437500Y-26175000D03*
D13*
X221800000Y-115750000D03*
X223700000Y-115750000D03*
D14*
X34250000Y-47625000D03*
X32425000Y-47625000D03*
D15*
X144500000Y-89662500D03*
X144500000Y-87837500D03*
X373250000Y-86662500D03*
X373250000Y-84837500D03*
D10*
X371475000Y-42131250D03*
X371475000Y-38831250D03*
X369093750Y-80231250D03*
X369093750Y-76931250D03*
X364331250Y-99281250D03*
X364331250Y-95981250D03*
X371475000Y-118331250D03*
X371475000Y-115031250D03*
X204787500Y-94518750D03*
X204787500Y-91218750D03*
D16*
X221250000Y-112200000D03*
X221250000Y-110300000D03*
D10*
X180975000Y-42131250D03*
X180975000Y-38831250D03*
X233362500Y-42131250D03*
X233362500Y-38831250D03*
X190500000Y-61181250D03*
X190500000Y-57881250D03*
D15*
X225500000Y-110912500D03*
X225500000Y-109087500D03*
X227750000Y-110912500D03*
X227750000Y-109087500D03*
D10*
X257175000Y-99281250D03*
X257175000Y-95981250D03*
X233362500Y-80231250D03*
X233362500Y-76931250D03*
X190500000Y-99281250D03*
X190500000Y-95981250D03*
X152400000Y-118331250D03*
X152400000Y-115031250D03*
X42862500Y-118331250D03*
X42862500Y-115031250D03*
D17*
X193950000Y-108000000D03*
X192050000Y-108000000D03*
D13*
X207550000Y-101000000D03*
X209450000Y-101000000D03*
D18*
X202500000Y-100087500D03*
X202500000Y-101912500D03*
D10*
X242887500Y-94518750D03*
X242887500Y-91218750D03*
X247650000Y-118331250D03*
X247650000Y-115031250D03*
D19*
X190150000Y-118200000D03*
X192350000Y-118200000D03*
X192350000Y-119800000D03*
X190150000Y-119800000D03*
D13*
X194300000Y-121250000D03*
X196200000Y-121250000D03*
D16*
X199250000Y-120950000D03*
X199250000Y-119050000D03*
D20*
X187500000Y-118050000D03*
X187500000Y-119950000D03*
D18*
X348500000Y-114337500D03*
X348500000Y-116162500D03*
D10*
X195262500Y-80231250D03*
X195262500Y-76931250D03*
X228600000Y-61181250D03*
X228600000Y-57881250D03*
X219075000Y-42131250D03*
X219075000Y-38831250D03*
D16*
X216500000Y-108700000D03*
X216500000Y-106800000D03*
D21*
X212082419Y-112425565D03*
X211516734Y-112991250D03*
X210951048Y-113556936D03*
X210385363Y-114122621D03*
X209819678Y-114688307D03*
X209253992Y-115253992D03*
X208688307Y-115819678D03*
X208122621Y-116385363D03*
X207556936Y-116951048D03*
X206991250Y-117516734D03*
X206425565Y-118082419D03*
D22*
X204074435Y-118082419D03*
X203508750Y-117516734D03*
X202943064Y-116951048D03*
X202377379Y-116385363D03*
X201811693Y-115819678D03*
X201246008Y-115253992D03*
X200680322Y-114688307D03*
X200114637Y-114122621D03*
X199548952Y-113556936D03*
X198983266Y-112991250D03*
X198417581Y-112425565D03*
D21*
X198417581Y-110074435D03*
X198983266Y-109508750D03*
X199548952Y-108943064D03*
X200114637Y-108377379D03*
X200680322Y-107811693D03*
X201246008Y-107246008D03*
X201811693Y-106680322D03*
X202377379Y-106114637D03*
X202943064Y-105548952D03*
X203508750Y-104983266D03*
X204074435Y-104417581D03*
D22*
X206425565Y-104417581D03*
X206991250Y-104983266D03*
X207556936Y-105548952D03*
X208122621Y-106114637D03*
X208688307Y-106680322D03*
X209253992Y-107246008D03*
X209819678Y-107811693D03*
X210385363Y-108377379D03*
X210951048Y-108943064D03*
X211516734Y-109508750D03*
X212082419Y-110074435D03*
D10*
X185737500Y-61181250D03*
X185737500Y-57881250D03*
M02*
