%FSLAX45Y45*%
G04 Gerber Fmt 4.5, Leading zero omitted, Abs format (unit mm)*
G04 Created by KiCad (PCBNEW (6.0.0)) date 2022-03-08 15:04:03*
%MOMM*%
%LPD*%
G01*
G04 APERTURE LIST*
%TA.AperFunction,Profile*%
%ADD10C,0.100000*%
%TD*%
%ADD11C,0.200000*%
G04 APERTURE END LIST*
D10*
X2960000Y-12350000D02*
X38000000Y-12350000D01*
X20955000Y-2910000D02*
X38000000Y-2910000D01*
X38050000Y-2960000D02*
X38050000Y-12300000D01*
X2910000Y-2960000D02*
X2910000Y-12300000D01*
X38050000Y-2960000D02*
G75*
G03*
X38000000Y-2910000I-50000J0D01*
G01*
X20002500Y-2381250D02*
X20002500Y-2910000D01*
X20002500Y-2381250D02*
X20955000Y-2381250D01*
X2910000Y-12300000D02*
G75*
G03*
X2960000Y-12350000I50000J0D01*
G01*
X20955000Y-2381250D02*
X20955000Y-2910000D01*
X2960000Y-2910000D02*
G75*
G03*
X2910000Y-2960000I0J-50000D01*
G01*
X38000000Y-12350000D02*
G75*
G03*
X38050000Y-12300000I0J50000D01*
G01*
X2960000Y-2910000D02*
X20002500Y-2910000D01*
D11*
X3162619Y-12665476D02*
X3162619Y-12465476D01*
X3210238Y-12465476D01*
X3238809Y-12475000D01*
X3257857Y-12494048D01*
X3267381Y-12513095D01*
X3276905Y-12551190D01*
X3276905Y-12579762D01*
X3267381Y-12617857D01*
X3257857Y-12636905D01*
X3238809Y-12655952D01*
X3210238Y-12665476D01*
X3162619Y-12665476D01*
X3362619Y-12665476D02*
X3362619Y-12532143D01*
X3362619Y-12570238D02*
X3372143Y-12551190D01*
X3381667Y-12541667D01*
X3400714Y-12532143D01*
X3419762Y-12532143D01*
X3486428Y-12665476D02*
X3486428Y-12532143D01*
X3486428Y-12465476D02*
X3476905Y-12475000D01*
X3486428Y-12484524D01*
X3495952Y-12475000D01*
X3486428Y-12465476D01*
X3486428Y-12484524D01*
X3610238Y-12665476D02*
X3591190Y-12655952D01*
X3581667Y-12636905D01*
X3581667Y-12465476D01*
X3715000Y-12665476D02*
X3695952Y-12655952D01*
X3686428Y-12636905D01*
X3686428Y-12465476D01*
X3943571Y-12665476D02*
X3943571Y-12465476D01*
X4010238Y-12608333D01*
X4076905Y-12465476D01*
X4076905Y-12665476D01*
X4257857Y-12665476D02*
X4257857Y-12560714D01*
X4248333Y-12541667D01*
X4229286Y-12532143D01*
X4191190Y-12532143D01*
X4172143Y-12541667D01*
X4257857Y-12655952D02*
X4238810Y-12665476D01*
X4191190Y-12665476D01*
X4172143Y-12655952D01*
X4162619Y-12636905D01*
X4162619Y-12617857D01*
X4172143Y-12598809D01*
X4191190Y-12589286D01*
X4238810Y-12589286D01*
X4257857Y-12579762D01*
X4353095Y-12532143D02*
X4353095Y-12732143D01*
X4353095Y-12541667D02*
X4372143Y-12532143D01*
X4410238Y-12532143D01*
X4429286Y-12541667D01*
X4438810Y-12551190D01*
X4448333Y-12570238D01*
X4448333Y-12627381D01*
X4438810Y-12646428D01*
X4429286Y-12655952D01*
X4410238Y-12665476D01*
X4372143Y-12665476D01*
X4353095Y-12655952D01*
X4534048Y-12646428D02*
X4543571Y-12655952D01*
X4534048Y-12665476D01*
X4524524Y-12655952D01*
X4534048Y-12646428D01*
X4534048Y-12665476D01*
X4534048Y-12541667D02*
X4543571Y-12551190D01*
X4534048Y-12560714D01*
X4524524Y-12551190D01*
X4534048Y-12541667D01*
X4534048Y-12560714D01*
M02*
