G04 #@! TF.GenerationSoftware,KiCad,Pcbnew,(6.0.0)*
G04 #@! TF.CreationDate,2022-03-08T15:03:57-05:00*
G04 #@! TF.ProjectId,next,6e657874-2e6b-4696-9361-645f70636258,rev?*
G04 #@! TF.SameCoordinates,Original*
G04 #@! TF.FileFunction,Legend,Top*
G04 #@! TF.FilePolarity,Positive*
%FSLAX46Y46*%
G04 Gerber Fmt 4.6, Leading zero omitted, Abs format (unit mm)*
G04 Created by KiCad (PCBNEW (6.0.0)) date 2022-03-08 15:03:57*
%MOMM*%
%LPD*%
G01*
G04 APERTURE LIST*
%ADD10C,0.150000*%
%ADD11C,0.120000*%
%ADD12C,2.300000*%
%ADD13R,1.800000X1.800000*%
%ADD14C,1.800000*%
%ADD15O,1.500000X4.000000*%
%ADD16R,1.600000X1.600000*%
%ADD17C,1.600000*%
%ADD18C,2.000000*%
G04 APERTURE END LIST*
D10*
X370860952Y-94412380D02*
X370384761Y-94412380D01*
X370384761Y-93412380D01*
X371194285Y-93888571D02*
X371527619Y-93888571D01*
X371670476Y-94412380D02*
X371194285Y-94412380D01*
X371194285Y-93412380D01*
X371670476Y-93412380D01*
X372099047Y-94412380D02*
X372099047Y-93412380D01*
X372337142Y-93412380D01*
X372480000Y-93460000D01*
X372575238Y-93555238D01*
X372622857Y-93650476D01*
X372670476Y-93840952D01*
X372670476Y-93983809D01*
X372622857Y-94174285D01*
X372575238Y-94269523D01*
X372480000Y-94364761D01*
X372337142Y-94412380D01*
X372099047Y-94412380D01*
X373003809Y-93412380D02*
X373622857Y-93412380D01*
X373289523Y-93793333D01*
X373432380Y-93793333D01*
X373527619Y-93840952D01*
X373575238Y-93888571D01*
X373622857Y-93983809D01*
X373622857Y-94221904D01*
X373575238Y-94317142D01*
X373527619Y-94364761D01*
X373432380Y-94412380D01*
X373146666Y-94412380D01*
X373051428Y-94364761D01*
X373003809Y-94317142D01*
X37400952Y-45117380D02*
X36924761Y-45117380D01*
X36924761Y-44117380D01*
X37734285Y-44593571D02*
X38067619Y-44593571D01*
X38210476Y-45117380D02*
X37734285Y-45117380D01*
X37734285Y-44117380D01*
X38210476Y-44117380D01*
X38639047Y-45117380D02*
X38639047Y-44117380D01*
X38877142Y-44117380D01*
X39020000Y-44165000D01*
X39115238Y-44260238D01*
X39162857Y-44355476D01*
X39210476Y-44545952D01*
X39210476Y-44688809D01*
X39162857Y-44879285D01*
X39115238Y-44974523D01*
X39020000Y-45069761D01*
X38877142Y-45117380D01*
X38639047Y-45117380D01*
X40162857Y-45117380D02*
X39591428Y-45117380D01*
X39877142Y-45117380D02*
X39877142Y-44117380D01*
X39781904Y-44260238D01*
X39686666Y-44355476D01*
X39591428Y-44403095D01*
X137360952Y-94412380D02*
X136884761Y-94412380D01*
X136884761Y-93412380D01*
X137694285Y-93888571D02*
X138027619Y-93888571D01*
X138170476Y-94412380D02*
X137694285Y-94412380D01*
X137694285Y-93412380D01*
X138170476Y-93412380D01*
X138599047Y-94412380D02*
X138599047Y-93412380D01*
X138837142Y-93412380D01*
X138980000Y-93460000D01*
X139075238Y-93555238D01*
X139122857Y-93650476D01*
X139170476Y-93840952D01*
X139170476Y-93983809D01*
X139122857Y-94174285D01*
X139075238Y-94269523D01*
X138980000Y-94364761D01*
X138837142Y-94412380D01*
X138599047Y-94412380D01*
X139551428Y-93507619D02*
X139599047Y-93460000D01*
X139694285Y-93412380D01*
X139932380Y-93412380D01*
X140027619Y-93460000D01*
X140075238Y-93507619D01*
X140122857Y-93602857D01*
X140122857Y-93698095D01*
X140075238Y-93840952D01*
X139503809Y-94412380D01*
X140122857Y-94412380D01*
D11*
X373540000Y-89920000D02*
X373540000Y-89764000D01*
X373540000Y-92236000D02*
X373540000Y-92080000D01*
X373020961Y-89920000D02*
G75*
G03*
X370938870Y-89920163I-1040961J-1080000D01*
G01*
X370307665Y-92078608D02*
G75*
G03*
X373540000Y-92235516I1672335J1078609D01*
G01*
X373540000Y-89764484D02*
G75*
G03*
X370307665Y-89921392I-1560000J-1235517D01*
G01*
X370938870Y-92079837D02*
G75*
G03*
X373020961Y-92080000I1041130J1079837D01*
G01*
X36960000Y-48705000D02*
X36960000Y-48861000D01*
X36960000Y-46389000D02*
X36960000Y-46545000D01*
X39561130Y-46545163D02*
G75*
G03*
X37479039Y-46545000I-1041130J-1079837D01*
G01*
X40192335Y-46546392D02*
G75*
G03*
X36960000Y-46389484I-1672335J-1078609D01*
G01*
X36960000Y-48860516D02*
G75*
G03*
X40192335Y-48703608I1560000J1235517D01*
G01*
X37479039Y-48705000D02*
G75*
G03*
X39561130Y-48704837I1040961J1080000D01*
G01*
X140040000Y-92236000D02*
X140040000Y-92080000D01*
X140040000Y-89920000D02*
X140040000Y-89764000D01*
X137438870Y-92079837D02*
G75*
G03*
X139520961Y-92080000I1041130J1079837D01*
G01*
X140040000Y-89764484D02*
G75*
G03*
X136807665Y-89921392I-1560000J-1235517D01*
G01*
X139520961Y-89920000D02*
G75*
G03*
X137438870Y-89920163I-1040961J-1080000D01*
G01*
X136807665Y-92078608D02*
G75*
G03*
X140040000Y-92235516I1672335J1078609D01*
G01*
%LPC*%
D12*
X35600000Y-34100000D03*
X40600000Y-33600000D03*
X35600000Y-53150000D03*
X40600000Y-52650000D03*
X35600000Y-72200000D03*
X40600000Y-71700000D03*
X35600000Y-91250000D03*
X40600000Y-90750000D03*
X35600000Y-110300000D03*
X40600000Y-109800000D03*
X73700000Y-34100000D03*
X78700000Y-33600000D03*
X73700000Y-53150000D03*
X78700000Y-52650000D03*
X73700000Y-72200000D03*
X78700000Y-71700000D03*
X73700000Y-91250000D03*
X78700000Y-90750000D03*
X73700000Y-110300000D03*
X78700000Y-109800000D03*
X92750000Y-34100000D03*
X97750000Y-33600000D03*
X92750000Y-53150000D03*
X97750000Y-52650000D03*
X92750000Y-72200000D03*
X97750000Y-71700000D03*
X92750000Y-91250000D03*
X97750000Y-90750000D03*
X92750000Y-110300000D03*
X97750000Y-109800000D03*
X111800000Y-34100000D03*
X116800000Y-33600000D03*
X116562500Y-53150000D03*
X121562500Y-52650000D03*
X118943750Y-72200000D03*
X123943750Y-71700000D03*
X123706250Y-91250000D03*
X128706250Y-90750000D03*
X116562500Y-110300000D03*
X121562500Y-109800000D03*
X130850000Y-34100000D03*
X135850000Y-33600000D03*
X140375000Y-53150000D03*
X145375000Y-52650000D03*
X145137500Y-72200000D03*
X150137500Y-71700000D03*
X154662500Y-91250000D03*
X159662500Y-90750000D03*
X145137500Y-110300000D03*
X150137500Y-109800000D03*
X149900000Y-34100000D03*
X154900000Y-33600000D03*
X159425000Y-53150000D03*
X164425000Y-52650000D03*
X164187500Y-72200000D03*
X169187500Y-71700000D03*
X173712500Y-91250000D03*
X178712500Y-90750000D03*
X168950000Y-34100000D03*
X173950000Y-33600000D03*
X178475000Y-53150000D03*
X183475000Y-52650000D03*
X183237500Y-72200000D03*
X188237500Y-71700000D03*
X192762500Y-91250000D03*
X197762500Y-90750000D03*
X188000000Y-34100000D03*
X193000000Y-33600000D03*
X197525000Y-53150000D03*
X202525000Y-52650000D03*
X202287500Y-72200000D03*
X207287500Y-71700000D03*
X211812500Y-91250000D03*
X216812500Y-90750000D03*
X207050000Y-34100000D03*
X212050000Y-33600000D03*
X216575000Y-53150000D03*
X221575000Y-52650000D03*
X221337500Y-72200000D03*
X226337500Y-71700000D03*
X230862500Y-91250000D03*
X235862500Y-90750000D03*
X240387500Y-110300000D03*
X245387500Y-109800000D03*
X226100000Y-34100000D03*
X231100000Y-33600000D03*
X235625000Y-53150000D03*
X240625000Y-52650000D03*
X240387500Y-72200000D03*
X245387500Y-71700000D03*
X249912500Y-91250000D03*
X254912500Y-90750000D03*
X245150000Y-34100000D03*
X250150000Y-33600000D03*
X254675000Y-53150000D03*
X259675000Y-52650000D03*
X259437500Y-72200000D03*
X264437500Y-71700000D03*
X268962500Y-91250000D03*
X273962500Y-90750000D03*
X264200000Y-34100000D03*
X269200000Y-33600000D03*
X273725000Y-53150000D03*
X278725000Y-52650000D03*
X278487500Y-72200000D03*
X283487500Y-71700000D03*
X288012500Y-91250000D03*
X293012500Y-90750000D03*
X283250000Y-34100000D03*
X288250000Y-33600000D03*
X292775000Y-53150000D03*
X297775000Y-52650000D03*
X297537500Y-72200000D03*
X302537500Y-71700000D03*
X307062500Y-91250000D03*
X312062500Y-90750000D03*
X302300000Y-34100000D03*
X307300000Y-33600000D03*
X311825000Y-53150000D03*
X316825000Y-52650000D03*
X316587500Y-72200000D03*
X321587500Y-71700000D03*
X326112500Y-91250000D03*
X331112500Y-90750000D03*
X335637500Y-110300000D03*
X340637500Y-109800000D03*
X321350000Y-34100000D03*
X326350000Y-33600000D03*
X330875000Y-53150000D03*
X335875000Y-52650000D03*
X335637500Y-72200000D03*
X340637500Y-71700000D03*
X349925000Y-53150000D03*
X354925000Y-52650000D03*
X340400000Y-34100000D03*
X345400000Y-33600000D03*
X364212500Y-34100000D03*
X369212500Y-33600000D03*
D13*
X373250000Y-91000000D03*
D14*
X370710000Y-91000000D03*
D13*
X37250000Y-47625000D03*
D14*
X39790000Y-47625000D03*
D13*
X139750000Y-91000000D03*
D14*
X137210000Y-91000000D03*
D12*
X34100000Y-107275000D03*
X33600000Y-102275000D03*
X45125000Y-110300000D03*
X50125000Y-109800000D03*
X64175000Y-110300000D03*
X69175000Y-109800000D03*
X83225000Y-110300000D03*
X88225000Y-109800000D03*
X99250000Y-102275000D03*
X99750000Y-107275000D03*
X368975000Y-53150000D03*
X373975000Y-52650000D03*
X361831250Y-72200000D03*
X366831250Y-71700000D03*
X357068750Y-91250000D03*
X362068750Y-90750000D03*
X363975000Y-110300000D03*
X368975000Y-109800000D03*
X54650000Y-34100000D03*
X59650000Y-33600000D03*
X54650000Y-53150000D03*
X59650000Y-52650000D03*
X54650000Y-72200000D03*
X59650000Y-71700000D03*
X54650000Y-91250000D03*
X59650000Y-90750000D03*
X54650000Y-110300000D03*
X59650000Y-109800000D03*
D15*
X201137500Y-26175000D03*
X208437500Y-26175000D03*
D16*
X204787500Y-96768750D03*
D17*
X204787500Y-88968750D03*
D16*
X180975000Y-44381250D03*
D17*
X180975000Y-36581250D03*
D16*
X190500000Y-63431250D03*
D17*
X190500000Y-55631250D03*
D16*
X233362500Y-82481250D03*
D17*
X233362500Y-74681250D03*
D16*
X242887500Y-96768750D03*
D17*
X242887500Y-88968750D03*
D16*
X195262500Y-82481250D03*
D17*
X195262500Y-74681250D03*
D16*
X228600000Y-63431250D03*
D17*
X228600000Y-55631250D03*
D16*
X219075000Y-44381250D03*
D17*
X219075000Y-36581250D03*
D18*
X355500000Y-110750000D03*
X355500000Y-117250000D03*
M02*
