G04 #@! TF.GenerationSoftware,KiCad,Pcbnew,(6.0.0)*
G04 #@! TF.CreationDate,2022-03-08T15:03:57-05:00*
G04 #@! TF.ProjectId,next,6e657874-2e6b-4696-9361-645f70636258,rev?*
G04 #@! TF.SameCoordinates,Original*
G04 #@! TF.FileFunction,Copper,L2,Bot*
G04 #@! TF.FilePolarity,Positive*
%FSLAX46Y46*%
G04 Gerber Fmt 4.6, Leading zero omitted, Abs format (unit mm)*
G04 Created by KiCad (PCBNEW (6.0.0)) date 2022-03-08 15:03:57*
%MOMM*%
%LPD*%
G01*
G04 APERTURE LIST*
G04 Aperture macros list*
%AMRoundRect*
0 Rectangle with rounded corners*
0 $1 Rounding radius*
0 $2 $3 $4 $5 $6 $7 $8 $9 X,Y pos of 4 corners*
0 Add a 4 corners polygon primitive as box body*
4,1,4,$2,$3,$4,$5,$6,$7,$8,$9,$2,$3,0*
0 Add four circle primitives for the rounded corners*
1,1,$1+$1,$2,$3*
1,1,$1+$1,$4,$5*
1,1,$1+$1,$6,$7*
1,1,$1+$1,$8,$9*
0 Add four rect primitives between the rounded corners*
20,1,$1+$1,$2,$3,$4,$5,0*
20,1,$1+$1,$4,$5,$6,$7,0*
20,1,$1+$1,$6,$7,$8,$9,0*
20,1,$1+$1,$8,$9,$2,$3,0*%
G04 Aperture macros list end*
G04 #@! TA.AperFunction,ComponentPad*
%ADD10C,2.300000*%
G04 #@! TD*
G04 #@! TA.AperFunction,ComponentPad*
%ADD11R,1.800000X1.800000*%
G04 #@! TD*
G04 #@! TA.AperFunction,ComponentPad*
%ADD12C,1.800000*%
G04 #@! TD*
G04 #@! TA.AperFunction,SMDPad,CuDef*
%ADD13R,1.200000X0.900000*%
G04 #@! TD*
G04 #@! TA.AperFunction,ComponentPad*
%ADD14O,1.500000X4.000000*%
G04 #@! TD*
G04 #@! TA.AperFunction,SMDPad,CuDef*
%ADD15R,0.500000X1.400000*%
G04 #@! TD*
G04 #@! TA.AperFunction,SMDPad,CuDef*
%ADD16RoundRect,0.250000X-0.250000X-0.475000X0.250000X-0.475000X0.250000X0.475000X-0.250000X0.475000X0*%
G04 #@! TD*
G04 #@! TA.AperFunction,SMDPad,CuDef*
%ADD17RoundRect,0.250000X0.262500X0.450000X-0.262500X0.450000X-0.262500X-0.450000X0.262500X-0.450000X0*%
G04 #@! TD*
G04 #@! TA.AperFunction,SMDPad,CuDef*
%ADD18RoundRect,0.250000X0.450000X-0.262500X0.450000X0.262500X-0.450000X0.262500X-0.450000X-0.262500X0*%
G04 #@! TD*
G04 #@! TA.AperFunction,ConnectorPad*
%ADD19R,0.500000X2.400000*%
G04 #@! TD*
G04 #@! TA.AperFunction,ComponentPad*
%ADD20R,1.600000X1.600000*%
G04 #@! TD*
G04 #@! TA.AperFunction,ComponentPad*
%ADD21C,1.600000*%
G04 #@! TD*
G04 #@! TA.AperFunction,SMDPad,CuDef*
%ADD22RoundRect,0.250000X0.475000X-0.250000X0.475000X0.250000X-0.475000X0.250000X-0.475000X-0.250000X0*%
G04 #@! TD*
G04 #@! TA.AperFunction,SMDPad,CuDef*
%ADD23RoundRect,0.250000X0.250000X0.475000X-0.250000X0.475000X-0.250000X-0.475000X0.250000X-0.475000X0*%
G04 #@! TD*
G04 #@! TA.AperFunction,SMDPad,CuDef*
%ADD24RoundRect,0.250000X-0.450000X0.262500X-0.450000X-0.262500X0.450000X-0.262500X0.450000X0.262500X0*%
G04 #@! TD*
G04 #@! TA.AperFunction,SMDPad,CuDef*
%ADD25R,1.400000X1.200000*%
G04 #@! TD*
G04 #@! TA.AperFunction,SMDPad,CuDef*
%ADD26RoundRect,0.250000X-0.475000X0.250000X-0.475000X-0.250000X0.475000X-0.250000X0.475000X0.250000X0*%
G04 #@! TD*
G04 #@! TA.AperFunction,SMDPad,CuDef*
%ADD27RoundRect,0.137500X0.521491X-0.327037X-0.327037X0.521491X-0.521491X0.327037X0.327037X-0.521491X0*%
G04 #@! TD*
G04 #@! TA.AperFunction,SMDPad,CuDef*
%ADD28RoundRect,0.137500X0.521491X0.327037X0.327037X0.521491X-0.521491X-0.327037X-0.327037X-0.521491X0*%
G04 #@! TD*
G04 #@! TA.AperFunction,ComponentPad*
%ADD29C,2.000000*%
G04 #@! TD*
G04 #@! TA.AperFunction,ViaPad*
%ADD30C,0.600000*%
G04 #@! TD*
G04 #@! TA.AperFunction,ViaPad*
%ADD31C,0.800000*%
G04 #@! TD*
G04 #@! TA.AperFunction,Conductor*
%ADD32C,0.254000*%
G04 #@! TD*
G04 #@! TA.AperFunction,Conductor*
%ADD33C,0.152400*%
G04 #@! TD*
G04 #@! TA.AperFunction,Conductor*
%ADD34C,0.381000*%
G04 #@! TD*
G04 #@! TA.AperFunction,Conductor*
%ADD35C,0.250000*%
G04 #@! TD*
G04 APERTURE END LIST*
D10*
X35600000Y-34100000D03*
X40600000Y-33600000D03*
X35600000Y-53150000D03*
X40600000Y-52650000D03*
X35600000Y-72200000D03*
X40600000Y-71700000D03*
X35600000Y-91250000D03*
X40600000Y-90750000D03*
X35600000Y-110300000D03*
X40600000Y-109800000D03*
X73700000Y-34100000D03*
X78700000Y-33600000D03*
X73700000Y-53150000D03*
X78700000Y-52650000D03*
X73700000Y-72200000D03*
X78700000Y-71700000D03*
X73700000Y-91250000D03*
X78700000Y-90750000D03*
X73700000Y-110300000D03*
X78700000Y-109800000D03*
X92750000Y-34100000D03*
X97750000Y-33600000D03*
X92750000Y-53150000D03*
X97750000Y-52650000D03*
X92750000Y-72200000D03*
X97750000Y-71700000D03*
X92750000Y-91250000D03*
X97750000Y-90750000D03*
X92750000Y-110300000D03*
X97750000Y-109800000D03*
X111800000Y-34100000D03*
X116800000Y-33600000D03*
X116562500Y-53150000D03*
X121562500Y-52650000D03*
X118943750Y-72200000D03*
X123943750Y-71700000D03*
X123706250Y-91250000D03*
X128706250Y-90750000D03*
X116562500Y-110300000D03*
X121562500Y-109800000D03*
X130850000Y-34100000D03*
X135850000Y-33600000D03*
X140375000Y-53150000D03*
X145375000Y-52650000D03*
X145137500Y-72200000D03*
X150137500Y-71700000D03*
X154662500Y-91250000D03*
X159662500Y-90750000D03*
X145137500Y-110300000D03*
X150137500Y-109800000D03*
X149900000Y-34100000D03*
X154900000Y-33600000D03*
X159425000Y-53150000D03*
X164425000Y-52650000D03*
X164187500Y-72200000D03*
X169187500Y-71700000D03*
X173712500Y-91250000D03*
X178712500Y-90750000D03*
X168950000Y-34100000D03*
X173950000Y-33600000D03*
X178475000Y-53150000D03*
X183475000Y-52650000D03*
X183237500Y-72200000D03*
X188237500Y-71700000D03*
X192762500Y-91250000D03*
X197762500Y-90750000D03*
X188000000Y-34100000D03*
X193000000Y-33600000D03*
X197525000Y-53150000D03*
X202525000Y-52650000D03*
X202287500Y-72200000D03*
X207287500Y-71700000D03*
X211812500Y-91250000D03*
X216812500Y-90750000D03*
X207050000Y-34100000D03*
X212050000Y-33600000D03*
X216575000Y-53150000D03*
X221575000Y-52650000D03*
X221337500Y-72200000D03*
X226337500Y-71700000D03*
X230862500Y-91250000D03*
X235862500Y-90750000D03*
X240387500Y-110300000D03*
X245387500Y-109800000D03*
X226100000Y-34100000D03*
X231100000Y-33600000D03*
X235625000Y-53150000D03*
X240625000Y-52650000D03*
X240387500Y-72200000D03*
X245387500Y-71700000D03*
X249912500Y-91250000D03*
X254912500Y-90750000D03*
X245150000Y-34100000D03*
X250150000Y-33600000D03*
X254675000Y-53150000D03*
X259675000Y-52650000D03*
X259437500Y-72200000D03*
X264437500Y-71700000D03*
X268962500Y-91250000D03*
X273962500Y-90750000D03*
X264200000Y-34100000D03*
X269200000Y-33600000D03*
X273725000Y-53150000D03*
X278725000Y-52650000D03*
X278487500Y-72200000D03*
X283487500Y-71700000D03*
X288012500Y-91250000D03*
X293012500Y-90750000D03*
X283250000Y-34100000D03*
X288250000Y-33600000D03*
X292775000Y-53150000D03*
X297775000Y-52650000D03*
X297537500Y-72200000D03*
X302537500Y-71700000D03*
X307062500Y-91250000D03*
X312062500Y-90750000D03*
X302300000Y-34100000D03*
X307300000Y-33600000D03*
X311825000Y-53150000D03*
X316825000Y-52650000D03*
X316587500Y-72200000D03*
X321587500Y-71700000D03*
X326112500Y-91250000D03*
X331112500Y-90750000D03*
X335637500Y-110300000D03*
X340637500Y-109800000D03*
X321350000Y-34100000D03*
X326350000Y-33600000D03*
X330875000Y-53150000D03*
X335875000Y-52650000D03*
X335637500Y-72200000D03*
X340637500Y-71700000D03*
X349925000Y-53150000D03*
X354925000Y-52650000D03*
X340400000Y-34100000D03*
X345400000Y-33600000D03*
X364212500Y-34100000D03*
X369212500Y-33600000D03*
D11*
X373250000Y-91000000D03*
D12*
X370710000Y-91000000D03*
D11*
X37250000Y-47625000D03*
D12*
X39790000Y-47625000D03*
D11*
X139750000Y-91000000D03*
D12*
X137210000Y-91000000D03*
D10*
X34100000Y-107275000D03*
X33600000Y-102275000D03*
X45125000Y-110300000D03*
X50125000Y-109800000D03*
X64175000Y-110300000D03*
X69175000Y-109800000D03*
X83225000Y-110300000D03*
X88225000Y-109800000D03*
X99250000Y-102275000D03*
X99750000Y-107275000D03*
X368975000Y-53150000D03*
X373975000Y-52650000D03*
X361831250Y-72200000D03*
X366831250Y-71700000D03*
X357068750Y-91250000D03*
X362068750Y-90750000D03*
X363975000Y-110300000D03*
X368975000Y-109800000D03*
X54650000Y-34100000D03*
X59650000Y-33600000D03*
X54650000Y-53150000D03*
X59650000Y-52650000D03*
X54650000Y-72200000D03*
X59650000Y-71700000D03*
X54650000Y-91250000D03*
X59650000Y-90750000D03*
X54650000Y-110300000D03*
X59650000Y-109800000D03*
D13*
X42862500Y-42131250D03*
X42862500Y-38831250D03*
X42862500Y-61181250D03*
X42862500Y-57881250D03*
X42862500Y-80231250D03*
X42862500Y-76931250D03*
X42862500Y-99281250D03*
X42862500Y-95981250D03*
X61912500Y-42131250D03*
X61912500Y-38831250D03*
X61912500Y-61181250D03*
X61912500Y-57881250D03*
X61912500Y-80231250D03*
X61912500Y-76931250D03*
X61912500Y-99281250D03*
X61912500Y-95981250D03*
X61912500Y-118331250D03*
X61912500Y-115031250D03*
X80962500Y-42131250D03*
X80962500Y-38831250D03*
X80962500Y-61181250D03*
X80962500Y-57881250D03*
X80962500Y-80231250D03*
X80962500Y-76931250D03*
X80962500Y-99281250D03*
X80962500Y-95981250D03*
X80962500Y-118331250D03*
X80962500Y-115031250D03*
X100012500Y-42131250D03*
X100012500Y-38831250D03*
X100012500Y-61181250D03*
X100012500Y-57881250D03*
X100012500Y-80231250D03*
X100012500Y-76931250D03*
X100012500Y-99281250D03*
X100012500Y-95981250D03*
X100012500Y-118331250D03*
X100012500Y-115031250D03*
X119062500Y-42131250D03*
X119062500Y-38831250D03*
X123825000Y-61181250D03*
X123825000Y-57881250D03*
X126206250Y-80231250D03*
X126206250Y-76931250D03*
X130968750Y-99281250D03*
X130968750Y-95981250D03*
X123825000Y-118331250D03*
X123825000Y-115031250D03*
X138112500Y-42131250D03*
X138112500Y-38831250D03*
X147637500Y-61181250D03*
X147637500Y-57881250D03*
X152400000Y-80231250D03*
X152400000Y-76931250D03*
X161925000Y-99281250D03*
X161925000Y-95981250D03*
X157162500Y-42131250D03*
X157162500Y-38831250D03*
X166687500Y-61181250D03*
X166687500Y-57881250D03*
X171450000Y-80231250D03*
X171450000Y-76931250D03*
X180975000Y-99281250D03*
X180975000Y-95981250D03*
X176212500Y-42131250D03*
X176212500Y-38831250D03*
X190500000Y-80231250D03*
X190500000Y-76931250D03*
X242887500Y-61181250D03*
X242887500Y-57881250D03*
X247650000Y-80231250D03*
X247650000Y-76931250D03*
X252412500Y-42131250D03*
X252412500Y-38831250D03*
X261937500Y-61181250D03*
X261937500Y-57881250D03*
X266700000Y-80231250D03*
X266700000Y-76931250D03*
X276225000Y-99281250D03*
X276225000Y-95981250D03*
X271462500Y-42131250D03*
X271462500Y-38831250D03*
X280987500Y-61181250D03*
X280987500Y-57881250D03*
X285750000Y-80231250D03*
X285750000Y-76931250D03*
X295275000Y-99281250D03*
X295275000Y-95981250D03*
X290512500Y-42131250D03*
X290512500Y-38831250D03*
X300037500Y-61181250D03*
X300037500Y-57881250D03*
X304800000Y-80231250D03*
X304800000Y-76931250D03*
X314325000Y-99281250D03*
X314325000Y-95981250D03*
X309562500Y-42131250D03*
X309562500Y-38831250D03*
X319087500Y-61181250D03*
X319087500Y-57881250D03*
X323850000Y-80231250D03*
X323850000Y-76931250D03*
X333375000Y-99281250D03*
X333375000Y-95981250D03*
X342900000Y-118331250D03*
X342900000Y-115031250D03*
X328612500Y-42131250D03*
X328612500Y-38831250D03*
X338137500Y-61181250D03*
X338137500Y-57881250D03*
X342900000Y-80231250D03*
X342900000Y-76931250D03*
X357187500Y-61181250D03*
X357187500Y-57881250D03*
X347662500Y-42131250D03*
X347662500Y-38831250D03*
X376237500Y-61181250D03*
X376237500Y-57881250D03*
D14*
X201137500Y-26175000D03*
D15*
X203187500Y-28575000D03*
X203987500Y-28575000D03*
X204787500Y-28575000D03*
X205587500Y-28575000D03*
X206387500Y-28575000D03*
D14*
X208437500Y-26175000D03*
D16*
X221800000Y-115750000D03*
X223700000Y-115750000D03*
D17*
X34250000Y-47625000D03*
X32425000Y-47625000D03*
D18*
X144500000Y-89662500D03*
X144500000Y-87837500D03*
X373250000Y-86662500D03*
X373250000Y-84837500D03*
D13*
X371475000Y-42131250D03*
X371475000Y-38831250D03*
X369093750Y-80231250D03*
X369093750Y-76931250D03*
X364331250Y-99281250D03*
X364331250Y-95981250D03*
X371475000Y-118331250D03*
X371475000Y-115031250D03*
D19*
X204787500Y-95568750D03*
D20*
X204787500Y-96768750D03*
D13*
X204787500Y-94518750D03*
D21*
X204787500Y-88968750D03*
D13*
X204787500Y-91218750D03*
D19*
X204787500Y-90168750D03*
D22*
X221250000Y-112200000D03*
X221250000Y-110300000D03*
D13*
X180975000Y-42131250D03*
D19*
X180975000Y-43181250D03*
D20*
X180975000Y-44381250D03*
D13*
X180975000Y-38831250D03*
D21*
X180975000Y-36581250D03*
D19*
X180975000Y-37781250D03*
D13*
X233362500Y-42131250D03*
X233362500Y-38831250D03*
D19*
X190500000Y-62231250D03*
D20*
X190500000Y-63431250D03*
D13*
X190500000Y-61181250D03*
X190500000Y-57881250D03*
D19*
X190500000Y-56831250D03*
D21*
X190500000Y-55631250D03*
D18*
X225500000Y-110912500D03*
X225500000Y-109087500D03*
X227750000Y-110912500D03*
X227750000Y-109087500D03*
D13*
X257175000Y-99281250D03*
X257175000Y-95981250D03*
X233362500Y-80231250D03*
D20*
X233362500Y-82481250D03*
D19*
X233362500Y-81281250D03*
X233362500Y-75881250D03*
D21*
X233362500Y-74681250D03*
D13*
X233362500Y-76931250D03*
X190500000Y-99281250D03*
X190500000Y-95981250D03*
X152400000Y-118331250D03*
X152400000Y-115031250D03*
X42862500Y-118331250D03*
X42862500Y-115031250D03*
D23*
X193950000Y-108000000D03*
X192050000Y-108000000D03*
D16*
X207550000Y-101000000D03*
X209450000Y-101000000D03*
D24*
X202500000Y-100087500D03*
X202500000Y-101912500D03*
D20*
X242887500Y-96768750D03*
D19*
X242887500Y-95568750D03*
D13*
X242887500Y-94518750D03*
D21*
X242887500Y-88968750D03*
D13*
X242887500Y-91218750D03*
D19*
X242887500Y-90168750D03*
D13*
X247650000Y-118331250D03*
X247650000Y-115031250D03*
D25*
X190150000Y-118200000D03*
X192350000Y-118200000D03*
X192350000Y-119800000D03*
X190150000Y-119800000D03*
D16*
X194300000Y-121250000D03*
X196200000Y-121250000D03*
D22*
X199250000Y-120950000D03*
X199250000Y-119050000D03*
D26*
X187500000Y-118050000D03*
X187500000Y-119950000D03*
D24*
X348500000Y-114337500D03*
X348500000Y-116162500D03*
D20*
X195262500Y-82481250D03*
D19*
X195262500Y-81281250D03*
D13*
X195262500Y-80231250D03*
D19*
X195262500Y-75881250D03*
D13*
X195262500Y-76931250D03*
D21*
X195262500Y-74681250D03*
D20*
X228600000Y-63431250D03*
D13*
X228600000Y-61181250D03*
D19*
X228600000Y-62231250D03*
D13*
X228600000Y-57881250D03*
D19*
X228600000Y-56831250D03*
D21*
X228600000Y-55631250D03*
D19*
X219075000Y-43181250D03*
D13*
X219075000Y-42131250D03*
D20*
X219075000Y-44381250D03*
D19*
X219075000Y-37781250D03*
D21*
X219075000Y-36581250D03*
D13*
X219075000Y-38831250D03*
D22*
X216500000Y-108700000D03*
X216500000Y-106800000D03*
D27*
X212082419Y-112425565D03*
X211516734Y-112991250D03*
X210951048Y-113556936D03*
X210385363Y-114122621D03*
X209819678Y-114688307D03*
X209253992Y-115253992D03*
X208688307Y-115819678D03*
X208122621Y-116385363D03*
X207556936Y-116951048D03*
X206991250Y-117516734D03*
X206425565Y-118082419D03*
D28*
X204074435Y-118082419D03*
X203508750Y-117516734D03*
X202943064Y-116951048D03*
X202377379Y-116385363D03*
X201811693Y-115819678D03*
X201246008Y-115253992D03*
X200680322Y-114688307D03*
X200114637Y-114122621D03*
X199548952Y-113556936D03*
X198983266Y-112991250D03*
X198417581Y-112425565D03*
D27*
X198417581Y-110074435D03*
X198983266Y-109508750D03*
X199548952Y-108943064D03*
X200114637Y-108377379D03*
X200680322Y-107811693D03*
X201246008Y-107246008D03*
X201811693Y-106680322D03*
X202377379Y-106114637D03*
X202943064Y-105548952D03*
X203508750Y-104983266D03*
X204074435Y-104417581D03*
D28*
X206425565Y-104417581D03*
X206991250Y-104983266D03*
X207556936Y-105548952D03*
X208122621Y-106114637D03*
X208688307Y-106680322D03*
X209253992Y-107246008D03*
X209819678Y-107811693D03*
X210385363Y-108377379D03*
X210951048Y-108943064D03*
X211516734Y-109508750D03*
X212082419Y-110074435D03*
D29*
X355500000Y-110750000D03*
X355500000Y-117250000D03*
D13*
X185737500Y-61181250D03*
X185737500Y-57881250D03*
D30*
X182999988Y-108000000D03*
X170000003Y-95000003D03*
X194250000Y-118500000D03*
X221250000Y-106750000D03*
X376000000Y-86000000D03*
X218250000Y-106750000D03*
X228500000Y-106750000D03*
D31*
X205750000Y-101000000D03*
X216500000Y-111250000D03*
X197000000Y-119500000D03*
X216000000Y-117500000D03*
X194000000Y-106000000D03*
X194125001Y-110124999D03*
X223500000Y-111250000D03*
D30*
X196000000Y-48000000D03*
X192750000Y-98250000D03*
X138999996Y-85249996D03*
X361750000Y-104500000D03*
X174000000Y-112500000D03*
X157500000Y-100750000D03*
X179250000Y-102250000D03*
X206500000Y-78500000D03*
X216499996Y-94250000D03*
X231749986Y-106250000D03*
X203750000Y-85250000D03*
X204750000Y-86500000D03*
X279506250Y-104256250D03*
X297250000Y-105000000D03*
X319250000Y-104750000D03*
X333000000Y-105000008D03*
X197500000Y-94250006D03*
X233500000Y-92250000D03*
D32*
X187500000Y-118000000D02*
X189950000Y-118000000D01*
X189950000Y-118000000D02*
X190150000Y-118200000D01*
X191250000Y-117000000D02*
X199500000Y-117000000D01*
X190150000Y-118200000D02*
X190150000Y-118100000D01*
X190150000Y-118100000D02*
X191250000Y-117000000D01*
X199500000Y-117000000D02*
X199750000Y-116750000D01*
X199750000Y-116750000D02*
X201113425Y-115386575D01*
X189950000Y-120000000D02*
X190150000Y-119800000D01*
X187500000Y-120000000D02*
X189950000Y-120000000D01*
D33*
X190150000Y-119800000D02*
X190450000Y-119800000D01*
X192350000Y-118200000D02*
X192050000Y-118200000D01*
X190450000Y-119800000D02*
X192050000Y-118200000D01*
D32*
X199250000Y-119000000D02*
X199762742Y-119000000D01*
X162800000Y-87800000D02*
X170000003Y-95000003D01*
X207123833Y-104850684D02*
X209500000Y-102474517D01*
X214275483Y-106750000D02*
X218250000Y-106750000D01*
X209500000Y-102474517D02*
X209500000Y-101000000D01*
X211649316Y-109376167D02*
X214275483Y-106750000D01*
X204500000Y-33000000D02*
X204500000Y-40750000D01*
X228500000Y-88250000D02*
X228500000Y-106750000D01*
X206387500Y-28575000D02*
X206387500Y-31112500D01*
X374800000Y-84800000D02*
X376000000Y-86000000D01*
X144500000Y-87800000D02*
X34800000Y-87800000D01*
X210500000Y-64000000D02*
X215750000Y-69250000D01*
X374800000Y-84800000D02*
X373250000Y-84800000D01*
X30750000Y-49262500D02*
X32387500Y-47625000D01*
X204500000Y-40750000D02*
X210500000Y-46750000D01*
X144500000Y-87800000D02*
X162800000Y-87800000D01*
X30750000Y-83750000D02*
X30750000Y-49262500D01*
X221250000Y-110250000D02*
X221250000Y-106750000D01*
X193950000Y-118200000D02*
X194250000Y-118500000D01*
X199762742Y-119000000D02*
X202244796Y-116517946D01*
X215750000Y-75500000D02*
X228500000Y-88250000D01*
X206387500Y-31112500D02*
X204500000Y-33000000D01*
X210500000Y-46750000D02*
X210500000Y-64000000D01*
X192350000Y-118200000D02*
X193950000Y-118200000D01*
X34800000Y-87800000D02*
X30750000Y-83750000D01*
X215750000Y-69250000D02*
X215750000Y-75500000D01*
X182999988Y-108000000D02*
X192000000Y-108000000D01*
X183000002Y-108000000D02*
X182999988Y-108000000D01*
X192350000Y-120600000D02*
X193000000Y-121250000D01*
X193000000Y-121250000D02*
X194250000Y-121250000D01*
X192350000Y-119800000D02*
X192350000Y-120600000D01*
X196500000Y-117750000D02*
X194450000Y-119800000D01*
X194450000Y-119800000D02*
X192350000Y-119800000D01*
X201679111Y-115952260D02*
X199881371Y-117750000D01*
X201785177Y-115846194D02*
X201653806Y-115846194D01*
X199881371Y-117750000D02*
X196500000Y-117750000D01*
D34*
X212108936Y-110047918D02*
X212156854Y-110000000D01*
X212525483Y-114000000D02*
X218250000Y-114000000D01*
X211649316Y-113123833D02*
X212525483Y-114000000D01*
X216000000Y-117500000D02*
X232500000Y-117500000D01*
X207000000Y-48250000D02*
X207000000Y-65500000D01*
X201000000Y-118894113D02*
X202810482Y-117083631D01*
X194124999Y-110124999D02*
X194125001Y-110124999D01*
X200750000Y-32000000D02*
X200750000Y-42000000D01*
X200750000Y-42000000D02*
X207000000Y-48250000D01*
X213406854Y-108750000D02*
X212215002Y-109941852D01*
X198850684Y-109376167D02*
X197474517Y-108000000D01*
X210368629Y-117500000D02*
X215434315Y-117500000D01*
X223500000Y-88250000D02*
X223500000Y-111250000D01*
X237500000Y-103250000D02*
X344250000Y-103250000D01*
X203187500Y-29562500D02*
X200750000Y-32000000D01*
X218250000Y-114000000D02*
X220000000Y-112250000D01*
X194000000Y-108000000D02*
X194000000Y-110000000D01*
X234000000Y-116000000D02*
X234000000Y-106750000D01*
X344250000Y-103250000D02*
X348500000Y-107500000D01*
X215434315Y-117500000D02*
X216000000Y-117500000D01*
X212000000Y-70500000D02*
X212000000Y-76750000D01*
X201000000Y-120000000D02*
X201000000Y-118894113D01*
X200000000Y-121000000D02*
X201000000Y-120000000D01*
X220000000Y-112250000D02*
X221250000Y-112250000D01*
X232500000Y-117500000D02*
X234000000Y-116000000D01*
X199250000Y-121000000D02*
X200000000Y-121000000D01*
X216750000Y-108750000D02*
X213406854Y-108750000D01*
X197474517Y-108000000D02*
X194000000Y-108000000D01*
X216500000Y-108750000D02*
X216500000Y-111250000D01*
X198500000Y-121000000D02*
X197000000Y-119500000D01*
X207000000Y-65500000D02*
X212000000Y-70500000D01*
X234000000Y-106750000D02*
X237500000Y-103250000D01*
X221250000Y-112250000D02*
X222500000Y-112250000D01*
X194000000Y-110000000D02*
X194124999Y-110124999D01*
X348500000Y-107500000D02*
X348500000Y-114300000D01*
X203187500Y-28575000D02*
X203187500Y-29562500D01*
X205750000Y-101000000D02*
X207500000Y-101000000D01*
X212000000Y-76750000D02*
X223500000Y-88250000D01*
X199250000Y-121000000D02*
X198500000Y-121000000D01*
X207500000Y-103343146D02*
X206558148Y-104284998D01*
X208820889Y-115952260D02*
X210368629Y-117500000D01*
X222500000Y-112250000D02*
X223500000Y-111250000D01*
X207500000Y-103343146D02*
X207500000Y-101000000D01*
X194000000Y-106000000D02*
X194000000Y-108000000D01*
D32*
X210500000Y-116500000D02*
X219750000Y-116500000D01*
X219750000Y-116500000D02*
X220500000Y-115750000D01*
X209386575Y-115386575D02*
X210500000Y-116500000D01*
X220500000Y-115750000D02*
X221750000Y-115750000D01*
X42862500Y-38831250D02*
X42862500Y-35862500D01*
X42862500Y-35862500D02*
X40600000Y-33600000D01*
X61912500Y-35862500D02*
X59650000Y-33600000D01*
X61912500Y-38831250D02*
X61912500Y-35862500D01*
X80962500Y-38831250D02*
X80962500Y-35862500D01*
X80962500Y-35862500D02*
X78700000Y-33600000D01*
X100012500Y-35862500D02*
X97750000Y-33600000D01*
X100012500Y-38831250D02*
X100012500Y-35862500D01*
X119062500Y-38831250D02*
X119062500Y-35862500D01*
X119062500Y-35862500D02*
X116800000Y-33600000D01*
X42862500Y-57881250D02*
X42862500Y-54912500D01*
X42862500Y-54912500D02*
X40600000Y-52650000D01*
X61912500Y-57881250D02*
X61912500Y-54912500D01*
X61912500Y-54912500D02*
X59650000Y-52650000D01*
X80962500Y-57881250D02*
X80962500Y-54912500D01*
X80962500Y-54912500D02*
X78700000Y-52650000D01*
X100012500Y-57881250D02*
X100012500Y-54912500D01*
X100012500Y-54912500D02*
X97750000Y-52650000D01*
X123825000Y-57881250D02*
X123825000Y-54912500D01*
X123825000Y-54912500D02*
X121562500Y-52650000D01*
X42862500Y-73962500D02*
X40600000Y-71700000D01*
X42862500Y-76931250D02*
X42862500Y-73962500D01*
X61912500Y-76931250D02*
X61912500Y-73962500D01*
X61912500Y-73962500D02*
X59650000Y-71700000D01*
X80962500Y-73962500D02*
X78700000Y-71700000D01*
X80962500Y-76931250D02*
X80962500Y-73962500D01*
X100012500Y-76931250D02*
X100012500Y-73962500D01*
X100012500Y-73962500D02*
X97750000Y-71700000D01*
X126206250Y-76931250D02*
X126206250Y-73962500D01*
X126206250Y-73962500D02*
X123943750Y-71700000D01*
X42862500Y-93012500D02*
X40600000Y-90750000D01*
X42862500Y-95981250D02*
X39893750Y-95981250D01*
X42862500Y-95981250D02*
X42862500Y-93012500D01*
X39893750Y-95981250D02*
X33600000Y-102275000D01*
X61912500Y-95981250D02*
X61912500Y-93012500D01*
X61912500Y-93012500D02*
X59650000Y-90750000D01*
X80962500Y-93012500D02*
X78700000Y-90750000D01*
X80962500Y-95981250D02*
X80962500Y-93012500D01*
X97750000Y-93718750D02*
X100012500Y-95981250D01*
X97750000Y-90750000D02*
X97750000Y-93718750D01*
X130968750Y-93012500D02*
X128706250Y-90750000D01*
X130968750Y-95981250D02*
X130968750Y-93012500D01*
X44893750Y-115031250D02*
X50125000Y-109800000D01*
X42862500Y-115031250D02*
X42862500Y-112062500D01*
X42862500Y-112062500D02*
X40600000Y-109800000D01*
X42862500Y-115031250D02*
X44893750Y-115031250D01*
X61912500Y-115031250D02*
X61912500Y-112062500D01*
X61912500Y-115031250D02*
X63943750Y-115031250D01*
X61912500Y-112062500D02*
X59650000Y-109800000D01*
X63943750Y-115031250D02*
X69175000Y-109800000D01*
X82993750Y-115031250D02*
X88225000Y-109800000D01*
X80962500Y-115031250D02*
X82993750Y-115031250D01*
X78700000Y-112768750D02*
X80962500Y-115031250D01*
X78700000Y-109800000D02*
X78700000Y-112768750D01*
X97750000Y-109800000D02*
X97750000Y-112768750D01*
X97750000Y-112768750D02*
X100012500Y-115031250D01*
X123825000Y-115031250D02*
X123825000Y-112062500D01*
X123825000Y-112062500D02*
X121562500Y-109800000D01*
X328612500Y-42131250D02*
X342118750Y-42131250D01*
X221000000Y-103000000D02*
X221000000Y-89000000D01*
X209500000Y-70500000D02*
X205000000Y-66000000D01*
X356631250Y-42131250D02*
X371475000Y-42131250D01*
X205000000Y-51000000D02*
X202000000Y-48000000D01*
X219750000Y-110250000D02*
X219750000Y-104250000D01*
X219750000Y-104250000D02*
X221000000Y-103000000D01*
X176212500Y-42131250D02*
X180975000Y-42131250D01*
X61912500Y-42131250D02*
X176212500Y-42131250D01*
X202000000Y-48000000D02*
X196000000Y-48000000D01*
X342118750Y-42131250D02*
X343750000Y-40500000D01*
X209500000Y-77500000D02*
X209500000Y-70500000D01*
X212215002Y-112558148D02*
X212656854Y-113000000D01*
X355000000Y-40500000D02*
X356631250Y-42131250D01*
X217000000Y-113000000D02*
X219750000Y-110250000D01*
X343750000Y-40500000D02*
X355000000Y-40500000D01*
X205000000Y-66000000D02*
X205000000Y-51000000D01*
X212656854Y-113000000D02*
X217000000Y-113000000D01*
X328612500Y-42131250D02*
X233362500Y-42131250D01*
X221000000Y-89000000D02*
X209500000Y-77500000D01*
X42862500Y-42131250D02*
X61912500Y-42131250D01*
X233362500Y-42131250D02*
X219075000Y-42131250D01*
X138112500Y-35862500D02*
X135850000Y-33600000D01*
X138112500Y-38831250D02*
X138112500Y-35862500D01*
X157162500Y-38831250D02*
X157162500Y-35862500D01*
X157162500Y-35862500D02*
X154900000Y-33600000D01*
X176212500Y-38831250D02*
X176212500Y-35862500D01*
X176212500Y-35862500D02*
X173950000Y-33600000D01*
X212050000Y-33600000D02*
X216093750Y-33600000D01*
X216093750Y-33600000D02*
X219075000Y-36581250D01*
X233362500Y-38831250D02*
X233362500Y-35862500D01*
X233362500Y-35862500D02*
X231100000Y-33600000D01*
X252412500Y-35862500D02*
X250150000Y-33600000D01*
X252412500Y-38831250D02*
X252412500Y-35862500D01*
X271462500Y-38831250D02*
X271462500Y-35862500D01*
X271462500Y-35862500D02*
X269200000Y-33600000D01*
X290512500Y-38831250D02*
X290512500Y-35862500D01*
X290512500Y-35862500D02*
X288250000Y-33600000D01*
X309562500Y-35862500D02*
X307300000Y-33600000D01*
X309562500Y-38831250D02*
X309562500Y-35862500D01*
X328612500Y-35862500D02*
X326350000Y-33600000D01*
X328612500Y-38831250D02*
X328612500Y-35862500D01*
X371475000Y-35862500D02*
X369212500Y-33600000D01*
X371475000Y-38831250D02*
X371475000Y-35862500D01*
X367931250Y-61181250D02*
X376237500Y-61181250D01*
X185737500Y-61181250D02*
X190500000Y-61181250D01*
X338137500Y-61181250D02*
X242887500Y-61181250D01*
X242887500Y-61181250D02*
X228600000Y-61181250D01*
X212250000Y-94500000D02*
X209000000Y-91250000D01*
X343750000Y-59500000D02*
X366250000Y-59500000D01*
X366250000Y-59500000D02*
X367931250Y-61181250D01*
X338137500Y-61181250D02*
X342068750Y-61181250D01*
X209000000Y-91250000D02*
X209000000Y-87500000D01*
X198250000Y-76750000D02*
X198250000Y-71181250D01*
X198250000Y-71181250D02*
X190500000Y-63431250D01*
X42862500Y-61181250D02*
X185737500Y-61181250D01*
X212250000Y-103118629D02*
X212250000Y-94500000D01*
X208714823Y-106653806D02*
X212250000Y-103118629D01*
X209000000Y-87500000D02*
X198250000Y-76750000D01*
X342068750Y-61181250D02*
X343750000Y-59500000D01*
X147637500Y-54912500D02*
X145375000Y-52650000D01*
X147637500Y-57881250D02*
X147637500Y-54912500D01*
X166687500Y-57881250D02*
X166687500Y-54912500D01*
X166687500Y-54912500D02*
X164425000Y-52650000D01*
X185737500Y-57881250D02*
X185737500Y-54912500D01*
X185737500Y-54912500D02*
X183475000Y-52650000D01*
X225618750Y-52650000D02*
X228600000Y-55631250D01*
X221575000Y-52650000D02*
X225618750Y-52650000D01*
X242887500Y-54912500D02*
X240625000Y-52650000D01*
X242887500Y-57881250D02*
X242887500Y-54912500D01*
X261937500Y-54912500D02*
X259675000Y-52650000D01*
X261937500Y-57881250D02*
X261937500Y-54912500D01*
X280987500Y-57881250D02*
X280987500Y-54912500D01*
X280987500Y-54912500D02*
X278725000Y-52650000D01*
X300037500Y-57881250D02*
X300037500Y-54912500D01*
X300037500Y-54912500D02*
X297775000Y-52650000D01*
X319087500Y-57881250D02*
X319087500Y-54912500D01*
X319087500Y-54912500D02*
X316825000Y-52650000D01*
X338137500Y-57881250D02*
X338137500Y-54912500D01*
X338137500Y-54912500D02*
X335875000Y-52650000D01*
X376237500Y-57881250D02*
X376237500Y-54912500D01*
X376237500Y-54912500D02*
X373975000Y-52650000D01*
X208255204Y-105982054D02*
X211500000Y-102737258D01*
X211500000Y-95000000D02*
X208250000Y-91750000D01*
X190500000Y-80231250D02*
X195262500Y-80231250D01*
X342900000Y-80231250D02*
X369093750Y-80231250D01*
X208250000Y-88000000D02*
X204000000Y-83750000D01*
X42862500Y-80231250D02*
X190500000Y-80231250D01*
X204000000Y-83750000D02*
X196531250Y-83750000D01*
X247650000Y-80231250D02*
X233362500Y-80231250D01*
X342900000Y-80231250D02*
X247650000Y-80231250D01*
X208250000Y-91750000D02*
X208250000Y-88000000D01*
X196531250Y-83750000D02*
X195262500Y-82481250D01*
X211500000Y-102737258D02*
X211500000Y-95000000D01*
X152400000Y-76931250D02*
X152400000Y-73962500D01*
X152400000Y-73962500D02*
X150137500Y-71700000D01*
X171450000Y-76931250D02*
X171450000Y-73962500D01*
X171450000Y-73962500D02*
X169187500Y-71700000D01*
X190500000Y-73962500D02*
X188237500Y-71700000D01*
X190500000Y-76931250D02*
X190500000Y-73962500D01*
X230381250Y-71700000D02*
X233362500Y-74681250D01*
X226337500Y-71700000D02*
X230381250Y-71700000D01*
X247650000Y-73962500D02*
X245387500Y-71700000D01*
X247650000Y-76931250D02*
X247650000Y-73962500D01*
X266700000Y-73962500D02*
X264437500Y-71700000D01*
X266700000Y-76931250D02*
X266700000Y-73962500D01*
X285750000Y-76931250D02*
X285750000Y-73962500D01*
X285750000Y-73962500D02*
X283487500Y-71700000D01*
X304800000Y-76931250D02*
X304800000Y-73962500D01*
X304800000Y-73962500D02*
X302537500Y-71700000D01*
X323850000Y-73962500D02*
X321587500Y-71700000D01*
X323850000Y-76931250D02*
X323850000Y-73962500D01*
X342900000Y-76931250D02*
X342900000Y-73962500D01*
X342900000Y-73962500D02*
X340637500Y-71700000D01*
X369093750Y-73962500D02*
X366831250Y-71700000D01*
X369093750Y-76931250D02*
X369093750Y-73962500D01*
X378000000Y-76750000D02*
X362431250Y-61181250D01*
X190500000Y-99281250D02*
X191718750Y-99281250D01*
X372218750Y-99281250D02*
X378000000Y-93500000D01*
X42862500Y-99281250D02*
X180975000Y-99281250D01*
X191718750Y-99281250D02*
X192750000Y-98250000D01*
X206768750Y-98750000D02*
X204787500Y-96768750D01*
X364331250Y-99281250D02*
X372218750Y-99281250D01*
X245400000Y-99281250D02*
X242887500Y-96768750D01*
X190500000Y-99281250D02*
X180975000Y-99281250D01*
X362431250Y-61181250D02*
X357187500Y-61181250D01*
X207689518Y-105416369D02*
X210750000Y-102355887D01*
X210750000Y-102355887D02*
X210750000Y-99500000D01*
X257175000Y-99281250D02*
X328522078Y-99281250D01*
X378000000Y-93500000D02*
X378000000Y-76750000D01*
X210000000Y-98750000D02*
X206768750Y-98750000D01*
X210750000Y-99500000D02*
X210000000Y-98750000D01*
X328522078Y-99281250D02*
X364331250Y-99281250D01*
X257175000Y-99281250D02*
X245400000Y-99281250D01*
X208500000Y-47750000D02*
X208500000Y-65000000D01*
X203987500Y-28575000D02*
X203987500Y-30512500D01*
X226250000Y-107750000D02*
X225500000Y-108500000D01*
X202250000Y-32250000D02*
X202250000Y-41500000D01*
X208500000Y-65000000D02*
X213500000Y-70000000D01*
X213500000Y-76250000D02*
X226250000Y-89000000D01*
X213500000Y-70000000D02*
X213500000Y-76250000D01*
X225500000Y-108500000D02*
X225500000Y-109050000D01*
X203987500Y-30512500D02*
X202250000Y-32250000D01*
X226250000Y-89000000D02*
X226250000Y-107750000D01*
X202250000Y-41500000D02*
X208500000Y-47750000D01*
X214250000Y-76000000D02*
X227000000Y-88750000D01*
X209250000Y-64750000D02*
X214250000Y-69750000D01*
X204787500Y-28575000D02*
X204787500Y-30712500D01*
X214250000Y-69750000D02*
X214250000Y-76000000D01*
X227000000Y-107750000D02*
X227750000Y-108500000D01*
X203000000Y-41250000D02*
X209250000Y-47500000D01*
X203000000Y-32500000D02*
X203000000Y-41250000D01*
X204787500Y-30712500D02*
X203000000Y-32500000D01*
X227750000Y-108500000D02*
X227750000Y-109050000D01*
X209250000Y-47500000D02*
X209250000Y-64750000D01*
X227000000Y-88750000D02*
X227000000Y-107750000D01*
X161925000Y-95981250D02*
X161925000Y-93012500D01*
X161925000Y-93012500D02*
X159662500Y-90750000D01*
X180975000Y-95981250D02*
X180975000Y-93012500D01*
X180975000Y-93012500D02*
X178712500Y-90750000D01*
X197762500Y-90750000D02*
X192531250Y-95981250D01*
X192531250Y-95981250D02*
X190500000Y-95981250D01*
X237643750Y-88968750D02*
X235862500Y-90750000D01*
X242887500Y-88968750D02*
X237643750Y-88968750D01*
X257175000Y-93012500D02*
X254912500Y-90750000D01*
X257175000Y-95981250D02*
X257175000Y-93012500D01*
X276225000Y-95981250D02*
X276225000Y-93012500D01*
X276225000Y-93012500D02*
X273962500Y-90750000D01*
X295275000Y-93012500D02*
X293012500Y-90750000D01*
X295275000Y-95981250D02*
X295275000Y-93012500D01*
X314325000Y-93012500D02*
X312062500Y-90750000D01*
X314325000Y-95981250D02*
X314325000Y-93012500D01*
X357187500Y-57881250D02*
X357187500Y-54912500D01*
X357187500Y-54912500D02*
X354925000Y-52650000D01*
X364331250Y-93012500D02*
X362068750Y-90750000D01*
X364331250Y-95981250D02*
X364331250Y-93012500D01*
X376500000Y-44000000D02*
X379000000Y-46500000D01*
X379000000Y-46500000D02*
X379000000Y-116000000D01*
X379000000Y-116000000D02*
X376668750Y-118331250D01*
X240750000Y-123000000D02*
X157068750Y-123000000D01*
X359418750Y-118331250D02*
X361950000Y-118331250D01*
X171168750Y-118331250D02*
X152400000Y-118331250D01*
X157068750Y-123000000D02*
X152400000Y-118331250D01*
X351250000Y-44000000D02*
X349381250Y-42131250D01*
X152400000Y-118331250D02*
X42862500Y-118331250D01*
X357750000Y-120000000D02*
X359418750Y-118331250D01*
X349331250Y-118331250D02*
X351000000Y-120000000D01*
X349381250Y-42131250D02*
X347662500Y-42131250D01*
X199118629Y-116250000D02*
X173250000Y-116250000D01*
X245418750Y-118331250D02*
X240750000Y-123000000D01*
X376500000Y-44000000D02*
X351250000Y-44000000D01*
X351000000Y-120000000D02*
X357750000Y-120000000D01*
X200653806Y-114714823D02*
X199118629Y-116250000D01*
X247650000Y-118331250D02*
X245418750Y-118331250D01*
X361950000Y-118331250D02*
X376668750Y-118331250D01*
X333375000Y-118331250D02*
X349331250Y-118331250D01*
X173250000Y-116250000D02*
X171168750Y-118331250D01*
X333375000Y-118331250D02*
X247650000Y-118331250D01*
X34287500Y-47625000D02*
X37250000Y-47625000D01*
X201679111Y-106547740D02*
X198250000Y-103118629D01*
X198000000Y-86250000D02*
X44750000Y-86250000D01*
X38250000Y-50500000D02*
X39790000Y-48960000D01*
X44750000Y-86250000D02*
X38250000Y-79750000D01*
X200000000Y-88250000D02*
X198000000Y-86250000D01*
X200000000Y-93750000D02*
X200000000Y-88250000D01*
X198250000Y-103118629D02*
X198250000Y-95500000D01*
X38250000Y-79750000D02*
X38250000Y-50500000D01*
X198250000Y-95500000D02*
X200000000Y-93750000D01*
X39790000Y-48960000D02*
X39790000Y-47625000D01*
X143200000Y-91000000D02*
X144500000Y-89700000D01*
X139750000Y-91000000D02*
X143200000Y-91000000D01*
X198249996Y-85249996D02*
X138999996Y-85249996D01*
X200750000Y-87750000D02*
X198249996Y-85249996D01*
X200750000Y-94250000D02*
X200750000Y-87750000D01*
X202244796Y-105982054D02*
X199500000Y-103237258D01*
X199500000Y-103237258D02*
X199500000Y-95500000D01*
X199500000Y-95500000D02*
X200750000Y-94250000D01*
X373250000Y-86700000D02*
X373250000Y-91000000D01*
X361750000Y-104500000D02*
X357750000Y-108500000D01*
X245000000Y-116250000D02*
X239750000Y-121500000D01*
X203000000Y-120250000D02*
X203000000Y-119156854D01*
X357750000Y-108500000D02*
X357750000Y-112250000D01*
X239750000Y-121500000D02*
X204250000Y-121500000D01*
X354750000Y-115250000D02*
X345875000Y-115250000D01*
X357750000Y-112250000D02*
X354750000Y-115250000D01*
X203000000Y-119156854D02*
X204047918Y-118108936D01*
X345875000Y-115250000D02*
X344875000Y-116250000D01*
X204250000Y-121500000D02*
X203000000Y-120250000D01*
X344875000Y-116250000D02*
X245000000Y-116250000D01*
X225750000Y-113500000D02*
X226250000Y-113000000D01*
X210977565Y-113583452D02*
X212394113Y-115000000D01*
X226250000Y-113000000D02*
X226250000Y-112250000D01*
X218750000Y-115000000D02*
X220250000Y-113500000D01*
X225500000Y-111500000D02*
X225500000Y-110950000D01*
X220250000Y-113500000D02*
X225750000Y-113500000D01*
X226250000Y-112250000D02*
X225500000Y-111500000D01*
X212394113Y-115000000D02*
X218750000Y-115000000D01*
X220500000Y-114250000D02*
X226000000Y-114250000D01*
X227000000Y-113250000D02*
X227000000Y-112250000D01*
X227000000Y-112250000D02*
X227750000Y-111500000D01*
X226000000Y-114250000D02*
X227000000Y-113250000D01*
X211506371Y-115243629D02*
X212012742Y-115750000D01*
X210411880Y-114149138D02*
X211506371Y-115243629D01*
X227750000Y-111500000D02*
X227750000Y-110950000D01*
X212012742Y-115750000D02*
X219000000Y-115750000D01*
X219000000Y-115750000D02*
X220500000Y-114250000D01*
X202500000Y-102843146D02*
X203941852Y-104284998D01*
X202500000Y-101950000D02*
X202500000Y-102843146D01*
D35*
X342900000Y-115031250D02*
X342900000Y-112062500D01*
X342900000Y-112062500D02*
X340637500Y-109800000D01*
D32*
X347662500Y-35862500D02*
X345400000Y-33600000D01*
X347662500Y-38831250D02*
X347662500Y-35862500D01*
X34100000Y-108800000D02*
X34100000Y-107275000D01*
X172750000Y-115500000D02*
X171000000Y-117250000D01*
X199982054Y-114255204D02*
X198737258Y-115500000D01*
X42550000Y-117250000D02*
X35600000Y-110300000D01*
X35600000Y-110300000D02*
X34100000Y-108800000D01*
X171000000Y-117250000D02*
X42550000Y-117250000D01*
X42100000Y-107275000D02*
X45125000Y-110300000D01*
X34100000Y-107275000D02*
X42100000Y-107275000D01*
X198737258Y-115500000D02*
X172750000Y-115500000D01*
X60600000Y-116250000D02*
X54650000Y-110300000D01*
X199416369Y-113689518D02*
X198355887Y-114750000D01*
X57450000Y-107500000D02*
X61375000Y-107500000D01*
X61375000Y-107500000D02*
X64175000Y-110300000D01*
X54650000Y-110300000D02*
X57450000Y-107500000D01*
X170750000Y-116250000D02*
X60600000Y-116250000D01*
X198355887Y-114750000D02*
X172250000Y-114750000D01*
X172250000Y-114750000D02*
X170750000Y-116250000D01*
X197974517Y-114000000D02*
X173250000Y-114000000D01*
X198956750Y-113017767D02*
X197974517Y-114000000D01*
X88275000Y-105250000D02*
X83225000Y-110300000D01*
X164500000Y-105250000D02*
X88275000Y-105250000D01*
X173250000Y-114000000D02*
X164500000Y-105250000D01*
X352000000Y-117250000D02*
X355500000Y-117250000D01*
X240250000Y-122250000D02*
X245250000Y-117250000D01*
X202250000Y-118775483D02*
X202250000Y-120750000D01*
X203750000Y-122250000D02*
X240250000Y-122250000D01*
X350950000Y-116200000D02*
X352000000Y-117250000D01*
X202250000Y-120750000D02*
X203750000Y-122250000D01*
X203376167Y-117649316D02*
X202250000Y-118775483D01*
X346300000Y-116200000D02*
X350950000Y-116200000D01*
X345250000Y-117250000D02*
X346300000Y-116200000D01*
X245250000Y-117250000D02*
X345250000Y-117250000D01*
X199522435Y-108916548D02*
X194855887Y-104250000D01*
X194855887Y-104250000D02*
X101225000Y-104250000D01*
X101225000Y-104250000D02*
X99250000Y-102275000D01*
X198391064Y-112452082D02*
X197843146Y-113000000D01*
X197843146Y-113000000D02*
X197593146Y-113250000D01*
X198284998Y-112558148D02*
X197843146Y-113000000D01*
X197593146Y-113250000D02*
X174750000Y-113250000D01*
X174750000Y-113250000D02*
X174000000Y-112500000D01*
X194987258Y-103250000D02*
X160000000Y-103250000D01*
X199982054Y-108244796D02*
X194987258Y-103250000D01*
X160000000Y-103250000D02*
X157500000Y-100750000D01*
X179250000Y-102250000D02*
X195250000Y-102250000D01*
X200547740Y-107547740D02*
X195250000Y-102250000D01*
X200547740Y-107679111D02*
X200547740Y-107547740D01*
X220250000Y-102500000D02*
X220250000Y-89500000D01*
X210517946Y-108244796D02*
X213500000Y-105262742D01*
X220250000Y-89500000D02*
X209250000Y-78500000D01*
X209250000Y-78500000D02*
X206500000Y-78500000D01*
X217487258Y-105262742D02*
X220250000Y-102500000D01*
X213500000Y-105262742D02*
X217487258Y-105262742D01*
X213131371Y-104500000D02*
X217000000Y-104500000D01*
X188000000Y-43625000D02*
X197525000Y-53150000D01*
X218250000Y-103250000D02*
X218250000Y-94250000D01*
X209952260Y-107679111D02*
X213131371Y-104500000D01*
X213312500Y-92750000D02*
X211812500Y-91250000D01*
X216750000Y-92750000D02*
X213312500Y-92750000D01*
X202287500Y-57912500D02*
X197525000Y-53150000D01*
X218250000Y-94250000D02*
X216750000Y-92750000D01*
X202287500Y-72200000D02*
X202287500Y-57912500D01*
X217000000Y-104500000D02*
X218250000Y-103250000D01*
X211812500Y-91250000D02*
X211812500Y-89062500D01*
X188000000Y-34100000D02*
X188000000Y-43625000D01*
X202287500Y-79537500D02*
X202287500Y-72200000D01*
X211812500Y-89062500D02*
X202287500Y-79537500D01*
X216499996Y-100000004D02*
X216499996Y-94674264D01*
X230862500Y-91250000D02*
X230862500Y-105362514D01*
X230862500Y-81725000D02*
X221337500Y-72200000D01*
X216575000Y-53150000D02*
X216575000Y-43625000D01*
X230862500Y-91250000D02*
X230862500Y-81725000D01*
X216499996Y-94674264D02*
X216499996Y-94250000D01*
X209386575Y-107113425D02*
X216499996Y-100000004D01*
X221337500Y-72200000D02*
X221337500Y-57912500D01*
X221337500Y-57912500D02*
X216575000Y-53150000D01*
X230862500Y-105362514D02*
X231749986Y-106250000D01*
X216575000Y-43625000D02*
X207050000Y-34100000D01*
X202810482Y-105416369D02*
X200250000Y-102855887D01*
X201500000Y-94750000D02*
X201500000Y-87500000D01*
X200250000Y-102855887D02*
X200250000Y-96000000D01*
X200250000Y-96000000D02*
X201500000Y-94750000D01*
X201500000Y-87500000D02*
X203750000Y-85250000D01*
X201000000Y-102474517D02*
X201000000Y-96375000D01*
X202287500Y-88962500D02*
X204750000Y-86500000D01*
X203376167Y-104850684D02*
X201000000Y-102474517D01*
X201000000Y-96375000D02*
X202287500Y-95087500D01*
X202287500Y-95087500D02*
X202287500Y-88962500D01*
X236750000Y-115250000D02*
X236750000Y-107500000D01*
X278512500Y-105250000D02*
X279506250Y-104256250D01*
X210237258Y-118500000D02*
X233500000Y-118500000D01*
X208149138Y-116411880D02*
X210237258Y-118500000D01*
X236750000Y-107500000D02*
X239000000Y-105250000D01*
X239000000Y-105250000D02*
X278512500Y-105250000D01*
X233500000Y-118500000D02*
X236750000Y-115250000D01*
X234000000Y-119250000D02*
X237500000Y-115750000D01*
X207583452Y-116977565D02*
X209855887Y-119250000D01*
X296250000Y-106000000D02*
X297250000Y-105000000D01*
X237500000Y-108000000D02*
X239500000Y-106000000D01*
X237500000Y-115750000D02*
X237500000Y-108000000D01*
X239500000Y-106000000D02*
X296250000Y-106000000D01*
X209855887Y-119250000D02*
X234000000Y-119250000D01*
X234500000Y-120000000D02*
X238250000Y-116250000D01*
X240000000Y-106750000D02*
X317250000Y-106750000D01*
X209474517Y-120000000D02*
X234500000Y-120000000D01*
X317250000Y-106750000D02*
X319250000Y-104750000D01*
X207017767Y-117543250D02*
X209474517Y-120000000D01*
X238250000Y-108500000D02*
X240000000Y-106750000D01*
X238250000Y-116250000D02*
X238250000Y-108500000D01*
X239250000Y-120750000D02*
X242750000Y-117250000D01*
X324200000Y-31250000D02*
X337550000Y-31250000D01*
X244500000Y-107500000D02*
X330500008Y-107500000D01*
X206558148Y-118215002D02*
X209093146Y-120750000D01*
X209093146Y-120750000D02*
X239250000Y-120750000D01*
X337550000Y-31250000D02*
X340400000Y-34100000D01*
X242750000Y-117250000D02*
X242750000Y-109250000D01*
X330500008Y-107500000D02*
X333000000Y-105000008D01*
X321350000Y-34100000D02*
X324200000Y-31250000D01*
X242750000Y-109250000D02*
X244500000Y-107500000D01*
X197500000Y-94674270D02*
X197500000Y-94250006D01*
X201113425Y-107113425D02*
X197500000Y-103500000D01*
X357068750Y-91250000D02*
X351068750Y-85250000D01*
X236750000Y-85250000D02*
X233500000Y-88500000D01*
X233500000Y-88500000D02*
X233500000Y-92250000D01*
X351068750Y-85250000D02*
X242250000Y-85250000D01*
X197500000Y-103500000D02*
X197500000Y-94674270D01*
X242250000Y-85250000D02*
X236750000Y-85250000D01*
D35*
X371475000Y-115031250D02*
X371475000Y-112300000D01*
X371475000Y-112300000D02*
X368975000Y-109800000D01*
D32*
X247650000Y-112062500D02*
X245387500Y-109800000D01*
X247650000Y-115031250D02*
X247650000Y-112062500D01*
X333375000Y-95981250D02*
X333375000Y-93012500D01*
X333375000Y-93012500D02*
X331112500Y-90750000D01*
X152400000Y-112062500D02*
X150137500Y-109800000D01*
X152400000Y-115031250D02*
X152400000Y-112062500D01*
G04 #@! TA.AperFunction,Conductor*
G36*
X210091245Y-99447545D02*
G01*
X210103058Y-99457634D01*
X210293504Y-99648080D01*
X210321281Y-99702597D01*
X210322500Y-99718084D01*
X210322500Y-99989253D01*
X210303593Y-100047444D01*
X210254093Y-100083408D01*
X210192907Y-100083408D01*
X210153496Y-100059257D01*
X210105960Y-100011721D01*
X210096191Y-100004144D01*
X209965561Y-99926890D01*
X209954216Y-99921980D01*
X209807349Y-99879311D01*
X209797449Y-99877503D01*
X209767584Y-99875153D01*
X209763692Y-99875000D01*
X209665680Y-99875000D01*
X209652995Y-99879122D01*
X209650000Y-99883243D01*
X209650000Y-102109320D01*
X209654122Y-102122005D01*
X209658243Y-102125000D01*
X209763692Y-102125000D01*
X209767584Y-102124847D01*
X209797449Y-102122497D01*
X209807349Y-102120689D01*
X209954216Y-102078020D01*
X209965561Y-102073110D01*
X210096191Y-101995856D01*
X210105960Y-101988279D01*
X210153496Y-101940743D01*
X210208013Y-101912966D01*
X210268445Y-101922537D01*
X210311710Y-101965802D01*
X210322500Y-102010747D01*
X210322500Y-102137802D01*
X210303593Y-102195993D01*
X210293504Y-102207806D01*
X209119915Y-103381396D01*
X208121431Y-104379880D01*
X208066914Y-104407657D01*
X208006482Y-104398086D01*
X207973521Y-104370963D01*
X207944905Y-104334468D01*
X207933833Y-104327028D01*
X207931762Y-104327104D01*
X207927595Y-104329764D01*
X206341199Y-105916160D01*
X206335145Y-105928043D01*
X206335469Y-105930091D01*
X206338611Y-105933909D01*
X206378152Y-105964915D01*
X206388990Y-105971362D01*
X206512119Y-106024646D01*
X206524993Y-106028240D01*
X206576763Y-106035331D01*
X206631850Y-106061960D01*
X206652572Y-106090560D01*
X206669092Y-106124962D01*
X206688727Y-106148697D01*
X206957191Y-106417160D01*
X206980926Y-106436796D01*
X206986365Y-106439408D01*
X206986367Y-106439409D01*
X207051962Y-106470907D01*
X207099655Y-106493809D01*
X207106976Y-106494910D01*
X207110166Y-106495891D01*
X207160226Y-106531072D01*
X207175682Y-106561407D01*
X207176663Y-106564597D01*
X207177764Y-106571918D01*
X207234777Y-106690647D01*
X207238620Y-106695293D01*
X207238623Y-106695297D01*
X207249483Y-106708423D01*
X207254412Y-106714382D01*
X207522876Y-106982845D01*
X207546611Y-107002481D01*
X207552050Y-107005093D01*
X207552052Y-107005094D01*
X207658669Y-107056291D01*
X207658671Y-107056292D01*
X207665340Y-107059494D01*
X207672656Y-107060594D01*
X207675855Y-107061578D01*
X207725913Y-107096760D01*
X207741368Y-107127091D01*
X207742349Y-107130281D01*
X207743450Y-107137603D01*
X207800463Y-107256332D01*
X207804306Y-107260978D01*
X207804309Y-107260982D01*
X207815169Y-107274108D01*
X207820098Y-107280067D01*
X208088562Y-107548530D01*
X208112297Y-107568166D01*
X208117736Y-107570778D01*
X208117738Y-107570779D01*
X208224351Y-107621974D01*
X208224353Y-107621975D01*
X208231026Y-107625179D01*
X208238348Y-107626280D01*
X208241538Y-107627261D01*
X208291597Y-107662443D01*
X208307051Y-107692774D01*
X208308035Y-107695973D01*
X208309135Y-107703289D01*
X208312337Y-107709958D01*
X208312338Y-107709960D01*
X208354137Y-107797005D01*
X208366148Y-107822018D01*
X208369991Y-107826664D01*
X208369994Y-107826668D01*
X208380854Y-107839794D01*
X208385783Y-107845753D01*
X208654247Y-108114216D01*
X208677982Y-108133852D01*
X208683421Y-108136464D01*
X208683423Y-108136465D01*
X208790040Y-108187662D01*
X208790042Y-108187663D01*
X208796711Y-108190865D01*
X208804027Y-108191965D01*
X208807226Y-108192949D01*
X208857284Y-108228131D01*
X208872739Y-108258462D01*
X208873720Y-108261652D01*
X208874821Y-108268974D01*
X208878025Y-108275647D01*
X208878026Y-108275649D01*
X208919752Y-108362543D01*
X208931834Y-108387703D01*
X208935677Y-108392349D01*
X208935680Y-108392353D01*
X208943211Y-108401456D01*
X208951469Y-108411438D01*
X209219933Y-108679901D01*
X209243668Y-108699537D01*
X209249107Y-108702149D01*
X209249109Y-108702150D01*
X209355722Y-108753345D01*
X209355724Y-108753346D01*
X209362397Y-108756550D01*
X209369719Y-108757651D01*
X209372909Y-108758632D01*
X209422968Y-108793814D01*
X209438422Y-108824145D01*
X209439406Y-108827344D01*
X209440506Y-108834660D01*
X209443708Y-108841329D01*
X209443709Y-108841331D01*
X209494906Y-108947948D01*
X209497519Y-108953389D01*
X209501362Y-108958035D01*
X209501365Y-108958039D01*
X209512225Y-108971165D01*
X209517154Y-108977124D01*
X209785618Y-109245587D01*
X209809353Y-109265223D01*
X209814792Y-109267835D01*
X209814794Y-109267836D01*
X209840428Y-109280145D01*
X209928082Y-109322236D01*
X209935403Y-109323337D01*
X209938593Y-109324318D01*
X209988653Y-109359499D01*
X210004109Y-109389834D01*
X210005090Y-109393024D01*
X210006191Y-109400345D01*
X210063204Y-109519074D01*
X210067047Y-109523720D01*
X210067050Y-109523724D01*
X210074965Y-109533291D01*
X210082839Y-109542809D01*
X210351303Y-109811272D01*
X210375038Y-109830908D01*
X210392703Y-109839391D01*
X210409440Y-109847428D01*
X210453712Y-109889662D01*
X210464669Y-109923237D01*
X210471760Y-109975007D01*
X210475354Y-109987881D01*
X210528638Y-110111010D01*
X210535085Y-110121848D01*
X210563079Y-110157548D01*
X210574151Y-110164988D01*
X210576222Y-110164912D01*
X210580389Y-110162252D01*
X212166785Y-108575856D01*
X212172839Y-108563973D01*
X212172515Y-108561925D01*
X212169373Y-108558107D01*
X212129832Y-108527101D01*
X212118994Y-108520654D01*
X211995865Y-108467370D01*
X211982991Y-108463776D01*
X211931221Y-108456685D01*
X211876134Y-108430056D01*
X211855412Y-108401456D01*
X211846195Y-108382262D01*
X211838892Y-108367054D01*
X211819257Y-108343319D01*
X211550793Y-108074856D01*
X211527058Y-108055220D01*
X211507760Y-108045953D01*
X211463489Y-108003718D01*
X211452498Y-107943528D01*
X211480613Y-107886706D01*
X212253626Y-107113692D01*
X215375000Y-107113692D01*
X215375153Y-107117584D01*
X215377503Y-107147449D01*
X215379311Y-107157349D01*
X215421980Y-107304216D01*
X215426890Y-107315561D01*
X215504144Y-107446191D01*
X215511721Y-107455960D01*
X215619040Y-107563279D01*
X215628809Y-107570856D01*
X215759439Y-107648110D01*
X215770784Y-107653020D01*
X215917651Y-107695689D01*
X215927551Y-107697497D01*
X215957416Y-107699847D01*
X215961308Y-107700000D01*
X216284320Y-107700000D01*
X216297005Y-107695878D01*
X216300000Y-107691757D01*
X216300000Y-107684320D01*
X216700000Y-107684320D01*
X216704122Y-107697005D01*
X216708243Y-107700000D01*
X217038692Y-107700000D01*
X217042584Y-107699847D01*
X217072449Y-107697497D01*
X217082349Y-107695689D01*
X217229216Y-107653020D01*
X217240561Y-107648110D01*
X217371191Y-107570856D01*
X217380960Y-107563279D01*
X217488279Y-107455960D01*
X217495856Y-107446191D01*
X217573110Y-107315561D01*
X217578020Y-107304216D01*
X217620689Y-107157349D01*
X217622497Y-107147449D01*
X217624847Y-107117584D01*
X217625000Y-107113692D01*
X217625000Y-107015680D01*
X217620878Y-107002995D01*
X217616757Y-107000000D01*
X216715680Y-107000000D01*
X216702995Y-107004122D01*
X216700000Y-107008243D01*
X216700000Y-107684320D01*
X216300000Y-107684320D01*
X216300000Y-107015680D01*
X216295878Y-107002995D01*
X216291757Y-107000000D01*
X215390680Y-107000000D01*
X215377995Y-107004122D01*
X215375000Y-107008243D01*
X215375000Y-107113692D01*
X212253626Y-107113692D01*
X212782998Y-106584320D01*
X215375000Y-106584320D01*
X215379122Y-106597005D01*
X215383243Y-106600000D01*
X216284320Y-106600000D01*
X216297005Y-106595878D01*
X216300000Y-106591757D01*
X216300000Y-106584320D01*
X216700000Y-106584320D01*
X216704122Y-106597005D01*
X216708243Y-106600000D01*
X217609320Y-106600000D01*
X217622005Y-106595878D01*
X217625000Y-106591757D01*
X217625000Y-106486308D01*
X217624847Y-106482416D01*
X217622497Y-106452551D01*
X217620689Y-106442651D01*
X217578020Y-106295784D01*
X217573110Y-106284439D01*
X217495856Y-106153809D01*
X217488279Y-106144040D01*
X217380960Y-106036721D01*
X217371191Y-106029144D01*
X217240561Y-105951890D01*
X217229216Y-105946980D01*
X217082349Y-105904311D01*
X217072449Y-105902503D01*
X217042584Y-105900153D01*
X217038692Y-105900000D01*
X216715680Y-105900000D01*
X216702995Y-105904122D01*
X216700000Y-105908243D01*
X216700000Y-106584320D01*
X216300000Y-106584320D01*
X216300000Y-105915680D01*
X216295878Y-105902995D01*
X216291757Y-105900000D01*
X215961308Y-105900000D01*
X215957416Y-105900153D01*
X215927551Y-105902503D01*
X215917651Y-105904311D01*
X215770784Y-105946980D01*
X215759439Y-105951890D01*
X215628809Y-106029144D01*
X215619040Y-106036721D01*
X215511721Y-106144040D01*
X215504144Y-106153809D01*
X215426890Y-106284439D01*
X215421980Y-106295784D01*
X215379311Y-106442651D01*
X215377503Y-106452551D01*
X215375153Y-106482416D01*
X215375000Y-106486308D01*
X215375000Y-106584320D01*
X212782998Y-106584320D01*
X213648080Y-105719238D01*
X213702597Y-105691461D01*
X213718084Y-105690242D01*
X217455997Y-105690242D01*
X217467634Y-105690928D01*
X217500837Y-105694858D01*
X217526111Y-105690242D01*
X217555927Y-105684797D01*
X217558994Y-105684286D01*
X217582574Y-105680741D01*
X217614380Y-105675959D01*
X217620557Y-105672993D01*
X217627297Y-105671762D01*
X217677003Y-105645941D01*
X217679783Y-105644553D01*
X217680004Y-105644447D01*
X217730263Y-105620313D01*
X217734636Y-105616271D01*
X217736370Y-105615102D01*
X217741374Y-105612503D01*
X217746162Y-105608415D01*
X217781813Y-105572764D01*
X217784616Y-105570070D01*
X217819226Y-105538077D01*
X217824661Y-105533053D01*
X217828035Y-105527244D01*
X217834059Y-105520518D01*
X218487032Y-104867545D01*
X219152185Y-104202391D01*
X219206701Y-104174615D01*
X219267133Y-104184186D01*
X219310398Y-104227451D01*
X219321112Y-104276282D01*
X219320571Y-104290045D01*
X219320571Y-104290049D01*
X219320281Y-104297441D01*
X219322003Y-104303937D01*
X219322500Y-104312961D01*
X219322500Y-110031916D01*
X219303593Y-110090107D01*
X219293504Y-110101920D01*
X216851920Y-112543504D01*
X216797403Y-112571281D01*
X216781916Y-112572500D01*
X213065617Y-112572500D01*
X213007426Y-112553593D01*
X212976372Y-112516352D01*
X212972876Y-112509070D01*
X212970263Y-112503629D01*
X212966420Y-112498983D01*
X212966417Y-112498979D01*
X212958565Y-112489488D01*
X212950628Y-112479894D01*
X212028090Y-111557357D01*
X212004355Y-111537721D01*
X211998916Y-111535109D01*
X211998914Y-111535108D01*
X211892297Y-111483911D01*
X211892295Y-111483910D01*
X211885626Y-111480708D01*
X211814188Y-111469968D01*
X211762699Y-111462227D01*
X211755382Y-111461127D01*
X211748065Y-111462227D01*
X211696576Y-111469968D01*
X211625138Y-111480708D01*
X211618469Y-111483910D01*
X211618467Y-111483911D01*
X211511848Y-111535109D01*
X211506409Y-111537721D01*
X211501763Y-111541564D01*
X211501759Y-111541567D01*
X211488633Y-111552427D01*
X211482674Y-111557356D01*
X211214211Y-111825820D01*
X211194575Y-111849555D01*
X211191963Y-111854994D01*
X211191962Y-111854996D01*
X211176613Y-111886961D01*
X211137562Y-111968284D01*
X211136461Y-111975605D01*
X211135480Y-111978795D01*
X211100299Y-112028855D01*
X211069964Y-112044311D01*
X211066774Y-112045292D01*
X211059453Y-112046393D01*
X211052780Y-112049597D01*
X211052781Y-112049597D01*
X210946166Y-112100793D01*
X210940724Y-112103406D01*
X210936078Y-112107249D01*
X210936074Y-112107252D01*
X210922948Y-112118112D01*
X210916989Y-112123041D01*
X210648526Y-112391505D01*
X210628890Y-112415240D01*
X210626278Y-112420679D01*
X210626277Y-112420681D01*
X210596983Y-112481685D01*
X210571877Y-112533969D01*
X210570777Y-112541286D01*
X210569793Y-112544484D01*
X210534610Y-112594542D01*
X210504282Y-112609995D01*
X210501084Y-112610979D01*
X210493767Y-112612079D01*
X210474071Y-112621537D01*
X210380480Y-112666479D01*
X210375038Y-112669092D01*
X210370392Y-112672935D01*
X210370388Y-112672938D01*
X210359234Y-112682166D01*
X210351303Y-112688727D01*
X210082840Y-112957191D01*
X210063204Y-112980926D01*
X210060592Y-112986365D01*
X210060591Y-112986367D01*
X210052079Y-113004093D01*
X210006191Y-113099655D01*
X210005090Y-113106976D01*
X210004109Y-113110166D01*
X209968928Y-113160226D01*
X209938593Y-113175682D01*
X209935403Y-113176663D01*
X209928082Y-113177764D01*
X209921409Y-113180968D01*
X209921410Y-113180968D01*
X209814795Y-113232164D01*
X209809353Y-113234777D01*
X209804707Y-113238620D01*
X209804703Y-113238623D01*
X209791577Y-113249483D01*
X209785618Y-113254412D01*
X209517155Y-113522876D01*
X209497519Y-113546611D01*
X209494907Y-113552051D01*
X209480999Y-113581013D01*
X209438765Y-113625285D01*
X209405191Y-113636242D01*
X209353420Y-113643334D01*
X209340547Y-113646927D01*
X209217418Y-113700211D01*
X209206580Y-113706658D01*
X209170880Y-113734652D01*
X209163440Y-113745724D01*
X209163516Y-113747795D01*
X209166176Y-113751962D01*
X210752572Y-115338358D01*
X210764455Y-115344412D01*
X210766503Y-115344088D01*
X210770319Y-115340948D01*
X210801950Y-115300609D01*
X210852736Y-115266484D01*
X210913880Y-115268727D01*
X210949859Y-115291693D01*
X211055432Y-115397267D01*
X211561662Y-115903497D01*
X211589439Y-115958013D01*
X211579868Y-116018445D01*
X211536603Y-116061710D01*
X211491658Y-116072500D01*
X210718084Y-116072500D01*
X210659893Y-116053593D01*
X210648080Y-116043504D01*
X210423064Y-115818488D01*
X210395287Y-115763971D01*
X210404858Y-115703539D01*
X210431981Y-115670578D01*
X210468476Y-115641962D01*
X210475916Y-115630890D01*
X210475840Y-115628819D01*
X210473180Y-115624652D01*
X208886784Y-114038256D01*
X208874901Y-114032202D01*
X208872853Y-114032526D01*
X208869035Y-114035668D01*
X208838029Y-114075209D01*
X208831582Y-114086047D01*
X208778298Y-114209176D01*
X208774705Y-114222049D01*
X208767613Y-114273820D01*
X208740983Y-114328906D01*
X208712384Y-114349628D01*
X208696667Y-114357176D01*
X208677982Y-114366148D01*
X208654247Y-114385783D01*
X208385784Y-114654247D01*
X208366148Y-114677982D01*
X208363536Y-114683421D01*
X208363535Y-114683423D01*
X208333531Y-114745907D01*
X208309135Y-114796711D01*
X208308035Y-114804027D01*
X208307051Y-114807226D01*
X208271869Y-114857284D01*
X208241538Y-114872739D01*
X208238348Y-114873720D01*
X208231026Y-114874821D01*
X208224353Y-114878025D01*
X208224351Y-114878026D01*
X208117736Y-114929222D01*
X208112297Y-114931834D01*
X208107651Y-114935677D01*
X208107647Y-114935680D01*
X208094521Y-114946540D01*
X208088562Y-114951469D01*
X207820099Y-115219933D01*
X207800463Y-115243668D01*
X207797851Y-115249107D01*
X207797850Y-115249109D01*
X207753687Y-115341079D01*
X207743450Y-115362397D01*
X207742349Y-115369719D01*
X207741368Y-115372909D01*
X207706186Y-115422968D01*
X207675855Y-115438422D01*
X207672656Y-115439406D01*
X207665340Y-115440506D01*
X207658671Y-115443708D01*
X207658669Y-115443709D01*
X207556769Y-115492641D01*
X207546611Y-115497519D01*
X207541965Y-115501362D01*
X207541961Y-115501365D01*
X207536904Y-115505549D01*
X207522876Y-115517154D01*
X207254413Y-115785618D01*
X207234777Y-115809353D01*
X207177764Y-115928082D01*
X207176663Y-115935403D01*
X207175682Y-115938593D01*
X207140501Y-115988653D01*
X207110166Y-116004109D01*
X207106976Y-116005090D01*
X207099655Y-116006191D01*
X207092982Y-116009395D01*
X207092983Y-116009395D01*
X206990389Y-116058660D01*
X206980926Y-116063204D01*
X206976280Y-116067047D01*
X206976276Y-116067050D01*
X206969321Y-116072804D01*
X206957191Y-116082839D01*
X206688728Y-116351303D01*
X206669092Y-116375038D01*
X206612079Y-116493767D01*
X206610979Y-116501084D01*
X206609995Y-116504282D01*
X206574812Y-116554340D01*
X206544484Y-116569793D01*
X206541286Y-116570777D01*
X206533969Y-116571877D01*
X206527296Y-116575081D01*
X206527297Y-116575081D01*
X206420682Y-116626277D01*
X206415240Y-116628890D01*
X206410594Y-116632733D01*
X206410590Y-116632736D01*
X206403934Y-116638243D01*
X206391505Y-116648525D01*
X206123042Y-116916989D01*
X206103406Y-116940724D01*
X206046393Y-117059453D01*
X206045292Y-117066774D01*
X206044311Y-117069964D01*
X206009130Y-117120024D01*
X205978795Y-117135480D01*
X205975605Y-117136461D01*
X205968284Y-117137562D01*
X205961611Y-117140766D01*
X205961612Y-117140766D01*
X205854997Y-117191962D01*
X205849555Y-117194575D01*
X205844909Y-117198418D01*
X205844905Y-117198421D01*
X205831779Y-117209281D01*
X205825820Y-117214210D01*
X205557357Y-117482674D01*
X205537721Y-117506409D01*
X205535109Y-117511848D01*
X205535108Y-117511850D01*
X205486353Y-117613383D01*
X205480708Y-117625138D01*
X205461127Y-117755382D01*
X205480708Y-117885626D01*
X205483910Y-117892295D01*
X205483911Y-117892297D01*
X205531308Y-117991000D01*
X205537721Y-118004355D01*
X205541564Y-118009001D01*
X205541567Y-118009005D01*
X205549419Y-118018496D01*
X205557356Y-118028090D01*
X206479894Y-118950627D01*
X206503629Y-118970263D01*
X206509068Y-118972875D01*
X206509070Y-118972876D01*
X206615687Y-119024073D01*
X206615689Y-119024074D01*
X206622358Y-119027276D01*
X206629675Y-119028376D01*
X206752602Y-119046857D01*
X206752327Y-119048684D01*
X206801509Y-119064664D01*
X206813322Y-119074753D01*
X208642065Y-120903496D01*
X208669842Y-120958013D01*
X208660271Y-121018445D01*
X208617006Y-121061710D01*
X208572061Y-121072500D01*
X204684870Y-121072500D01*
X204626679Y-121053593D01*
X204614866Y-121043504D01*
X203456496Y-119885134D01*
X203428719Y-119830617D01*
X203427500Y-119815130D01*
X203427500Y-119374939D01*
X203446407Y-119316748D01*
X203456496Y-119304935D01*
X203686678Y-119074753D01*
X203741195Y-119046976D01*
X203745786Y-119046615D01*
X203747398Y-119046857D01*
X203877642Y-119027276D01*
X203884311Y-119024074D01*
X203884313Y-119024073D01*
X203990932Y-118972875D01*
X203990933Y-118972874D01*
X203996371Y-118970263D01*
X204001017Y-118966420D01*
X204001021Y-118966417D01*
X204010512Y-118958565D01*
X204020106Y-118950628D01*
X204942643Y-118028090D01*
X204962279Y-118004355D01*
X204964892Y-117998914D01*
X205016089Y-117892297D01*
X205016090Y-117892295D01*
X205019292Y-117885626D01*
X205038873Y-117755382D01*
X205019292Y-117625138D01*
X205013648Y-117613383D01*
X204964891Y-117511848D01*
X204964890Y-117511847D01*
X204962279Y-117506409D01*
X204958436Y-117501763D01*
X204958433Y-117501759D01*
X204944132Y-117484473D01*
X204942644Y-117482674D01*
X204674180Y-117214211D01*
X204650445Y-117194575D01*
X204645006Y-117191963D01*
X204645004Y-117191962D01*
X204538388Y-117140766D01*
X204538389Y-117140766D01*
X204531716Y-117137562D01*
X204524395Y-117136461D01*
X204521205Y-117135480D01*
X204471145Y-117100299D01*
X204455689Y-117069964D01*
X204454708Y-117066774D01*
X204453607Y-117059453D01*
X204396594Y-116940724D01*
X204392751Y-116936078D01*
X204392748Y-116936074D01*
X204378447Y-116918788D01*
X204376959Y-116916989D01*
X204108495Y-116648526D01*
X204084760Y-116628890D01*
X204079321Y-116626278D01*
X204079319Y-116626277D01*
X203972703Y-116575081D01*
X203972704Y-116575081D01*
X203966031Y-116571877D01*
X203958714Y-116570777D01*
X203955516Y-116569793D01*
X203905458Y-116534610D01*
X203890005Y-116504282D01*
X203889021Y-116501084D01*
X203887921Y-116493767D01*
X203830908Y-116375038D01*
X203827065Y-116370392D01*
X203827062Y-116370388D01*
X203812761Y-116353102D01*
X203811273Y-116351303D01*
X203542809Y-116082840D01*
X203519074Y-116063204D01*
X203484672Y-116046685D01*
X203440402Y-116004454D01*
X203429444Y-115970877D01*
X203422353Y-115919106D01*
X203418759Y-115906232D01*
X203365475Y-115783103D01*
X203359028Y-115772265D01*
X203331034Y-115736565D01*
X203319962Y-115729125D01*
X203317891Y-115729201D01*
X203313724Y-115731861D01*
X201727328Y-117318257D01*
X201721274Y-117330140D01*
X201721598Y-117332189D01*
X201730392Y-117342876D01*
X201752768Y-117399823D01*
X201737397Y-117459046D01*
X201723955Y-117475780D01*
X201455551Y-117744184D01*
X201401036Y-117771960D01*
X201340604Y-117762389D01*
X201315545Y-117744183D01*
X200973658Y-117402296D01*
X200945881Y-117347779D01*
X200955452Y-117287347D01*
X200973654Y-117262293D01*
X201247199Y-116988748D01*
X201301714Y-116960972D01*
X201362146Y-116970543D01*
X201395107Y-116997665D01*
X201423725Y-117034162D01*
X201434796Y-117041601D01*
X201436867Y-117041525D01*
X201441034Y-117038865D01*
X203027430Y-115452469D01*
X203033484Y-115440586D01*
X203033160Y-115438538D01*
X203030018Y-115434720D01*
X202990477Y-115403714D01*
X202979639Y-115397267D01*
X202856515Y-115343986D01*
X202843631Y-115340389D01*
X202791864Y-115333298D01*
X202736777Y-115306669D01*
X202716058Y-115278072D01*
X202699537Y-115243668D01*
X202695694Y-115239022D01*
X202695691Y-115239018D01*
X202681390Y-115221732D01*
X202679902Y-115219933D01*
X202411438Y-114951470D01*
X202387703Y-114931834D01*
X202382264Y-114929222D01*
X202382262Y-114929221D01*
X202275649Y-114878026D01*
X202275647Y-114878025D01*
X202268974Y-114874821D01*
X202261652Y-114873720D01*
X202258462Y-114872739D01*
X202208403Y-114837557D01*
X202192949Y-114807226D01*
X202191965Y-114804027D01*
X202190865Y-114796711D01*
X202166470Y-114745907D01*
X202136464Y-114683421D01*
X202136463Y-114683420D01*
X202133852Y-114677982D01*
X202130009Y-114673336D01*
X202130006Y-114673332D01*
X202118745Y-114659720D01*
X202114217Y-114654247D01*
X201845753Y-114385784D01*
X201822018Y-114366148D01*
X201816579Y-114363536D01*
X201816577Y-114363535D01*
X201709960Y-114312338D01*
X201709958Y-114312337D01*
X201703289Y-114309135D01*
X201695973Y-114308035D01*
X201692774Y-114307051D01*
X201642716Y-114271869D01*
X201627261Y-114241538D01*
X201626280Y-114238348D01*
X201625179Y-114231026D01*
X201620869Y-114222049D01*
X201570778Y-114117736D01*
X201570777Y-114117735D01*
X201568166Y-114112297D01*
X201564323Y-114107651D01*
X201564320Y-114107647D01*
X201550019Y-114090361D01*
X201548531Y-114088562D01*
X201280067Y-113820099D01*
X201256332Y-113800463D01*
X201250893Y-113797851D01*
X201250891Y-113797850D01*
X201144278Y-113746655D01*
X201144276Y-113746654D01*
X201137603Y-113743450D01*
X201130281Y-113742349D01*
X201127091Y-113741368D01*
X201077032Y-113706186D01*
X201061578Y-113675855D01*
X201060594Y-113672656D01*
X201059494Y-113665340D01*
X201050653Y-113646927D01*
X201005093Y-113552050D01*
X201005092Y-113552049D01*
X201002481Y-113546611D01*
X200998638Y-113541965D01*
X200998635Y-113541961D01*
X200984334Y-113524675D01*
X200982846Y-113522876D01*
X200714382Y-113254413D01*
X200690647Y-113234777D01*
X200685208Y-113232165D01*
X200685206Y-113232164D01*
X200578590Y-113180968D01*
X200578591Y-113180968D01*
X200571918Y-113177764D01*
X200564597Y-113176663D01*
X200561407Y-113175682D01*
X200511347Y-113140501D01*
X200495891Y-113110166D01*
X200494910Y-113106976D01*
X200493809Y-113099655D01*
X200443978Y-112995883D01*
X200439408Y-112986365D01*
X200439407Y-112986364D01*
X200436796Y-112980926D01*
X200432953Y-112976280D01*
X200432950Y-112976276D01*
X200418649Y-112958990D01*
X200417161Y-112957191D01*
X200148697Y-112688728D01*
X200124962Y-112669092D01*
X200119523Y-112666480D01*
X200119521Y-112666479D01*
X200025929Y-112621537D01*
X200006233Y-112612079D01*
X199998916Y-112610979D01*
X199995718Y-112609995D01*
X199945660Y-112574812D01*
X199930207Y-112544484D01*
X199929223Y-112541286D01*
X199928123Y-112533969D01*
X199903017Y-112481685D01*
X199873722Y-112420679D01*
X199873721Y-112420678D01*
X199871110Y-112415240D01*
X199867267Y-112410594D01*
X199867264Y-112410590D01*
X199852963Y-112393304D01*
X199851475Y-112391505D01*
X199583011Y-112123042D01*
X199559276Y-112103406D01*
X199553837Y-112100794D01*
X199553835Y-112100793D01*
X199447219Y-112049597D01*
X199447220Y-112049597D01*
X199440547Y-112046393D01*
X199433226Y-112045292D01*
X199430036Y-112044311D01*
X199379976Y-112009130D01*
X199364520Y-111978795D01*
X199363539Y-111975605D01*
X199362438Y-111968284D01*
X199323387Y-111886961D01*
X199308037Y-111854994D01*
X199308036Y-111854993D01*
X199305425Y-111849555D01*
X199301582Y-111844909D01*
X199301579Y-111844905D01*
X199290719Y-111831779D01*
X199285790Y-111825820D01*
X199017326Y-111557357D01*
X198993591Y-111537721D01*
X198988152Y-111535109D01*
X198988150Y-111535108D01*
X198881533Y-111483911D01*
X198881531Y-111483910D01*
X198874862Y-111480708D01*
X198803424Y-111469968D01*
X198751935Y-111462227D01*
X198744618Y-111461127D01*
X198737301Y-111462227D01*
X198685812Y-111469968D01*
X198614374Y-111480708D01*
X198607705Y-111483910D01*
X198607703Y-111483911D01*
X198501084Y-111535109D01*
X198495645Y-111537721D01*
X198490999Y-111541564D01*
X198490995Y-111541567D01*
X198481504Y-111549419D01*
X198471910Y-111557356D01*
X197549373Y-112479894D01*
X197529737Y-112503629D01*
X197527126Y-112509067D01*
X197527124Y-112509070D01*
X197478661Y-112609995D01*
X197472724Y-112622358D01*
X197455613Y-112736179D01*
X197455306Y-112738218D01*
X197427958Y-112792951D01*
X197373661Y-112821156D01*
X197357406Y-112822500D01*
X181099000Y-112822500D01*
X181040809Y-112803593D01*
X181004845Y-112754093D01*
X181000000Y-112723500D01*
X181000000Y-108538692D01*
X191150000Y-108538692D01*
X191150153Y-108542584D01*
X191152503Y-108572449D01*
X191154311Y-108582349D01*
X191196980Y-108729216D01*
X191201890Y-108740561D01*
X191279144Y-108871191D01*
X191286721Y-108880960D01*
X191394040Y-108988279D01*
X191403809Y-108995856D01*
X191534439Y-109073110D01*
X191545784Y-109078020D01*
X191692651Y-109120689D01*
X191702551Y-109122497D01*
X191732416Y-109124847D01*
X191736308Y-109125000D01*
X191834320Y-109125000D01*
X191847005Y-109120878D01*
X191850000Y-109116757D01*
X191850000Y-109109320D01*
X192250000Y-109109320D01*
X192254122Y-109122005D01*
X192258243Y-109125000D01*
X192363692Y-109125000D01*
X192367584Y-109124847D01*
X192397449Y-109122497D01*
X192407349Y-109120689D01*
X192554216Y-109078020D01*
X192565561Y-109073110D01*
X192696191Y-108995856D01*
X192705960Y-108988279D01*
X192813279Y-108880960D01*
X192820856Y-108871191D01*
X192898110Y-108740561D01*
X192903020Y-108729216D01*
X192945689Y-108582349D01*
X192947497Y-108572449D01*
X192949847Y-108542584D01*
X192950000Y-108538692D01*
X192950000Y-108215680D01*
X192945878Y-108202995D01*
X192941757Y-108200000D01*
X192265680Y-108200000D01*
X192252995Y-108204122D01*
X192250000Y-108208243D01*
X192250000Y-109109320D01*
X191850000Y-109109320D01*
X191850000Y-108215680D01*
X191845878Y-108202995D01*
X191841757Y-108200000D01*
X191165680Y-108200000D01*
X191152995Y-108204122D01*
X191150000Y-108208243D01*
X191150000Y-108538692D01*
X181000000Y-108538692D01*
X181000000Y-107784320D01*
X191150000Y-107784320D01*
X191154122Y-107797005D01*
X191158243Y-107800000D01*
X191834320Y-107800000D01*
X191847005Y-107795878D01*
X191850000Y-107791757D01*
X191850000Y-107784320D01*
X192250000Y-107784320D01*
X192254122Y-107797005D01*
X192258243Y-107800000D01*
X192934320Y-107800000D01*
X192947005Y-107795878D01*
X192950000Y-107791757D01*
X192950000Y-107461308D01*
X192949847Y-107457416D01*
X192947497Y-107427551D01*
X192945689Y-107417651D01*
X192903020Y-107270784D01*
X192898110Y-107259439D01*
X192820856Y-107128809D01*
X192813279Y-107119040D01*
X192705960Y-107011721D01*
X192696191Y-107004144D01*
X192565561Y-106926890D01*
X192554216Y-106921980D01*
X192407349Y-106879311D01*
X192397449Y-106877503D01*
X192367584Y-106875153D01*
X192363692Y-106875000D01*
X192265680Y-106875000D01*
X192252995Y-106879122D01*
X192250000Y-106883243D01*
X192250000Y-107784320D01*
X191850000Y-107784320D01*
X191850000Y-106890680D01*
X191845878Y-106877995D01*
X191841757Y-106875000D01*
X191736308Y-106875000D01*
X191732416Y-106875153D01*
X191702551Y-106877503D01*
X191692651Y-106879311D01*
X191545784Y-106921980D01*
X191534439Y-106926890D01*
X191403809Y-107004144D01*
X191394040Y-107011721D01*
X191286721Y-107119040D01*
X191279144Y-107128809D01*
X191201890Y-107259439D01*
X191196980Y-107270784D01*
X191154311Y-107417651D01*
X191152503Y-107427551D01*
X191150153Y-107457416D01*
X191150000Y-107461308D01*
X191150000Y-107784320D01*
X181000000Y-107784320D01*
X181000000Y-104776500D01*
X181018907Y-104718309D01*
X181068407Y-104682345D01*
X181099000Y-104677500D01*
X194637802Y-104677500D01*
X194695993Y-104696407D01*
X194707806Y-104706496D01*
X196094549Y-106093238D01*
X197341307Y-107339996D01*
X197369084Y-107394513D01*
X197359513Y-107454945D01*
X197316248Y-107498210D01*
X197271303Y-107509000D01*
X194841482Y-107509000D01*
X194783291Y-107490093D01*
X194747327Y-107440593D01*
X194743199Y-107421894D01*
X194740400Y-107398768D01*
X194740400Y-107398767D01*
X194739636Y-107392453D01*
X194687583Y-107260981D01*
X194686598Y-107258493D01*
X194686597Y-107258492D01*
X194684113Y-107252217D01*
X194592922Y-107132078D01*
X194530143Y-107084426D01*
X194495225Y-107034186D01*
X194491000Y-107005572D01*
X194491000Y-106546083D01*
X194509907Y-106487892D01*
X194515704Y-106480810D01*
X194519423Y-106477634D01*
X194618361Y-106339947D01*
X194640676Y-106284439D01*
X194679377Y-106188167D01*
X194679378Y-106188165D01*
X194681601Y-106182634D01*
X194685505Y-106155204D01*
X194705034Y-106017985D01*
X194705034Y-106017979D01*
X194705490Y-106014778D01*
X194705645Y-106000000D01*
X194687852Y-105852963D01*
X194685993Y-105837602D01*
X194685992Y-105837599D01*
X194685276Y-105831680D01*
X194625345Y-105673077D01*
X194619182Y-105664109D01*
X194543245Y-105553621D01*
X194529312Y-105533349D01*
X194402721Y-105420560D01*
X194252881Y-105341224D01*
X194170661Y-105320572D01*
X194094231Y-105301373D01*
X194094228Y-105301373D01*
X194088441Y-105299919D01*
X194002841Y-105299471D01*
X193924861Y-105299062D01*
X193924859Y-105299062D01*
X193918895Y-105299031D01*
X193913099Y-105300423D01*
X193913095Y-105300423D01*
X193823466Y-105321942D01*
X193754032Y-105338612D01*
X193688092Y-105372646D01*
X193608675Y-105413636D01*
X193608673Y-105413638D01*
X193603369Y-105416375D01*
X193475604Y-105527831D01*
X193472173Y-105532713D01*
X193472172Y-105532714D01*
X193384774Y-105657069D01*
X193378113Y-105666547D01*
X193316524Y-105824513D01*
X193294394Y-105992611D01*
X193295049Y-105998544D01*
X193295049Y-105998548D01*
X193311427Y-106146898D01*
X193312999Y-106161135D01*
X193371266Y-106320356D01*
X193374591Y-106325305D01*
X193374592Y-106325306D01*
X193387689Y-106344796D01*
X193465830Y-106461083D01*
X193476628Y-106470908D01*
X193506943Y-106524054D01*
X193509000Y-106544132D01*
X193509000Y-106941227D01*
X193490093Y-106999418D01*
X193446444Y-107033275D01*
X193427217Y-107040887D01*
X193421842Y-107044967D01*
X193421840Y-107044968D01*
X193326173Y-107117584D01*
X193307078Y-107132078D01*
X193215887Y-107252217D01*
X193213403Y-107258492D01*
X193213402Y-107258493D01*
X193212417Y-107260981D01*
X193160364Y-107392453D01*
X193149500Y-107482228D01*
X193149500Y-108517772D01*
X193160364Y-108607547D01*
X193196480Y-108698767D01*
X193213028Y-108740561D01*
X193215887Y-108747783D01*
X193219967Y-108753158D01*
X193219968Y-108753160D01*
X193286894Y-108841331D01*
X193307078Y-108867922D01*
X193312457Y-108872005D01*
X193421840Y-108955032D01*
X193421842Y-108955033D01*
X193427217Y-108959113D01*
X193446444Y-108966725D01*
X193493587Y-109005724D01*
X193509000Y-109058773D01*
X193509000Y-109757833D01*
X193502237Y-109793795D01*
X193461559Y-109898129D01*
X193441525Y-109949512D01*
X193440746Y-109955427D01*
X193440746Y-109955428D01*
X193440581Y-109956679D01*
X193419395Y-110117610D01*
X193420050Y-110123543D01*
X193420050Y-110123547D01*
X193435386Y-110262457D01*
X193438000Y-110286134D01*
X193496267Y-110445355D01*
X193499592Y-110450304D01*
X193499593Y-110450305D01*
X193538526Y-110508243D01*
X193590831Y-110586082D01*
X193661565Y-110650445D01*
X193709379Y-110693952D01*
X193716234Y-110700190D01*
X193721483Y-110703040D01*
X193732219Y-110708869D01*
X193865236Y-110781091D01*
X193900190Y-110790261D01*
X194023465Y-110822602D01*
X194023469Y-110822603D01*
X194029234Y-110824115D01*
X194035195Y-110824209D01*
X194035198Y-110824209D01*
X194113997Y-110825446D01*
X194198761Y-110826778D01*
X194204576Y-110825446D01*
X194204578Y-110825446D01*
X194358207Y-110790261D01*
X194358210Y-110790260D01*
X194364030Y-110788927D01*
X194376384Y-110782714D01*
X194444016Y-110748698D01*
X194515499Y-110712746D01*
X194520036Y-110708871D01*
X194520039Y-110708869D01*
X194537504Y-110693952D01*
X198086738Y-110693952D01*
X198087534Y-110698982D01*
X198391970Y-111003418D01*
X198396420Y-111007362D01*
X198458557Y-111056083D01*
X198469395Y-111062531D01*
X198592524Y-111115815D01*
X198605397Y-111119408D01*
X198737931Y-111137563D01*
X198751305Y-111137563D01*
X198883839Y-111119408D01*
X198896712Y-111115815D01*
X199019841Y-111062531D01*
X199030679Y-111056084D01*
X199066379Y-111028090D01*
X199073819Y-111017018D01*
X199073743Y-111014947D01*
X199071083Y-111010780D01*
X198428667Y-110368364D01*
X198416784Y-110362310D01*
X198411753Y-110363106D01*
X198092794Y-110682066D01*
X198086738Y-110693952D01*
X194537504Y-110693952D01*
X194639889Y-110606507D01*
X194639892Y-110606504D01*
X194644424Y-110602633D01*
X194653431Y-110590099D01*
X194739878Y-110469795D01*
X194739879Y-110469793D01*
X194743362Y-110464946D01*
X194745595Y-110459393D01*
X194804378Y-110313166D01*
X194804379Y-110313164D01*
X194806602Y-110307633D01*
X194811783Y-110271228D01*
X194830035Y-110142984D01*
X194830035Y-110142978D01*
X194830491Y-110139777D01*
X194830646Y-110124999D01*
X194810277Y-109956679D01*
X194750346Y-109798076D01*
X194745764Y-109791408D01*
X194720112Y-109754085D01*
X197354453Y-109754085D01*
X197372608Y-109886619D01*
X197376201Y-109899492D01*
X197429485Y-110022621D01*
X197435933Y-110033459D01*
X197484654Y-110095596D01*
X197488598Y-110100046D01*
X197787777Y-110399225D01*
X197799660Y-110405279D01*
X197804691Y-110404483D01*
X198123650Y-110085523D01*
X198129706Y-110073637D01*
X198128910Y-110068607D01*
X197484687Y-109424384D01*
X197472804Y-109418330D01*
X197470756Y-109418654D01*
X197466938Y-109421796D01*
X197435932Y-109461337D01*
X197429485Y-109472175D01*
X197376201Y-109595304D01*
X197372608Y-109608177D01*
X197354453Y-109740711D01*
X197354453Y-109754085D01*
X194720112Y-109754085D01*
X194657693Y-109663266D01*
X194654313Y-109658348D01*
X194527722Y-109545559D01*
X194528838Y-109544306D01*
X194496508Y-109501715D01*
X194491000Y-109469154D01*
X194491000Y-108994428D01*
X194509907Y-108936237D01*
X194530140Y-108915576D01*
X194592922Y-108867922D01*
X194675878Y-108758632D01*
X194680032Y-108753160D01*
X194680033Y-108753158D01*
X194684113Y-108747783D01*
X194686973Y-108740561D01*
X194703520Y-108698767D01*
X194739636Y-108607547D01*
X194743199Y-108578106D01*
X194768961Y-108522608D01*
X194822423Y-108492852D01*
X194841482Y-108491000D01*
X197230130Y-108491000D01*
X197288321Y-108509907D01*
X197300133Y-108519996D01*
X197764284Y-108984146D01*
X197792062Y-109038663D01*
X197782491Y-109099095D01*
X197776452Y-109109366D01*
X197761343Y-109131850D01*
X197761419Y-109133923D01*
X197764079Y-109138090D01*
X199350475Y-110724486D01*
X199362358Y-110730540D01*
X199364406Y-110730216D01*
X199368224Y-110727074D01*
X199399230Y-110687533D01*
X199405677Y-110676695D01*
X199458961Y-110553566D01*
X199462555Y-110540692D01*
X199469646Y-110488921D01*
X199486755Y-110453527D01*
X210860629Y-110453527D01*
X210860953Y-110455575D01*
X210864095Y-110459393D01*
X210903636Y-110490399D01*
X210914474Y-110496846D01*
X211037603Y-110550130D01*
X211050477Y-110553724D01*
X211102248Y-110560815D01*
X211157335Y-110587444D01*
X211178054Y-110616041D01*
X211194575Y-110650445D01*
X211198418Y-110655091D01*
X211198421Y-110655095D01*
X211209281Y-110668221D01*
X211214210Y-110674180D01*
X211482674Y-110942643D01*
X211506409Y-110962279D01*
X211511848Y-110964891D01*
X211511850Y-110964892D01*
X211618467Y-111016089D01*
X211618469Y-111016090D01*
X211625138Y-111019292D01*
X211755382Y-111038873D01*
X211885626Y-111019292D01*
X211892295Y-111016090D01*
X211892297Y-111016089D01*
X211998916Y-110964891D01*
X211998917Y-110964890D01*
X212004355Y-110962279D01*
X212009001Y-110958436D01*
X212009005Y-110958433D01*
X212023802Y-110946191D01*
X212028090Y-110942644D01*
X212950627Y-110020106D01*
X212970263Y-109996371D01*
X212980522Y-109975007D01*
X213024073Y-109884313D01*
X213024074Y-109884311D01*
X213027276Y-109877642D01*
X213031929Y-109846693D01*
X213059825Y-109791408D01*
X213581237Y-109269996D01*
X213635754Y-109242219D01*
X213651241Y-109241000D01*
X215505572Y-109241000D01*
X215563763Y-109259907D01*
X215584424Y-109280140D01*
X215632078Y-109342922D01*
X215693816Y-109389784D01*
X215746840Y-109430032D01*
X215746842Y-109430033D01*
X215752217Y-109434113D01*
X215758492Y-109436597D01*
X215758493Y-109436598D01*
X215791407Y-109449630D01*
X215892453Y-109489636D01*
X215909379Y-109491684D01*
X215921894Y-109493199D01*
X215977392Y-109518961D01*
X216007148Y-109572423D01*
X216009000Y-109591482D01*
X216009000Y-110703810D01*
X215990093Y-110762001D01*
X215983572Y-110770053D01*
X215980101Y-110773908D01*
X215975604Y-110777831D01*
X215972173Y-110782713D01*
X215972172Y-110782714D01*
X215881544Y-110911665D01*
X215878113Y-110916547D01*
X215867938Y-110942644D01*
X215821196Y-111062531D01*
X215816524Y-111074513D01*
X215794394Y-111242611D01*
X215795049Y-111248544D01*
X215795049Y-111248548D01*
X215811714Y-111399500D01*
X215812999Y-111411135D01*
X215871266Y-111570356D01*
X215874591Y-111575305D01*
X215874592Y-111575306D01*
X215887689Y-111594796D01*
X215965830Y-111711083D01*
X216091233Y-111825191D01*
X216096482Y-111828041D01*
X216107218Y-111833870D01*
X216240235Y-111906092D01*
X216290600Y-111919305D01*
X216398464Y-111947603D01*
X216398468Y-111947604D01*
X216404233Y-111949116D01*
X216410194Y-111949210D01*
X216410197Y-111949210D01*
X216488996Y-111950447D01*
X216573760Y-111951779D01*
X216579575Y-111950447D01*
X216579577Y-111950447D01*
X216733206Y-111915262D01*
X216733209Y-111915261D01*
X216739029Y-111913928D01*
X216745929Y-111910458D01*
X216819393Y-111873509D01*
X216890498Y-111837747D01*
X216895035Y-111833872D01*
X216895038Y-111833870D01*
X217014888Y-111731508D01*
X217014891Y-111731505D01*
X217019423Y-111727634D01*
X217043633Y-111693942D01*
X217114877Y-111594796D01*
X217114878Y-111594794D01*
X217118361Y-111589947D01*
X217124579Y-111574481D01*
X217179377Y-111438167D01*
X217179378Y-111438165D01*
X217181601Y-111432634D01*
X217184661Y-111411135D01*
X217205034Y-111267985D01*
X217205034Y-111267979D01*
X217205490Y-111264778D01*
X217205645Y-111250000D01*
X217185276Y-111081680D01*
X217125345Y-110923077D01*
X217057395Y-110824209D01*
X217043654Y-110804216D01*
X217029312Y-110783349D01*
X217024145Y-110778745D01*
X217023845Y-110778231D01*
X217020908Y-110774900D01*
X217021561Y-110774324D01*
X216993273Y-110725919D01*
X216991000Y-110704826D01*
X216991000Y-109591482D01*
X217009907Y-109533291D01*
X217059407Y-109497327D01*
X217078106Y-109493199D01*
X217090621Y-109491684D01*
X217107547Y-109489636D01*
X217208593Y-109449630D01*
X217241507Y-109436598D01*
X217241508Y-109436597D01*
X217247783Y-109434113D01*
X217253158Y-109430033D01*
X217253160Y-109430032D01*
X217362543Y-109347005D01*
X217367922Y-109342922D01*
X217424916Y-109267836D01*
X217455032Y-109228160D01*
X217455033Y-109228158D01*
X217459113Y-109222783D01*
X217514636Y-109082547D01*
X217525500Y-108992772D01*
X217525500Y-108407228D01*
X217514636Y-108317453D01*
X217464517Y-108190865D01*
X217461598Y-108183493D01*
X217461597Y-108183491D01*
X217459113Y-108177217D01*
X217444717Y-108158250D01*
X217372005Y-108062457D01*
X217367922Y-108057078D01*
X217356464Y-108048381D01*
X217253160Y-107969968D01*
X217253158Y-107969967D01*
X217247783Y-107965887D01*
X217107547Y-107910364D01*
X217017772Y-107899500D01*
X215982228Y-107899500D01*
X215892453Y-107910364D01*
X215752217Y-107965887D01*
X215746842Y-107969967D01*
X215746840Y-107969968D01*
X215643536Y-108048381D01*
X215632078Y-108057078D01*
X215627995Y-108062457D01*
X215555284Y-108158250D01*
X215540887Y-108177217D01*
X215533275Y-108196444D01*
X215494276Y-108243587D01*
X215441227Y-108259000D01*
X213472948Y-108259000D01*
X213460551Y-108257615D01*
X213460546Y-108257671D01*
X213453514Y-108257105D01*
X213446636Y-108255549D01*
X213399684Y-108258462D01*
X213394074Y-108258810D01*
X213387944Y-108259000D01*
X213371599Y-108259000D01*
X213368114Y-108259499D01*
X213368102Y-108259500D01*
X213360695Y-108260561D01*
X213352793Y-108261371D01*
X213313299Y-108263821D01*
X213313296Y-108263822D01*
X213306262Y-108264258D01*
X213299633Y-108266651D01*
X213299629Y-108266652D01*
X213296976Y-108267610D01*
X213277399Y-108272491D01*
X213267630Y-108273890D01*
X213261207Y-108276810D01*
X213261208Y-108276810D01*
X213225186Y-108293188D01*
X213217826Y-108296184D01*
X213180609Y-108309619D01*
X213180607Y-108309620D01*
X213173973Y-108312015D01*
X213168277Y-108316177D01*
X213168276Y-108316177D01*
X213166008Y-108317834D01*
X213148586Y-108328015D01*
X213139597Y-108332102D01*
X213134256Y-108336704D01*
X213134250Y-108336708D01*
X213104267Y-108362543D01*
X213098047Y-108367482D01*
X213089797Y-108373509D01*
X213089793Y-108373513D01*
X213086711Y-108375764D01*
X213075508Y-108386967D01*
X213070128Y-108391961D01*
X213045612Y-108413086D01*
X213033050Y-108423910D01*
X213029213Y-108429830D01*
X213028575Y-108430814D01*
X213015504Y-108446971D01*
X212607022Y-108855453D01*
X212552505Y-108883230D01*
X212492073Y-108873659D01*
X212481802Y-108867621D01*
X212459317Y-108852512D01*
X212457246Y-108852588D01*
X212453079Y-108855248D01*
X210866683Y-110441644D01*
X210860629Y-110453527D01*
X199486755Y-110453527D01*
X199496275Y-110433834D01*
X199524872Y-110413115D01*
X199559276Y-110396594D01*
X199563922Y-110392751D01*
X199563926Y-110392748D01*
X199581212Y-110378447D01*
X199583011Y-110376959D01*
X199851474Y-110108495D01*
X199865321Y-110091757D01*
X199867264Y-110089409D01*
X199867264Y-110089408D01*
X199871110Y-110084760D01*
X199895745Y-110033459D01*
X199924919Y-109972703D01*
X199928123Y-109966031D01*
X199929223Y-109958714D01*
X199930207Y-109955516D01*
X199965390Y-109905458D01*
X199995718Y-109890005D01*
X199998916Y-109889021D01*
X200006233Y-109887921D01*
X200054599Y-109864696D01*
X200119523Y-109833520D01*
X200119524Y-109833519D01*
X200124962Y-109830908D01*
X200129608Y-109827065D01*
X200129612Y-109827062D01*
X200146898Y-109812761D01*
X200148697Y-109811273D01*
X200417160Y-109542809D01*
X200436796Y-109519074D01*
X200493809Y-109400345D01*
X200494910Y-109393024D01*
X200495891Y-109389834D01*
X200531072Y-109339774D01*
X200561407Y-109324318D01*
X200564597Y-109323337D01*
X200571918Y-109322236D01*
X200659572Y-109280145D01*
X200685208Y-109267835D01*
X200685209Y-109267834D01*
X200690647Y-109265223D01*
X200695293Y-109261380D01*
X200695297Y-109261377D01*
X200712583Y-109247076D01*
X200714382Y-109245588D01*
X200982845Y-108977124D01*
X201002481Y-108953389D01*
X201005094Y-108947948D01*
X201056291Y-108841331D01*
X201056292Y-108841329D01*
X201059494Y-108834660D01*
X201060594Y-108827344D01*
X201061578Y-108824145D01*
X201096760Y-108774087D01*
X201127091Y-108758632D01*
X201130281Y-108757651D01*
X201137603Y-108756550D01*
X201144276Y-108753346D01*
X201144278Y-108753345D01*
X201250893Y-108702149D01*
X201250894Y-108702148D01*
X201256332Y-108699537D01*
X201260978Y-108695694D01*
X201260982Y-108695691D01*
X201278268Y-108681390D01*
X201280067Y-108679902D01*
X201548530Y-108411438D01*
X201568166Y-108387703D01*
X201574982Y-108373509D01*
X201621974Y-108275649D01*
X201621975Y-108275647D01*
X201625179Y-108268974D01*
X201626280Y-108261652D01*
X201627261Y-108258462D01*
X201662443Y-108208403D01*
X201692774Y-108192949D01*
X201695973Y-108191965D01*
X201703289Y-108190865D01*
X201709958Y-108187663D01*
X201709960Y-108187662D01*
X201816579Y-108136464D01*
X201816580Y-108136463D01*
X201822018Y-108133852D01*
X201826664Y-108130009D01*
X201826668Y-108130006D01*
X201843954Y-108115705D01*
X201845753Y-108114217D01*
X202114216Y-107845753D01*
X202133852Y-107822018D01*
X202145863Y-107797005D01*
X202187662Y-107709960D01*
X202187663Y-107709958D01*
X202190865Y-107703289D01*
X202191965Y-107695973D01*
X202192949Y-107692774D01*
X202228131Y-107642716D01*
X202258462Y-107627261D01*
X202261652Y-107626280D01*
X202268974Y-107625179D01*
X202275647Y-107621975D01*
X202275649Y-107621974D01*
X202382264Y-107570778D01*
X202382265Y-107570777D01*
X202387703Y-107568166D01*
X202392349Y-107564323D01*
X202392353Y-107564320D01*
X202409639Y-107550019D01*
X202411438Y-107548531D01*
X202679901Y-107280067D01*
X202699537Y-107256332D01*
X202756550Y-107137603D01*
X202757651Y-107130281D01*
X202758632Y-107127091D01*
X202793814Y-107077032D01*
X202824145Y-107061578D01*
X202827344Y-107060594D01*
X202834660Y-107059494D01*
X202841329Y-107056292D01*
X202841331Y-107056291D01*
X202947950Y-107005093D01*
X202947951Y-107005092D01*
X202953389Y-107002481D01*
X202958035Y-106998638D01*
X202958039Y-106998635D01*
X202975325Y-106984334D01*
X202977124Y-106982846D01*
X203245587Y-106714382D01*
X203265223Y-106690647D01*
X203322236Y-106571918D01*
X203323337Y-106564597D01*
X203324318Y-106561407D01*
X203359499Y-106511347D01*
X203389834Y-106495891D01*
X203393024Y-106494910D01*
X203400345Y-106493809D01*
X203448711Y-106470584D01*
X203513635Y-106439408D01*
X203513636Y-106439407D01*
X203519074Y-106436796D01*
X203523720Y-106432953D01*
X203523724Y-106432950D01*
X203541010Y-106418649D01*
X203542809Y-106417161D01*
X203811272Y-106148697D01*
X203830908Y-106124962D01*
X203849022Y-106087241D01*
X203884717Y-106012905D01*
X203887921Y-106006233D01*
X203889021Y-105998916D01*
X203890005Y-105995718D01*
X203925188Y-105945660D01*
X203955516Y-105930207D01*
X203958714Y-105929223D01*
X203966031Y-105928123D01*
X204084760Y-105871110D01*
X204089406Y-105867267D01*
X204089410Y-105867264D01*
X204106696Y-105852963D01*
X204108495Y-105851475D01*
X204376958Y-105583011D01*
X204396594Y-105559276D01*
X204399310Y-105553621D01*
X204450403Y-105447219D01*
X204453607Y-105440547D01*
X204454708Y-105433226D01*
X204455689Y-105430036D01*
X204490870Y-105379976D01*
X204521205Y-105364520D01*
X204524395Y-105363539D01*
X204531716Y-105362438D01*
X204584495Y-105337094D01*
X204645006Y-105308037D01*
X204645007Y-105308036D01*
X204650445Y-105305425D01*
X204655091Y-105301582D01*
X204655095Y-105301579D01*
X204672381Y-105287278D01*
X204674180Y-105285790D01*
X204942643Y-105017326D01*
X204962279Y-104993591D01*
X205019292Y-104874862D01*
X205038873Y-104744618D01*
X205019292Y-104614374D01*
X205007014Y-104588804D01*
X204964891Y-104501084D01*
X204964890Y-104501083D01*
X204962279Y-104495645D01*
X204958436Y-104490999D01*
X204958433Y-104490995D01*
X204950581Y-104481504D01*
X204942644Y-104471910D01*
X204020106Y-103549373D01*
X203996371Y-103529737D01*
X203990932Y-103527125D01*
X203990930Y-103527124D01*
X203884313Y-103475927D01*
X203884311Y-103475926D01*
X203877642Y-103472724D01*
X203747398Y-103453143D01*
X203747673Y-103451316D01*
X203698490Y-103435336D01*
X203686677Y-103425247D01*
X203112838Y-102851408D01*
X203085061Y-102796891D01*
X203094632Y-102736459D01*
X203137897Y-102693194D01*
X203146398Y-102689356D01*
X203216507Y-102661598D01*
X203216508Y-102661597D01*
X203222783Y-102659113D01*
X203228158Y-102655033D01*
X203228160Y-102655032D01*
X203337543Y-102572005D01*
X203342922Y-102567922D01*
X203434113Y-102447783D01*
X203489636Y-102307547D01*
X203500500Y-102217772D01*
X203500500Y-101607228D01*
X203489636Y-101517453D01*
X203434113Y-101377217D01*
X203421150Y-101360138D01*
X203347005Y-101262457D01*
X203342922Y-101257078D01*
X203337543Y-101252995D01*
X203228160Y-101169968D01*
X203228158Y-101169967D01*
X203222783Y-101165887D01*
X203173678Y-101146445D01*
X203126534Y-101107444D01*
X203111317Y-101048181D01*
X203133319Y-100992611D01*
X205044394Y-100992611D01*
X205045049Y-100998544D01*
X205045049Y-100998548D01*
X205057358Y-101110042D01*
X205062999Y-101161135D01*
X205121266Y-101320356D01*
X205215830Y-101461083D01*
X205341233Y-101575191D01*
X205490235Y-101656092D01*
X205525189Y-101665262D01*
X205648464Y-101697603D01*
X205648468Y-101697604D01*
X205654233Y-101699116D01*
X205660194Y-101699210D01*
X205660197Y-101699210D01*
X205738965Y-101700447D01*
X205823760Y-101701779D01*
X205829575Y-101700447D01*
X205829577Y-101700447D01*
X205983206Y-101665262D01*
X205983209Y-101665261D01*
X205989029Y-101663928D01*
X206001599Y-101657606D01*
X206135172Y-101590426D01*
X206135174Y-101590425D01*
X206140498Y-101587747D01*
X206226003Y-101514719D01*
X206282528Y-101491305D01*
X206290296Y-101491000D01*
X206658518Y-101491000D01*
X206716709Y-101509907D01*
X206752673Y-101559407D01*
X206756801Y-101578106D01*
X206760364Y-101607547D01*
X206797636Y-101701685D01*
X206813028Y-101740561D01*
X206815887Y-101747783D01*
X206819967Y-101753158D01*
X206819968Y-101753160D01*
X206851668Y-101794923D01*
X206907078Y-101867922D01*
X206969857Y-101915574D01*
X207004775Y-101965814D01*
X207009000Y-101994428D01*
X207009000Y-103098760D01*
X206990093Y-103156951D01*
X206980004Y-103168763D01*
X206708594Y-103440174D01*
X206653308Y-103468071D01*
X206632182Y-103471247D01*
X206622358Y-103472724D01*
X206615689Y-103475926D01*
X206615687Y-103475927D01*
X206509068Y-103527125D01*
X206503629Y-103529737D01*
X206498983Y-103533580D01*
X206498979Y-103533583D01*
X206493992Y-103537709D01*
X206479894Y-103549372D01*
X205557357Y-104471910D01*
X205537721Y-104495645D01*
X205535109Y-104501084D01*
X205535108Y-104501086D01*
X205492987Y-104588804D01*
X205480708Y-104614374D01*
X205461127Y-104744618D01*
X205480708Y-104874862D01*
X205537721Y-104993591D01*
X205541564Y-104998237D01*
X205541567Y-104998241D01*
X205552427Y-105011367D01*
X205557356Y-105017326D01*
X205825820Y-105285789D01*
X205849555Y-105305425D01*
X205883957Y-105321944D01*
X205928227Y-105364175D01*
X205939185Y-105397752D01*
X205946276Y-105449523D01*
X205949870Y-105462397D01*
X206003154Y-105585526D01*
X206009601Y-105596364D01*
X206037595Y-105632064D01*
X206048667Y-105639504D01*
X206050738Y-105639428D01*
X206054905Y-105636768D01*
X207641301Y-104050372D01*
X207647355Y-104038489D01*
X207647031Y-104036441D01*
X207638238Y-104025756D01*
X207615863Y-103968809D01*
X207631233Y-103909586D01*
X207644679Y-103892846D01*
X207800458Y-103737067D01*
X207810202Y-103729282D01*
X207810165Y-103729239D01*
X207815536Y-103724668D01*
X207821499Y-103720906D01*
X207856356Y-103681438D01*
X207860556Y-103676969D01*
X207872119Y-103665406D01*
X207874435Y-103662315D01*
X207878730Y-103656586D01*
X207883746Y-103650425D01*
X207909931Y-103620776D01*
X207909931Y-103620775D01*
X207914601Y-103615488D01*
X207918796Y-103606553D01*
X207929191Y-103589254D01*
X207930875Y-103587007D01*
X207930875Y-103587006D01*
X207935107Y-103581360D01*
X207951475Y-103537700D01*
X207954557Y-103530386D01*
X207971378Y-103494559D01*
X207971379Y-103494557D01*
X207974374Y-103488177D01*
X207975892Y-103478430D01*
X207981014Y-103458906D01*
X207982002Y-103456271D01*
X207982003Y-103456269D01*
X207984478Y-103449665D01*
X207985182Y-103440198D01*
X207987934Y-103403157D01*
X207988841Y-103395263D01*
X207990410Y-103385184D01*
X207991000Y-103381396D01*
X207991000Y-103365568D01*
X207991272Y-103358232D01*
X207992000Y-103348439D01*
X207994900Y-103309407D01*
X207993181Y-103301354D01*
X207991000Y-103280687D01*
X207991000Y-102058773D01*
X208009907Y-102000582D01*
X208053556Y-101966725D01*
X208072783Y-101959113D01*
X208078158Y-101955033D01*
X208078160Y-101955032D01*
X208187543Y-101872005D01*
X208192922Y-101867922D01*
X208216558Y-101836783D01*
X208280032Y-101753160D01*
X208280033Y-101753158D01*
X208284113Y-101747783D01*
X208286973Y-101740561D01*
X208302364Y-101701685D01*
X208339636Y-101607547D01*
X208347968Y-101538692D01*
X208550000Y-101538692D01*
X208550153Y-101542584D01*
X208552503Y-101572449D01*
X208554311Y-101582349D01*
X208596980Y-101729216D01*
X208601890Y-101740561D01*
X208679144Y-101871191D01*
X208686721Y-101880960D01*
X208794040Y-101988279D01*
X208803809Y-101995856D01*
X208934439Y-102073110D01*
X208945784Y-102078020D01*
X209092651Y-102120689D01*
X209102551Y-102122497D01*
X209132416Y-102124847D01*
X209136308Y-102125000D01*
X209234320Y-102125000D01*
X209247005Y-102120878D01*
X209250000Y-102116757D01*
X209250000Y-101215680D01*
X209245878Y-101202995D01*
X209241757Y-101200000D01*
X208565680Y-101200000D01*
X208552995Y-101204122D01*
X208550000Y-101208243D01*
X208550000Y-101538692D01*
X208347968Y-101538692D01*
X208350500Y-101517772D01*
X208350500Y-100784320D01*
X208550000Y-100784320D01*
X208554122Y-100797005D01*
X208558243Y-100800000D01*
X209234320Y-100800000D01*
X209247005Y-100795878D01*
X209250000Y-100791757D01*
X209250000Y-99890680D01*
X209245878Y-99877995D01*
X209241757Y-99875000D01*
X209136308Y-99875000D01*
X209132416Y-99875153D01*
X209102551Y-99877503D01*
X209092651Y-99879311D01*
X208945784Y-99921980D01*
X208934439Y-99926890D01*
X208803809Y-100004144D01*
X208794040Y-100011721D01*
X208686721Y-100119040D01*
X208679144Y-100128809D01*
X208601890Y-100259439D01*
X208596980Y-100270784D01*
X208554311Y-100417651D01*
X208552503Y-100427551D01*
X208550153Y-100457416D01*
X208550000Y-100461308D01*
X208550000Y-100784320D01*
X208350500Y-100784320D01*
X208350500Y-100482228D01*
X208339636Y-100392453D01*
X208290597Y-100268593D01*
X208286598Y-100258493D01*
X208286597Y-100258492D01*
X208284113Y-100252217D01*
X208258971Y-100219093D01*
X208197005Y-100137457D01*
X208192922Y-100132078D01*
X208128802Y-100083408D01*
X208078160Y-100044968D01*
X208078158Y-100044967D01*
X208072783Y-100040887D01*
X208049706Y-100031750D01*
X208033593Y-100025370D01*
X207932547Y-99985364D01*
X207842772Y-99974500D01*
X207257228Y-99974500D01*
X207167453Y-99985364D01*
X207066407Y-100025370D01*
X207050295Y-100031750D01*
X207027217Y-100040887D01*
X207021842Y-100044967D01*
X207021840Y-100044968D01*
X206971198Y-100083408D01*
X206907078Y-100132078D01*
X206902995Y-100137457D01*
X206841030Y-100219093D01*
X206815887Y-100252217D01*
X206813403Y-100258492D01*
X206813402Y-100258493D01*
X206809403Y-100268593D01*
X206760364Y-100392453D01*
X206759600Y-100398767D01*
X206759600Y-100398768D01*
X206756801Y-100421894D01*
X206731039Y-100477392D01*
X206677577Y-100507148D01*
X206658518Y-100509000D01*
X206289689Y-100509000D01*
X206231498Y-100490093D01*
X206223831Y-100483917D01*
X206160567Y-100427551D01*
X206152721Y-100420560D01*
X206147101Y-100417584D01*
X206088466Y-100386539D01*
X206002881Y-100341224D01*
X205905037Y-100316647D01*
X205844231Y-100301373D01*
X205844228Y-100301373D01*
X205838441Y-100299919D01*
X205752841Y-100299471D01*
X205674861Y-100299062D01*
X205674859Y-100299062D01*
X205668895Y-100299031D01*
X205663099Y-100300423D01*
X205663095Y-100300423D01*
X205563274Y-100324389D01*
X205504032Y-100338612D01*
X205428701Y-100377493D01*
X205358675Y-100413636D01*
X205358673Y-100413638D01*
X205353369Y-100416375D01*
X205225604Y-100527831D01*
X205128113Y-100666547D01*
X205066524Y-100824513D01*
X205044394Y-100992611D01*
X203133319Y-100992611D01*
X203133841Y-100991292D01*
X203182503Y-100959328D01*
X203204215Y-100953021D01*
X203215561Y-100948110D01*
X203346191Y-100870856D01*
X203355960Y-100863279D01*
X203463279Y-100755960D01*
X203470856Y-100746191D01*
X203548110Y-100615561D01*
X203553020Y-100604216D01*
X203595689Y-100457349D01*
X203597497Y-100447449D01*
X203599847Y-100417584D01*
X203600000Y-100413692D01*
X203600000Y-100303180D01*
X203595878Y-100290495D01*
X203591757Y-100287500D01*
X202399000Y-100287500D01*
X202340809Y-100268593D01*
X202304845Y-100219093D01*
X202300000Y-100188500D01*
X202300000Y-99986500D01*
X202318907Y-99928309D01*
X202368407Y-99892345D01*
X202399000Y-99887500D01*
X203584320Y-99887500D01*
X203597005Y-99883378D01*
X203600000Y-99879257D01*
X203600000Y-99761308D01*
X203599847Y-99757416D01*
X203597497Y-99727551D01*
X203595689Y-99717651D01*
X203553020Y-99570784D01*
X203551363Y-99566955D01*
X203545605Y-99506041D01*
X203576752Y-99453377D01*
X203632905Y-99429077D01*
X203642221Y-99428638D01*
X210033054Y-99428638D01*
X210091245Y-99447545D01*
G37*
G04 #@! TD.AperFunction*
G04 #@! TA.AperFunction,Conductor*
G36*
X225781691Y-99447545D02*
G01*
X225817655Y-99497045D01*
X225822500Y-99527638D01*
X225822500Y-107531915D01*
X225803593Y-107590106D01*
X225793504Y-107601919D01*
X225219809Y-108175615D01*
X225211095Y-108183357D01*
X225190659Y-108199467D01*
X225190657Y-108199469D01*
X225184846Y-108204050D01*
X225180639Y-108210137D01*
X225180638Y-108210138D01*
X225165676Y-108231787D01*
X225117037Y-108268908D01*
X225084234Y-108274500D01*
X225007228Y-108274500D01*
X224917453Y-108285364D01*
X224820326Y-108323819D01*
X224799406Y-108332102D01*
X224777217Y-108340887D01*
X224771842Y-108344967D01*
X224771840Y-108344968D01*
X224685880Y-108410216D01*
X224657078Y-108432078D01*
X224652995Y-108437457D01*
X224588362Y-108522608D01*
X224565887Y-108552217D01*
X224563403Y-108558492D01*
X224563402Y-108558493D01*
X224557877Y-108572449D01*
X224510364Y-108692453D01*
X224499500Y-108782228D01*
X224499500Y-109392772D01*
X224510364Y-109482547D01*
X224565887Y-109622783D01*
X224569967Y-109628158D01*
X224569968Y-109628160D01*
X224592882Y-109658348D01*
X224657078Y-109742922D01*
X224662457Y-109747005D01*
X224771840Y-109830032D01*
X224771842Y-109830033D01*
X224777217Y-109834113D01*
X224917453Y-109889636D01*
X225007228Y-109900500D01*
X225992772Y-109900500D01*
X226082547Y-109889636D01*
X226222783Y-109834113D01*
X226228158Y-109830033D01*
X226228160Y-109830032D01*
X226337543Y-109747005D01*
X226342922Y-109742922D01*
X226407118Y-109658348D01*
X226430032Y-109628160D01*
X226430033Y-109628158D01*
X226434113Y-109622783D01*
X226489636Y-109482547D01*
X226500500Y-109392772D01*
X226500500Y-108782228D01*
X226489636Y-108692453D01*
X226442123Y-108572449D01*
X226436598Y-108558493D01*
X226436597Y-108558492D01*
X226434113Y-108552217D01*
X226411639Y-108522608D01*
X226387646Y-108491000D01*
X226342922Y-108432078D01*
X226336428Y-108427149D01*
X226335815Y-108426267D01*
X226332775Y-108423227D01*
X226333322Y-108422680D01*
X226301512Y-108376905D01*
X226302797Y-108315733D01*
X226326284Y-108278293D01*
X226530186Y-108074390D01*
X226538900Y-108066647D01*
X226565154Y-108045950D01*
X226567071Y-108048381D01*
X226608872Y-108025392D01*
X226669577Y-108033050D01*
X226700139Y-108055435D01*
X226729689Y-108087403D01*
X226735498Y-108090777D01*
X226742223Y-108096800D01*
X226923716Y-108278293D01*
X226951493Y-108332810D01*
X226941922Y-108393242D01*
X226917020Y-108423022D01*
X226917225Y-108423227D01*
X226914932Y-108425519D01*
X226913567Y-108427153D01*
X226907078Y-108432078D01*
X226862354Y-108491000D01*
X226838362Y-108522608D01*
X226815887Y-108552217D01*
X226813403Y-108558492D01*
X226813402Y-108558493D01*
X226807877Y-108572449D01*
X226760364Y-108692453D01*
X226749500Y-108782228D01*
X226749500Y-109392772D01*
X226760364Y-109482547D01*
X226815887Y-109622783D01*
X226819967Y-109628158D01*
X226819968Y-109628160D01*
X226842882Y-109658348D01*
X226907078Y-109742922D01*
X226912457Y-109747005D01*
X227021840Y-109830032D01*
X227021842Y-109830033D01*
X227027217Y-109834113D01*
X227167453Y-109889636D01*
X227257228Y-109900500D01*
X228242772Y-109900500D01*
X228332547Y-109889636D01*
X228472783Y-109834113D01*
X228478158Y-109830033D01*
X228478160Y-109830032D01*
X228587543Y-109747005D01*
X228592922Y-109742922D01*
X228657118Y-109658348D01*
X228680032Y-109628160D01*
X228680033Y-109628158D01*
X228684113Y-109622783D01*
X228739636Y-109482547D01*
X228750500Y-109392772D01*
X228750500Y-108782228D01*
X228739636Y-108692453D01*
X228692123Y-108572449D01*
X228686598Y-108558493D01*
X228686597Y-108558492D01*
X228684113Y-108552217D01*
X228661639Y-108522608D01*
X228597005Y-108437457D01*
X228592922Y-108432078D01*
X228564120Y-108410216D01*
X228478160Y-108344968D01*
X228478158Y-108344967D01*
X228472783Y-108340887D01*
X228450595Y-108332102D01*
X228429674Y-108323819D01*
X228332547Y-108285364D01*
X228242772Y-108274500D01*
X228169751Y-108274500D01*
X228111560Y-108255593D01*
X228097048Y-108242696D01*
X228096934Y-108242573D01*
X228095673Y-108241096D01*
X228060022Y-108205446D01*
X228057327Y-108202642D01*
X228039501Y-108183357D01*
X228020311Y-108162597D01*
X228014505Y-108159225D01*
X228007776Y-108153199D01*
X227456496Y-107601920D01*
X227428719Y-107547403D01*
X227427500Y-107531916D01*
X227427500Y-99527638D01*
X227446407Y-99469447D01*
X227495907Y-99433483D01*
X227526500Y-99428638D01*
X228208992Y-99428638D01*
X228267183Y-99447545D01*
X228278996Y-99457634D01*
X230406004Y-101584642D01*
X230433781Y-101639159D01*
X230435000Y-101654646D01*
X230435000Y-105331253D01*
X230434314Y-105342890D01*
X230430384Y-105376093D01*
X230431714Y-105383374D01*
X230440445Y-105431183D01*
X230440956Y-105434250D01*
X230449283Y-105489636D01*
X230452249Y-105495813D01*
X230453480Y-105502553D01*
X230472032Y-105538267D01*
X230479299Y-105552256D01*
X230480687Y-105555034D01*
X230504929Y-105605519D01*
X230508971Y-105609892D01*
X230510140Y-105611626D01*
X230512739Y-105616630D01*
X230516827Y-105621418D01*
X230552478Y-105657069D01*
X230555172Y-105659872D01*
X230592189Y-105699917D01*
X230597998Y-105703291D01*
X230604724Y-105709315D01*
X231120374Y-106224965D01*
X231148523Y-106282047D01*
X231164942Y-106406762D01*
X231225450Y-106552841D01*
X231321704Y-106678282D01*
X231447145Y-106774536D01*
X231593224Y-106835044D01*
X231749986Y-106855682D01*
X231906748Y-106835044D01*
X232052827Y-106774536D01*
X232178268Y-106678282D01*
X232274522Y-106552841D01*
X232335030Y-106406762D01*
X232355668Y-106250000D01*
X232335030Y-106093238D01*
X232274522Y-105947159D01*
X232178268Y-105821718D01*
X232052827Y-105725464D01*
X231922947Y-105671666D01*
X231912745Y-105667440D01*
X231906748Y-105664956D01*
X231782032Y-105648537D01*
X231724950Y-105620388D01*
X231318996Y-105214434D01*
X231291219Y-105159917D01*
X231290000Y-105144430D01*
X231290000Y-102707646D01*
X231308907Y-102649455D01*
X231358407Y-102613491D01*
X231419593Y-102613491D01*
X231459004Y-102637642D01*
X233221004Y-104399642D01*
X233248781Y-104454159D01*
X233250000Y-104469646D01*
X233250000Y-116014613D01*
X233231093Y-116072804D01*
X233221004Y-116084617D01*
X232325618Y-116980004D01*
X232271101Y-117007781D01*
X232255614Y-117009000D01*
X224263121Y-117009000D01*
X224204930Y-116990093D01*
X224168966Y-116940593D01*
X224168966Y-116879407D01*
X224204930Y-116829907D01*
X224212726Y-116824787D01*
X224346191Y-116745856D01*
X224355960Y-116738279D01*
X224463279Y-116630960D01*
X224470856Y-116621191D01*
X224548110Y-116490561D01*
X224553020Y-116479216D01*
X224595689Y-116332349D01*
X224597497Y-116322449D01*
X224599847Y-116292584D01*
X224600000Y-116288692D01*
X224600000Y-115965680D01*
X224595878Y-115952995D01*
X224591757Y-115950000D01*
X222815680Y-115950000D01*
X222802995Y-115954122D01*
X222800000Y-115958243D01*
X222800000Y-116288692D01*
X222800153Y-116292584D01*
X222802503Y-116322449D01*
X222804311Y-116332349D01*
X222846980Y-116479216D01*
X222851890Y-116490561D01*
X222929144Y-116621191D01*
X222936721Y-116630960D01*
X223044040Y-116738279D01*
X223053809Y-116745856D01*
X223187274Y-116824787D01*
X223227737Y-116870682D01*
X223233495Y-116931596D01*
X223202349Y-116984261D01*
X223146196Y-117008561D01*
X223136879Y-117009000D01*
X220084585Y-117009000D01*
X220026394Y-116990093D01*
X219990430Y-116940593D01*
X219990430Y-116879407D01*
X220014580Y-116839998D01*
X220044553Y-116810024D01*
X220047358Y-116807327D01*
X220081971Y-116775332D01*
X220087403Y-116770311D01*
X220090775Y-116764505D01*
X220096801Y-116757776D01*
X220367482Y-116487095D01*
X220648080Y-116206496D01*
X220702597Y-116178719D01*
X220718084Y-116177500D01*
X220901026Y-116177500D01*
X220959217Y-116196407D01*
X220995181Y-116245907D01*
X220999326Y-116267793D01*
X220999500Y-116267772D01*
X220999857Y-116270720D01*
X220999857Y-116270724D01*
X221006094Y-116322261D01*
X221010364Y-116357547D01*
X221050370Y-116458593D01*
X221063028Y-116490561D01*
X221065887Y-116497783D01*
X221069967Y-116503158D01*
X221069968Y-116503160D01*
X221120546Y-116569793D01*
X221157078Y-116617922D01*
X221162457Y-116622005D01*
X221271840Y-116705032D01*
X221271842Y-116705033D01*
X221277217Y-116709113D01*
X221417453Y-116764636D01*
X221507228Y-116775500D01*
X222092772Y-116775500D01*
X222182547Y-116764636D01*
X222322783Y-116709113D01*
X222328158Y-116705033D01*
X222328160Y-116705032D01*
X222437543Y-116622005D01*
X222442922Y-116617922D01*
X222479454Y-116569793D01*
X222530032Y-116503160D01*
X222530033Y-116503158D01*
X222534113Y-116497783D01*
X222536973Y-116490561D01*
X222549630Y-116458593D01*
X222589636Y-116357547D01*
X222600500Y-116267772D01*
X222600500Y-115232228D01*
X222589636Y-115142453D01*
X222537379Y-115010465D01*
X222536598Y-115008493D01*
X222536597Y-115008492D01*
X222534113Y-115002217D01*
X222496840Y-114953111D01*
X222447005Y-114887457D01*
X222442922Y-114882078D01*
X222407717Y-114855356D01*
X222372798Y-114805114D01*
X222374080Y-114743942D01*
X222411072Y-114695206D01*
X222467573Y-114677500D01*
X222889253Y-114677500D01*
X222947444Y-114696407D01*
X222983408Y-114745907D01*
X222983408Y-114807093D01*
X222959257Y-114846504D01*
X222936721Y-114869040D01*
X222929144Y-114878809D01*
X222851890Y-115009439D01*
X222846980Y-115020784D01*
X222804311Y-115167651D01*
X222802503Y-115177551D01*
X222800153Y-115207416D01*
X222800000Y-115211308D01*
X222800000Y-115534320D01*
X222804122Y-115547005D01*
X222808243Y-115550000D01*
X224584320Y-115550000D01*
X224597005Y-115545878D01*
X224600000Y-115541757D01*
X224600000Y-115211308D01*
X224599847Y-115207416D01*
X224597497Y-115177551D01*
X224595689Y-115167651D01*
X224553020Y-115020784D01*
X224548110Y-115009439D01*
X224470856Y-114878809D01*
X224463279Y-114869040D01*
X224440743Y-114846504D01*
X224412966Y-114791987D01*
X224422537Y-114731555D01*
X224465802Y-114688290D01*
X224510747Y-114677500D01*
X225968739Y-114677500D01*
X225980376Y-114678186D01*
X226013579Y-114682116D01*
X226038853Y-114677500D01*
X226068669Y-114672055D01*
X226071736Y-114671544D01*
X226095316Y-114667999D01*
X226127122Y-114663217D01*
X226133299Y-114660251D01*
X226140039Y-114659020D01*
X226189745Y-114633199D01*
X226192525Y-114631811D01*
X226243005Y-114607571D01*
X226247378Y-114603529D01*
X226249112Y-114602360D01*
X226254116Y-114599761D01*
X226258904Y-114595673D01*
X226294555Y-114560022D01*
X226297358Y-114557328D01*
X226331968Y-114525335D01*
X226337403Y-114520311D01*
X226340777Y-114514502D01*
X226346801Y-114507776D01*
X227280195Y-113574382D01*
X227288901Y-113566647D01*
X227315154Y-113545950D01*
X227319360Y-113539864D01*
X227319363Y-113539861D01*
X227346991Y-113499886D01*
X227348798Y-113497357D01*
X227377682Y-113458250D01*
X227382078Y-113452299D01*
X227384349Y-113445832D01*
X227388243Y-113440198D01*
X227391558Y-113429719D01*
X227405117Y-113386843D01*
X227406101Y-113383892D01*
X227422222Y-113337987D01*
X227422222Y-113337986D01*
X227424672Y-113331010D01*
X227424906Y-113325054D01*
X227425303Y-113323014D01*
X227427006Y-113317631D01*
X227427500Y-113311355D01*
X227427500Y-113260987D01*
X227427576Y-113257100D01*
X227428453Y-113234777D01*
X227429719Y-113202558D01*
X227427997Y-113196062D01*
X227427500Y-113187038D01*
X227427500Y-112468085D01*
X227446407Y-112409894D01*
X227456496Y-112398081D01*
X228030191Y-111824385D01*
X228038905Y-111816643D01*
X228059341Y-111800533D01*
X228059343Y-111800531D01*
X228065154Y-111795950D01*
X228080401Y-111773890D01*
X228084324Y-111768213D01*
X228132963Y-111731092D01*
X228165766Y-111725500D01*
X228242772Y-111725500D01*
X228332547Y-111714636D01*
X228472783Y-111659113D01*
X228478158Y-111655033D01*
X228478160Y-111655032D01*
X228587543Y-111572005D01*
X228592922Y-111567922D01*
X228602064Y-111555878D01*
X228680032Y-111453160D01*
X228680033Y-111453158D01*
X228684113Y-111447783D01*
X228739636Y-111307547D01*
X228750500Y-111217772D01*
X228750500Y-110607228D01*
X228739636Y-110517453D01*
X228698324Y-110413111D01*
X228686598Y-110383493D01*
X228686597Y-110383492D01*
X228684113Y-110377217D01*
X228677394Y-110368364D01*
X228597005Y-110262457D01*
X228592922Y-110257078D01*
X228587543Y-110252995D01*
X228478160Y-110169968D01*
X228478158Y-110169967D01*
X228472783Y-110165887D01*
X228332547Y-110110364D01*
X228242772Y-110099500D01*
X227257228Y-110099500D01*
X227167453Y-110110364D01*
X227027217Y-110165887D01*
X227021842Y-110169967D01*
X227021840Y-110169968D01*
X226912457Y-110252995D01*
X226907078Y-110257078D01*
X226902995Y-110262457D01*
X226822607Y-110368364D01*
X226815887Y-110377217D01*
X226813403Y-110383492D01*
X226813402Y-110383493D01*
X226801676Y-110413111D01*
X226760364Y-110517453D01*
X226749500Y-110607228D01*
X226749500Y-111217772D01*
X226760364Y-111307547D01*
X226815887Y-111447783D01*
X226819967Y-111453158D01*
X226819968Y-111453160D01*
X226843310Y-111483911D01*
X226907078Y-111567922D01*
X226913572Y-111572851D01*
X226914185Y-111573733D01*
X226917225Y-111576773D01*
X226916678Y-111577320D01*
X226948488Y-111623095D01*
X226947203Y-111684267D01*
X226923716Y-111721707D01*
X226719814Y-111925610D01*
X226711100Y-111933353D01*
X226684846Y-111954050D01*
X226682929Y-111951619D01*
X226641128Y-111974608D01*
X226580423Y-111966950D01*
X226549861Y-111944565D01*
X226525336Y-111918033D01*
X226525335Y-111918032D01*
X226520311Y-111912597D01*
X226514502Y-111909223D01*
X226507777Y-111903200D01*
X226326284Y-111721707D01*
X226298507Y-111667190D01*
X226308078Y-111606758D01*
X226332980Y-111576978D01*
X226332775Y-111576773D01*
X226335068Y-111574481D01*
X226336433Y-111572847D01*
X226342922Y-111567922D01*
X226406690Y-111483911D01*
X226430032Y-111453160D01*
X226430033Y-111453158D01*
X226434113Y-111447783D01*
X226489636Y-111307547D01*
X226500500Y-111217772D01*
X226500500Y-110607228D01*
X226489636Y-110517453D01*
X226448324Y-110413111D01*
X226436598Y-110383493D01*
X226436597Y-110383492D01*
X226434113Y-110377217D01*
X226427394Y-110368364D01*
X226347005Y-110262457D01*
X226342922Y-110257078D01*
X226337543Y-110252995D01*
X226228160Y-110169968D01*
X226228158Y-110169967D01*
X226222783Y-110165887D01*
X226082547Y-110110364D01*
X225992772Y-110099500D01*
X225007228Y-110099500D01*
X224917453Y-110110364D01*
X224777217Y-110165887D01*
X224771842Y-110169967D01*
X224771840Y-110169968D01*
X224662457Y-110252995D01*
X224657078Y-110257078D01*
X224652995Y-110262457D01*
X224572607Y-110368364D01*
X224565887Y-110377217D01*
X224563403Y-110383492D01*
X224563402Y-110383493D01*
X224551676Y-110413111D01*
X224510364Y-110517453D01*
X224499500Y-110607228D01*
X224499500Y-111217772D01*
X224510364Y-111307547D01*
X224565887Y-111447783D01*
X224569967Y-111453158D01*
X224569968Y-111453160D01*
X224647936Y-111555878D01*
X224657078Y-111567922D01*
X224662457Y-111572005D01*
X224771840Y-111655032D01*
X224771842Y-111655033D01*
X224777217Y-111659113D01*
X224917453Y-111714636D01*
X225007228Y-111725500D01*
X225080249Y-111725500D01*
X225138440Y-111744407D01*
X225152952Y-111757304D01*
X225153069Y-111757431D01*
X225154327Y-111758904D01*
X225155697Y-111760274D01*
X225189977Y-111794553D01*
X225192671Y-111797356D01*
X225229689Y-111837403D01*
X225235495Y-111840775D01*
X225242224Y-111846801D01*
X225520113Y-112124689D01*
X225793504Y-112398080D01*
X225821281Y-112452597D01*
X225822500Y-112468084D01*
X225822500Y-112781916D01*
X225803593Y-112840107D01*
X225793504Y-112851920D01*
X225601920Y-113043504D01*
X225547403Y-113071281D01*
X225531916Y-113072500D01*
X222109637Y-113072500D01*
X222051446Y-113053593D01*
X222015482Y-113004093D01*
X222015482Y-112942907D01*
X222049782Y-112894644D01*
X222112543Y-112847005D01*
X222117922Y-112842922D01*
X222165574Y-112780143D01*
X222215814Y-112745225D01*
X222244428Y-112741000D01*
X222433905Y-112741000D01*
X222446302Y-112742385D01*
X222446307Y-112742329D01*
X222453339Y-112742895D01*
X222460217Y-112744451D01*
X222512780Y-112741190D01*
X222518909Y-112741000D01*
X222535255Y-112741000D01*
X222538740Y-112740501D01*
X222538752Y-112740500D01*
X222546159Y-112739439D01*
X222554061Y-112738629D01*
X222593555Y-112736179D01*
X222593558Y-112736178D01*
X222600592Y-112735742D01*
X222607221Y-112733349D01*
X222607225Y-112733348D01*
X222609878Y-112732390D01*
X222629455Y-112727509D01*
X222632241Y-112727110D01*
X222639224Y-112726110D01*
X222681668Y-112706812D01*
X222689028Y-112703816D01*
X222726245Y-112690381D01*
X222726247Y-112690380D01*
X222732881Y-112687985D01*
X222740845Y-112682166D01*
X222758268Y-112671985D01*
X222767257Y-112667898D01*
X222772598Y-112663296D01*
X222772604Y-112663292D01*
X222802587Y-112637457D01*
X222808807Y-112632518D01*
X222817057Y-112626491D01*
X222817061Y-112626487D01*
X222820143Y-112624236D01*
X222831340Y-112613039D01*
X222836720Y-112608044D01*
X222868462Y-112580693D01*
X222873804Y-112576090D01*
X222878279Y-112569186D01*
X222891350Y-112553029D01*
X223464213Y-111980166D01*
X223518730Y-111952389D01*
X223535769Y-111951182D01*
X223573760Y-111951779D01*
X223579575Y-111950447D01*
X223579577Y-111950447D01*
X223733206Y-111915262D01*
X223733209Y-111915261D01*
X223739029Y-111913928D01*
X223745929Y-111910458D01*
X223819393Y-111873509D01*
X223890498Y-111837747D01*
X223895035Y-111833872D01*
X223895038Y-111833870D01*
X224014888Y-111731508D01*
X224014891Y-111731505D01*
X224019423Y-111727634D01*
X224043633Y-111693942D01*
X224114877Y-111594796D01*
X224114878Y-111594794D01*
X224118361Y-111589947D01*
X224124579Y-111574481D01*
X224179377Y-111438167D01*
X224179378Y-111438165D01*
X224181601Y-111432634D01*
X224184661Y-111411135D01*
X224205034Y-111267985D01*
X224205034Y-111267979D01*
X224205490Y-111264778D01*
X224205645Y-111250000D01*
X224185276Y-111081680D01*
X224125345Y-110923077D01*
X224057395Y-110824209D01*
X224043654Y-110804216D01*
X224029312Y-110783349D01*
X224024145Y-110778745D01*
X224023845Y-110778231D01*
X224020908Y-110774900D01*
X224021561Y-110774324D01*
X223993273Y-110725919D01*
X223991000Y-110704826D01*
X223991000Y-99527638D01*
X224009907Y-99469447D01*
X224059407Y-99433483D01*
X224090000Y-99428638D01*
X225723500Y-99428638D01*
X225781691Y-99447545D01*
G37*
G04 #@! TD.AperFunction*
G04 #@! TA.AperFunction,Conductor*
G36*
X222968191Y-99447545D02*
G01*
X223004155Y-99497045D01*
X223009000Y-99527638D01*
X223009000Y-110703810D01*
X222990093Y-110762001D01*
X222983572Y-110770053D01*
X222980101Y-110773908D01*
X222975604Y-110777831D01*
X222972173Y-110782713D01*
X222972172Y-110782714D01*
X222881544Y-110911665D01*
X222878113Y-110916547D01*
X222867938Y-110942644D01*
X222821196Y-111062531D01*
X222816524Y-111074513D01*
X222815745Y-111080428D01*
X222815745Y-111080429D01*
X222795958Y-111230730D01*
X222767809Y-111287811D01*
X222361679Y-111693942D01*
X222307162Y-111721720D01*
X222246730Y-111712149D01*
X222209779Y-111676711D01*
X222209113Y-111677217D01*
X222205921Y-111673011D01*
X222205919Y-111673009D01*
X222123750Y-111564756D01*
X222122005Y-111562457D01*
X222117922Y-111557078D01*
X222015860Y-111479608D01*
X222003160Y-111469968D01*
X222003158Y-111469967D01*
X221997783Y-111465887D01*
X221857547Y-111410364D01*
X221767772Y-111399500D01*
X220732228Y-111399500D01*
X220642453Y-111410364D01*
X220502217Y-111465887D01*
X220496842Y-111469967D01*
X220496840Y-111469968D01*
X220484140Y-111479608D01*
X220382078Y-111557078D01*
X220377995Y-111562457D01*
X220302743Y-111661598D01*
X220290887Y-111677217D01*
X220283275Y-111696444D01*
X220244276Y-111743587D01*
X220191227Y-111759000D01*
X220066095Y-111759000D01*
X220053698Y-111757615D01*
X220053693Y-111757671D01*
X220046661Y-111757105D01*
X220039783Y-111755549D01*
X219987221Y-111758810D01*
X219981091Y-111759000D01*
X219964745Y-111759000D01*
X219961260Y-111759499D01*
X219961248Y-111759500D01*
X219953841Y-111760561D01*
X219945939Y-111761371D01*
X219906448Y-111763821D01*
X219906446Y-111763821D01*
X219899408Y-111764258D01*
X219890119Y-111767611D01*
X219870544Y-111772491D01*
X219860776Y-111773890D01*
X219854353Y-111776810D01*
X219854354Y-111776810D01*
X219818332Y-111793188D01*
X219810971Y-111796184D01*
X219773759Y-111809617D01*
X219773757Y-111809618D01*
X219767120Y-111812014D01*
X219761422Y-111816177D01*
X219759154Y-111817834D01*
X219741732Y-111828015D01*
X219732743Y-111832102D01*
X219706176Y-111854994D01*
X219697417Y-111862541D01*
X219691204Y-111867475D01*
X219679858Y-111875764D01*
X219668661Y-111886961D01*
X219663281Y-111891955D01*
X219637781Y-111913928D01*
X219626196Y-111923910D01*
X219621716Y-111930821D01*
X219608648Y-111946974D01*
X218075618Y-113480004D01*
X218021101Y-113507781D01*
X218005614Y-113509000D01*
X217334585Y-113509000D01*
X217276394Y-113490093D01*
X217240430Y-113440593D01*
X217240430Y-113379407D01*
X217264581Y-113339996D01*
X217294555Y-113310022D01*
X217297358Y-113307328D01*
X217331968Y-113275335D01*
X217337403Y-113270311D01*
X217340777Y-113264502D01*
X217346801Y-113257776D01*
X218657603Y-111946974D01*
X219969950Y-110634626D01*
X220024467Y-110606849D01*
X220084899Y-110616420D01*
X220128164Y-110659685D01*
X220135023Y-110677010D01*
X220171980Y-110804216D01*
X220176890Y-110815561D01*
X220254144Y-110946191D01*
X220261721Y-110955960D01*
X220369040Y-111063279D01*
X220378809Y-111070856D01*
X220509439Y-111148110D01*
X220520784Y-111153020D01*
X220667651Y-111195689D01*
X220677551Y-111197497D01*
X220707416Y-111199847D01*
X220711308Y-111200000D01*
X221034320Y-111200000D01*
X221047005Y-111195878D01*
X221050000Y-111191757D01*
X221050000Y-111184320D01*
X221450000Y-111184320D01*
X221454122Y-111197005D01*
X221458243Y-111200000D01*
X221788692Y-111200000D01*
X221792584Y-111199847D01*
X221822449Y-111197497D01*
X221832349Y-111195689D01*
X221979216Y-111153020D01*
X221990561Y-111148110D01*
X222121191Y-111070856D01*
X222130960Y-111063279D01*
X222238279Y-110955960D01*
X222245856Y-110946191D01*
X222323110Y-110815561D01*
X222328020Y-110804216D01*
X222370689Y-110657349D01*
X222372497Y-110647449D01*
X222374847Y-110617584D01*
X222375000Y-110613692D01*
X222375000Y-110515680D01*
X222370878Y-110502995D01*
X222366757Y-110500000D01*
X221465680Y-110500000D01*
X221452995Y-110504122D01*
X221450000Y-110508243D01*
X221450000Y-111184320D01*
X221050000Y-111184320D01*
X221050000Y-110084320D01*
X221450000Y-110084320D01*
X221454122Y-110097005D01*
X221458243Y-110100000D01*
X222359320Y-110100000D01*
X222372005Y-110095878D01*
X222375000Y-110091757D01*
X222375000Y-109986308D01*
X222374847Y-109982416D01*
X222372497Y-109952551D01*
X222370689Y-109942651D01*
X222328020Y-109795784D01*
X222323110Y-109784439D01*
X222245856Y-109653809D01*
X222238279Y-109644040D01*
X222130960Y-109536721D01*
X222121191Y-109529144D01*
X221990561Y-109451890D01*
X221979216Y-109446980D01*
X221832349Y-109404311D01*
X221822449Y-109402503D01*
X221792584Y-109400153D01*
X221788692Y-109400000D01*
X221465680Y-109400000D01*
X221452995Y-109404122D01*
X221450000Y-109408243D01*
X221450000Y-110084320D01*
X221050000Y-110084320D01*
X221050000Y-109415680D01*
X221045878Y-109402995D01*
X221041757Y-109400000D01*
X220711308Y-109400000D01*
X220707416Y-109400153D01*
X220677551Y-109402503D01*
X220667651Y-109404311D01*
X220520784Y-109446980D01*
X220509439Y-109451890D01*
X220378809Y-109529144D01*
X220369040Y-109536721D01*
X220346504Y-109559257D01*
X220291987Y-109587034D01*
X220231555Y-109577463D01*
X220188290Y-109534198D01*
X220177500Y-109489253D01*
X220177500Y-104468085D01*
X220196407Y-104409894D01*
X220206496Y-104398081D01*
X221280191Y-103324385D01*
X221288905Y-103316643D01*
X221309341Y-103300533D01*
X221309343Y-103300531D01*
X221315154Y-103295950D01*
X221347006Y-103249864D01*
X221348809Y-103247341D01*
X221382077Y-103202300D01*
X221384348Y-103195834D01*
X221388243Y-103190198D01*
X221405136Y-103136785D01*
X221406098Y-103133900D01*
X221424671Y-103081010D01*
X221424905Y-103075061D01*
X221425304Y-103073013D01*
X221427006Y-103067631D01*
X221427500Y-103061355D01*
X221427500Y-103010977D01*
X221427576Y-103007089D01*
X221429428Y-102959953D01*
X221429719Y-102952559D01*
X221427997Y-102946063D01*
X221427500Y-102937039D01*
X221427500Y-99527638D01*
X221446407Y-99469447D01*
X221495907Y-99433483D01*
X221526500Y-99428638D01*
X222910000Y-99428638D01*
X222968191Y-99447545D01*
G37*
G04 #@! TD.AperFunction*
G04 #@! TA.AperFunction,Conductor*
G36*
X190439611Y-117043903D02*
G01*
X190475575Y-117093403D01*
X190475575Y-117154589D01*
X190451424Y-117194000D01*
X190374920Y-117270504D01*
X190320403Y-117298281D01*
X190304916Y-117299500D01*
X189405354Y-117299500D01*
X189388951Y-117301452D01*
X189386531Y-117301740D01*
X189386530Y-117301740D01*
X189379154Y-117302618D01*
X189276847Y-117348061D01*
X189197759Y-117427287D01*
X189171283Y-117487175D01*
X189159631Y-117513530D01*
X189118809Y-117559107D01*
X189069085Y-117572500D01*
X188541428Y-117572500D01*
X188483237Y-117553593D01*
X188459486Y-117526934D01*
X188459113Y-117527217D01*
X188455518Y-117522480D01*
X188455514Y-117522476D01*
X188435348Y-117495907D01*
X188372005Y-117412457D01*
X188367922Y-117407078D01*
X188298693Y-117354530D01*
X188253160Y-117319968D01*
X188253158Y-117319967D01*
X188247783Y-117315887D01*
X188107547Y-117260364D01*
X188017772Y-117249500D01*
X186982228Y-117249500D01*
X186892453Y-117260364D01*
X186752217Y-117315887D01*
X186746842Y-117319967D01*
X186746840Y-117319968D01*
X186701307Y-117354530D01*
X186632078Y-117407078D01*
X186627995Y-117412457D01*
X186564653Y-117495907D01*
X186540887Y-117527217D01*
X186485364Y-117667453D01*
X186474500Y-117757228D01*
X186474500Y-118342772D01*
X186485364Y-118432547D01*
X186540887Y-118572783D01*
X186544967Y-118578158D01*
X186544968Y-118578160D01*
X186603976Y-118655899D01*
X186632078Y-118692922D01*
X186637457Y-118697005D01*
X186746840Y-118780032D01*
X186746842Y-118780033D01*
X186752217Y-118784113D01*
X186892453Y-118839636D01*
X186982228Y-118850500D01*
X188017772Y-118850500D01*
X188107547Y-118839636D01*
X188247783Y-118784113D01*
X188253158Y-118780033D01*
X188253160Y-118780032D01*
X188362543Y-118697005D01*
X188367922Y-118692922D01*
X188396024Y-118655899D01*
X188455032Y-118578160D01*
X188455033Y-118578158D01*
X188459113Y-118572783D01*
X188469803Y-118545784D01*
X188491867Y-118490056D01*
X188530868Y-118442912D01*
X188583915Y-118427500D01*
X189050500Y-118427500D01*
X189108691Y-118446407D01*
X189144655Y-118495907D01*
X189149500Y-118526500D01*
X189149500Y-118844646D01*
X189150154Y-118850141D01*
X189152618Y-118870846D01*
X189150969Y-118871042D01*
X189148569Y-118923271D01*
X189131627Y-118949545D01*
X189132448Y-118950141D01*
X189118823Y-118968894D01*
X189068371Y-119067912D01*
X189063616Y-119082547D01*
X189050609Y-119164673D01*
X189050000Y-119172412D01*
X189050000Y-119584320D01*
X189054122Y-119597005D01*
X189058243Y-119600000D01*
X190251000Y-119600000D01*
X190309191Y-119618907D01*
X190345155Y-119668407D01*
X190350000Y-119699000D01*
X190350000Y-120784319D01*
X190354122Y-120797004D01*
X190358243Y-120799999D01*
X190877585Y-120799999D01*
X190885329Y-120799389D01*
X190967449Y-120786384D01*
X190982091Y-120781627D01*
X191081106Y-120731177D01*
X191093551Y-120722135D01*
X191172135Y-120643551D01*
X191181177Y-120631106D01*
X191216466Y-120561847D01*
X191259731Y-120518582D01*
X191320163Y-120509011D01*
X191374680Y-120536789D01*
X191388881Y-120557470D01*
X191389175Y-120557268D01*
X191394350Y-120564798D01*
X191398061Y-120573153D01*
X191477287Y-120652241D01*
X191485645Y-120655936D01*
X191572864Y-120694496D01*
X191572866Y-120694496D01*
X191579673Y-120697506D01*
X191605354Y-120700500D01*
X191860307Y-120700500D01*
X191918498Y-120719407D01*
X191948161Y-120753863D01*
X191949392Y-120756232D01*
X191962584Y-120781627D01*
X191966799Y-120789742D01*
X191968187Y-120792520D01*
X191992429Y-120843005D01*
X191996471Y-120847378D01*
X191997640Y-120849112D01*
X192000239Y-120854116D01*
X192004327Y-120858904D01*
X192039978Y-120894555D01*
X192042672Y-120897358D01*
X192079689Y-120937403D01*
X192085498Y-120940777D01*
X192092224Y-120946801D01*
X192675618Y-121530195D01*
X192683353Y-121538901D01*
X192704050Y-121565154D01*
X192736445Y-121587543D01*
X192750092Y-121596975D01*
X192752623Y-121598784D01*
X192791746Y-121627681D01*
X192791750Y-121627683D01*
X192797700Y-121632078D01*
X192804169Y-121634350D01*
X192809802Y-121638243D01*
X192816856Y-121640474D01*
X192863199Y-121655131D01*
X192866147Y-121656115D01*
X192874793Y-121659151D01*
X192918990Y-121674671D01*
X192924938Y-121674905D01*
X192926989Y-121675304D01*
X192932369Y-121677006D01*
X192938645Y-121677500D01*
X192989023Y-121677500D01*
X192992911Y-121677576D01*
X193047441Y-121679719D01*
X193053937Y-121677997D01*
X193062961Y-121677500D01*
X193401026Y-121677500D01*
X193459217Y-121696407D01*
X193495181Y-121745907D01*
X193499326Y-121767793D01*
X193499500Y-121767772D01*
X193499857Y-121770720D01*
X193499857Y-121770724D01*
X193505234Y-121815154D01*
X193510364Y-121857547D01*
X193512706Y-121863461D01*
X193563028Y-121990561D01*
X193565887Y-121997783D01*
X193657078Y-122117922D01*
X193662457Y-122122005D01*
X193771840Y-122205032D01*
X193771842Y-122205033D01*
X193777217Y-122209113D01*
X193917453Y-122264636D01*
X194007228Y-122275500D01*
X194592772Y-122275500D01*
X194682547Y-122264636D01*
X194822783Y-122209113D01*
X194828158Y-122205033D01*
X194828160Y-122205032D01*
X194937543Y-122122005D01*
X194942922Y-122117922D01*
X195034113Y-121997783D01*
X195036973Y-121990561D01*
X195087294Y-121863461D01*
X195089636Y-121857547D01*
X195100500Y-121767772D01*
X195100500Y-121034320D01*
X195300000Y-121034320D01*
X195304122Y-121047005D01*
X195308243Y-121050000D01*
X195984320Y-121050000D01*
X195997005Y-121045878D01*
X196000000Y-121041757D01*
X196000000Y-120140680D01*
X195995878Y-120127995D01*
X195991757Y-120125000D01*
X195886308Y-120125000D01*
X195882416Y-120125153D01*
X195852551Y-120127503D01*
X195842651Y-120129311D01*
X195695784Y-120171980D01*
X195684439Y-120176890D01*
X195553809Y-120254144D01*
X195544040Y-120261721D01*
X195436721Y-120369040D01*
X195429144Y-120378809D01*
X195351890Y-120509439D01*
X195346980Y-120520784D01*
X195304311Y-120667651D01*
X195302503Y-120677551D01*
X195300153Y-120707416D01*
X195300000Y-120711308D01*
X195300000Y-121034320D01*
X195100500Y-121034320D01*
X195100500Y-120732228D01*
X195089636Y-120642453D01*
X195039230Y-120515140D01*
X195036598Y-120508493D01*
X195036597Y-120508492D01*
X195034113Y-120502217D01*
X195015076Y-120477136D01*
X194947005Y-120387457D01*
X194942922Y-120382078D01*
X194910006Y-120357093D01*
X194828160Y-120294968D01*
X194828158Y-120294967D01*
X194822783Y-120290887D01*
X194777307Y-120272882D01*
X194730163Y-120233881D01*
X194714946Y-120174618D01*
X194737470Y-120117729D01*
X194743747Y-120110830D01*
X194744555Y-120110022D01*
X194747358Y-120107328D01*
X194781968Y-120075335D01*
X194787403Y-120070311D01*
X194790777Y-120064502D01*
X194796801Y-120057776D01*
X196648081Y-118206496D01*
X196702598Y-118178719D01*
X196718085Y-118177500D01*
X198239253Y-118177500D01*
X198297444Y-118196407D01*
X198333408Y-118245907D01*
X198333408Y-118307093D01*
X198309257Y-118346504D01*
X198261721Y-118394040D01*
X198254144Y-118403809D01*
X198176890Y-118534439D01*
X198171980Y-118545784D01*
X198129311Y-118692651D01*
X198127503Y-118702551D01*
X198125153Y-118732416D01*
X198125000Y-118736308D01*
X198125000Y-118834320D01*
X198129122Y-118847005D01*
X198133243Y-118850000D01*
X199351000Y-118850000D01*
X199409191Y-118868907D01*
X199445155Y-118918407D01*
X199450000Y-118949000D01*
X199450000Y-119934320D01*
X199454122Y-119947005D01*
X199458243Y-119950000D01*
X199788692Y-119950000D01*
X199792584Y-119949847D01*
X199822449Y-119947497D01*
X199832349Y-119945689D01*
X199979216Y-119903020D01*
X199990561Y-119898110D01*
X200121191Y-119820856D01*
X200130960Y-119813279D01*
X200238279Y-119705960D01*
X200245856Y-119696191D01*
X200324787Y-119562726D01*
X200370682Y-119522263D01*
X200431596Y-119516505D01*
X200484261Y-119547651D01*
X200508561Y-119603804D01*
X200509000Y-119613121D01*
X200509000Y-119755614D01*
X200490093Y-119813805D01*
X200480004Y-119825617D01*
X200283200Y-120022422D01*
X200109059Y-120196563D01*
X200054542Y-120224341D01*
X199998434Y-120214243D01*
X199997783Y-120215887D01*
X199857547Y-120160364D01*
X199767772Y-120149500D01*
X198732228Y-120149500D01*
X198642453Y-120160364D01*
X198502217Y-120215887D01*
X198501630Y-120214405D01*
X198449569Y-120224903D01*
X198390942Y-120196563D01*
X197731368Y-119536990D01*
X197703089Y-119478879D01*
X197689150Y-119363692D01*
X198125000Y-119363692D01*
X198125153Y-119367584D01*
X198127503Y-119397449D01*
X198129311Y-119407349D01*
X198171980Y-119554216D01*
X198176890Y-119565561D01*
X198254144Y-119696191D01*
X198261721Y-119705960D01*
X198369040Y-119813279D01*
X198378809Y-119820856D01*
X198509439Y-119898110D01*
X198520784Y-119903020D01*
X198667651Y-119945689D01*
X198677551Y-119947497D01*
X198707416Y-119949847D01*
X198711308Y-119950000D01*
X199034320Y-119950000D01*
X199047005Y-119945878D01*
X199050000Y-119941757D01*
X199050000Y-119265680D01*
X199045878Y-119252995D01*
X199041757Y-119250000D01*
X198140680Y-119250000D01*
X198127995Y-119254122D01*
X198125000Y-119258243D01*
X198125000Y-119363692D01*
X197689150Y-119363692D01*
X197685993Y-119337603D01*
X197685993Y-119337601D01*
X197685276Y-119331680D01*
X197625345Y-119173077D01*
X197613165Y-119155354D01*
X197532692Y-119038267D01*
X197529312Y-119033349D01*
X197402721Y-118920560D01*
X197252881Y-118841224D01*
X197170661Y-118820572D01*
X197094231Y-118801373D01*
X197094228Y-118801373D01*
X197088441Y-118799919D01*
X197002841Y-118799471D01*
X196924861Y-118799062D01*
X196924859Y-118799062D01*
X196918895Y-118799031D01*
X196913099Y-118800423D01*
X196913095Y-118800423D01*
X196805703Y-118826207D01*
X196754032Y-118838612D01*
X196720609Y-118855863D01*
X196608675Y-118913636D01*
X196608673Y-118913638D01*
X196603369Y-118916375D01*
X196475604Y-119027831D01*
X196472173Y-119032713D01*
X196472172Y-119032714D01*
X196383920Y-119158284D01*
X196378113Y-119166547D01*
X196347319Y-119245530D01*
X196324486Y-119304093D01*
X196316524Y-119324513D01*
X196294394Y-119492611D01*
X196295049Y-119498544D01*
X196295049Y-119498548D01*
X196312344Y-119655204D01*
X196312999Y-119661135D01*
X196371266Y-119820356D01*
X196465830Y-119961083D01*
X196468978Y-119963947D01*
X196492430Y-120019739D01*
X196478458Y-120079307D01*
X196432140Y-120119287D01*
X196424369Y-120122177D01*
X196402995Y-120129122D01*
X196400000Y-120133243D01*
X196400000Y-121034320D01*
X196404122Y-121047005D01*
X196408243Y-121050000D01*
X197084320Y-121050000D01*
X197097005Y-121045878D01*
X197100000Y-121041757D01*
X197100000Y-120711308D01*
X197099847Y-120707416D01*
X197097497Y-120677551D01*
X197095689Y-120667651D01*
X197053019Y-120520781D01*
X197050578Y-120515140D01*
X197044819Y-120454226D01*
X197075965Y-120401561D01*
X197132118Y-120377261D01*
X197191830Y-120390608D01*
X197211439Y-120405818D01*
X198106079Y-121300458D01*
X198113864Y-121310202D01*
X198113907Y-121310165D01*
X198118478Y-121315536D01*
X198122240Y-121321499D01*
X198127522Y-121326164D01*
X198127523Y-121326165D01*
X198161708Y-121356356D01*
X198166177Y-121360556D01*
X198177739Y-121372118D01*
X198186570Y-121378736D01*
X198192696Y-121383723D01*
X198227658Y-121414601D01*
X198234040Y-121417597D01*
X198234041Y-121417598D01*
X198236591Y-121418795D01*
X198253888Y-121429188D01*
X198260575Y-121434200D01*
X198287453Y-121464822D01*
X198288402Y-121466506D01*
X198290887Y-121472783D01*
X198382078Y-121592922D01*
X198387457Y-121597005D01*
X198496840Y-121680032D01*
X198496842Y-121680033D01*
X198502217Y-121684113D01*
X198642453Y-121739636D01*
X198732228Y-121750500D01*
X199767772Y-121750500D01*
X199857547Y-121739636D01*
X199997783Y-121684113D01*
X200003158Y-121680033D01*
X200003160Y-121680032D01*
X200112543Y-121597005D01*
X200117922Y-121592922D01*
X200209113Y-121472783D01*
X200211598Y-121466505D01*
X200213388Y-121463329D01*
X200255155Y-121425023D01*
X200254895Y-121424616D01*
X200257220Y-121423129D01*
X200258664Y-121421805D01*
X200260833Y-121420819D01*
X200260835Y-121420818D01*
X200267257Y-121417898D01*
X200272598Y-121413296D01*
X200272604Y-121413292D01*
X200302587Y-121387457D01*
X200308807Y-121382518D01*
X200317057Y-121376491D01*
X200317061Y-121376487D01*
X200320143Y-121374236D01*
X200331340Y-121363039D01*
X200336720Y-121358044D01*
X200368462Y-121330693D01*
X200373804Y-121326090D01*
X200378279Y-121319186D01*
X200391350Y-121303029D01*
X201300458Y-120393921D01*
X201310202Y-120386136D01*
X201310165Y-120386093D01*
X201315536Y-120381522D01*
X201321499Y-120377760D01*
X201339752Y-120357093D01*
X201356356Y-120338292D01*
X201360556Y-120333823D01*
X201372119Y-120322260D01*
X201374435Y-120319169D01*
X201378730Y-120313440D01*
X201383746Y-120307279D01*
X201409931Y-120277630D01*
X201409931Y-120277629D01*
X201414601Y-120272342D01*
X201418796Y-120263407D01*
X201429191Y-120246108D01*
X201430875Y-120243861D01*
X201430875Y-120243860D01*
X201435107Y-120238214D01*
X201451475Y-120194554D01*
X201454557Y-120187240D01*
X201471378Y-120151413D01*
X201471379Y-120151411D01*
X201474374Y-120145031D01*
X201475892Y-120135284D01*
X201481014Y-120115760D01*
X201482002Y-120113125D01*
X201482003Y-120113123D01*
X201484478Y-120106519D01*
X201486975Y-120072924D01*
X201487934Y-120060011D01*
X201488841Y-120052117D01*
X201490410Y-120042038D01*
X201491000Y-120038250D01*
X201491000Y-120022422D01*
X201491272Y-120015086D01*
X201494900Y-119966261D01*
X201493181Y-119958208D01*
X201491000Y-119937541D01*
X201491000Y-119505004D01*
X201509907Y-119446813D01*
X201559407Y-119410849D01*
X201620593Y-119410849D01*
X201660004Y-119435000D01*
X201793504Y-119568500D01*
X201821281Y-119623017D01*
X201822500Y-119638504D01*
X201822500Y-120718739D01*
X201821814Y-120730376D01*
X201817884Y-120763579D01*
X201819214Y-120770860D01*
X201827945Y-120818669D01*
X201828456Y-120821736D01*
X201836783Y-120877122D01*
X201839749Y-120883299D01*
X201840980Y-120890039D01*
X201844391Y-120896605D01*
X201866799Y-120939742D01*
X201868187Y-120942520D01*
X201892429Y-120993005D01*
X201896471Y-120997378D01*
X201897640Y-120999112D01*
X201900239Y-121004116D01*
X201904327Y-121008904D01*
X201939978Y-121044555D01*
X201942672Y-121047358D01*
X201979689Y-121087403D01*
X201985498Y-121090777D01*
X201992224Y-121096801D01*
X202688008Y-121792584D01*
X203298920Y-122403496D01*
X203326697Y-122458013D01*
X203317126Y-122518445D01*
X203273861Y-122561710D01*
X203228916Y-122572500D01*
X196525887Y-122572500D01*
X196467696Y-122553593D01*
X196431732Y-122504093D01*
X196431732Y-122442907D01*
X196467696Y-122393407D01*
X196518120Y-122374805D01*
X196547449Y-122372497D01*
X196557349Y-122370689D01*
X196704216Y-122328020D01*
X196715561Y-122323110D01*
X196846191Y-122245856D01*
X196855960Y-122238279D01*
X196963279Y-122130960D01*
X196970856Y-122121191D01*
X197048110Y-121990561D01*
X197053020Y-121979216D01*
X197095689Y-121832349D01*
X197097497Y-121822449D01*
X197099847Y-121792584D01*
X197100000Y-121788692D01*
X197100000Y-121465680D01*
X197095878Y-121452995D01*
X197091757Y-121450000D01*
X195315680Y-121450000D01*
X195302995Y-121454122D01*
X195300000Y-121458243D01*
X195300000Y-121788692D01*
X195300153Y-121792584D01*
X195302503Y-121822449D01*
X195304311Y-121832349D01*
X195346980Y-121979216D01*
X195351890Y-121990561D01*
X195429144Y-122121191D01*
X195436721Y-122130960D01*
X195544040Y-122238279D01*
X195553809Y-122245856D01*
X195684439Y-122323110D01*
X195695784Y-122328020D01*
X195842651Y-122370689D01*
X195852551Y-122372497D01*
X195881880Y-122374805D01*
X195938408Y-122398220D01*
X195970378Y-122450389D01*
X195965577Y-122511386D01*
X195925840Y-122557911D01*
X195874113Y-122572500D01*
X181099000Y-122572500D01*
X181040809Y-122553593D01*
X181004845Y-122504093D01*
X181000000Y-122473500D01*
X181000000Y-120263692D01*
X186375000Y-120263692D01*
X186375153Y-120267584D01*
X186377503Y-120297449D01*
X186379311Y-120307349D01*
X186421980Y-120454216D01*
X186426890Y-120465561D01*
X186504144Y-120596191D01*
X186511721Y-120605960D01*
X186619040Y-120713279D01*
X186628809Y-120720856D01*
X186759439Y-120798110D01*
X186770784Y-120803020D01*
X186917651Y-120845689D01*
X186927551Y-120847497D01*
X186957416Y-120849847D01*
X186961308Y-120850000D01*
X187284320Y-120850000D01*
X187297005Y-120845878D01*
X187300000Y-120841757D01*
X187300000Y-120834320D01*
X187700000Y-120834320D01*
X187704122Y-120847005D01*
X187708243Y-120850000D01*
X188038692Y-120850000D01*
X188042584Y-120849847D01*
X188072449Y-120847497D01*
X188082349Y-120845689D01*
X188229216Y-120803020D01*
X188240561Y-120798110D01*
X188371191Y-120720856D01*
X188380960Y-120713279D01*
X188488279Y-120605960D01*
X188495856Y-120596191D01*
X188573110Y-120465561D01*
X188578020Y-120454216D01*
X188585757Y-120427585D01*
X189050001Y-120427585D01*
X189050611Y-120435329D01*
X189063616Y-120517449D01*
X189068373Y-120532091D01*
X189118823Y-120631106D01*
X189127865Y-120643551D01*
X189206449Y-120722135D01*
X189218894Y-120731177D01*
X189317912Y-120781629D01*
X189332547Y-120786384D01*
X189414673Y-120799391D01*
X189422412Y-120800000D01*
X189934320Y-120800000D01*
X189947005Y-120795878D01*
X189950000Y-120791757D01*
X189950000Y-120015680D01*
X189945878Y-120002995D01*
X189941757Y-120000000D01*
X189065681Y-120000000D01*
X189052996Y-120004122D01*
X189050001Y-120008243D01*
X189050001Y-120427585D01*
X188585757Y-120427585D01*
X188620689Y-120307349D01*
X188622497Y-120297449D01*
X188624847Y-120267584D01*
X188625000Y-120263692D01*
X188625000Y-120165680D01*
X188620878Y-120152995D01*
X188616757Y-120150000D01*
X187715680Y-120150000D01*
X187702995Y-120154122D01*
X187700000Y-120158243D01*
X187700000Y-120834320D01*
X187300000Y-120834320D01*
X187300000Y-120165680D01*
X187295878Y-120152995D01*
X187291757Y-120150000D01*
X186390680Y-120150000D01*
X186377995Y-120154122D01*
X186375000Y-120158243D01*
X186375000Y-120263692D01*
X181000000Y-120263692D01*
X181000000Y-119734320D01*
X186375000Y-119734320D01*
X186379122Y-119747005D01*
X186383243Y-119750000D01*
X187284320Y-119750000D01*
X187297005Y-119745878D01*
X187300000Y-119741757D01*
X187300000Y-119734320D01*
X187700000Y-119734320D01*
X187704122Y-119747005D01*
X187708243Y-119750000D01*
X188609320Y-119750000D01*
X188622005Y-119745878D01*
X188625000Y-119741757D01*
X188625000Y-119636308D01*
X188624847Y-119632416D01*
X188622497Y-119602551D01*
X188620689Y-119592651D01*
X188578020Y-119445784D01*
X188573110Y-119434439D01*
X188495856Y-119303809D01*
X188488279Y-119294040D01*
X188380960Y-119186721D01*
X188371191Y-119179144D01*
X188240561Y-119101890D01*
X188229216Y-119096980D01*
X188082349Y-119054311D01*
X188072449Y-119052503D01*
X188042584Y-119050153D01*
X188038692Y-119050000D01*
X187715680Y-119050000D01*
X187702995Y-119054122D01*
X187700000Y-119058243D01*
X187700000Y-119734320D01*
X187300000Y-119734320D01*
X187300000Y-119065680D01*
X187295878Y-119052995D01*
X187291757Y-119050000D01*
X186961308Y-119050000D01*
X186957416Y-119050153D01*
X186927551Y-119052503D01*
X186917651Y-119054311D01*
X186770784Y-119096980D01*
X186759439Y-119101890D01*
X186628809Y-119179144D01*
X186619040Y-119186721D01*
X186511721Y-119294040D01*
X186504144Y-119303809D01*
X186426890Y-119434439D01*
X186421980Y-119445784D01*
X186379311Y-119592651D01*
X186377503Y-119602551D01*
X186375153Y-119632416D01*
X186375000Y-119636308D01*
X186375000Y-119734320D01*
X181000000Y-119734320D01*
X181000000Y-117123996D01*
X181018907Y-117065805D01*
X181068407Y-117029841D01*
X181099000Y-117024996D01*
X190381420Y-117024996D01*
X190439611Y-117043903D01*
G37*
G04 #@! TD.AperFunction*
G04 #@! TA.AperFunction,Conductor*
G36*
X196037107Y-117446407D02*
G01*
X196073071Y-117495907D01*
X196073071Y-117557093D01*
X196048920Y-117596504D01*
X194301920Y-119343504D01*
X194247403Y-119371281D01*
X194231916Y-119372500D01*
X193449500Y-119372500D01*
X193391309Y-119353593D01*
X193355345Y-119304093D01*
X193350500Y-119273500D01*
X193350500Y-119155354D01*
X193347382Y-119129154D01*
X193349031Y-119128958D01*
X193351431Y-119076729D01*
X193368373Y-119050455D01*
X193367552Y-119049859D01*
X193381177Y-119031106D01*
X193431629Y-118932088D01*
X193436384Y-118917453D01*
X193449391Y-118835327D01*
X193450000Y-118827588D01*
X193450000Y-118415680D01*
X193445878Y-118402995D01*
X193441757Y-118400000D01*
X192249000Y-118400000D01*
X192190809Y-118381093D01*
X192154845Y-118331593D01*
X192150000Y-118301000D01*
X192150000Y-118099000D01*
X192168907Y-118040809D01*
X192218407Y-118004845D01*
X192249000Y-118000000D01*
X193434319Y-118000000D01*
X193447004Y-117995878D01*
X193449999Y-117991757D01*
X193449999Y-117572415D01*
X193449390Y-117564681D01*
X193445796Y-117541984D01*
X193455370Y-117481553D01*
X193498635Y-117438289D01*
X193543578Y-117427500D01*
X195978916Y-117427500D01*
X196037107Y-117446407D01*
G37*
G04 #@! TD.AperFunction*
G04 #@! TA.AperFunction,Conductor*
G36*
X207593764Y-24131407D02*
G01*
X207629728Y-24180907D01*
X207629728Y-24242093D01*
X207611411Y-24275136D01*
X207566524Y-24328630D01*
X207564189Y-24332878D01*
X207564188Y-24332879D01*
X207557455Y-24345126D01*
X207467276Y-24509162D01*
X207404984Y-24705532D01*
X207404444Y-24710344D01*
X207404444Y-24710345D01*
X207402825Y-24724780D01*
X207387000Y-24865864D01*
X207387000Y-27476841D01*
X207387235Y-27479236D01*
X207387235Y-27479240D01*
X207401337Y-27623061D01*
X207402020Y-27630030D01*
X207403416Y-27634655D01*
X207403417Y-27634658D01*
X207423703Y-27701847D01*
X207461565Y-27827251D01*
X207558282Y-28009151D01*
X207688489Y-28168800D01*
X207692217Y-28171884D01*
X207692218Y-28171885D01*
X207836449Y-28291203D01*
X207847225Y-28300118D01*
X208028445Y-28398103D01*
X208091645Y-28417667D01*
X208220625Y-28457593D01*
X208220629Y-28457594D01*
X208225246Y-28459023D01*
X208230054Y-28459528D01*
X208230057Y-28459529D01*
X208425315Y-28480051D01*
X208425317Y-28480051D01*
X208430131Y-28480557D01*
X208490146Y-28475095D01*
X208630478Y-28462325D01*
X208630483Y-28462324D01*
X208635297Y-28461886D01*
X208832928Y-28403720D01*
X208843673Y-28398103D01*
X208980323Y-28326663D01*
X209015498Y-28308274D01*
X209019270Y-28305241D01*
X209019275Y-28305238D01*
X209088966Y-28249205D01*
X209146164Y-28227477D01*
X209205209Y-28243519D01*
X209243548Y-28291203D01*
X209250000Y-28326359D01*
X209250000Y-28901000D01*
X209231093Y-28959191D01*
X209181593Y-28995155D01*
X209151000Y-29000000D01*
X207136500Y-29000000D01*
X207078309Y-28981093D01*
X207042345Y-28931593D01*
X207037500Y-28901000D01*
X207037500Y-28790680D01*
X207033378Y-28777995D01*
X207029257Y-28775000D01*
X206286500Y-28775000D01*
X206228309Y-28756093D01*
X206192345Y-28706593D01*
X206187500Y-28676000D01*
X206187500Y-28359320D01*
X206587500Y-28359320D01*
X206591622Y-28372005D01*
X206595743Y-28375000D01*
X207021819Y-28375000D01*
X207034504Y-28370878D01*
X207037499Y-28366757D01*
X207037499Y-27847415D01*
X207036889Y-27839671D01*
X207023884Y-27757551D01*
X207019127Y-27742909D01*
X206968677Y-27643894D01*
X206959635Y-27631449D01*
X206881051Y-27552865D01*
X206868606Y-27543823D01*
X206769588Y-27493371D01*
X206754953Y-27488616D01*
X206672827Y-27475609D01*
X206665088Y-27475000D01*
X206603180Y-27475000D01*
X206590495Y-27479122D01*
X206587500Y-27483243D01*
X206587500Y-28359320D01*
X206187500Y-28359320D01*
X206187500Y-27490681D01*
X206183378Y-27477996D01*
X206179257Y-27475001D01*
X206109915Y-27475001D01*
X206102171Y-27475611D01*
X206020051Y-27488616D01*
X206005409Y-27493373D01*
X205906395Y-27543823D01*
X205890193Y-27555594D01*
X205832004Y-27574500D01*
X205292854Y-27574500D01*
X205276451Y-27576452D01*
X205274031Y-27576740D01*
X205274030Y-27576740D01*
X205266654Y-27577618D01*
X205227661Y-27594938D01*
X205166805Y-27601281D01*
X205147443Y-27595008D01*
X205114636Y-27580504D01*
X205114634Y-27580504D01*
X205107827Y-27577494D01*
X205093822Y-27575861D01*
X205084994Y-27574832D01*
X205084993Y-27574832D01*
X205082146Y-27574500D01*
X204492854Y-27574500D01*
X204476451Y-27576452D01*
X204474031Y-27576740D01*
X204474030Y-27576740D01*
X204466654Y-27577618D01*
X204427661Y-27594938D01*
X204366805Y-27601281D01*
X204347443Y-27595008D01*
X204314636Y-27580504D01*
X204314634Y-27580504D01*
X204307827Y-27577494D01*
X204293822Y-27575861D01*
X204284994Y-27574832D01*
X204284993Y-27574832D01*
X204282146Y-27574500D01*
X203692854Y-27574500D01*
X203676451Y-27576452D01*
X203674031Y-27576740D01*
X203674030Y-27576740D01*
X203666654Y-27577618D01*
X203627661Y-27594938D01*
X203566805Y-27601281D01*
X203547443Y-27595008D01*
X203514636Y-27580504D01*
X203514634Y-27580504D01*
X203507827Y-27577494D01*
X203493822Y-27575861D01*
X203484994Y-27574832D01*
X203484993Y-27574832D01*
X203482146Y-27574500D01*
X202892854Y-27574500D01*
X202876451Y-27576452D01*
X202874031Y-27576740D01*
X202874030Y-27576740D01*
X202866654Y-27577618D01*
X202764347Y-27623061D01*
X202757890Y-27629529D01*
X202757889Y-27629530D01*
X202752770Y-27634658D01*
X202685259Y-27702287D01*
X202639994Y-27804673D01*
X202637000Y-27830354D01*
X202637000Y-28901000D01*
X202618093Y-28959191D01*
X202568593Y-28995155D01*
X202538000Y-29000000D01*
X200424000Y-29000000D01*
X200365809Y-28981093D01*
X200329845Y-28931593D01*
X200325000Y-28901000D01*
X200325000Y-28326663D01*
X200343907Y-28268472D01*
X200393407Y-28232508D01*
X200454593Y-28232508D01*
X200487105Y-28250382D01*
X200536449Y-28291203D01*
X200547225Y-28300118D01*
X200728445Y-28398103D01*
X200791645Y-28417667D01*
X200920625Y-28457593D01*
X200920629Y-28457594D01*
X200925246Y-28459023D01*
X200930054Y-28459528D01*
X200930057Y-28459529D01*
X201125315Y-28480051D01*
X201125317Y-28480051D01*
X201130131Y-28480557D01*
X201190146Y-28475095D01*
X201330478Y-28462325D01*
X201330483Y-28462324D01*
X201335297Y-28461886D01*
X201532928Y-28403720D01*
X201543673Y-28398103D01*
X201680323Y-28326663D01*
X201715498Y-28308274D01*
X201765002Y-28268472D01*
X201872280Y-28182219D01*
X201872283Y-28182217D01*
X201876053Y-28179185D01*
X201879168Y-28175473D01*
X202005359Y-28025085D01*
X202005360Y-28025083D01*
X202008476Y-28021370D01*
X202015194Y-28009151D01*
X202105389Y-27845085D01*
X202107724Y-27840838D01*
X202110141Y-27833221D01*
X202168552Y-27649083D01*
X202170016Y-27644468D01*
X202171636Y-27630030D01*
X202187691Y-27486892D01*
X202187691Y-27486890D01*
X202188000Y-27484136D01*
X202188000Y-24873159D01*
X202172980Y-24719970D01*
X202113435Y-24522749D01*
X202016718Y-24340849D01*
X201962255Y-24274071D01*
X201940128Y-24217026D01*
X201955758Y-24157871D01*
X202003173Y-24119200D01*
X202038974Y-24112500D01*
X207535573Y-24112500D01*
X207593764Y-24131407D01*
G37*
G04 #@! TD.AperFunction*
M02*
