  0
SECTION
  2
HEADER
  9
$ACADVER
  1
AC1027
  9
$ACADMAINTVER
 70
   125
  9
$DWGCODEPAGE
  3
ANSI_1252
  9
$LASTSAVEDBY
  1
Mandrew
  9
$REQUIREDVERSIONS
160
                 0
  9
$INSBASE
 10
0.0
 20
0.0
 30
0.0
  9
$EXTMIN
 10
27.90000000003932
 20
-128.300000000148
 30
0.0
  9
$EXTMAX
 10
381.6749999999671
 20
-24.09999999987141
 30
0.0
  9
$LIMMIN
 10
0.0
 20
0.0
  9
$LIMMAX
 10
12.0
 20
9.0
  9
$ORTHOMODE
 70
     0
  9
$REGENMODE
 70
     1
  9
$FILLMODE
 70
     1
  9
$QTEXTMODE
 70
     0
  9
$MIRRTEXT
 70
     0
  9
$LTSCALE
 40
1.0
  9
$ATTMODE
 70
     1
  9
$TEXTSIZE
 40
0.2
  9
$TRACEWID
 40
0.05
  9
$TEXTSTYLE
  7
Standard
  9
$CLAYER
  8
0
  9
$CELTYPE
  6
ByLayer
  9
$CECOLOR
 62
   256
  9
$CELTSCALE
 40
1.0
  9
$DISPSILH
 70
     0
  9
$DIMSCALE
 40
1.0
  9
$DIMASZ
 40
0.18
  9
$DIMEXO
 40
0.0625
  9
$DIMDLI
 40
0.38
  9
$DIMRND
 40
0.0
  9
$DIMDLE
 40
0.0
  9
$DIMEXE
 40
0.18
  9
$DIMTP
 40
0.0
  9
$DIMTM
 40
0.0
  9
$DIMTXT
 40
0.18
  9
$DIMCEN
 40
0.09
  9
$DIMTSZ
 40
0.0
  9
$DIMTOL
 70
     0
  9
$DIMLIM
 70
     0
  9
$DIMTIH
 70
     1
  9
$DIMTOH
 70
     1
  9
$DIMSE1
 70
     0
  9
$DIMSE2
 70
     0
  9
$DIMTAD
 70
     0
  9
$DIMZIN
 70
     0
  9
$DIMBLK
  1

  9
$DIMASO
 70
     1
  9
$DIMSHO
 70
     1
  9
$DIMPOST
  1

  9
$DIMAPOST
  1

  9
$DIMALT
 70
     0
  9
$DIMALTD
 70
     2
  9
$DIMALTF
 40
25.4
  9
$DIMLFAC
 40
1.0
  9
$DIMTOFL
 70
     0
  9
$DIMTVP
 40
0.0
  9
$DIMTIX
 70
     0
  9
$DIMSOXD
 70
     0
  9
$DIMSAH
 70
     0
  9
$DIMBLK1
  1

  9
$DIMBLK2
  1

  9
$DIMSTYLE
  2
Standard
  9
$DIMCLRD
 70
     0
  9
$DIMCLRE
 70
     0
  9
$DIMCLRT
 70
     0
  9
$DIMTFAC
 40
1.0
  9
$DIMGAP
 40
0.09
  9
$DIMJUST
 70
     0
  9
$DIMSD1
 70
     0
  9
$DIMSD2
 70
     0
  9
$DIMTOLJ
 70
     1
  9
$DIMTZIN
 70
     0
  9
$DIMALTZ
 70
     0
  9
$DIMALTTZ
 70
     0
  9
$DIMUPT
 70
     0
  9
$DIMDEC
 70
     4
  9
$DIMTDEC
 70
     4
  9
$DIMALTU
 70
     2
  9
$DIMALTTD
 70
     2
  9
$DIMTXSTY
  7
Standard
  9
$DIMAUNIT
 70
     0
  9
$DIMADEC
 70
     0
  9
$DIMALTRND
 40
0.0
  9
$DIMAZIN
 70
     0
  9
$DIMDSEP
 70
    46
  9
$DIMATFIT
 70
     3
  9
$DIMFRAC
 70
     0
  9
$DIMLDRBLK
  1

  9
$DIMLUNIT
 70
     2
  9
$DIMLWD
 70
    -2
  9
$DIMLWE
 70
    -2
  9
$DIMTMOVE
 70
     0
  9
$DIMFXL
 40
1.0
  9
$DIMFXLON
 70
     0
  9
$DIMJOGANG
 40
0.7853981633974483
  9
$DIMTFILL
 70
     0
  9
$DIMTFILLCLR
 70
     0
  9
$DIMARCSYM
 70
     0
  9
$DIMLTYPE
  6

  9
$DIMLTEX1
  6

  9
$DIMLTEX2
  6

  9
$DIMTXTDIRECTION
 70
     0
  9
$LUNITS
 70
     2
  9
$LUPREC
 70
     8
  9
$SKETCHINC
 40
0.1
  9
$FILLETRAD
 40
0.0
  9
$AUNITS
 70
     0
  9
$AUPREC
 70
     0
  9
$MENU
  1
.
  9
$ELEVATION
 40
0.0
  9
$PELEVATION
 40
0.0
  9
$THICKNESS
 40
0.0
  9
$LIMCHECK
 70
     0
  9
$CHAMFERA
 40
0.0
  9
$CHAMFERB
 40
0.0
  9
$CHAMFERC
 40
0.0
  9
$CHAMFERD
 40
0.0
  9
$SKPOLY
 70
     0
  9
$TDCREATE
 40
2458548.181782407
  9
$TDUCREATE
 40
2458548.390115741
  9
$TDUPDATE
 40
2459529.701712963
  9
$TDUUPDATE
 40
2459529.910046296
  9
$TDINDWG
 40
0.1109143519
  9
$TDUSRTIMER
 40
0.1109143519
  9
$USRTIMER
 70
     1
  9
$ANGBASE
 50
0.0
  9
$ANGDIR
 70
     0
  9
$PDMODE
 70
     0
  9
$PDSIZE
 40
0.0
  9
$PLINEWID
 40
0.0
  9
$SPLFRAME
 70
     0
  9
$SPLINETYPE
 70
     6
  9
$SPLINESEGS
 70
     8
  9
$HANDSEED
  5
698
  9
$SURFTAB1
 70
     6
  9
$SURFTAB2
 70
     6
  9
$SURFTYPE
 70
     6
  9
$SURFU
 70
     6
  9
$SURFV
 70
     6
  9
$UCSBASE
  2

  9
$UCSNAME
  2

  9
$UCSORG
 10
0.0
 20
0.0
 30
0.0
  9
$UCSXDIR
 10
1.0
 20
0.0
 30
0.0
  9
$UCSYDIR
 10
0.0
 20
1.0
 30
0.0
  9
$UCSORTHOREF
  2

  9
$UCSORTHOVIEW
 70
     0
  9
$UCSORGTOP
 10
0.0
 20
0.0
 30
0.0
  9
$UCSORGBOTTOM
 10
0.0
 20
0.0
 30
0.0
  9
$UCSORGLEFT
 10
0.0
 20
0.0
 30
0.0
  9
$UCSORGRIGHT
 10
0.0
 20
0.0
 30
0.0
  9
$UCSORGFRONT
 10
0.0
 20
0.0
 30
0.0
  9
$UCSORGBACK
 10
0.0
 20
0.0
 30
0.0
  9
$PUCSBASE
  2

  9
$PUCSNAME
  2

  9
$PUCSORG
 10
0.0
 20
0.0
 30
0.0
  9
$PUCSXDIR
 10
1.0
 20
0.0
 30
0.0
  9
$PUCSYDIR
 10
0.0
 20
1.0
 30
0.0
  9
$PUCSORTHOREF
  2

  9
$PUCSORTHOVIEW
 70
     0
  9
$PUCSORGTOP
 10
0.0
 20
0.0
 30
0.0
  9
$PUCSORGBOTTOM
 10
0.0
 20
0.0
 30
0.0
  9
$PUCSORGLEFT
 10
0.0
 20
0.0
 30
0.0
  9
$PUCSORGRIGHT
 10
0.0
 20
0.0
 30
0.0
  9
$PUCSORGFRONT
 10
0.0
 20
0.0
 30
0.0
  9
$PUCSORGBACK
 10
0.0
 20
0.0
 30
0.0
  9
$USERI1
 70
     0
  9
$USERI2
 70
     0
  9
$USERI3
 70
     0
  9
$USERI4
 70
     0
  9
$USERI5
 70
     0
  9
$USERR1
 40
0.0
  9
$USERR2
 40
0.0
  9
$USERR3
 40
0.0
  9
$USERR4
 40
0.0
  9
$USERR5
 40
0.0
  9
$WORLDVIEW
 70
     1
  9
$SHADEDGE
 70
     3
  9
$SHADEDIF
 70
    70
  9
$TILEMODE
 70
     1
  9
$MAXACTVP
 70
    64
  9
$PINSBASE
 10
0.0
 20
0.0
 30
0.0
  9
$PLIMCHECK
 70
     0
  9
$PEXTMIN
 10
1.000000000000000E+20
 20
1.000000000000000E+20
 30
1.000000000000000E+20
  9
$PEXTMAX
 10
-1.000000000000000E+20
 20
-1.000000000000000E+20
 30
-1.000000000000000E+20
  9
$PLIMMIN
 10
0.0
 20
0.0
  9
$PLIMMAX
 10
12.0
 20
9.0
  9
$UNITMODE
 70
     0
  9
$VISRETAIN
 70
     1
  9
$PLINEGEN
 70
     0
  9
$PSLTSCALE
 70
     1
  9
$TREEDEPTH
 70
  3020
  9
$CMLSTYLE
  2
Standard
  9
$CMLJUST
 70
     0
  9
$CMLSCALE
 40
1.0
  9
$PROXYGRAPHICS
 70
     1
  9
$MEASUREMENT
 70
     0
  9
$CELWEIGHT
370
    -1
  9
$ENDCAPS
280
     0
  9
$JOINSTYLE
280
     0
  9
$LWDISPLAY
290
     0
  9
$INSUNITS
 70
     4
  9
$HYPERLINKBASE
  1

  9
$STYLESHEET
  1

  9
$XEDIT
290
     1
  9
$CEPSNTYPE
380
     0
  9
$PSTYLEMODE
290
     1
  9
$FINGERPRINTGUID
  2
{004E7A06-FD27-AA4F-B004-5B35F313F7EC}
  9
$VERSIONGUID
  2
{403840FA-072A-3C49-BCED-DD3E3F4448BB}
  9
$EXTNAMES
290
     1
  9
$PSVPSCALE
 40
0.0
  9
$OLESTARTUP
290
     0
  9
$SORTENTS
280
   127
  9
$INDEXCTL
280
     0
  9
$HIDETEXT
280
     1
  9
$XCLIPFRAME
280
     2
  9
$HALOGAP
280
     0
  9
$OBSCOLOR
 70
   257
  9
$OBSLTYPE
280
     0
  9
$INTERSECTIONDISPLAY
280
     0
  9
$INTERSECTIONCOLOR
 70
   257
  9
$DIMASSOC
280
     2
  9
$PROJECTNAME
  1

  9
$CAMERADISPLAY
290
     0
  9
$LENSLENGTH
 40
50.0
  9
$CAMERAHEIGHT
 40
0.0
  9
$STEPSPERSEC
 40
2.0
  9
$STEPSIZE
 40
6.0
  9
$3DDWFPREC
 40
2.0
  9
$PSOLWIDTH
 40
0.25
  9
$PSOLHEIGHT
 40
4.0
  9
$LOFTANG1
 40
1.570796326794896
  9
$LOFTANG2
 40
1.570796326794896
  9
$LOFTMAG1
 40
0.0
  9
$LOFTMAG2
 40
0.0
  9
$LOFTPARAM
 70
     7
  9
$LOFTNORMALS
280
     1
  9
$LATITUDE
 40
37.795
  9
$LONGITUDE
 40
-122.394
  9
$NORTHDIRECTION
 40
0.0
  9
$TIMEZONE
 70
 -8000
  9
$LIGHTGLYPHDISPLAY
280
     1
  9
$TILEMODELIGHTSYNCH
280
     1
  9
$CMATERIAL
347
11
  9
$SOLIDHIST
280
     0
  9
$SHOWHIST
280
     1
  9
$DWFFRAME
280
     2
  9
$DGNFRAME
280
     0
  9
$REALWORLDSCALE
290
     1
  9
$INTERFERECOLOR
 62
     1
  9
$INTERFEREOBJVS
345
33
  9
$INTERFEREVPVS
346
30
  9
$CSHADOW
280
     0
  9
$SHADOWPLANELOCATION
 40
0.0
  0
ENDSEC
  0
SECTION
  2
CLASSES
  0
CLASS
  1
ACDBDICTIONARYWDFLT
  2
AcDbDictionaryWithDefault
  3
ObjectDBX Classes
 90
        0
 91
        1
280
     0
281
     0
  0
CLASS
  1
MATERIAL
  2
AcDbMaterial
  3
ObjectDBX Classes
 90
     1153
 91
        3
280
     0
281
     0
  0
CLASS
  1
VISUALSTYLE
  2
AcDbVisualStyle
  3
ObjectDBX Classes
 90
     4095
 91
       24
280
     0
281
     0
  0
CLASS
  1
SCALE
  2
AcDbScale
  3
ObjectDBX Classes
 90
     1153
 91
       17
280
     0
281
     0
  0
CLASS
  1
TABLESTYLE
  2
AcDbTableStyle
  3
ObjectDBX Classes
 90
     4095
 91
        1
280
     0
281
     0
  0
CLASS
  1
MLEADERSTYLE
  2
AcDbMLeaderStyle
  3
ACDB_MLEADERSTYLE_CLASS
 90
     4095
 91
        1
280
     0
281
     0
  0
CLASS
  1
ACDBSECTIONVIEWSTYLE
  2
AcDbSectionViewStyle
  3
ObjectDBX Classes
 90
     1025
 91
        1
280
     0
281
     0
  0
CLASS
  1
ACDBDETAILVIEWSTYLE
  2
AcDbDetailViewStyle
  3
ObjectDBX Classes
 90
     1025
 91
        1
280
     0
281
     0
  0
CLASS
  1
SORTENTSTABLE
  2
AcDbSortentsTable
  3
ObjectDBX Classes
 90
        0
 91
        2
280
     0
281
     0
  0
CLASS
  1
DICTIONARYVAR
  2
AcDbDictionaryVar
  3
ObjectDBX Classes
 90
        0
 91
        6
280
     0
281
     0
  0
CLASS
  1
CELLSTYLEMAP
  2
AcDbCellStyleMap
  3
ObjectDBX Classes
 90
     1152
 91
        3
280
     0
281
     0
  0
ENDSEC
  0
SECTION
  2
TABLES
  0
TABLE
  2
VPORT
  5
8
330
0
100
AcDbSymbolTable
 70
     1
1001
ACAD
1000
DbSaveVer
1071
      247
  0
VPORT
  5
57
330
8
100
AcDbSymbolTableRecord
100
AcDbViewportTableRecord
  2
*Active
 70
     0
 10
0.0
 20
0.0
 11
1.0
 21
1.0
 12
314.7415238934225
 22
-90.85050451176838
 13
0.0
 23
0.0
 14
0.5
 24
0.5
 15
0.5
 25
0.5
 16
0.0
 26
0.0
 36
1.0
 17
0.0
 27
0.0
 37
0.0
 40
353.942258518284
 41
2.145012573344509
 42
50.0
 43
0.0
 44
0.0
 50
0.0
 51
0.0
 71
     0
 72
  1000
 73
     1
 74
     3
 75
     0
 76
     0
 77
     0
 78
     0
281
     0
 65
     1
110
0.0
120
0.0
130
0.0
111
1.0
121
0.0
131
0.0
112
0.0
122
1.0
132
0.0
 79
     0
146
0.0
348
2F
 60
     3
 61
     5
292
     1
282
     1
141
0.0
142
0.0
 63
   250
421
  3355443
1001
ACAD_NAV_VCDISPLAY
1070
     1
  0
ENDTAB
  0
TABLE
  2
LTYPE
  5
5
330
0
100
AcDbSymbolTable
 70
     2
  0
LTYPE
  5
5B
330
5
100
AcDbSymbolTableRecord
100
AcDbLinetypeTableRecord
  2
ByBlock
 70
     0
  3

 72
    65
 73
     0
 40
0.0
  0
LTYPE
  5
5C
330
5
100
AcDbSymbolTableRecord
100
AcDbLinetypeTableRecord
  2
ByLayer
 70
     0
  3

 72
    65
 73
     0
 40
0.0
  0
LTYPE
  5
5D
330
5
100
AcDbSymbolTableRecord
100
AcDbLinetypeTableRecord
  2
Continuous
 70
     0
  3
Solid line
 72
    65
 73
     0
 40
0.0
  0
ENDTAB
  0
TABLE
  2
LAYER
  5
2
102
{ACAD_XDICTIONARY
360
84
102
}
330
0
100
AcDbSymbolTable
 70
     1
  0
LAYER
  5
54
330
2
100
AcDbSymbolTableRecord
100
AcDbLayerTableRecord
  2
0
 70
     0
 62
     7
  6
Continuous
370
    -3
390
F
347
21
348
0
  0
ENDTAB
  0
TABLE
  2
STYLE
  5
3
330
0
100
AcDbSymbolTable
 70
     2
  0
STYLE
  5
55
330
3
100
AcDbSymbolTableRecord
100
AcDbTextStyleTableRecord
  2
Standard
 70
     0
 40
0.0
 41
1.0
 50
0.0
 71
     0
 42
0.2
  3
txt
  4

  0
STYLE
  5
5A
330
3
100
AcDbSymbolTableRecord
100
AcDbTextStyleTableRecord
  2
Annotative
 70
     0
 40
0.0
 41
1.0
 50
0.0
 71
     0
 42
0.2
  3
txt
  4

1001
AcadAnnotative
1000
AnnotativeData
1002
{
1070
     1
1070
     1
1002
}
  0
ENDTAB
  0
TABLE
  2
VIEW
  5
6
330
0
100
AcDbSymbolTable
 70
     2
  0
ENDTAB
  0
TABLE
  2
UCS
  5
7
330
0
100
AcDbSymbolTable
 70
     0
  0
ENDTAB
  0
TABLE
  2
APPID
  5
9
330
0
100
AcDbSymbolTable
 70
     7
  0
APPID
  5
56
330
9
100
AcDbSymbolTableRecord
100
AcDbRegAppTableRecord
  2
ACAD
 70
     0
  0
APPID
  5
5E
330
9
100
AcDbSymbolTableRecord
100
AcDbRegAppTableRecord
  2
AcadAnnotative
 70
     0
  0
APPID
  5
7A
330
9
100
AcDbSymbolTableRecord
100
AcDbRegAppTableRecord
  2
ACAD_NAV_VCDISPLAY
 70
     0
  0
APPID
  5
7C
330
9
100
AcDbSymbolTableRecord
100
AcDbRegAppTableRecord
  2
ACAD_EXEMPT_FROM_CAD_STANDARDS
 70
     0
  0
APPID
  5
304
330
9
100
AcDbSymbolTableRecord
100
AcDbRegAppTableRecord
  2
ACAD_MLEADERVER
 70
     0
  0
APPID
  5
401
330
9
100
AcDbSymbolTableRecord
100
AcDbRegAppTableRecord
  2
ACAD_PSEXT
 70
     0
  0
APPID
  5
638
330
9
100
AcDbSymbolTableRecord
100
AcDbRegAppTableRecord
  2
Acad_TC
 70
     0
  0
ENDTAB
  0
TABLE
  2
DIMSTYLE
  5
A
330
0
100
AcDbSymbolTable
 70
     3
100
AcDbDimStyleTable
 71
     1
340
58
  0
DIMSTYLE
105
58
330
A
100
AcDbSymbolTableRecord
100
AcDbDimStyleTableRecord
  2
Standard
 70
     0
340
55
  0
DIMSTYLE
105
59
330
A
100
AcDbSymbolTableRecord
100
AcDbDimStyleTableRecord
  2
Annotative
 70
     0
340
55
1001
AcadAnnotative
1000
AnnotativeData
1002
{
1070
     1
1070
     1
1002
}
  0
ENDTAB
  0
TABLE
  2
BLOCK_RECORD
  5
1
330
0
100
AcDbSymbolTable
 70
     3
  0
BLOCK_RECORD
  5
70
102
{ACAD_XDICTIONARY
360
449
102
}
330
1
100
AcDbSymbolTableRecord
100
AcDbBlockTableRecord
  2
*Model_Space
340
73
 70
     0
280
     1
281
     0
  0
BLOCK_RECORD
  5
6C
330
1
100
AcDbSymbolTableRecord
100
AcDbBlockTableRecord
  2
*Paper_Space
340
6F
 70
     0
280
     1
281
     0
  0
BLOCK_RECORD
  5
74
330
1
100
AcDbSymbolTableRecord
100
AcDbBlockTableRecord
  2
*Paper_Space0
340
77
 70
     0
280
     1
281
     0
  0
BLOCK_RECORD
  5
86
102
{ACAD_XDICTIONARY
360
12C
102
}
330
1
100
AcDbSymbolTableRecord
100
AcDbBlockTableRecord
  2
A$C4fa1fc65
340
0
 70
     4
280
     1
281
     0
  0
ENDTAB
  0
ENDSEC
  0
SECTION
  2
BLOCKS
  0
BLOCK
  5
71
330
70
100
AcDbEntity
  8
0
100
AcDbBlockBegin
  2
*Model_Space
 70
     0
 10
0.0
 20
0.0
 30
0.0
  3
*Model_Space
  1

  0
ENDBLK
  5
72
330
70
100
AcDbEntity
  8
0
100
AcDbBlockEnd
  0
BLOCK
  5
6D
330
6C
100
AcDbEntity
 67
     1
  8
0
100
AcDbBlockBegin
  2
*Paper_Space
 70
     0
 10
0.0
 20
0.0
 30
0.0
  3
*Paper_Space
  1

  0
ENDBLK
  5
6E
330
6C
100
AcDbEntity
 67
     1
  8
0
100
AcDbBlockEnd
  0
BLOCK
  5
75
330
74
100
AcDbEntity
 67
     1
  8
0
100
AcDbBlockBegin
  2
*Paper_Space0
 70
     0
 10
0.0
 20
0.0
 30
0.0
  3
*Paper_Space0
  1

  0
ENDBLK
  5
76
330
74
100
AcDbEntity
 67
     1
  8
0
100
AcDbBlockEnd
  0
BLOCK
  5
12E
330
86
100
AcDbEntity
  8
0
100
AcDbBlockBegin
  2
A$C4fa1fc65
 70
     0
 10
0.0
 20
0.0
 30
0.0
  3
A$C4fa1fc65
  1

  0
LWPOLYLINE
  5
87
330
86
100
AcDbEntity
  8
0
370
     0
100
AcDbPolyline
 90
        4
 70
     1
 43
0.0
 10
137.0625009302143
 20
39.39999981527274
 10
121.4625009302144
 20
39.39999981527274
 10
121.4625009302144
 20
26.5999998152729
 10
137.0625009302143
 20
26.5999998152729
  0
LWPOLYLINE
  5
88
330
86
100
AcDbEntity
  8
0
370
     0
100
AcDbPolyline
 90
        4
 70
     1
 43
0.0
 10
127.537500930217
 20
58.44999981527302
 10
111.9375009302166
 20
58.44999981527302
 10
111.9375009302166
 20
45.64999981527319
 10
127.537500930217
 20
45.64999981527272
  0
LWPOLYLINE
  5
89
330
86
100
AcDbEntity
  8
0
370
     0
100
AcDbPolyline
 90
        4
 70
     1
 43
0.0
 10
122.7750009302153
 20
77.49999981527309
 10
107.1750009302154
 20
77.49999981527309
 10
107.1750009302154
 20
64.69999981527303
 10
122.7750009302153
 20
64.69999981527303
  0
LWPOLYLINE
  5
8A
330
86
100
AcDbEntity
  8
0
370
     0
100
AcDbPolyline
 90
        4
 70
     1
 43
0.0
 10
325.7312537428506
 20
43.09999955280875
 10
325.7312537428506
 20
48.1999995528082
 10
323.1312537428503
 20
48.1999995528082
 10
323.1312537428503
 20
43.09999955280875
  0
LWPOLYLINE
  5
8B
330
86
100
AcDbEntity
  8
0
370
     0
100
AcDbPolyline
 90
        4
 70
     1
 43
0.0
 10
347.1312509302156
 20
43.0999998152729
 10
347.1312509302156
 20
48.19999981527303
 10
349.7312509302142
 20
48.19999981527303
 10
349.7312509302142
 20
43.0999998152729
  0
LWPOLYLINE
  5
8C
330
86
100
AcDbEntity
  8
0
370
     0
100
AcDbPolyline
 90
        4
 70
     1
 43
0.0
 10
104.2437509302167
 20
43.0999998152729
 10
104.2437509302167
 20
48.19999981527303
 10
106.8437509302157
 20
48.19999981527303
 10
106.8437509302157
 20
43.0999998152729
  0
LWPOLYLINE
  5
8D
330
86
100
AcDbEntity
  8
0
370
     0
100
AcDbPolyline
 90
        4
 70
     1
 43
0.0
 10
315.5687509302138
 20
36.8499998152729
 10
315.5687509302138
 20
41.94999981527303
 10
312.9687509302139
 20
41.94999981527303
 10
312.9687509302139
 20
36.8499998152729
  0
LWPOLYLINE
  5
8E
330
86
100
AcDbEntity
  8
0
370
     0
100
AcDbPolyline
 90
        4
 70
     1
 43
0.0
 10
347.7687509302145
 20
36.8499998152729
 10
347.7687509302145
 20
41.94999981527303
 10
350.3687509302126
 20
41.94999981527303
 10
350.3687509302126
 20
36.8499998152729
  0
LWPOLYLINE
  5
8F
330
86
100
AcDbEntity
  8
0
370
     0
100
AcDbPolyline
 90
        4
 70
     1
 43
0.0
 10
114.4062509302143
 20
36.84999981527318
 10
114.4062509302143
 20
41.94999981527303
 10
117.0062509302174
 20
41.94999981527303
 10
117.0062509302174
 20
36.84999981527318
  0
LWPOLYLINE
  5
90
330
86
100
AcDbEntity
  8
0
370
     0
100
AcDbPolyline
 90
        4
 70
     1
 43
0.0
 10
155.1875009302593
 20
4.999999815278211
 10
155.1875009302593
 20
10.09999981527823
 10
152.5875009302595
 20
10.09999981527823
 10
152.5875009302595
 20
4.999999815278211
  0
CIRCLE
  5
91
330
86
100
AcDbEntity
  8
0
  6
Continuous
370
     0
100
AcDbCircle
 10
176.8875009302605
 20
13.94999981527831
 30
0.0
 40
3.125
  0
LWPOLYLINE
  5
92
330
86
100
AcDbEntity
  8
0
  6
Continuous
370
     0
100
AcDbPolyline
 90
        4
 70
     1
 43
0.0
 10
183.9625009302594
 20
15.04999981527862
 10
183.9625009302594
 20
12.84999981527824
 10
181.7625009302583
 20
12.84999981527824
 10
181.7625009302583
 20
15.04999981527862
  0
LWPOLYLINE
  5
93
330
86
100
AcDbEntity
  8
0
370
     0
100
AcDbPolyline
 90
        4
 70
     1
 43
0.0
 10
169.8125009302606
 20
12.84999981527824
 10
169.8125009302606
 20
15.04999981527862
 10
172.0125009302596
 20
15.04999981527862
 10
172.0125009302596
 20
12.84999981527824
  0
CIRCLE
  5
94
330
86
100
AcDbEntity
  8
0
  6
Continuous
370
     0
100
AcDbCircle
 10
253.0875009302581
 20
13.94999981528889
 30
0.0
 40
3.125
  0
LWPOLYLINE
  5
95
330
86
100
AcDbEntity
  8
0
  6
Continuous
370
     0
100
AcDbPolyline
 90
        4
 70
     1
 43
0.0
 10
246.0125009302578
 20
15.04999981528721
 10
246.0125009302583
 20
12.84999981528693
 10
248.2125009302581
 20
12.84999981528762
 10
248.2125009302576
 20
15.0499998152876
  0
LWPOLYLINE
  5
96
330
86
100
AcDbEntity
  8
0
370
     0
100
AcDbPolyline
 90
        4
 70
     1
 43
0.0
 10
260.1625009302584
 20
12.84999981529074
 10
260.1625009302566
 20
15.04999981529079
 10
257.9625009302581
 20
15.04999981529045
 10
257.9625009302608
 20
12.84999981529012
  0
LWPOLYLINE
  5
97
330
86
100
AcDbEntity
  8
0
370
     0
100
AcDbPolyline
 90
        4
 70
     1
 43
0.0
 10
82.84375374285037
 20
43.09999955280875
 10
82.84375374285037
 20
48.19999955280859
 10
80.24375374285046
 20
48.19999955280859
 10
80.24375374285046
 20
43.09999955280875
  0
LWPOLYLINE
  5
98
330
86
100
AcDbEntity
  8
0
370
     0
100
AcDbPolyline
 90
        4
 70
     1
 43
0.0
 10
82.20625093021451
 20
36.8499998152729
 10
82.20625093021451
 20
41.94999981527303
 10
79.60625093021417
 20
41.94999981527303
 10
79.60625093021417
 20
36.8499998152729
  0
ARC
  5
99
330
86
100
AcDbEntity
  8
0
370
     0
100
AcDbCircle
 10
1.000000930251644
 20
4.749999815198009
 30
0.0
 40
1.0
100
AcDbArc
 50
180.0
 51
270.0
  0
LWPOLYLINE
  5
9A
330
86
100
AcDbEntity
  8
0
370
     0
100
AcDbPolyline
 90
        4
 70
     1
 43
0.0
 10
25.97500093021699
 20
4.999999815273096
 10
25.97500093021699
 20
10.09999981527357
 10
23.37500093021572
 20
10.09999981527357
 10
23.37500093021572
 20
4.999999815273096
  0
LWPOLYLINE
  5
9B
330
86
100
AcDbEntity
  8
0
370
     0
100
AcDbPolyline
 90
        4
 70
     1
 43
0.0
 10
51.57500093021553
 20
4.999999815273096
 10
51.57500093021553
 20
10.09999981527357
 10
54.17500093021542
 20
10.09999981527357
 10
54.17500093021542
 20
4.999999815273096
  0
LWPOLYLINE
  5
9C
330
86
100
AcDbEntity
  8
0
370
     0
100
AcDbPolyline
 90
        4
 70
     1
 43
0.0
 10
76.30000093021362
 20
10.67499981527311
 10
71.20000093021372
 20
10.67499981527311
 10
71.20000093021372
 20
8.074999815273031
 10
76.30000093021362
 20
8.074999815273031
  0
LWPOLYLINE
  5
9D
330
86
100
AcDbEntity
  8
0
370
     0
100
AcDbPolyline
 90
        4
 70
     1
 43
0.0
 10
76.30000093021362
 20
36.27499981527274
 10
71.20000093021372
 20
36.27499981527274
 10
71.20000093021372
 20
38.8749998152727
 10
76.30000093021362
 20
38.8749998152727
  0
LWPOLYLINE
  5
9E
330
86
100
AcDbEntity
  8
0
370
     0
100
AcDbPolyline
 90
        4
 70
     1
 43
0.0
 10
155.1875009302593
 20
22.89999981527808
 10
155.1875009302593
 20
17.79999981527821
 10
152.5875009302595
 20
17.79999981527821
 10
152.5875009302595
 20
22.89999981527808
  0
LWPOLYLINE
  5
9F
330
86
100
AcDbEntity
  8
0
370
     0
100
AcDbPolyline
 90
        4
 70
     1
 43
0.0
 10
277.3875009302583
 20
22.89999981527808
 10
277.3875009302583
 20
17.79999981527821
 10
274.7875009302616
 20
17.79999981527821
 10
274.7875009302616
 20
22.89999981527808
  0
ARC
  5
A0
330
86
100
AcDbEntity
  8
0
370
     0
100
AcDbCircle
 10
1.000000930251644
 20
99.34999981532872
 30
0.0
 40
1.0
100
AcDbArc
 50
90.0
 51
180.0
  0
LWPOLYLINE
  5
A1
330
86
100
AcDbEntity
  8
0
370
     0
100
AcDbPolyline
 90
        4
 70
     1
 43
0.0
 10
274.7875009302593
 20
4.999999815278211
 10
274.7875009302593
 20
10.09999981527823
 10
277.3875009302583
 20
10.09999981527823
 10
277.3875009302583
 20
4.999999815278211
  0
ARC
  5
A2
330
86
100
AcDbEntity
  8
0
100
AcDbCircle
 10
76.88750093023009
 20
102.8499998153284
 30
0.0
 40
1.199999999999817
100
AcDbArc
 50
180.0
 51
0.0
  0
LINE
  5
A3
330
86
100
AcDbEntity
  8
0
100
AcDbLine
 10
0.0000009302516446
 20
4.749999815198009
 30
0.0
 11
0.0000009302516446
 21
99.34999981532872
 31
0.0
  0
ARC
  5
A4
330
86
100
AcDbEntity
  8
0
100
AcDbCircle
 10
176.8875009302173
 20
102.8499998153282
 30
0.0
 40
1.199999999999817
100
AcDbArc
 50
180.0
 51
0.0
  0
ARC
  5
A5
330
86
100
AcDbEntity
  8
0
100
AcDbCircle
 10
276.8875009301996
 20
102.8499998153284
 30
0.0
 40
1.199999999999817
100
AcDbArc
 50
180.0
 51
0.0
  0
ARC
  5
A6
330
86
100
AcDbEntity
  8
0
370
     0
100
AcDbCircle
 10
352.7750009301794
 20
4.749999815198009
 30
0.0
 40
1.0
100
AcDbArc
 50
270.0
 51
0.0
  0
ARC
  5
A7
330
86
100
AcDbEntity
  8
0
370
     0
100
AcDbCircle
 10
352.7750009301794
 20
99.34999981532872
 30
0.0
 40
1.0
100
AcDbArc
 50
0.0
 51
90.0
  0
LINE
  5
A8
330
86
100
AcDbEntity
  8
0
100
AcDbLine
 10
353.7750009301794
 20
4.749999815198009
 30
0.0
 11
353.7750009301794
 21
99.34999981532872
 31
0.0
  0
LINE
  5
A9
330
86
100
AcDbEntity
  8
0
100
AcDbLine
 10
75.08750093019353
 20
104.0999998153287
 30
0.0
 11
72.23750093019408
 21
100.3499998153287
 31
0.0
  0
LINE
  5
AA
330
86
100
AcDbEntity
  8
0
100
AcDbLine
 10
75.08750093019353
 20
104.0999998153287
 30
0.0
 11
75.68750093022981
 21
104.0999998153287
 31
0.0
  0
LINE
  5
AB
330
86
100
AcDbEntity
  8
0
100
AcDbLine
 10
75.68750093022981
 20
104.0999998153287
 30
0.0
 11
75.68750093022981
 21
103.5999998153284
 31
0.0
  0
LINE
  5
AC
330
86
100
AcDbEntity
  8
0
100
AcDbLine
 10
78.68750093026573
 20
104.0999998153287
 30
0.0
 11
81.53750093026564
 21
100.3499998153287
 31
0.0
  0
LINE
  5
AD
330
86
100
AcDbEntity
  8
0
100
AcDbLine
 10
78.68750093026573
 20
104.0999998153287
 30
0.0
 11
78.08750093022945
 21
104.0999998153287
 31
0.0
  0
LINE
  5
AE
330
86
100
AcDbEntity
  8
0
100
AcDbLine
 10
78.08750093022945
 20
104.0999998153287
 30
0.0
 11
78.08750093022945
 21
103.5999998153284
 31
0.0
  0
LINE
  5
AF
330
86
100
AcDbEntity
  8
0
100
AcDbLine
 10
175.0875009301794
 20
104.0999998153287
 30
0.0
 11
172.2375009301813
 21
100.3499998153287
 31
0.0
  0
LINE
  5
B0
330
86
100
AcDbEntity
  8
0
100
AcDbLine
 10
175.0875009301794
 20
104.0999998153287
 30
0.0
 11
175.6875009302157
 21
104.0999998153287
 31
0.0
  0
LINE
  5
B1
330
86
100
AcDbEntity
  8
0
100
AcDbLine
 10
178.6875009302516
 20
104.0999998153287
 30
0.0
 11
181.5375009302502
 21
100.3499998153287
 31
0.0
  0
LINE
  5
B2
330
86
100
AcDbEntity
  8
0
100
AcDbLine
 10
178.6875009302516
 20
104.0999998153287
 30
0.0
 11
178.0875009302153
 21
104.0999998153287
 31
0.0
  0
LINE
  5
B3
330
86
100
AcDbEntity
  8
0
100
AcDbLine
 10
275.0875009301626
 20
104.0999998153287
 30
0.0
 11
272.2375009301623
 21
100.3499998153287
 31
0.0
  0
LINE
  5
B4
330
86
100
AcDbEntity
  8
0
100
AcDbLine
 10
275.0875009301626
 20
104.0999998153287
 30
0.0
 11
275.6875009301984
 21
104.0999998153289
 31
0.0
  0
LINE
  5
B5
330
86
100
AcDbEntity
  8
0
100
AcDbLine
 10
278.6875009302343
 20
104.0999998153287
 30
0.0
 11
281.5375009302343
 21
100.3499998153287
 31
0.0
  0
LINE
  5
B6
330
86
100
AcDbEntity
  8
0
100
AcDbLine
 10
278.6875009302343
 20
104.0999998153287
 30
0.0
 11
278.0875009301985
 21
104.0999998153289
 31
0.0
  0
LINE
  5
B7
330
86
100
AcDbEntity
  8
0
100
AcDbLine
 10
272.2375009301623
 20
100.3499998153287
 30
0.0
 11
181.5375009302502
 21
100.3499998153287
 31
0.0
  0
LINE
  5
B8
330
86
100
AcDbEntity
  8
0
100
AcDbLine
 10
172.2375009301813
 20
100.3499998153287
 30
0.0
 11
81.53750093026564
 21
100.3499998153287
 31
0.0
  0
LINE
  5
B9
330
86
100
AcDbEntity
  8
0
100
AcDbLine
 10
72.23750093019408
 20
100.3499998153287
 30
0.0
 11
1.000000930251644
 21
100.3499998153287
 31
0.0
  0
LINE
  5
BA
330
86
100
AcDbEntity
  8
0
100
AcDbLine
 10
352.7750009301794
 20
100.3499998153287
 30
0.0
 11
281.5375009302343
 21
100.3499998153287
 31
0.0
  0
LINE
  5
BB
330
86
100
AcDbEntity
  8
0
100
AcDbLine
 10
272.2375009301623
 20
3.749999815197895
 30
0.0
 11
181.5375009302502
 21
3.749999815197895
 31
0.0
  0
LINE
  5
BC
330
86
100
AcDbEntity
  8
0
100
AcDbLine
 10
172.2375009301813
 20
3.749999815198008
 30
0.0
 11
81.53750093026564
 21
3.749999815198008
 31
0.0
  0
LINE
  5
BD
330
86
100
AcDbEntity
  8
0
100
AcDbLine
 10
72.23750093019408
 20
3.749999815198008
 30
0.0
 11
1.000000930251644
 21
3.749999815198008
 31
0.0
  0
LINE
  5
BE
330
86
100
AcDbEntity
  8
0
100
AcDbLine
 10
352.7750009301794
 20
3.749999815198008
 30
0.0
 11
281.5375009302343
 21
3.749999815197895
 31
0.0
  0
CIRCLE
  5
BF
330
86
100
AcDbEntity
  8
0
100
AcDbCircle
 10
343.9187509302124
 20
37.24999981527304
 30
0.0
 40
2.0
  0
CIRCLE
  5
C0
330
86
100
AcDbEntity
  8
0
100
AcDbCircle
 10
110.5562509302135
 20
37.24999981527304
 30
0.0
 40
2.0
  0
LWPOLYLINE
  5
C1
330
86
100
AcDbEntity
  8
0
100
AcDbPolyline
 90
        4
 70
     1
 43
0.0
 10
331.0625009302166
 20
83.74999981527309
 10
346.5625009302157
 20
83.74999981527309
 10
346.5625009302157
 20
96.54999981527314
 10
331.0625009302166
 20
96.54999981527314
  0
LWPOLYLINE
  5
C2
330
86
100
AcDbEntity
  8
0
100
AcDbPolyline
 90
        4
 70
     1
 43
0.0
 10
307.2500009302166
 20
83.74999981527309
 10
322.7500009302157
 20
83.74999981527309
 10
322.7500009302157
 20
96.54999981527314
 10
307.2500009302166
 20
96.54999981527314
  0
LWPOLYLINE
  5
C3
330
86
100
AcDbEntity
  8
0
100
AcDbPolyline
 90
        4
 70
     1
 43
0.0
 10
288.2000009302156
 20
83.74999981527309
 10
303.7000009302142
 20
83.74999981527309
 10
303.7000009302142
 20
96.54999981527314
 10
288.2000009302156
 20
96.54999981527314
  0
LWPOLYLINE
  5
C4
330
86
100
AcDbEntity
  8
0
100
AcDbPolyline
 90
        4
 70
     1
 43
0.0
 10
269.1500009302144
 20
83.74999981527309
 10
284.6500009302145
 20
83.74999981527309
 10
284.6500009302145
 20
96.54999981527314
 10
269.1500009302144
 20
96.54999981527314
  0
LWPOLYLINE
  5
C5
330
86
100
AcDbEntity
  8
0
100
AcDbPolyline
 90
        4
 70
     1
 43
0.0
 10
250.1000009302142
 20
83.74999981527309
 10
265.6000009302143
 20
83.74999981527309
 10
265.6000009302143
 20
96.54999981527314
 10
250.1000009302142
 20
96.54999981527314
  0
LWPOLYLINE
  5
C6
330
86
100
AcDbEntity
  8
0
100
AcDbPolyline
 90
        4
 70
     1
 43
0.0
 10
231.0500009302154
 20
83.74999981527309
 10
246.5500009302145
 20
83.74999981527309
 10
246.5500009302145
 20
96.54999981527314
 10
231.0500009302154
 20
96.54999981527314
  0
LWPOLYLINE
  5
C7
330
86
100
AcDbEntity
  8
0
100
AcDbPolyline
 90
        4
 70
     1
 43
0.0
 10
212.0000009302144
 20
83.74999981527309
 10
227.5000009302139
 20
83.74999981527309
 10
227.5000009302139
 20
96.54999981527314
 10
212.0000009302144
 20
96.54999981527314
  0
LWPOLYLINE
  5
C8
330
86
100
AcDbEntity
  8
0
100
AcDbPolyline
 90
        4
 70
     1
 43
0.0
 10
192.9500009302137
 20
83.74999981527309
 10
208.4500009302137
 20
83.74999981527309
 10
208.4500009302137
 20
96.54999981527314
 10
192.9500009302137
 20
96.54999981527314
  0
LWPOLYLINE
  5
C9
330
86
100
AcDbEntity
  8
0
100
AcDbPolyline
 90
        4
 70
     1
 43
0.0
 10
173.9000009302135
 20
83.74999981527309
 10
189.4000009302135
 20
83.74999981527309
 10
189.4000009302135
 20
96.54999981527314
 10
173.9000009302135
 20
96.54999981527314
  0
LWPOLYLINE
  5
CA
330
86
100
AcDbEntity
  8
0
100
AcDbPolyline
 90
        4
 70
     1
 43
0.0
 10
154.8500009302142
 20
83.74999981527309
 10
170.3500009302138
 20
83.74999981527309
 10
170.3500009302138
 20
96.54999981527314
 10
154.8500009302142
 20
96.54999981527314
  0
LWPOLYLINE
  5
CB
330
86
100
AcDbEntity
  8
0
100
AcDbPolyline
 90
        4
 70
     1
 43
0.0
 10
135.8000009302145
 20
83.74999981527309
 10
151.3000009302136
 20
83.74999981527309
 10
151.3000009302136
 20
96.54999981527314
 10
135.8000009302145
 20
96.54999981527314
  0
LWPOLYLINE
  5
CC
330
86
100
AcDbEntity
  8
0
100
AcDbPolyline
 90
        4
 70
     1
 43
0.0
 10
116.7500009302143
 20
83.74999981527309
 10
132.2500009302139
 20
83.74999981527309
 10
132.2500009302139
 20
96.54999981527314
 10
116.7500009302143
 20
96.54999981527314
  0
LWPOLYLINE
  5
CD
330
86
100
AcDbEntity
  8
0
100
AcDbPolyline
 90
        4
 70
     1
 43
0.0
 10
97.70000093021238
 20
83.74999981527309
 10
113.2000009302137
 20
83.74999981527309
 10
113.2000009302137
 20
96.54999981527314
 10
97.70000093021238
 20
96.54999981527314
  0
LWPOLYLINE
  5
CE
330
86
100
AcDbEntity
  8
0
100
AcDbPolyline
 90
        4
 70
     1
 43
0.0
 10
78.65000093021262
 20
83.74999981527309
 10
94.15000093021351
 20
83.74999981527309
 10
94.15000093021351
 20
96.54999981527314
 10
78.65000093021262
 20
96.54999981527314
  0
LWPOLYLINE
  5
CF
330
86
100
AcDbEntity
  8
0
100
AcDbPolyline
 90
        4
 70
     1
 43
0.0
 10
59.60000093021244
 20
83.74999981527309
 10
75.10000093021244
 20
83.74999981527309
 10
75.10000093021244
 20
96.54999981527314
 10
59.60000093021244
 20
96.54999981527314
  0
LWPOLYLINE
  5
D0
330
86
100
AcDbEntity
  8
0
100
AcDbPolyline
 90
        4
 70
     1
 43
0.0
 10
40.55000093021272
 20
83.74999981527309
 10
56.05000093021363
 20
83.74999981527309
 10
56.05000093021363
 20
96.54999981527314
 10
40.55000093021272
 20
96.54999981527314
  0
LWPOLYLINE
  5
D1
330
86
100
AcDbEntity
  8
0
100
AcDbPolyline
 90
        4
 70
     1
 43
0.0
 10
21.50000093021254
 20
83.74999981527309
 10
37.00000093021254
 20
83.74999981527309
 10
37.00000093021254
 20
96.54999981527314
 10
21.50000093021254
 20
96.54999981527314
  0
LWPOLYLINE
  5
D2
330
86
100
AcDbEntity
  8
0
100
AcDbPolyline
 90
        4
 70
     1
 43
0.0
 10
2.450000930212353
 20
83.74999981527309
 10
17.95000093021235
 20
83.74999981527309
 10
17.95000093021235
 20
96.54999981527314
 10
2.450000930212353
 20
96.54999981527314
  0
LWPOLYLINE
  5
D3
330
86
100
AcDbEntity
  8
0
100
AcDbPolyline
 90
        4
 70
     1
 43
0.0
 10
2.450000930217356
 20
7.54999981527311
 10
17.9500009302169
 20
7.54999981527311
 10
17.9500009302169
 20
20.34999981527318
 10
2.450000930217356
 20
20.34999981527318
  0
LWPOLYLINE
  5
D4
330
86
100
AcDbEntity
  8
0
100
AcDbPolyline
 90
        4
 70
     1
 43
0.0
 10
31.02500093021536
 20
7.54999981527311
 10
46.52500093021536
 20
7.54999981527311
 10
46.52500093021536
 20
20.34999981527318
 10
31.02500093021536
 20
20.34999981527318
  0
LWPOLYLINE
  5
D5
330
86
100
AcDbEntity
  8
0
100
AcDbPolyline
 90
        4
 70
     1
 43
0.0
 10
83.41250093021427
 20
7.54999981527311
 10
98.91250093021429
 20
7.54999981527311
 10
98.91250093021429
 20
20.34999981527318
 10
83.41250093021427
 20
20.34999981527318
  0
LWPOLYLINE
  5
D6
330
86
100
AcDbEntity
  8
0
100
AcDbPolyline
 90
        4
 70
     1
 43
0.0
 10
111.9875009302172
 20
7.549999815272883
 10
127.4875009302173
 20
7.549999815272883
 10
127.4875009302173
 20
20.3499998152729
 10
111.9875009302172
 20
20.3499998152729
  0
LWPOLYLINE
  5
D7
330
86
100
AcDbEntity
  8
0
100
AcDbPolyline
 90
        4
 70
     1
 43
0.0
 10
90.55625093021536
 20
26.5999998152729
 10
106.0562509302153
 20
26.5999998152729
 10
106.0562509302153
 20
39.39999981527274
 10
90.55625093021536
 20
39.39999981527274
  0
LWPOLYLINE
  5
D8
330
86
100
AcDbEntity
  8
0
100
AcDbPolyline
 90
        4
 70
     1
 43
0.0
 10
85.7937509302169
 20
45.64999981527306
 10
101.2937509302173
 20
45.64999981527306
 10
101.2937509302173
 20
58.44999981527302
 10
85.7937509302169
 20
58.44999981527302
  0
LWPOLYLINE
  5
D9
330
86
100
AcDbEntity
  8
0
100
AcDbPolyline
 90
        4
 70
     1
 43
0.0
 10
83.41250093021427
 20
64.6999998152732
 10
98.91250093021429
 20
64.6999998152732
 10
98.91250093021429
 20
77.49999981527309
 10
83.41250093021427
 20
77.49999981527309
  0
LWPOLYLINE
  5
DA
330
86
100
AcDbEntity
  8
0
100
AcDbPolyline
 90
        4
 70
     1
 43
0.0
 10
328.6812509302154
 20
45.64999981527306
 10
344.1812509302153
 20
45.64999981527306
 10
344.1812509302153
 20
58.44999981527302
 10
328.6812509302154
 20
58.44999981527302
  0
LWPOLYLINE
  5
DB
330
86
100
AcDbEntity
  8
0
100
AcDbPolyline
 90
        4
 70
     1
 43
0.0
 10
207.2375009302609
 20
7.549999815278225
 10
222.7375009302615
 20
7.549999815278225
 10
222.7375009302615
 20
20.34999981527824
 10
207.2375009302609
 20
20.34999981527824
  0
LWPOLYLINE
  5
DC
330
86
100
AcDbEntity
  8
0
100
AcDbPolyline
 90
        4
 70
     1
 43
0.0
 10
302.4875009303046
 20
7.54999981528408
 10
317.9875009303055
 20
7.54999981528408
 10
317.9875009303055
 20
20.34999981528404
 10
302.4875009303046
 20
20.34999981528404
  0
LWPOLYLINE
  5
DD
330
86
100
AcDbEntity
  8
0
100
AcDbPolyline
 90
        4
 70
     1
 43
0.0
 10
323.9187509302137
 20
26.5999998152729
 10
339.4187509302142
 20
26.5999998152729
 10
339.4187509302142
 20
39.39999981527274
 10
323.9187509302137
 20
39.39999981527274
  0
LWPOLYLINE
  5
DE
330
86
100
AcDbEntity
  8
0
100
AcDbPolyline
 90
        4
 70
     1
 43
0.0
 10
331.0625009303048
 20
7.54999981528357
 10
346.5625009303067
 20
7.54999981528357
 10
346.5625009303067
 20
20.34999981528358
 10
331.0625009303048
 20
20.34999981528358
  0
LWPOLYLINE
  5
DF
330
86
100
AcDbEntity
  8
0
100
AcDbPolyline
 90
        4
 70
     1
 43
0.0
 10
73.75000093021391
 20
15.7249998152725
 10
73.75000093021391
 20
31.22499981527244
 10
60.95000093021417
 20
31.22499981527244
 10
60.95000093021417
 20
15.7249998152725
  0
LWPOLYLINE
  5
E0
330
86
100
AcDbEntity
  8
0
100
AcDbPolyline
 90
        4
 70
     1
 43
0.0
 10
278.6750009302173
 20
64.6999998152732
 10
294.1750009302173
 20
64.6999998152732
 10
294.1750009302173
 20
77.49999981527309
 10
278.6750009302173
 20
77.49999981527309
  0
LWPOLYLINE
  5
E1
330
86
100
AcDbEntity
  8
0
100
AcDbPolyline
 90
        4
 70
     1
 43
0.0
 10
259.6250009302166
 20
64.6999998152732
 10
275.1250009302166
 20
64.6999998152732
 10
275.1250009302166
 20
77.49999981527309
 10
259.6250009302166
 20
77.49999981527309
  0
LWPOLYLINE
  5
E2
330
86
100
AcDbEntity
  8
0
100
AcDbPolyline
 90
        4
 70
     1
 43
0.0
 10
240.5750009302173
 20
64.6999998152732
 10
256.0750009302174
 20
64.6999998152732
 10
256.0750009302174
 20
77.49999981527309
 10
240.5750009302173
 20
77.49999981527309
  0
LWPOLYLINE
  5
E3
330
86
100
AcDbEntity
  8
0
100
AcDbPolyline
 90
        4
 70
     1
 43
0.0
 10
221.5250009302172
 20
64.6999998152732
 10
237.0250009302167
 20
64.6999998152732
 10
237.0250009302167
 20
77.49999981527309
 10
221.5250009302172
 20
77.49999981527309
  0
LWPOLYLINE
  5
E4
330
86
100
AcDbEntity
  8
0
100
AcDbPolyline
 90
        4
 70
     1
 43
0.0
 10
202.4750009302175
 20
64.6999998152732
 10
217.9750009302174
 20
64.6999998152732
 10
217.9750009302174
 20
77.49999981527309
 10
202.4750009302175
 20
77.49999981527309
  0
LWPOLYLINE
  5
E5
330
86
100
AcDbEntity
  8
0
100
AcDbPolyline
 90
        4
 70
     1
 43
0.0
 10
183.4250009302154
 20
64.6999998152732
 10
198.9250009302154
 20
64.6999998152732
 10
198.9250009302154
 20
77.49999981527309
 10
183.4250009302154
 20
77.49999981527309
  0
LWPOLYLINE
  5
E6
330
86
100
AcDbEntity
  8
0
100
AcDbPolyline
 90
        4
 70
     1
 43
0.0
 10
164.3750009302157
 20
64.6999998152732
 10
179.8750009302157
 20
64.6999998152732
 10
179.8750009302157
 20
77.49999981527309
 10
164.3750009302157
 20
77.49999981527309
  0
LWPOLYLINE
  5
E7
330
86
100
AcDbEntity
  8
0
100
AcDbPolyline
 90
        4
 70
     1
 43
0.0
 10
145.3250009302155
 20
64.6999998152732
 10
160.8250009302155
 20
64.6999998152732
 10
160.8250009302155
 20
77.49999981527309
 10
145.3250009302155
 20
77.49999981527309
  0
LWPOLYLINE
  5
E8
330
86
100
AcDbEntity
  8
0
100
AcDbPolyline
 90
        4
 70
     1
 43
0.0
 10
126.2750009302153
 20
64.6999998152732
 10
141.7750009302153
 20
64.6999998152732
 10
141.7750009302153
 20
77.49999981527309
 10
126.2750009302153
 20
77.49999981527309
  0
LWPOLYLINE
  5
E9
330
86
100
AcDbEntity
  8
0
100
AcDbPolyline
 90
        4
 70
     1
 43
0.0
 10
283.4375009302184
 20
45.64999981527306
 10
298.9375009302185
 20
45.64999981527306
 10
298.9375009302185
 20
58.44999981527302
 10
283.4375009302184
 20
58.44999981527302
  0
LWPOLYLINE
  5
EA
330
86
100
AcDbEntity
  8
0
100
AcDbPolyline
 90
        4
 70
     1
 43
0.0
 10
264.3875009302192
 20
45.64999981527306
 10
279.8875009302173
 20
45.64999981527306
 10
279.8875009302173
 20
58.44999981527302
 10
264.3875009302192
 20
58.44999981527302
  0
LWPOLYLINE
  5
EB
330
86
100
AcDbEntity
  8
0
100
AcDbPolyline
 90
        4
 70
     1
 43
0.0
 10
245.3375009302172
 20
45.64999981527306
 10
260.8375009302172
 20
45.64999981527306
 10
260.8375009302172
 20
58.44999981527302
 10
245.3375009302172
 20
58.44999981527302
  0
LWPOLYLINE
  5
EC
330
86
100
AcDbEntity
  8
0
100
AcDbPolyline
 90
        4
 70
     1
 43
0.0
 10
226.2875009302174
 20
45.64999981527306
 10
241.7875009302175
 20
45.64999981527306
 10
241.7875009302175
 20
58.44999981527302
 10
226.2875009302174
 20
58.44999981527302
  0
LWPOLYLINE
  5
ED
330
86
100
AcDbEntity
  8
0
100
AcDbPolyline
 90
        4
 70
     1
 43
0.0
 10
207.2375009302173
 20
45.64999981527306
 10
222.7375009302173
 20
45.64999981527306
 10
222.7375009302173
 20
58.44999981527302
 10
207.2375009302173
 20
58.44999981527302
  0
LWPOLYLINE
  5
EE
330
86
100
AcDbEntity
  8
0
100
AcDbPolyline
 90
        4
 70
     1
 43
0.0
 10
188.1875009302175
 20
45.64999981527306
 10
203.6875009302175
 20
45.64999981527306
 10
203.6875009302175
 20
58.44999981527302
 10
188.1875009302175
 20
58.44999981527302
  0
LWPOLYLINE
  5
EF
330
86
100
AcDbEntity
  8
0
100
AcDbPolyline
 90
        4
 70
     1
 43
0.0
 10
169.1375009302173
 20
45.64999981527306
 10
184.6375009302173
 20
45.64999981527306
 10
184.6375009302173
 20
58.44999981527302
 10
169.1375009302173
 20
58.44999981527302
  0
LWPOLYLINE
  5
F0
330
86
100
AcDbEntity
  8
0
100
AcDbPolyline
 90
        4
 70
     1
 43
0.0
 10
150.0875009302167
 20
45.64999981527306
 10
165.5875009302171
 20
45.64999981527306
 10
165.5875009302171
 20
58.44999981527302
 10
150.0875009302167
 20
58.44999981527302
  0
LWPOLYLINE
  5
F1
330
86
100
AcDbEntity
  8
0
100
AcDbPolyline
 90
        4
 70
     1
 43
0.0
 10
131.0375009302174
 20
45.64999981527306
 10
146.5375009302174
 20
45.64999981527306
 10
146.5375009302174
 20
58.44999981527302
 10
131.0375009302174
 20
58.44999981527302
  0
LWPOLYLINE
  5
F2
330
86
100
AcDbEntity
  8
0
100
AcDbPolyline
 90
        4
 70
     1
 43
0.0
 10
292.9625009302153
 20
26.5999998152729
 10
308.4625009302172
 20
26.5999998152729
 10
308.4625009302172
 20
39.39999981527274
 10
292.9625009302153
 20
39.39999981527274
  0
LWPOLYLINE
  5
F3
330
86
100
AcDbEntity
  8
0
100
AcDbPolyline
 90
        4
 70
     1
 43
0.0
 10
273.9125009302156
 20
26.5999998152729
 10
289.4125009302173
 20
26.5999998152729
 10
289.4125009302173
 20
39.39999981527274
 10
273.9125009302156
 20
39.39999981527274
  0
LWPOLYLINE
  5
F4
330
86
100
AcDbEntity
  8
0
100
AcDbPolyline
 90
        4
 70
     1
 43
0.0
 10
254.8625009302154
 20
26.5999998152729
 10
270.3625009302172
 20
26.5999998152729
 10
270.3625009302172
 20
39.39999981527274
 10
254.8625009302154
 20
39.39999981527274
  0
LWPOLYLINE
  5
F5
330
86
100
AcDbEntity
  8
0
100
AcDbPolyline
 90
        4
 70
     1
 43
0.0
 10
235.8125009302157
 20
26.5999998152729
 10
251.3125009302175
 20
26.5999998152729
 10
251.3125009302175
 20
39.39999981527274
 10
235.8125009302157
 20
39.39999981527274
  0
LWPOLYLINE
  5
F6
330
86
100
AcDbEntity
  8
0
100
AcDbPolyline
 90
        4
 70
     1
 43
0.0
 10
216.7625009302156
 20
26.5999998152729
 10
232.2625009302155
 20
26.5999998152729
 10
232.2625009302155
 20
39.39999981527274
 10
216.7625009302156
 20
39.39999981527274
  0
LWPOLYLINE
  5
F7
330
86
100
AcDbEntity
  8
0
100
AcDbPolyline
 90
        4
 70
     1
 43
0.0
 10
197.7125009302153
 20
26.5999998152729
 10
213.2125009302153
 20
26.5999998152729
 10
213.2125009302153
 20
39.39999981527274
 10
197.7125009302153
 20
39.39999981527274
  0
LWPOLYLINE
  5
F8
330
86
100
AcDbEntity
  8
0
100
AcDbPolyline
 90
        4
 70
     1
 43
0.0
 10
178.6625009302156
 20
26.5999998152729
 10
194.1625009302156
 20
26.5999998152729
 10
194.1625009302156
 20
39.39999981527274
 10
178.6625009302156
 20
39.39999981527274
  0
LWPOLYLINE
  5
F9
330
86
100
AcDbEntity
  8
0
100
AcDbPolyline
 90
        4
 70
     1
 43
0.0
 10
159.6125009302154
 20
26.5999998152729
 10
175.1125009302154
 20
26.5999998152729
 10
175.1125009302154
 20
39.39999981527274
 10
159.6125009302154
 20
39.39999981527274
  0
LWPOLYLINE
  5
FA
330
86
100
AcDbEntity
  8
0
100
AcDbPolyline
 90
        4
 70
     1
 43
0.0
 10
140.5625009302157
 20
26.5999998152729
 10
156.0625009302157
 20
26.5999998152729
 10
156.0625009302157
 20
39.39999981527274
 10
140.5625009302157
 20
39.39999981527274
  0
LWPOLYLINE
  5
FB
330
86
100
AcDbEntity
  8
0
100
AcDbPolyline
 90
        4
 70
     1
 43
0.0
 10
335.8250009302174
 20
64.6999998152732
 10
351.3250009302173
 20
64.6999998152732
 10
351.3250009302173
 20
77.49999981527309
 10
335.8250009302174
 20
77.49999981527309
  0
LWPOLYLINE
  5
FC
330
86
100
AcDbEntity
  8
0
100
AcDbPolyline
 90
        4
 70
     1
 43
0.0
 10
316.7750009302172
 20
64.6999998152732
 10
332.2750009302172
 20
64.6999998152732
 10
332.2750009302172
 20
77.49999981527309
 10
316.7750009302172
 20
77.49999981527309
  0
LWPOLYLINE
  5
FD
330
86
100
AcDbEntity
  8
0
100
AcDbPolyline
 90
        4
 70
     1
 43
0.0
 10
297.7250009302173
 20
64.6999998152732
 10
313.2250009302175
 20
64.6999998152732
 10
313.2250009302175
 20
77.49999981527309
 10
297.7250009302173
 20
77.49999981527309
  0
LWPOLYLINE
  5
FE
330
86
100
AcDbEntity
  8
0
100
AcDbPolyline
 90
        4
 70
     1
 43
0.0
 10
302.4875009302192
 20
45.64999981527306
 10
317.9875009302187
 20
45.64999981527306
 10
317.9875009302187
 20
58.44999981527302
 10
302.4875009302192
 20
58.44999981527302
  0
LINE
  5
FF
330
86
100
AcDbEntity
  8
0
100
AcDbLine
 10
278.0875009301985
 20
102.8499998153284
 30
0.0
 11
278.0875009301985
 21
104.0999998153289
 31
0.0
  0
LINE
  5
100
330
86
100
AcDbEntity
  8
0
100
AcDbLine
 10
275.6875009301984
 20
102.8499998153284
 30
0.0
 11
275.6875009301984
 21
104.0999998153289
 31
0.0
  0
LINE
  5
101
330
86
100
AcDbEntity
  8
0
100
AcDbLine
 10
178.0875009302153
 20
102.8499998153282
 30
0.0
 11
178.0875009302153
 21
104.0999998153287
 31
0.0
  0
LINE
  5
102
330
86
100
AcDbEntity
  8
0
100
AcDbLine
 10
175.6875009302166
 20
102.8499998153282
 30
0.0
 11
175.6875009302157
 21
104.0999998153287
 31
0.0
  0
LINE
  5
103
330
86
100
AcDbEntity
  8
0
100
AcDbLine
 10
78.08750093023036
 20
102.8499998153284
 30
0.0
 11
78.08750093022945
 21
103.5999998153284
 31
0.0
  0
LINE
  5
104
330
86
100
AcDbEntity
  8
0
100
AcDbLine
 10
75.68750093023162
 20
102.8499998153284
 30
0.0
 11
75.68750093022981
 21
103.5999998153284
 31
0.0
  0
ARC
  5
105
330
86
100
AcDbEntity
  8
0
100
AcDbCircle
 10
76.88750093023009
 20
1.249999815198123
 30
0.0
 40
1.199999999999817
100
AcDbArc
 50
0.0
 51
180.0
  0
ARC
  5
106
330
86
100
AcDbEntity
  8
0
100
AcDbCircle
 10
176.8875009302173
 20
1.249999815198577
 30
0.0
 40
1.199999999999817
100
AcDbArc
 50
0.0
 51
180.0
  0
ARC
  5
107
330
86
100
AcDbEntity
  8
0
100
AcDbCircle
 10
276.8875009301996
 20
1.249999815198123
 30
0.0
 40
1.199999999999817
100
AcDbArc
 50
0.0
 51
180.0
  0
LINE
  5
108
330
86
100
AcDbEntity
  8
0
100
AcDbLine
 10
75.08750093019353
 20
-0.000000184802218
 30
0.0
 11
72.23750093019408
 21
3.749999815198008
 31
0.0
  0
LINE
  5
109
330
86
100
AcDbEntity
  8
0
100
AcDbLine
 10
75.08750093019353
 20
-0.000000184802218
 30
0.0
 11
75.68750093022981
 21
-0.000000184802218
 31
0.0
  0
LINE
  5
10A
330
86
100
AcDbEntity
  8
0
100
AcDbLine
 10
75.68750093022981
 20
-0.000000184802218
 30
0.0
 11
75.68750093022981
 21
0.4999998151981231
 31
0.0
  0
LINE
  5
10B
330
86
100
AcDbEntity
  8
0
100
AcDbLine
 10
78.68750093026573
 20
-0.000000184802218
 30
0.0
 11
81.53750093026564
 21
3.749999815198008
 31
0.0
  0
LINE
  5
10C
330
86
100
AcDbEntity
  8
0
100
AcDbLine
 10
78.68750093026573
 20
-0.000000184802218
 30
0.0
 11
78.08750093022945
 21
-0.000000184802218
 31
0.0
  0
LINE
  5
10D
330
86
100
AcDbEntity
  8
0
100
AcDbLine
 10
78.08750093022945
 20
-0.000000184802218
 30
0.0
 11
78.08750093022945
 21
0.4999998151981231
 31
0.0
  0
LINE
  5
10E
330
86
100
AcDbEntity
  8
0
100
AcDbLine
 10
175.0875009301794
 20
-0.000000184802218
 30
0.0
 11
172.2375009301813
 21
3.749999815198008
 31
0.0
  0
LINE
  5
10F
330
86
100
AcDbEntity
  8
0
100
AcDbLine
 10
175.0875009301794
 20
-0.000000184802218
 30
0.0
 11
175.6875009302157
 21
-0.000000184802218
 31
0.0
  0
LINE
  5
110
330
86
100
AcDbEntity
  8
0
100
AcDbLine
 10
178.6875009302516
 20
-0.000000184802218
 30
0.0
 11
181.5375009302502
 21
3.749999815198008
 31
0.0
  0
LINE
  5
111
330
86
100
AcDbEntity
  8
0
100
AcDbLine
 10
178.6875009302516
 20
-0.000000184802218
 30
0.0
 11
178.0875009302153
 21
-0.000000184802218
 31
0.0
  0
LINE
  5
112
330
86
100
AcDbEntity
  8
0
100
AcDbLine
 10
275.0875009301626
 20
-0.000000184802218
 30
0.0
 11
272.2375009301623
 21
3.749999815198008
 31
0.0
  0
LINE
  5
113
330
86
100
AcDbEntity
  8
0
100
AcDbLine
 10
275.0875009301626
 20
-0.000000184802218
 30
0.0
 11
275.6875009301984
 21
-0.000000184802218
 31
0.0
  0
LINE
  5
114
330
86
100
AcDbEntity
  8
0
100
AcDbLine
 10
278.6875009302343
 20
-0.000000184802218
 30
0.0
 11
281.5375009302343
 21
3.749999815198008
 31
0.0
  0
LINE
  5
115
330
86
100
AcDbEntity
  8
0
100
AcDbLine
 10
278.6875009302343
 20
-0.000000184802218
 30
0.0
 11
278.0875009301985
 21
-0.000000184802218
 31
0.0
  0
LINE
  5
116
330
86
100
AcDbEntity
  8
0
100
AcDbLine
 10
278.0875009301985
 20
1.249999815198123
 30
0.0
 11
278.0875009301985
 21
-0.000000184802218
 31
0.0
  0
LINE
  5
117
330
86
100
AcDbEntity
  8
0
100
AcDbLine
 10
275.6875009301984
 20
1.249999815198123
 30
0.0
 11
275.6875009301984
 21
-0.000000184802218
 31
0.0
  0
LINE
  5
118
330
86
100
AcDbEntity
  8
0
100
AcDbLine
 10
178.0875009302153
 20
1.249999815198577
 30
0.0
 11
178.0875009302153
 21
-0.000000184802218
 31
0.0
  0
LINE
  5
119
330
86
100
AcDbEntity
  8
0
100
AcDbLine
 10
175.6875009302166
 20
1.249999815198577
 30
0.0
 11
175.6875009302157
 21
-0.000000184802218
 31
0.0
  0
LINE
  5
11A
330
86
100
AcDbEntity
  8
0
100
AcDbLine
 10
78.08750093023036
 20
1.249999815198123
 30
0.0
 11
78.08750093022945
 21
0.4999998151981231
 31
0.0
  0
LINE
  5
11B
330
86
100
AcDbEntity
  8
0
100
AcDbLine
 10
75.68750093023162
 20
1.249999815198123
 30
0.0
 11
75.68750093022981
 21
0.4999998151981231
 31
0.0
  0
LWPOLYLINE
  5
11C
330
86
100
AcDbEntity
  8
0
100
AcDbPolyline
 90
        4
 70
     1
 43
0.0
 10
2.450000930212353
 20
64.69999981527306
 10
17.95000093021235
 20
64.69999981527306
 10
17.95000093021235
 20
77.49999981527309
 10
2.450000930212353
 20
77.49999981527309
  0
LWPOLYLINE
  5
11D
330
86
100
AcDbEntity
  8
0
100
AcDbPolyline
 90
        4
 70
     1
 43
0.0
 10
2.450000930212353
 20
45.64999981527306
 10
17.95000093021235
 20
45.64999981527306
 10
17.95000093021235
 20
58.44999981527307
 10
2.450000930212353
 20
58.44999981527307
  0
LWPOLYLINE
  5
11E
330
86
100
AcDbEntity
  8
0
100
AcDbPolyline
 90
        4
 70
     1
 43
0.0
 10
2.450000930212353
 20
26.59999981527312
 10
17.95000093021235
 20
26.59999981527312
 10
17.95000093021235
 20
39.39999981527308
 10
2.450000930212353
 20
39.39999981527308
  0
LWPOLYLINE
  5
11F
330
86
100
AcDbEntity
  8
0
100
AcDbPolyline
 90
        4
 70
     1
 43
0.0
 10
21.50000093021254
 20
64.69999981527306
 10
37.00000093021254
 20
64.69999981527306
 10
37.00000093021254
 20
77.49999981527309
 10
21.50000093021254
 20
77.49999981527309
  0
LWPOLYLINE
  5
120
330
86
100
AcDbEntity
  8
0
100
AcDbPolyline
 90
        4
 70
     1
 43
0.0
 10
21.50000093021254
 20
45.64999981527306
 10
37.00000093021254
 20
45.64999981527306
 10
37.00000093021254
 20
58.44999981527307
 10
21.50000093021254
 20
58.44999981527307
  0
LWPOLYLINE
  5
121
330
86
100
AcDbEntity
  8
0
100
AcDbPolyline
 90
        4
 70
     1
 43
0.0
 10
21.50000093021254
 20
26.59999981527312
 10
37.00000093021254
 20
26.59999981527312
 10
37.00000093021254
 20
39.39999981527308
 10
21.50000093021254
 20
39.39999981527308
  0
LWPOLYLINE
  5
122
330
86
100
AcDbEntity
  8
0
100
AcDbPolyline
 90
        4
 70
     1
 43
0.0
 10
40.55000093021272
 20
64.69999981527306
 10
56.05000093021363
 20
64.69999981527306
 10
56.05000093021363
 20
77.49999981527309
 10
40.55000093021272
 20
77.49999981527309
  0
LWPOLYLINE
  5
123
330
86
100
AcDbEntity
  8
0
100
AcDbPolyline
 90
        4
 70
     1
 43
0.0
 10
40.55000093021272
 20
45.64999981527306
 10
56.05000093021363
 20
45.64999981527306
 10
56.05000093021363
 20
58.44999981527307
 10
40.55000093021272
 20
58.44999981527307
  0
LWPOLYLINE
  5
124
330
86
100
AcDbEntity
  8
0
100
AcDbPolyline
 90
        4
 70
     1
 43
0.0
 10
40.55000093021272
 20
26.59999981527312
 10
56.05000093021363
 20
26.59999981527312
 10
56.05000093021363
 20
39.39999981527308
 10
40.55000093021272
 20
39.39999981527308
  0
LWPOLYLINE
  5
125
330
86
100
AcDbEntity
  8
0
100
AcDbPolyline
 90
        4
 70
     1
 43
0.0
 10
59.60000093021244
 20
64.69999981527306
 10
75.10000093021244
 20
64.69999981527306
 10
75.10000093021244
 20
77.49999981527309
 10
59.60000093021244
 20
77.49999981527309
  0
LWPOLYLINE
  5
126
330
86
100
AcDbEntity
  8
0
100
AcDbPolyline
 90
        4
 70
     1
 43
0.0
 10
59.60000093021244
 20
45.64999981527306
 10
75.10000093021244
 20
45.64999981527306
 10
75.10000093021244
 20
58.44999981527307
 10
59.60000093021244
 20
58.44999981527307
  0
CIRCLE
  5
127
330
86
100
AcDbEntity
  8
0
100
AcDbCircle
 10
10.20000093021235
 20
80.62499981527309
 30
0.0
 40
2.0
  0
LINE
  5
128
330
86
100
AcDbEntity
  8
0
100
AcDbLine
 10
326.6125009303055
 20
16.94999981528354
 30
0.0
 11
326.6125009303055
 21
10.94999981528355
 31
0.0
  0
LINE
  5
129
330
86
100
AcDbEntity
  8
0
100
AcDbLine
 10
326.6125009303055
 20
10.94999981528355
 30
0.0
 11
329.6125009303055
 21
10.94999981528355
 31
0.0
  0
LINE
  5
12A
330
86
100
AcDbEntity
  8
0
100
AcDbLine
 10
329.6125009303055
 20
10.94999981528355
 30
0.0
 11
329.6125009303064
 21
16.94999981528354
 31
0.0
  0
LINE
  5
12B
330
86
100
AcDbEntity
  8
0
100
AcDbLine
 10
329.6125009303064
 20
16.94999981528354
 30
0.0
 11
326.6125009303055
 21
16.94999981528354
 31
0.0
  0
ENDBLK
  5
12F
330
86
100
AcDbEntity
  8
0
100
AcDbBlockEnd
  0
ENDSEC
  0
SECTION
  2
ENTITIES
  0
LWPOLYLINE
  5
1DE
330
70
100
AcDbEntity
  8
0
370
     0
100
AcDbPolyline
 90
        4
 70
     1
 43
0.0
 10
353.6312528126383
 20
-85.15000026246434
 10
353.6312528126383
 20
-80.0500002624649
 10
351.0312528126379
 20
-80.0500002624649
 10
351.0312528126379
 20
-85.15000026246434
  0
LWPOLYLINE
  5
1DF
330
70
100
AcDbEntity
  8
0
370
     0
100
AcDbPolyline
 90
        4
 70
     1
 43
0.0
 10
375.0312500000033
 20
-85.1500000000002
 10
375.0312500000033
 20
-80.05000000000007
 10
377.6312500000019
 20
-80.05000000000007
 10
377.6312500000019
 20
-85.1500000000002
  0
LWPOLYLINE
  5
1E0
330
70
100
AcDbEntity
  8
0
370
     0
100
AcDbPolyline
 90
        4
 70
     1
 43
0.0
 10
132.1437500000044
 20
-85.1500000000002
 10
132.1437500000044
 20
-80.05000000000007
 10
134.7437500000034
 20
-80.05000000000007
 10
134.7437500000034
 20
-85.1500000000002
  0
LWPOLYLINE
  5
1E1
330
70
100
AcDbEntity
  8
0
370
     0
100
AcDbPolyline
 90
        4
 70
     1
 43
0.0
 10
343.4687500000015
 20
-91.4000000000002
 10
343.4687500000015
 20
-86.30000000000006
 10
340.8687500000016
 20
-86.30000000000006
 10
340.8687500000016
 20
-91.4000000000002
  0
LWPOLYLINE
  5
1E2
330
70
100
AcDbEntity
  8
0
370
     0
100
AcDbPolyline
 90
        4
 70
     1
 43
0.0
 10
375.6687500000022
 20
-91.4000000000002
 10
375.6687500000022
 20
-86.30000000000006
 10
378.2687500000003
 20
-86.30000000000006
 10
378.2687500000003
 20
-91.4000000000002
  0
LWPOLYLINE
  5
1E3
330
70
100
AcDbEntity
  8
0
370
     0
100
AcDbPolyline
 90
        4
 70
     1
 43
0.0
 10
142.306250000002
 20
-91.39999999999991
 10
142.306250000002
 20
-86.30000000000006
 10
144.9062500000051
 20
-86.30000000000006
 10
144.9062500000051
 20
-91.39999999999991
  0
LWPOLYLINE
  5
1E4
330
70
100
AcDbEntity
  8
0
370
     0
100
AcDbPolyline
 90
        4
 70
     1
 43
0.0
 10
183.087500000047
 20
-123.2499999999949
 10
183.087500000047
 20
-118.1499999999948
 10
180.4875000000471
 20
-118.1499999999948
 10
180.4875000000471
 20
-123.2499999999949
  0
CIRCLE
  5
1E5
330
70
100
AcDbEntity
  8
0
  6
Continuous
370
     0
100
AcDbCircle
 10
204.7875000000482
 20
-114.2999999999948
 30
0.0
 40
3.125
  0
LWPOLYLINE
  5
1E6
330
70
100
AcDbEntity
  8
0
  6
Continuous
370
     0
100
AcDbPolyline
 90
        4
 70
     1
 43
0.0
 10
211.8625000000471
 20
-113.1999999999945
 10
211.8625000000471
 20
-115.3999999999948
 10
209.662500000046
 20
-115.3999999999948
 10
209.662500000046
 20
-113.1999999999945
  0
LWPOLYLINE
  5
1E7
330
70
100
AcDbEntity
  8
0
370
     0
100
AcDbPolyline
 90
        4
 70
     1
 43
0.0
 10
197.7125000000484
 20
-115.3999999999948
 10
197.7125000000484
 20
-113.1999999999945
 10
199.9125000000473
 20
-113.1999999999945
 10
199.9125000000473
 20
-115.3999999999948
  0
CIRCLE
  5
1E8
330
70
100
AcDbEntity
  8
0
  6
Continuous
370
     0
100
AcDbCircle
 10
280.9875000000458
 20
-114.2999999999842
 30
0.0
 40
3.125
  0
LWPOLYLINE
  5
1E9
330
70
100
AcDbEntity
  8
0
  6
Continuous
370
     0
100
AcDbPolyline
 90
        4
 70
     1
 43
0.0
 10
273.9125000000455
 20
-113.1999999999859
 10
273.912500000046
 20
-115.3999999999861
 10
276.1125000000458
 20
-115.3999999999855
 10
276.1125000000453
 20
-113.1999999999855
  0
LWPOLYLINE
  5
1EA
330
70
100
AcDbEntity
  8
0
370
     0
100
AcDbPolyline
 90
        4
 70
     1
 43
0.0
 10
288.062500000046
 20
-115.3999999999823
 10
288.0625000000442
 20
-113.1999999999823
 10
285.8625000000458
 20
-113.1999999999826
 10
285.8625000000485
 20
-115.399999999983
  0
LWPOLYLINE
  5
1EB
330
70
100
AcDbEntity
  8
0
370
     0
100
AcDbPolyline
 90
        4
 70
     1
 43
0.0
 10
110.743752812638
 20
-85.15000026246434
 10
110.743752812638
 20
-80.05000026246447
 10
108.1437528126381
 20
-80.05000026246447
 10
108.1437528126381
 20
-85.15000026246434
  0
LWPOLYLINE
  5
1EC
330
70
100
AcDbEntity
  8
0
370
     0
100
AcDbPolyline
 90
        4
 70
     1
 43
0.0
 10
110.1062500000022
 20
-91.4000000000002
 10
110.1062500000022
 20
-86.30000000000006
 10
107.5062500000018
 20
-86.30000000000006
 10
107.5062500000018
 20
-91.4000000000002
  0
LWPOLYLINE
  5
1EE
330
70
100
AcDbEntity
  8
0
370
     0
100
AcDbPolyline
 90
        4
 70
     1
 43
0.0
 10
53.87500000000464
 20
-123.25
 10
53.87500000000464
 20
-118.1499999999995
 10
51.27500000000338
 20
-118.1499999999995
 10
51.27500000000338
 20
-123.25
  0
LWPOLYLINE
  5
1EF
330
70
100
AcDbEntity
  8
0
370
     0
100
AcDbPolyline
 90
        4
 70
     1
 43
0.0
 10
79.47500000000321
 20
-123.25
 10
79.47500000000321
 20
-118.1499999999995
 10
82.07500000000313
 20
-118.1499999999995
 10
82.07500000000313
 20
-123.25
  0
LWPOLYLINE
  5
1F0
330
70
100
AcDbEntity
  8
0
370
     0
100
AcDbPolyline
 90
        4
 70
     1
 43
0.0
 10
104.2000000000013
 20
-117.575
 10
99.10000000000138
 20
-117.575
 10
99.10000000000138
 20
-120.175
 10
104.2000000000013
 20
-120.175
  0
LWPOLYLINE
  5
1F1
330
70
100
AcDbEntity
  8
0
370
     0
100
AcDbPolyline
 90
        4
 70
     1
 43
0.0
 10
104.2000000000013
 20
-91.97500000000037
 10
99.10000000000138
 20
-91.97500000000037
 10
99.10000000000138
 20
-89.3750000000004
 10
104.2000000000013
 20
-89.3750000000004
  0
LWPOLYLINE
  5
1F2
330
70
100
AcDbEntity
  8
0
370
     0
100
AcDbPolyline
 90
        4
 70
     1
 43
0.0
 10
183.087500000047
 20
-105.349999999995
 10
183.087500000047
 20
-110.4499999999948
 10
180.4875000000471
 20
-110.4499999999948
 10
180.4875000000471
 20
-105.349999999995
  0
LWPOLYLINE
  5
1F3
330
70
100
AcDbEntity
  8
0
370
     0
100
AcDbPolyline
 90
        4
 70
     1
 43
0.0
 10
305.2875000000459
 20
-105.349999999995
 10
305.2875000000459
 20
-110.4499999999948
 10
302.6875000000492
 20
-110.4499999999948
 10
302.6875000000492
 20
-105.349999999995
  0
LWPOLYLINE
  5
1F5
330
70
100
AcDbEntity
  8
0
370
     0
100
AcDbPolyline
 90
        4
 70
     1
 43
0.0
 10
302.6875000000469
 20
-123.2499999999949
 10
302.6875000000469
 20
-118.1499999999948
 10
305.2875000000459
 20
-118.1499999999948
 10
305.2875000000459
 20
-123.2499999999949
  0
LWPOLYLINE
  5
215
330
70
100
AcDbEntity
  8
0
100
AcDbPolyline
 90
        4
 70
     1
 43
0.0
 10
358.9625000000044
 20
-44.5
 10
374.4625000000033
 20
-44.5
 10
374.4625000000033
 20
-31.69999999999999
 10
358.9625000000044
 20
-31.69999999999999
  0
LWPOLYLINE
  5
216
330
70
100
AcDbEntity
  8
0
100
AcDbPolyline
 90
        4
 70
     1
 43
0.0
 10
335.1500000000043
 20
-44.5
 10
350.6500000000033
 20
-44.5
 10
350.6500000000033
 20
-31.69999999999999
 10
335.1500000000043
 20
-31.69999999999999
  0
LWPOLYLINE
  5
217
330
70
100
AcDbEntity
  8
0
100
AcDbPolyline
 90
        4
 70
     1
 43
0.0
 10
316.1000000000032
 20
-44.5
 10
331.6000000000018
 20
-44.5
 10
331.6000000000018
 20
-31.69999999999999
 10
316.1000000000032
 20
-31.69999999999999
  0
LWPOLYLINE
  5
218
330
70
100
AcDbEntity
  8
0
100
AcDbPolyline
 90
        4
 70
     1
 43
0.0
 10
297.0500000000021
 20
-44.5
 10
312.5500000000021
 20
-44.5
 10
312.5500000000021
 20
-31.69999999999999
 10
297.0500000000021
 20
-31.69999999999999
  0
LWPOLYLINE
  5
219
330
70
100
AcDbEntity
  8
0
100
AcDbPolyline
 90
        4
 70
     1
 43
0.0
 10
278.0000000000019
 20
-44.5
 10
293.500000000002
 20
-44.5
 10
293.500000000002
 20
-31.69999999999999
 10
278.0000000000019
 20
-31.69999999999999
  0
LWPOLYLINE
  5
21A
330
70
100
AcDbEntity
  8
0
100
AcDbPolyline
 90
        4
 70
     1
 43
0.0
 10
258.9500000000031
 20
-44.5
 10
274.4500000000022
 20
-44.5
 10
274.4500000000022
 20
-31.69999999999999
 10
258.9500000000031
 20
-31.69999999999999
  0
LWPOLYLINE
  5
21B
330
70
100
AcDbEntity
  8
0
100
AcDbPolyline
 90
        4
 70
     1
 43
0.0
 10
239.900000000002
 20
-44.5
 10
255.4000000000016
 20
-44.5
 10
255.4000000000016
 20
-31.69999999999999
 10
239.900000000002
 20
-31.69999999999999
  0
LWPOLYLINE
  5
21C
330
70
100
AcDbEntity
  8
0
100
AcDbPolyline
 90
        4
 70
     1
 43
0.0
 10
220.8500000000014
 20
-44.5
 10
236.3500000000014
 20
-44.5
 10
236.3500000000014
 20
-31.69999999999999
 10
220.8500000000014
 20
-31.69999999999999
  0
LWPOLYLINE
  5
21D
330
70
100
AcDbEntity
  8
0
100
AcDbPolyline
 90
        4
 70
     1
 43
0.0
 10
201.8000000000012
 20
-44.5
 10
217.3000000000012
 20
-44.5
 10
217.3000000000012
 20
-31.69999999999999
 10
201.8000000000012
 20
-31.69999999999999
  0
LWPOLYLINE
  5
21E
330
70
100
AcDbEntity
  8
0
100
AcDbPolyline
 90
        4
 70
     1
 43
0.0
 10
182.7500000000019
 20
-44.5
 10
198.2500000000015
 20
-44.5
 10
198.2500000000015
 20
-31.69999999999999
 10
182.7500000000019
 20
-31.69999999999999
  0
LWPOLYLINE
  5
21F
330
70
100
AcDbEntity
  8
0
100
AcDbPolyline
 90
        4
 70
     1
 43
0.0
 10
163.7000000000022
 20
-44.5
 10
179.2000000000013
 20
-44.5
 10
179.2000000000013
 20
-31.69999999999999
 10
163.7000000000022
 20
-31.69999999999999
  0
LWPOLYLINE
  5
220
330
70
100
AcDbEntity
  8
0
100
AcDbPolyline
 90
        4
 70
     1
 43
0.0
 10
144.650000000002
 20
-44.5
 10
160.1500000000015
 20
-44.5
 10
160.1500000000015
 20
-31.69999999999999
 10
144.650000000002
 20
-31.69999999999999
  0
LWPOLYLINE
  5
221
330
70
100
AcDbEntity
  8
0
100
AcDbPolyline
 90
        4
 70
     1
 43
0.0
 10
125.6
 20
-44.5
 10
141.1000000000013
 20
-44.5
 10
141.1000000000013
 20
-31.69999999999999
 10
125.6
 20
-31.69999999999999
  0
LWPOLYLINE
  5
222
330
70
100
AcDbEntity
  8
0
100
AcDbPolyline
 90
        4
 70
     1
 43
0.0
 10
106.5500000000003
 20
-44.5
 10
122.0500000000012
 20
-44.5
 10
122.0500000000012
 20
-31.69999999999999
 10
106.5500000000003
 20
-31.69999999999999
  0
LWPOLYLINE
  5
223
330
70
100
AcDbEntity
  8
0
100
AcDbPolyline
 90
        4
 70
     1
 43
0.0
 10
87.50000000000012
 20
-44.5
 10
103.0000000000001
 20
-44.5
 10
103.0000000000001
 20
-31.69999999999999
 10
87.50000000000012
 20
-31.69999999999999
  0
LWPOLYLINE
  5
224
330
70
100
AcDbEntity
  8
0
100
AcDbPolyline
 90
        4
 70
     1
 43
0.0
 10
68.45000000000038
 20
-44.5
 10
83.95000000000129
 20
-44.5
 10
83.95000000000129
 20
-31.69999999999999
 10
68.45000000000038
 20
-31.69999999999999
  0
LWPOLYLINE
  5
225
330
70
100
AcDbEntity
  8
0
100
AcDbPolyline
 90
        4
 70
     1
 43
0.0
 10
49.40000000000019
 20
-44.5
 10
64.9000000000002
 20
-44.5
 10
64.9000000000002
 20
-31.69999999999999
 10
49.40000000000019
 20
-31.69999999999999
  0
LWPOLYLINE
  5
226
330
70
100
AcDbEntity
  8
0
100
AcDbPolyline
 90
        4
 70
     1
 43
0.0
 10
30.35000000000002
 20
-44.5
 10
45.84999999999999
 20
-44.5
 10
45.84999999999999
 20
-31.69999999999999
 10
30.35000000000002
 20
-31.69999999999999
  0
LWPOLYLINE
  5
227
330
70
100
AcDbEntity
  8
0
100
AcDbPolyline
 90
        4
 70
     1
 43
0.0
 10
30.35000000000503
 20
-120.7
 10
45.85000000000457
 20
-120.7
 10
45.85000000000457
 20
-107.8999999999999
 10
30.35000000000503
 20
-107.8999999999999
  0
LWPOLYLINE
  5
228
330
70
100
AcDbEntity
  8
0
100
AcDbPolyline
 90
        4
 70
     1
 43
0.0
 10
58.92500000000302
 20
-120.7
 10
74.425000000003
 20
-120.7
 10
74.425000000003
 20
-107.8999999999999
 10
58.92500000000302
 20
-107.8999999999999
  0
LWPOLYLINE
  5
229
330
70
100
AcDbEntity
  8
0
100
AcDbPolyline
 90
        4
 70
     1
 43
0.0
 10
111.3125000000019
 20
-120.7
 10
126.8125000000019
 20
-120.7
 10
126.8125000000019
 20
-107.8999999999999
 10
111.3125000000019
 20
-107.8999999999999
  0
LWPOLYLINE
  5
22A
330
70
100
AcDbEntity
  8
0
100
AcDbPolyline
 90
        4
 70
     1
 43
0.0
 10
139.8875000000049
 20
-120.7000000000002
 10
155.3875000000049
 20
-120.7000000000002
 10
155.3875000000049
 20
-107.9000000000002
 10
139.8875000000049
 20
-107.9000000000002
  0
LWPOLYLINE
  5
22B
330
70
100
AcDbEntity
  8
0
100
AcDbPolyline
 90
        4
 70
     1
 43
0.0
 10
118.456250000003
 20
-101.6500000000002
 10
133.956250000003
 20
-101.6500000000002
 10
133.956250000003
 20
-88.85000000000038
 10
118.456250000003
 20
-88.85000000000038
  0
LWPOLYLINE
  5
22C
330
70
100
AcDbEntity
  8
0
100
AcDbPolyline
 90
        4
 70
     1
 43
0.0
 10
113.6937500000045
 20
-82.60000000000003
 10
129.193750000005
 20
-82.60000000000003
 10
129.193750000005
 20
-69.80000000000007
 10
113.6937500000045
 20
-69.80000000000007
  0
LWPOLYLINE
  5
22D
330
70
100
AcDbEntity
  8
0
100
AcDbPolyline
 90
        4
 70
     1
 43
0.0
 10
111.3125000000019
 20
-63.54999999999989
 10
126.8125000000019
 20
-63.54999999999989
 10
126.8125000000019
 20
-50.75
 10
111.3125000000019
 20
-50.75
  0
LWPOLYLINE
  5
22E
330
70
100
AcDbEntity
  8
0
100
AcDbPolyline
 90
        4
 70
     1
 43
0.0
 10
356.581250000003
 20
-82.60000000000003
 10
372.081250000003
 20
-82.60000000000003
 10
372.081250000003
 20
-69.80000000000007
 10
356.581250000003
 20
-69.80000000000007
  0
LWPOLYLINE
  5
230
330
70
100
AcDbEntity
  8
0
100
AcDbPolyline
 90
        4
 70
     1
 43
0.0
 10
330.3875000000922
 20
-120.699999999989
 10
345.8875000000932
 20
-120.699999999989
 10
345.8875000000932
 20
-107.899999999989
 10
330.3875000000922
 20
-107.899999999989
  0
LWPOLYLINE
  5
231
330
70
100
AcDbEntity
  8
0
100
AcDbPolyline
 90
        4
 70
     1
 43
0.0
 10
351.8187500000014
 20
-101.6500000000002
 10
367.3187500000019
 20
-101.6500000000002
 10
367.3187500000019
 20
-88.85000000000038
 10
351.8187500000014
 20
-88.85000000000038
  0
LWPOLYLINE
  5
232
330
70
100
AcDbEntity
  8
0
100
AcDbPolyline
 90
        4
 70
     1
 43
0.0
 10
358.9625000000925
 20
-120.6999999999895
 10
374.4625000000943
 20
-120.6999999999895
 10
374.4625000000943
 20
-107.8999999999895
 10
358.9625000000925
 20
-107.8999999999895
  0
LWPOLYLINE
  5
233
330
70
100
AcDbEntity
  8
0
100
AcDbPolyline
 90
        4
 70
     1
 43
0.0
 10
101.6500000000015
 20
-112.5250000000006
 10
101.6500000000015
 20
-97.02500000000064
 10
88.85000000000186
 20
-97.02500000000064
 10
88.85000000000186
 20
-112.5250000000006
  0
LWPOLYLINE
  5
234
330
70
100
AcDbEntity
  8
0
100
AcDbPolyline
 90
        4
 70
     1
 43
0.0
 10
306.5750000000049
 20
-63.54999999999989
 10
322.0750000000049
 20
-63.54999999999989
 10
322.0750000000049
 20
-50.75
 10
306.5750000000049
 20
-50.75
  0
LWPOLYLINE
  5
235
330
70
100
AcDbEntity
  8
0
100
AcDbPolyline
 90
        4
 70
     1
 43
0.0
 10
287.5250000000043
 20
-63.54999999999989
 10
303.0250000000043
 20
-63.54999999999989
 10
303.0250000000043
 20
-50.75
 10
287.5250000000043
 20
-50.75
  0
LWPOLYLINE
  5
236
330
70
100
AcDbEntity
  8
0
100
AcDbPolyline
 90
        4
 70
     1
 43
0.0
 10
268.475000000005
 20
-63.54999999999989
 10
283.975000000005
 20
-63.54999999999989
 10
283.975000000005
 20
-50.75
 10
268.475000000005
 20
-50.75
  0
LWPOLYLINE
  5
237
330
70
100
AcDbEntity
  8
0
100
AcDbPolyline
 90
        4
 70
     1
 43
0.0
 10
249.4250000000048
 20
-63.54999999999989
 10
264.9250000000044
 20
-63.54999999999989
 10
264.9250000000044
 20
-50.75
 10
249.4250000000048
 20
-50.75
  0
LWPOLYLINE
  5
238
330
70
100
AcDbEntity
  8
0
100
AcDbPolyline
 90
        4
 70
     1
 43
0.0
 10
230.3750000000051
 20
-63.54999999999989
 10
245.8750000000051
 20
-63.54999999999989
 10
245.8750000000051
 20
-50.75
 10
230.3750000000051
 20
-50.75
  0
LWPOLYLINE
  5
239
330
70
100
AcDbEntity
  8
0
100
AcDbPolyline
 90
        4
 70
     1
 43
0.0
 10
211.3250000000031
 20
-63.54999999999989
 10
226.8250000000031
 20
-63.54999999999989
 10
226.8250000000031
 20
-50.75
 10
211.3250000000031
 20
-50.75
  0
LWPOLYLINE
  5
23A
330
70
100
AcDbEntity
  8
0
100
AcDbPolyline
 90
        4
 70
     1
 43
0.0
 10
192.2750000000034
 20
-63.54999999999989
 10
207.7750000000034
 20
-63.54999999999989
 10
207.7750000000034
 20
-50.75
 10
192.2750000000034
 20
-50.75
  0
LWPOLYLINE
  5
23B
330
70
100
AcDbEntity
  8
0
100
AcDbPolyline
 90
        4
 70
     1
 43
0.0
 10
173.2250000000032
 20
-63.54999999999989
 10
188.7250000000032
 20
-63.54999999999989
 10
188.7250000000032
 20
-50.75
 10
173.2250000000032
 20
-50.75
  0
LWPOLYLINE
  5
23C
330
70
100
AcDbEntity
  8
0
100
AcDbPolyline
 90
        4
 70
     1
 43
0.0
 10
154.175000000003
 20
-63.54999999999989
 10
169.675000000003
 20
-63.54999999999989
 10
169.675000000003
 20
-50.75
 10
154.175000000003
 20
-50.75
  0
LWPOLYLINE
  5
23D
330
70
100
AcDbEntity
  8
0
100
AcDbPolyline
 90
        4
 70
     1
 43
0.0
 10
311.3375000000061
 20
-82.60000000000003
 10
326.8375000000061
 20
-82.60000000000003
 10
326.8375000000061
 20
-69.80000000000007
 10
311.3375000000061
 20
-69.80000000000007
  0
LWPOLYLINE
  5
23E
330
70
100
AcDbEntity
  8
0
100
AcDbPolyline
 90
        4
 70
     1
 43
0.0
 10
292.2875000000068
 20
-82.60000000000003
 10
307.787500000005
 20
-82.60000000000003
 10
307.787500000005
 20
-69.80000000000007
 10
292.2875000000068
 20
-69.80000000000007
  0
LWPOLYLINE
  5
23F
330
70
100
AcDbEntity
  8
0
100
AcDbPolyline
 90
        4
 70
     1
 43
0.0
 10
273.2375000000049
 20
-82.60000000000003
 10
288.7375000000048
 20
-82.60000000000003
 10
288.7375000000048
 20
-69.80000000000007
 10
273.2375000000049
 20
-69.80000000000007
  0
LWPOLYLINE
  5
240
330
70
100
AcDbEntity
  8
0
100
AcDbPolyline
 90
        4
 70
     1
 43
0.0
 10
254.1875000000051
 20
-82.60000000000003
 10
269.6875000000051
 20
-82.60000000000003
 10
269.6875000000051
 20
-69.80000000000007
 10
254.1875000000051
 20
-69.80000000000007
  0
LWPOLYLINE
  5
241
330
70
100
AcDbEntity
  8
0
100
AcDbPolyline
 90
        4
 70
     1
 43
0.0
 10
235.1375000000049
 20
-82.60000000000003
 10
250.6375000000049
 20
-82.60000000000003
 10
250.6375000000049
 20
-69.80000000000007
 10
235.1375000000049
 20
-69.80000000000007
  0
LWPOLYLINE
  5
242
330
70
100
AcDbEntity
  8
0
100
AcDbPolyline
 90
        4
 70
     1
 43
0.0
 10
216.0875000000052
 20
-82.60000000000003
 10
231.5875000000052
 20
-82.60000000000003
 10
231.5875000000052
 20
-69.80000000000007
 10
216.0875000000052
 20
-69.80000000000007
  0
LWPOLYLINE
  5
243
330
70
100
AcDbEntity
  8
0
100
AcDbPolyline
 90
        4
 70
     1
 43
0.0
 10
197.037500000005
 20
-82.60000000000003
 10
212.537500000005
 20
-82.60000000000003
 10
212.537500000005
 20
-69.80000000000007
 10
197.037500000005
 20
-69.80000000000007
  0
LWPOLYLINE
  5
244
330
70
100
AcDbEntity
  8
0
100
AcDbPolyline
 90
        4
 70
     1
 43
0.0
 10
177.9875000000044
 20
-82.60000000000003
 10
193.4875000000048
 20
-82.60000000000003
 10
193.4875000000048
 20
-69.80000000000007
 10
177.9875000000044
 20
-69.80000000000007
  0
LWPOLYLINE
  5
245
330
70
100
AcDbEntity
  8
0
100
AcDbPolyline
 90
        4
 70
     1
 43
0.0
 10
158.9375000000051
 20
-82.60000000000003
 10
174.4375000000051
 20
-82.60000000000003
 10
174.4375000000051
 20
-69.80000000000007
 10
158.9375000000051
 20
-69.80000000000007
  0
LWPOLYLINE
  5
246
330
70
100
AcDbEntity
  8
0
100
AcDbPolyline
 90
        4
 70
     1
 43
0.0
 10
320.862500000003
 20
-101.6500000000002
 10
336.3625000000049
 20
-101.6500000000002
 10
336.3625000000049
 20
-88.85000000000038
 10
320.862500000003
 20
-88.85000000000038
  0
LWPOLYLINE
  5
247
330
70
100
AcDbEntity
  8
0
100
AcDbPolyline
 90
        4
 70
     1
 43
0.0
 10
301.8125000000033
 20
-101.6500000000002
 10
317.3125000000051
 20
-101.6500000000002
 10
317.3125000000051
 20
-88.85000000000038
 10
301.8125000000033
 20
-88.85000000000038
  0
LWPOLYLINE
  5
248
330
70
100
AcDbEntity
  8
0
100
AcDbPolyline
 90
        4
 70
     1
 43
0.0
 10
282.7625000000031
 20
-101.6500000000002
 10
298.2625000000049
 20
-101.6500000000002
 10
298.2625000000049
 20
-88.85000000000038
 10
282.7625000000031
 20
-88.85000000000038
  0
LWPOLYLINE
  5
249
330
70
100
AcDbEntity
  8
0
100
AcDbPolyline
 90
        4
 70
     1
 43
0.0
 10
263.7125000000034
 20
-101.6500000000002
 10
279.2125000000052
 20
-101.6500000000002
 10
279.2125000000052
 20
-88.85000000000038
 10
263.7125000000034
 20
-88.85000000000038
  0
LWPOLYLINE
  5
24A
330
70
100
AcDbEntity
  8
0
100
AcDbPolyline
 90
        4
 70
     1
 43
0.0
 10
244.6625000000032
 20
-101.6500000000002
 10
260.1625000000032
 20
-101.6500000000002
 10
260.1625000000032
 20
-88.85000000000038
 10
244.6625000000032
 20
-88.85000000000038
  0
LWPOLYLINE
  5
24B
330
70
100
AcDbEntity
  8
0
100
AcDbPolyline
 90
        4
 70
     1
 43
0.0
 10
225.612500000003
 20
-101.6500000000002
 10
241.112500000003
 20
-101.6500000000002
 10
241.112500000003
 20
-88.85000000000038
 10
225.612500000003
 20
-88.85000000000038
  0
LWPOLYLINE
  5
24C
330
70
100
AcDbEntity
  8
0
100
AcDbPolyline
 90
        4
 70
     1
 43
0.0
 10
206.5625000000033
 20
-101.6500000000002
 10
222.0625000000033
 20
-101.6500000000002
 10
222.0625000000033
 20
-88.85000000000038
 10
206.5625000000033
 20
-88.85000000000038
  0
LWPOLYLINE
  5
24D
330
70
100
AcDbEntity
  8
0
100
AcDbPolyline
 90
        4
 70
     1
 43
0.0
 10
187.512500000003
 20
-101.6500000000002
 10
203.0125000000031
 20
-101.6500000000002
 10
203.0125000000031
 20
-88.85000000000038
 10
187.512500000003
 20
-88.85000000000038
  0
LWPOLYLINE
  5
24E
330
70
100
AcDbEntity
  8
0
100
AcDbPolyline
 90
        4
 70
     1
 43
0.0
 10
168.4625000000034
 20
-101.6500000000002
 10
183.9625000000033
 20
-101.6500000000002
 10
183.9625000000033
 20
-88.85000000000038
 10
168.4625000000034
 20
-88.85000000000038
  0
LWPOLYLINE
  5
24F
330
70
100
AcDbEntity
  8
0
100
AcDbPolyline
 90
        4
 70
     1
 43
0.0
 10
363.725000000005
 20
-63.54999999999989
 10
379.225000000005
 20
-63.54999999999989
 10
379.225000000005
 20
-50.75
 10
363.725000000005
 20
-50.75
  0
LWPOLYLINE
  5
250
330
70
100
AcDbEntity
  8
0
100
AcDbPolyline
 90
        4
 70
     1
 43
0.0
 10
344.6750000000049
 20
-63.54999999999989
 10
360.1750000000048
 20
-63.54999999999989
 10
360.1750000000048
 20
-50.75
 10
344.6750000000049
 20
-50.75
  0
LWPOLYLINE
  5
251
330
70
100
AcDbEntity
  8
0
100
AcDbPolyline
 90
        4
 70
     1
 43
0.0
 10
325.6250000000051
 20
-63.54999999999989
 10
341.1250000000051
 20
-63.54999999999989
 10
341.1250000000051
 20
-50.75
 10
325.6250000000051
 20
-50.75
  0
LWPOLYLINE
  5
252
330
70
100
AcDbEntity
  8
0
100
AcDbPolyline
 90
        4
 70
     1
 43
0.0
 10
330.3875000000068
 20
-82.60000000000003
 10
345.8875000000063
 20
-82.60000000000003
 10
345.8875000000063
 20
-69.80000000000007
 10
330.3875000000068
 20
-69.80000000000007
  0
LWPOLYLINE
  5
270
330
70
100
AcDbEntity
  8
0
100
AcDbPolyline
 90
        4
 70
     1
 43
0.0
 10
30.35000000000002
 20
-63.55000000000001
 10
45.84999999999999
 20
-63.55000000000001
 10
45.84999999999999
 20
-50.75
 10
30.35000000000002
 20
-50.75
  0
LWPOLYLINE
  5
271
330
70
100
AcDbEntity
  8
0
100
AcDbPolyline
 90
        4
 70
     1
 43
0.0
 10
30.35000000000002
 20
-82.60000000000003
 10
45.84999999999999
 20
-82.60000000000003
 10
45.84999999999999
 20
-69.80000000000001
 10
30.35000000000002
 20
-69.80000000000001
  0
LWPOLYLINE
  5
272
330
70
100
AcDbEntity
  8
0
100
AcDbPolyline
 90
        4
 70
     1
 43
0.0
 10
30.35000000000002
 20
-101.6499999999999
 10
45.84999999999999
 20
-101.6499999999999
 10
45.84999999999999
 20
-88.85000000000003
 10
30.35000000000002
 20
-88.85000000000003
  0
LWPOLYLINE
  5
273
330
70
100
AcDbEntity
  8
0
100
AcDbPolyline
 90
        4
 70
     1
 43
0.0
 10
49.40000000000019
 20
-63.55000000000001
 10
64.9000000000002
 20
-63.55000000000001
 10
64.9000000000002
 20
-50.75
 10
49.40000000000019
 20
-50.75
  0
LWPOLYLINE
  5
274
330
70
100
AcDbEntity
  8
0
100
AcDbPolyline
 90
        4
 70
     1
 43
0.0
 10
49.40000000000019
 20
-82.60000000000003
 10
64.9000000000002
 20
-82.60000000000003
 10
64.9000000000002
 20
-69.80000000000001
 10
49.40000000000019
 20
-69.80000000000001
  0
LWPOLYLINE
  5
275
330
70
100
AcDbEntity
  8
0
100
AcDbPolyline
 90
        4
 70
     1
 43
0.0
 10
49.40000000000019
 20
-101.6499999999999
 10
64.9000000000002
 20
-101.6499999999999
 10
64.9000000000002
 20
-88.85000000000003
 10
49.40000000000019
 20
-88.85000000000003
  0
LWPOLYLINE
  5
276
330
70
100
AcDbEntity
  8
0
100
AcDbPolyline
 90
        4
 70
     1
 43
0.0
 10
68.45000000000038
 20
-63.55000000000001
 10
83.95000000000129
 20
-63.55000000000001
 10
83.95000000000129
 20
-50.75
 10
68.45000000000038
 20
-50.75
  0
LWPOLYLINE
  5
277
330
70
100
AcDbEntity
  8
0
100
AcDbPolyline
 90
        4
 70
     1
 43
0.0
 10
68.45000000000038
 20
-82.60000000000003
 10
83.95000000000129
 20
-82.60000000000003
 10
83.95000000000129
 20
-69.80000000000001
 10
68.45000000000038
 20
-69.80000000000001
  0
LWPOLYLINE
  5
278
330
70
100
AcDbEntity
  8
0
100
AcDbPolyline
 90
        4
 70
     1
 43
0.0
 10
68.45000000000038
 20
-101.6499999999999
 10
83.95000000000129
 20
-101.6499999999999
 10
83.95000000000129
 20
-88.85000000000003
 10
68.45000000000038
 20
-88.85000000000003
  0
LWPOLYLINE
  5
279
330
70
100
AcDbEntity
  8
0
100
AcDbPolyline
 90
        4
 70
     1
 43
0.0
 10
87.50000000000012
 20
-63.55000000000001
 10
103.0000000000001
 20
-63.55000000000001
 10
103.0000000000001
 20
-50.75
 10
87.50000000000012
 20
-50.75
  0
LWPOLYLINE
  5
27A
330
70
100
AcDbEntity
  8
0
100
AcDbPolyline
 90
        4
 70
     1
 43
0.0
 10
87.50000000000012
 20
-82.60000000000003
 10
103.0000000000001
 20
-82.60000000000003
 10
103.0000000000001
 20
-69.80000000000001
 10
87.50000000000012
 20
-69.80000000000001
  0
LWPOLYLINE
  5
4B2
330
70
100
AcDbEntity
  8
0
100
AcDbPolyline
 90
        4
 70
     1
 43
0.0
 10
235.1375000000049
 20
-120.7
 10
250.6375000000049
 20
-120.7
 10
250.6375000000049
 20
-107.9
 10
235.1375000000049
 20
-107.9
  0
LWPOLYLINE
  5
59C
330
70
100
AcDbEntity
  8
0
100
AcDbPolyline
 90
        4
 70
     1
 43
0.0
 10
135.1250000000028
 20
-63.54999999999989
 10
150.6250000000028
 20
-63.54999999999989
 10
150.6250000000028
 20
-50.75
 10
135.1250000000028
 20
-50.75
  0
LWPOLYLINE
  5
59D
330
70
100
AcDbEntity
  8
0
100
AcDbPolyline
 90
        4
 70
     1
 43
0.0
 10
139.8875000000048
 20
-82.60000000000003
 10
155.3875000000049
 20
-82.60000000000003
 10
155.3875000000049
 20
-69.80000000000007
 10
139.8875000000048
 20
-69.80000000000007
  0
LWPOLYLINE
  5
59E
330
70
100
AcDbEntity
  8
0
100
AcDbPolyline
 90
        4
 70
     1
 43
0.0
 10
149.4125000000032
 20
-101.6500000000002
 10
164.9125000000031
 20
-101.6500000000002
 10
164.9125000000031
 20
-88.85000000000038
 10
149.4125000000032
 20
-88.85000000000038
  0
LWPOLYLINE
  5
665
330
70
100
AcDbEntity
  8
0
100
AcDbPolyline
 90
        4
 70
     1
 43
0.0
 10
293.0875000000049
 20
-107.85
 10
293.0875000000049
 20
-122.05
 10
296.3875000000049
 20
-122.05
 10
296.3875000000049
 20
-107.85
  0
LWPOLYLINE
  5
666
330
70
100
AcDbEntity
  8
0
100
AcDbPolyline
 90
        4
 70
     1
 43
0.0
 10
192.687500000005
 20
-107.85
 10
192.687500000005
 20
-122.05
 10
189.3875000000049
 20
-122.05
 10
189.3875000000049
 20
-107.85
  0
LWPOLYLINE
  5
667
330
70
100
AcDbEntity
  8
0
100
AcDbPolyline
 90
        4
 70
     1
 43
0.0
 10
187.3875000000049
 20
-107.85
 10
187.3875000000049
 20
-122.05
 10
184.0875000000049
 20
-122.05
 10
184.0875000000049
 20
-107.85
  0
LWPOLYLINE
  5
668
330
70
100
AcDbEntity
  8
0
100
AcDbPolyline
 90
        4
 70
     1
 43
0.0
 10
301.687500000005
 20
-107.85
 10
301.687500000005
 20
-122.05
 10
298.387500000005
 20
-122.05
 10
298.387500000005
 20
-107.85
  0
LWPOLYLINE
  5
669
330
70
100
AcDbEntity
  8
0
100
AcDbPolyline
 90
        4
 70
     1
 43
0.0
 10
354.5125000000932
 20
-117.2999999999895
 10
357.5125000000932
 20
-117.2999999999895
 10
357.5125000000941
 20
-111.2999999999895
 10
354.5125000000932
 20
-111.2999999999895
  0
LWPOLYLINE
  5
66D
330
70
100
AcDbEntity
  8
0
100
AcDbPolyline
 90
       60
 70
     1
 43
0.0
 10
305.9874999999871
 20
-127.050000000075
 42
0.9999999999999998
 10
303.5874999999861
 20
-127.050000000075
 10
303.5874999999861
 20
-128.3000000000753
 10
302.9874999999503
 20
-128.3000000000753
 10
300.1874999999503
 20
-124.5000000000751
 10
209.3875000000932
 20
-124.5000000000751
 10
206.5875000000401
 20
-128.300000000148
 10
205.987500000003
 20
-128.3000000000753
 10
205.9875000000048
 20
-127.0500000000745
 42
0.9999999999999998
 10
203.5875000000043
 20
-127.0500000000745
 10
203.5875000000034
 20
-128.3000000000753
 10
202.9874999999671
 20
-128.3000000000753
 10
200.1874999999675
 20
-124.5000000001478
 10
109.3875000000537
 20
-124.5000000000751
 10
106.5875000000542
 20
-128.3000000000753
 10
105.9875000000171
 20
-128.3000000000753
 10
105.9875000000171
 20
-127.8000000000749
 10
105.9875000000175
 20
-127.050000000075
 42
0.9999999999999998
 10
103.5875000000193
 20
-127.050000000075
 10
103.5875000000175
 20
-127.8000000000749
 10
103.5875000000175
 20
-128.3000000000753
 10
102.9874999999812
 20
-128.3000000000753
 10
100.1874999999817
 20
-124.5000000000751
 10
28.90000000003933
 20
-124.5000000000751
 42
-0.4142135623730951
 10
27.90000000003932
 20
-123.5000000000751
 10
27.90000000003932
 20
-28.89999999994439
 42
-0.4142135623730951
 10
28.90000000003932
 20
-27.89999999994439
 10
100.1874999999817
 20
-27.89999999994439
 10
102.9874999999812
 20
-24.09999999994417
 10
103.5875000000175
 20
-24.09999999994417
 10
103.5875000000175
 20
-24.59999999994456
 10
103.5875000000193
 20
-25.34999999994447
 42
0.9999999999999998
 10
105.987500000018
 20
-25.34999999994447
 10
105.9875000000171
 20
-24.59999999994456
 10
105.9875000000171
 20
-24.09999999994417
 10
106.5875000000542
 20
-24.09999999994417
 10
109.3875000000537
 20
-27.89999999994439
 10
200.1874999999675
 20
-27.89999999987163
 10
202.9874999999671
 20
-24.09999999994417
 10
203.5875000000034
 20
-24.09999999994417
 10
203.5875000000043
 20
-25.34999999994496
 42
0.9999999999999998
 10
205.987500000003
 20
-25.34999999994496
 10
205.987500000003
 20
-24.09999999994417
 10
206.5875000000401
 20
-24.09999999987141
 10
209.3875000000932
 20
-27.8999999999444
 10
300.1874999999503
 20
-27.89999999994439
 10
302.9874999999503
 20
-24.09999999994417
 10
303.5874999999861
 20
-24.09999999994417
 10
303.5874999999861
 20
-25.34999999994447
 42
0.9999999999999998
 10
305.9874999999862
 20
-25.34999999994447
 10
305.9874999999862
 20
-24.09999999994417
 10
306.5875000000228
 20
-24.09999999994417
 10
309.3875000000223
 20
-27.8999999999444
 10
380.6749999999671
 20
-27.89999999994439
 42
-0.4142135623730951
 10
381.6749999999671
 20
-28.89999999994439
 10
381.6749999999671
 20
-123.5000000000751
 42
-0.4142135623730951
 10
380.6749999999671
 20
-124.5000000000751
 10
309.3875000000223
 20
-124.5000000000751
 10
306.5875000000228
 20
-128.3000000000753
 10
305.9874999999862
 20
-128.3000000000753
  0
ENDSEC
  0
SECTION
  2
OBJECTS
  0
DICTIONARY
  5
C
330
0
100
AcDbDictionary
281
     1
  3
ACAD_CIP_PREVIOUS_PRODUCT_INFO
350
7B
  3
ACAD_COLOR
350
63
  3
ACAD_DETAILVIEWSTYLE
350
6A
  3
ACAD_GROUP
350
D
  3
ACAD_LAYOUT
350
62
  3
ACAD_MATERIAL
350
10
  3
ACAD_MLEADERSTYLE
350
66
  3
ACAD_MLINESTYLE
350
5F
  3
ACAD_PLOTSETTINGS
350
61
  3
ACAD_PLOTSTYLENAME
350
E
  3
ACAD_SCALELIST
350
42
  3
ACAD_SECTIONVIEWSTYLE
350
68
  3
ACAD_TABLESTYLE
350
64
  3
ACAD_VISUALSTYLE
350
29
  3
ACDB_RECOMPOSE_DATA
350
68B
  3
AcDbVariableDictionary
350
281
  3
AcDsDecomposeData
350
691
  0
DICTIONARY
  5
84
330
2
100
AcDbDictionary
280
     1
281
     1
  3
ACAD_LAYERSTATES
360
85
  0
DICTIONARY
  5
449
330
70
100
AcDbDictionary
280
     1
281
     1
  3
ACAD_SORTENTS
360
44A
  0
DICTIONARY
  5
12C
330
86
100
AcDbDictionary
280
     1
281
     1
  3
ACAD_SORTENTS
360
12D
  0
XRECORD
  5
7B
102
{ACAD_REACTORS
330
C
102
}
330
C
100
AcDbXrecord
280
     1
300
ACDLT
300
2022
300

  0
DICTIONARY
  5
63
102
{ACAD_REACTORS
330
C
102
}
330
C
100
AcDbDictionary
281
     1
  0
DICTIONARY
  5
6A
102
{ACAD_REACTORS
330
C
102
}
330
C
100
AcDbDictionary
281
     1
  3
Imperial24
350
6B
  0
DICTIONARY
  5
D
102
{ACAD_REACTORS
330
C
102
}
330
C
100
AcDbDictionary
281
     1
  0
DICTIONARY
  5
62
102
{ACAD_REACTORS
330
C
102
}
330
C
100
AcDbDictionary
281
     1
  3
Layout1
350
6F
  3
Layout2
350
77
  3
Model
350
73
  0
DICTIONARY
  5
10
102
{ACAD_REACTORS
330
C
102
}
330
C
100
AcDbDictionary
281
     1
  3
ByBlock
350
19
  3
ByLayer
350
11
  3
Global
350
21
  0
DICTIONARY
  5
66
102
{ACAD_REACTORS
330
C
102
}
330
C
100
AcDbDictionary
281
     1
  3
Standard
350
67
  0
DICTIONARY
  5
5F
102
{ACAD_REACTORS
330
C
102
}
330
C
100
AcDbDictionary
281
     1
  3
Standard
350
60
  0
DICTIONARY
  5
61
102
{ACAD_REACTORS
330
C
102
}
330
C
100
AcDbDictionary
281
     1
  0
ACDBDICTIONARYWDFLT
  5
E
102
{ACAD_REACTORS
330
C
102
}
330
C
100
AcDbDictionary
281
     1
  3
Normal
350
F
100
AcDbDictionaryWithDefault
340
F
  0
DICTIONARY
  5
42
102
{ACAD_REACTORS
330
C
102
}
330
C
100
AcDbDictionary
281
     1
  3
A0
350
43
  3
A1
350
44
  3
A2
350
45
  3
A3
350
46
  3
A4
350
47
  3
A5
350
48
  3
A6
350
49
  3
A7
350
4A
  3
A8
350
4B
  3
A9
350
4C
  3
B0
350
4D
  3
B1
350
4E
  3
B2
350
4F
  3
B3
350
50
  3
B4
350
51
  3
B5
350
52
  3
B6
350
53
  0
DICTIONARY
  5
68
102
{ACAD_REACTORS
330
C
102
}
330
C
100
AcDbDictionary
281
     1
  3
Imperial24
350
69
  0
DICTIONARY
  5
64
102
{ACAD_REACTORS
330
C
102
}
330
C
100
AcDbDictionary
281
     1
  3
Standard
350
65
  0
DICTIONARY
  5
29
102
{ACAD_REACTORS
330
C
102
}
330
C
100
AcDbDictionary
281
     1
  3
2dWireframe
350
2F
  3
Basic
350
2E
  3
Brighten
350
35
  3
ColorChange
350
39
  3
Conceptual
350
32
  3
Dim
350
34
  3
EdgeColorOff
350
41
  3
Facepattern
350
38
  3
Flat
350
2A
  3
FlatWithEdges
350
2B
  3
Gouraud
350
2C
  3
GouraudWithEdges
350
2D
  3
Hidden
350
31
  3
JitterOff
350
3F
  3
Linepattern
350
37
  3
OverhangOff
350
40
  3
Realistic
350
33
  3
Shaded
350
3E
  3
Shaded with edges
350
3D
  3
Shades of Gray
350
3A
  3
Sketchy
350
3B
  3
Thicken
350
36
  3
Wireframe
350
30
  3
X-Ray
350
3C
  0
XRECORD
  5
68B
102
{ACAD_REACTORS
330
C
102
}
330
C
100
AcDbXrecord
280
     1
 90
        1
330
65
  0
DICTIONARY
  5
281
102
{ACAD_REACTORS
330
C
102
}
330
C
100
AcDbDictionary
281
     1
  3
CANNOSCALE
350
286
  3
CMLEADERSTYLE
350
283
  3
CTABLESTYLE
350
282
  3
CVIEWDETAILSTYLE
350
284
  3
CVIEWSECTIONSTYLE
350
285
  0
DICTIONARY
  5
691
102
{ACAD_REACTORS
330
C
102
}
330
C
100
AcDbDictionary
281
     1
  3
AcDsRecords
350
693
  3
AcDsSchemas
350
692
1001
ACAD
1070
     2
  0
DICTIONARY
  5
85
102
{ACAD_REACTORS
330
84
102
}
330
84
100
AcDbDictionary
281
     1
  0
SORTENTSTABLE
  5
44A
102
{ACAD_REACTORS
330
449
102
}
330
449
100
AcDbSortentsTable
330
70
  0
SORTENTSTABLE
  5
12D
102
{ACAD_REACTORS
330
12C
102
}
330
12C
100
AcDbSortentsTable
330
86
  0
ACDBDETAILVIEWSTYLE
  5
6B
102
{ACAD_XDICTIONARY
360
696
102
}
102
{ACAD_REACTORS
330
6A
102
}
330
6A
100
AcDbModelDocViewStyle
 70
     0
  3
Imperial24
290
     0
100
AcDbDetailViewStyle
 70
     0
 71
     0
 90
        3
 71
     1
340
55
 62
   256
 40
0.24
340
0
 62
   256
 40
0.24
300

 40
0.36
280
     3
 71
     2
340
5D
 90
       25
 62
   256
 71
     3
340
55
 62
   256
 40
0.24
 90
        1
 40
0.75
 90
        1
300
%<\AcVar ViewType \f "%tc1">% %<\AcVar ViewDetailId>%\PSCALE %<\AcVar ViewScale \f "%sn">%
 71
     4
340
5D
 90
       25
 62
   256
340
5D
 90
       25
 62
   256
280
     0
  0
LAYOUT
  5
6F
102
{ACAD_REACTORS
330
62
102
}
330
62
100
AcDbPlotSettings
  1

  2
Microsoft Print to PDF
  4

  6

 40
0.0
 41
0.0
 42
0.0
 43
0.0
 44
0.0
 45
0.0
 46
0.0
 47
0.0
 48
0.0
 49
0.0
140
0.0
141
0.0
142
1.0
143
1.0
 70
   688
 72
     0
 73
     0
 74
     5
  7

 75
    16
147
1.0
 76
     0
 77
     2
 78
   300
148
0.0
149
0.0
100
AcDbLayout
  1
Layout1
 70
     1
 71
     1
 10
0.0
 20
0.0
 11
12.0
 21
9.0
 12
0.0
 22
0.0
 32
0.0
 14
1.000000000000000E+20
 24
1.000000000000000E+20
 34
1.000000000000000E+20
 15
-1.000000000000000E+20
 25
-1.000000000000000E+20
 35
-1.000000000000000E+20
146
0.0
 13
0.0
 23
0.0
 33
0.0
 16
1.0
 26
0.0
 36
0.0
 17
0.0
 27
1.0
 37
0.0
 76
     0
330
6C
  0
LAYOUT
  5
77
102
{ACAD_REACTORS
330
62
102
}
330
62
100
AcDbPlotSettings
  1

  2
Microsoft Print to PDF
  4

  6

 40
0.0
 41
0.0
 42
0.0
 43
0.0
 44
0.0
 45
0.0
 46
0.0
 47
0.0
 48
0.0
 49
0.0
140
0.0
141
0.0
142
1.0
143
1.0
 70
   688
 72
     0
 73
     0
 74
     5
  7

 75
    16
147
1.0
 76
     0
 77
     2
 78
   300
148
0.0
149
0.0
100
AcDbLayout
  1
Layout2
 70
     1
 71
     2
 10
0.0
 20
0.0
 11
12.0
 21
9.0
 12
0.0
 22
0.0
 32
0.0
 14
0.0
 24
0.0
 34
0.0
 15
0.0
 25
0.0
 35
0.0
146
0.0
 13
0.0
 23
0.0
 33
0.0
 16
1.0
 26
0.0
 36
0.0
 17
0.0
 27
1.0
 37
0.0
 76
     0
330
74
  0
LAYOUT
  5
73
102
{ACAD_REACTORS
330
62
102
}
330
62
100
AcDbPlotSettings
  1

  2
Microsoft Print to PDF
  4

  6

 40
0.0
 41
0.0
 42
0.0
 43
0.0
 44
0.0
 45
0.0
 46
0.0
 47
0.0
 48
0.0
 49
0.0
140
0.0
141
0.0
142
1.0
143
1.0
 70
  1712
 72
     0
 73
     0
 74
     0
  7

 75
     0
147
1.0
 76
     0
 77
     2
 78
   300
148
0.0
149
0.0
100
AcDbLayout
  1
Model
 70
     1
 71
     0
 10
0.0
 20
0.0
 11
12.0
 21
9.0
 12
0.0
 22
0.0
 32
0.0
 14
0.0
 24
0.0
 34
0.0
 15
0.0
 25
0.0
 35
0.0
146
0.0
 13
0.0
 23
0.0
 33
0.0
 16
1.0
 26
0.0
 36
0.0
 17
0.0
 27
1.0
 37
0.0
 76
     0
330
70
331
57
  0
MATERIAL
  5
19
102
{ACAD_XDICTIONARY
360
1A
102
}
102
{ACAD_REACTORS
330
10
102
}
330
10
100
AcDbMaterial
  1
ByBlock
 72
     0
 43
0.0208333333333333
 43
0.0
 43
0.0
 43
0.0
 43
0.0
 43
0.0208333333333333
 43
0.0
 43
0.0
 43
0.0
 43
0.0
 43
1.0
 43
0.0
 43
0.0
 43
0.0
 43
0.0
 43
1.0
 77
     0
 47
0.0208333333333333
 47
0.0
 47
0.0
 47
0.0
 47
0.0
 47
0.0208333333333333
 47
0.0
 47
0.0
 47
0.0
 47
0.0
 47
1.0
 47
0.0
 47
0.0
 47
0.0
 47
0.0
 47
1.0
171
     0
 49
0.0208333333333333
 49
0.0
 49
0.0
 49
0.0
 49
0.0
 49
0.0208333333333333
 49
0.0
 49
0.0
 49
0.0
 49
0.0
 49
1.0
 49
0.0
 49
0.0
 49
0.0
 49
0.0
 49
1.0
175
     0
142
0.0208333333333333
142
0.0
142
0.0
142
0.0
142
0.0
142
0.0208333333333333
142
0.0
142
0.0
142
0.0
142
0.0
142
1.0
142
0.0
142
0.0
142
0.0
142
0.0
142
1.0
179
     0
144
0.0208333333333333
144
0.0
144
0.0
144
0.0
144
0.0
144
0.0208333333333333
144
0.0
144
0.0
144
0.0
144
0.0
144
1.0
144
0.0
144
0.0
144
0.0
144
0.0
144
1.0
147
0.0208333333333333
147
0.0
147
0.0
147
0.0
147
0.0
147
0.0208333333333333
147
0.0
147
0.0
147
0.0
147
0.0
147
1.0
147
0.0
147
0.0
147
0.0
147
0.0
147
1.0
  0
MATERIAL
  5
11
102
{ACAD_XDICTIONARY
360
12
102
}
102
{ACAD_REACTORS
330
10
102
}
330
10
100
AcDbMaterial
  1
ByLayer
 72
     0
 43
0.0208333333333333
 43
0.0
 43
0.0
 43
0.0
 43
0.0
 43
0.0208333333333333
 43
0.0
 43
0.0
 43
0.0
 43
0.0
 43
1.0
 43
0.0
 43
0.0
 43
0.0
 43
0.0
 43
1.0
 77
     0
 47
0.0208333333333333
 47
0.0
 47
0.0
 47
0.0
 47
0.0
 47
0.0208333333333333
 47
0.0
 47
0.0
 47
0.0
 47
0.0
 47
1.0
 47
0.0
 47
0.0
 47
0.0
 47
0.0
 47
1.0
171
     0
 49
0.0208333333333333
 49
0.0
 49
0.0
 49
0.0
 49
0.0
 49
0.0208333333333333
 49
0.0
 49
0.0
 49
0.0
 49
0.0
 49
1.0
 49
0.0
 49
0.0
 49
0.0
 49
0.0
 49
1.0
175
     0
142
0.0208333333333333
142
0.0
142
0.0
142
0.0
142
0.0
142
0.0208333333333333
142
0.0
142
0.0
142
0.0
142
0.0
142
1.0
142
0.0
142
0.0
142
0.0
142
0.0
142
1.0
179
     0
144
0.0208333333333333
144
0.0
144
0.0
144
0.0
144
0.0
144
0.0208333333333333
144
0.0
144
0.0
144
0.0
144
0.0
144
1.0
144
0.0
144
0.0
144
0.0
144
0.0
144
1.0
147
0.0208333333333333
147
0.0
147
0.0
147
0.0
147
0.0
147
0.0208333333333333
147
0.0
147
0.0
147
0.0
147
0.0
147
1.0
147
0.0
147
0.0
147
0.0
147
0.0
147
1.0
  0
MATERIAL
  5
21
102
{ACAD_XDICTIONARY
360
22
102
}
102
{ACAD_REACTORS
330
10
102
}
330
10
100
AcDbMaterial
  1
Global
 72
     0
 43
0.0208333333333333
 43
0.0
 43
0.0
 43
0.0
 43
0.0
 43
0.0208333333333333
 43
0.0
 43
0.0
 43
0.0
 43
0.0
 43
1.0
 43
0.0
 43
0.0
 43
0.0
 43
0.0
 43
1.0
 77
     0
 47
0.0208333333333333
 47
0.0
 47
0.0
 47
0.0
 47
0.0
 47
0.0208333333333333
 47
0.0
 47
0.0
 47
0.0
 47
0.0
 47
1.0
 47
0.0
 47
0.0
 47
0.0
 47
0.0
 47
1.0
171
     0
 49
0.0208333333333333
 49
0.0
 49
0.0
 49
0.0
 49
0.0
 49
0.0208333333333333
 49
0.0
 49
0.0
 49
0.0
 49
0.0
 49
1.0
 49
0.0
 49
0.0
 49
0.0
 49
0.0
 49
1.0
175
     0
142
0.0208333333333333
142
0.0
142
0.0
142
0.0
142
0.0
142
0.0208333333333333
142
0.0
142
0.0
142
0.0
142
0.0
142
1.0
142
0.0
142
0.0
142
0.0
142
0.0
142
1.0
179
     0
144
0.0208333333333333
144
0.0
144
0.0
144
0.0
144
0.0
144
0.0208333333333333
144
0.0
144
0.0
144
0.0
144
0.0
144
1.0
144
0.0
144
0.0
144
0.0
144
0.0
144
1.0
147
0.0208333333333333
147
0.0
147
0.0
147
0.0
147
0.0
147
0.0208333333333333
147
0.0
147
0.0
147
0.0
147
0.0
147
1.0
147
0.0
147
0.0
147
0.0
147
0.0
147
1.0
  0
MLEADERSTYLE
  5
67
102
{ACAD_REACTORS
330
66
102
}
330
66
100
AcDbMLeaderStyle
179
     2
170
     2
171
     1
172
     0
 90
        2
 40
0.0
 41
0.0
173
     1
 91
-1056964608
340
5B
 92
       -2
290
     1
 42
0.09
291
     1
 43
0.36
  3
Standard
 44
0.18
300

342
55
174
     1
178
     6
175
     1
176
     0
 93
-1056964608
 45
0.18
292
     0
297
     0
 46
0.18
 94
-1056964608
 47
1.0
 49
1.0
140
1.0
293
     1
141
0.0
294
     1
177
     0
142
1.0
295
     0
296
     0
143
0.125
271
     0
272
     9
273
     9
298
     1
1001
ACAD_MLEADERVER
1070
     2
  0
MLINESTYLE
  5
60
102
{ACAD_REACTORS
330
5F
102
}
330
5F
100
AcDbMlineStyle
  2
STANDARD
 70
     0
  3

 62
   256
 51
90.0
 52
90.0
 71
     2
 49
0.5
 62
   256
  6
BYLAYER
 49
-0.5
 62
   256
  6
BYLAYER
  0
ACDBPLACEHOLDER
  5
F
102
{ACAD_REACTORS
330
E
102
}
330
E
  0
SCALE
  5
43
102
{ACAD_REACTORS
330
42
102
}
330
42
100
AcDbScale
 70
     0
300
1:1
140
1.0
141
1.0
290
     1
  0
SCALE
  5
44
102
{ACAD_REACTORS
330
42
102
}
330
42
100
AcDbScale
 70
     0
300
1/128" = 1'-0"
140
0.0078125
141
12.0
290
     0
  0
SCALE
  5
45
102
{ACAD_REACTORS
330
42
102
}
330
42
100
AcDbScale
 70
     0
300
1/64" = 1'-0"
140
0.015625
141
12.0
290
     0
  0
SCALE
  5
46
102
{ACAD_REACTORS
330
42
102
}
330
42
100
AcDbScale
 70
     0
300
1/32" = 1'-0"
140
0.03125
141
12.0
290
     0
  0
SCALE
  5
47
102
{ACAD_REACTORS
330
42
102
}
330
42
100
AcDbScale
 70
     0
300
1/16" = 1'-0"
140
0.0625
141
12.0
290
     0
  0
SCALE
  5
48
102
{ACAD_REACTORS
330
42
102
}
330
42
100
AcDbScale
 70
     0
300
3/32" = 1'-0"
140
0.09375
141
12.0
290
     0
  0
SCALE
  5
49
102
{ACAD_REACTORS
330
42
102
}
330
42
100
AcDbScale
 70
     0
300
1/8" = 1'-0"
140
0.125
141
12.0
290
     0
  0
SCALE
  5
4A
102
{ACAD_REACTORS
330
42
102
}
330
42
100
AcDbScale
 70
     0
300
3/16" = 1'-0"
140
0.1875
141
12.0
290
     0
  0
SCALE
  5
4B
102
{ACAD_REACTORS
330
42
102
}
330
42
100
AcDbScale
 70
     0
300
1/4" = 1'-0"
140
0.25
141
12.0
290
     0
  0
SCALE
  5
4C
102
{ACAD_REACTORS
330
42
102
}
330
42
100
AcDbScale
 70
     0
300
3/8" = 1'-0"
140
0.375
141
12.0
290
     0
  0
SCALE
  5
4D
102
{ACAD_REACTORS
330
42
102
}
330
42
100
AcDbScale
 70
     0
300
1/2" = 1'-0"
140
0.5
141
12.0
290
     0
  0
SCALE
  5
4E
102
{ACAD_REACTORS
330
42
102
}
330
42
100
AcDbScale
 70
     0
300
3/4" = 1'-0"
140
0.75
141
12.0
290
     0
  0
SCALE
  5
4F
102
{ACAD_REACTORS
330
42
102
}
330
42
100
AcDbScale
 70
     0
300
1" = 1'-0"
140
1.0
141
12.0
290
     0
  0
SCALE
  5
50
102
{ACAD_REACTORS
330
42
102
}
330
42
100
AcDbScale
 70
     0
300
1-1/2" = 1'-0"
140
1.5
141
12.0
290
     0
  0
SCALE
  5
51
102
{ACAD_REACTORS
330
42
102
}
330
42
100
AcDbScale
 70
     0
300
3" = 1'-0"
140
3.0
141
12.0
290
     0
  0
SCALE
  5
52
102
{ACAD_REACTORS
330
42
102
}
330
42
100
AcDbScale
 70
     0
300
6" = 1'-0"
140
6.0
141
12.0
290
     0
  0
SCALE
  5
53
102
{ACAD_REACTORS
330
42
102
}
330
42
100
AcDbScale
 70
     0
300
1'-0" = 1'-0"
140
12.0
141
12.0
290
     0
  0
ACDBSECTIONVIEWSTYLE
  5
69
102
{ACAD_XDICTIONARY
360
694
102
}
102
{ACAD_REACTORS
330
68
102
}
330
68
100
AcDbModelDocViewStyle
 70
     0
  3
Imperial24
290
     0
100
AcDbSectionViewStyle
 70
     0
 71
     0
 90
       78
 71
     1
340
55
 62
   256
 40
0.24
340
0
340
0
 62
   256
 40
0.24
300
I, O, Q, S, X, Z
 40
0.48
 90
        3
 40
0.18
 90
        1
 71
     2
340
5D
 90
       25
 62
   256
340
5D
 90
       50
 62
   256
 40
0.24
 40
0.0
 40
0.24
 71
     3
340
55
 62
   256
 40
0.24
 90
        1
 40
0.75
 90
        1
300
%<\AcVar ViewType \f "%tc1">% %<\AcVar ViewSectionStartId>%-%<\AcVar ViewSectionEndId>%\PSCALE %<\AcVar ViewScale \f "%sn">%
 71
     4
 62
   256
 62
   257
300
ANSI31
 40
1.0
 90
        0
290
     0
290
     0
 90
        6
 40
0.0
 40
1.570796326794896
 40
0.2617993877991494
 40
1.308996938995747
 40
-0.2617993877991494
 40
1.832595714594044
  0
TABLESTYLE
  5
65
102
{ACAD_XDICTIONARY
360
2C9
102
}
102
{ACAD_REACTORS
330
64
102
}
330
64
100
AcDbTableStyle
280
     0
  3
Standard
 70
     0
 71
     0
 40
0.06
 41
0.06
280
     0
281
     0
  7
Standard
140
0.18
170
     2
 62
     0
 63
     7
283
     0
 90
      512
 91
        0
  1

274
    -2
284
     1
 64
     0
275
    -2
285
     1
 65
     0
276
    -2
286
     1
 66
     0
277
    -2
287
     1
 67
     0
278
    -2
288
     1
 68
     0
279
    -2
289
     1
 69
     0
  7
Standard
140
0.25
170
     5
 62
     0
 63
     7
283
     0
 90
      512
 91
        0
  1

274
    -2
284
     1
 64
     0
275
    -2
285
     1
 65
     0
276
    -2
286
     1
 66
     0
277
    -2
287
     1
 67
     0
278
    -2
288
     1
 68
     0
279
    -2
289
     1
 69
     0
  7
Standard
140
0.18
170
     5
 62
     0
 63
     7
283
     0
 90
      512
 91
        0
  1

274
    -2
284
     1
 64
     0
275
    -2
285
     1
 65
     0
276
    -2
286
     1
 66
     0
277
    -2
287
     1
 67
     0
278
    -2
288
     1
 68
     0
279
    -2
289
     1
 69
     0
  0
VISUALSTYLE
  5
2F
102
{ACAD_REACTORS
330
29
102
}
330
29
100
AcDbVisualStyle
  2

 70
     4
177
     3
291
     0
 70
    58
 90
        0
176
     1
 90
        2
176
     1
 90
        0
176
     1
 90
        0
176
     1
 40
0.6
176
     1
 40
30.0
176
     1
 62
     7
420
 16777215
176
     1
 90
        1
176
     1
 90
        4
176
     1
 62
     7
176
     1
 62
   257
176
     1
 90
        1
176
     1
 90
        1
176
     1
 40
1.0
176
     1
 90
        0
176
     1
 62
   257
176
     1
 40
1.0
176
     1
 90
        1
176
     1
 90
        6
176
     1
 90
        2
176
     1
 62
     7
176
     1
 90
        5
176
     1
 90
        0
176
     1
 90
        0
176
     1
290
     0
176
     1
 90
        1
176
     1
 40
0.0
176
     1
 90
        0
176
     1
290
     1
176
     1
290
     1
176
     1
290
     0
176
     1
290
     0
176
     1
290
     0
176
     1
290
     0
176
     1
290
     0
176
     1
290
     0
176
     1
290
     0
176
     1
 90
       50
176
     1
 40
0.0
176
     1
 40
1.0
176
     1
 90
        0
176
     1
 62
    18
420
        0
176
     1
 90
       50
176
     1
 90
        3
176
     1
 62
     5
420
      255
176
     1
290
     0
176
     1
 90
       50
176
     1
 90
       50
176
     1
 90
       50
176
     1
290
     0
176
     1
 90
       50
176
     1
 62
   256
176
     0
 40
1.0
176
     0
 90
        2
176
     1
  1
strokes_ogs.tif
176
     1
290
     0
176
     1
 40
1.0
176
     1
 40
1.0
176
     1
1001
ACAD
1000
AcDbSavedByObjectVersion
1070
     0
  0
VISUALSTYLE
  5
2E
102
{ACAD_REACTORS
330
29
102
}
330
29
100
AcDbVisualStyle
  2

 70
     7
177
     3
291
     1
 70
    58
 90
        1
176
     1
 90
        0
176
     1
 90
        1
176
     1
 90
        0
176
     1
 40
0.6
176
     1
 40
30.0
176
     1
 62
     7
420
 16777215
176
     1
 90
        0
176
     1
 90
        4
176
     1
 62
     7
176
     1
 62
   257
176
     1
 90
        1
176
     1
 90
        1
176
     1
 40
1.0
176
     1
 90
        8
176
     1
 62
     7
176
     1
 40
1.0
176
     1
 90
        1
176
     1
 90
        6
176
     1
 90
        2
176
     1
 62
     7
176
     1
 90
        5
176
     1
 90
        0
176
     1
 90
        0
176
     1
290
     0
176
     1
 90
        1
176
     1
 40
0.0
176
     1
 90
        0
176
     1
290
     0
176
     1
290
     1
176
     1
290
     1
176
     1
290
     0
176
     1
290
     0
176
     1
290
     0
176
     1
290
     0
176
     1
290
     0
176
     1
290
     0
176
     1
 90
       50
176
     1
 40
0.0
176
     1
 40
1.0
176
     1
 90
        0
176
     1
 62
    18
420
        0
176
     1
 90
       50
176
     1
 90
        3
176
     1
 62
     5
420
      255
176
     1
290
     0
176
     1
 90
       50
176
     1
 90
       50
176
     1
 90
       50
176
     1
290
     0
176
     1
 90
       50
176
     1
 62
   256
176
     0
 40
1.0
176
     0
 90
        2
176
     1
  1
strokes_ogs.tif
176
     1
290
     0
176
     1
 40
1.0
176
     1
 40
1.0
176
     1
1001
ACAD
1000
AcDbSavedByObjectVersion
1070
     0
  0
VISUALSTYLE
  5
35
102
{ACAD_REACTORS
330
29
102
}
330
29
100
AcDbVisualStyle
  2

 70
    12
177
     3
291
     1
 70
    58
 90
        2
176
     1
 90
        2
176
     1
 90
        0
176
     1
 90
        0
176
     1
 40
0.6
176
     1
 40
30.0
176
     1
 62
     7
420
 16777215
176
     1
 90
        1
176
     1
 90
        4
176
     1
 62
     7
176
     1
 62
   257
176
     1
 90
        1
176
     1
 90
        1
176
     1
 40
1.0
176
     1
 90
        8
176
     1
 62
     7
176
     1
 40
1.0
176
     1
 90
        1
176
     1
 90
        6
176
     1
 90
        2
176
     1
 62
     7
176
     1
 90
        5
176
     1
 90
        0
176
     1
 90
        0
176
     1
290
     0
176
     1
 90
        1
176
     1
 40
50.0
176
     1
 90
        0
176
     1
290
     0
176
     1
290
     1
176
     1
290
     1
176
     1
290
     0
176
     1
290
     0
176
     1
290
     0
176
     1
290
     0
176
     1
290
     0
176
     1
290
     0
176
     1
 90
       50
176
     1
 40
0.0
176
     1
 40
1.0
176
     1
 90
        0
176
     1
 62
    18
420
        0
176
     1
 90
       50
176
     1
 90
        3
176
     1
 62
     5
420
      255
176
     1
290
     0
176
     1
 90
       50
176
     1
 90
       50
176
     1
 90
       50
176
     1
290
     0
176
     1
 90
       50
176
     1
 62
   256
176
     0
 40
1.0
176
     0
 90
        2
176
     1
  1
strokes_ogs.tif
176
     1
290
     0
176
     1
 40
1.0
176
     1
 40
1.0
176
     1
1001
ACAD
1000
AcDbSavedByObjectVersion
1070
     0
  0
VISUALSTYLE
  5
39
102
{ACAD_REACTORS
330
29
102
}
330
29
100
AcDbVisualStyle
  2

 70
    16
177
     3
291
     1
 70
    58
 90
        2
176
     1
 90
        2
176
     1
 90
        3
176
     1
 90
        0
176
     1
 40
0.6
176
     1
 40
30.0
176
     1
 62
     8
420
  8421504
176
     1
 90
        1
176
     1
 90
        4
176
     1
 62
     7
176
     1
 62
   257
176
     1
 90
        1
176
     1
 90
        1
176
     1
 40
1.0
176
     1
 90
        8
176
     1
 62
     8
420
  8421504
176
     1
 40
1.0
176
     1
 90
        1
176
     1
 90
        6
176
     1
 90
        2
176
     1
 62
     7
176
     1
 90
        5
176
     1
 90
        0
176
     1
 90
        0
176
     1
290
     0
176
     1
 90
        1
176
     1
 40
0.0
176
     1
 90
        0
176
     1
290
     0
176
     1
290
     1
176
     1
290
     1
176
     1
290
     0
176
     1
290
     0
176
     1
290
     0
176
     1
290
     0
176
     1
290
     0
176
     1
290
     0
176
     1
 90
       50
176
     1
 40
0.0
176
     1
 40
1.0
176
     1
 90
        0
176
     1
 62
    18
420
        0
176
     1
 90
       50
176
     1
 90
        3
176
     1
 62
     5
420
      255
176
     1
290
     0
176
     1
 90
       50
176
     1
 90
       50
176
     1
 90
       50
176
     1
290
     0
176
     1
 90
       50
176
     1
 62
   256
176
     0
 40
1.0
176
     0
 90
        2
176
     1
  1
strokes_ogs.tif
176
     1
290
     0
176
     1
 40
1.0
176
     1
 40
1.0
176
     1
1001
ACAD
1000
AcDbSavedByObjectVersion
1070
     0
  0
VISUALSTYLE
  5
32
102
{ACAD_REACTORS
330
29
102
}
330
29
100
AcDbVisualStyle
  2

 70
     9
177
     3
291
     0
 70
    58
 90
        3
176
     1
 90
        2
176
     1
 90
        0
176
     1
 90
        0
176
     1
 40
0.6
176
     1
 40
30.0
176
     1
 62
     7
420
 16777215
176
     1
 90
        2
176
     1
 90
        2
176
     1
 62
     7
176
     1
 62
   257
176
     1
 90
        1
176
     1
 90
        1
176
     1
 40
179.0
176
     1
 90
        8
176
     1
 62
     7
176
     1
 40
1.0
176
     1
 90
        1
176
     1
 90
        6
176
     1
 90
        2
176
     1
 62
     7
176
     1
 90
        3
176
     1
 90
        0
176
     1
 90
        0
176
     1
290
     0
176
     1
 90
        1
176
     1
 40
0.0
176
     1
 90
        0
176
     1
290
     0
176
     1
290
     1
176
     1
290
     1
176
     1
290
     0
176
     1
290
     0
176
     1
290
     0
176
     1
290
     0
176
     1
290
     0
176
     1
290
     0
176
     1
 90
       50
176
     1
 40
0.0
176
     1
 40
1.0
176
     1
 90
        0
176
     1
 62
    18
420
        0
176
     1
 90
       50
176
     1
 90
        3
176
     1
 62
     5
420
      255
176
     1
290
     0
176
     1
 90
       50
176
     1
 90
       50
176
     1
 90
       50
176
     1
290
     0
176
     1
 90
       50
176
     1
 62
   256
176
     0
 40
1.0
176
     0
 90
        2
176
     1
  1
strokes_ogs.tif
176
     1
290
     0
176
     1
 40
1.0
176
     1
 40
1.0
176
     1
1001
ACAD
1000
AcDbSavedByObjectVersion
1070
     0
  0
VISUALSTYLE
  5
34
102
{ACAD_REACTORS
330
29
102
}
330
29
100
AcDbVisualStyle
  2

 70
    11
177
     3
291
     1
 70
    58
 90
        2
176
     1
 90
        2
176
     1
 90
        0
176
     1
 90
        0
176
     1
 40
0.6
176
     1
 40
30.0
176
     1
 62
     7
420
 16777215
176
     1
 90
        1
176
     1
 90
        4
176
     1
 62
     7
176
     1
 62
   257
176
     1
 90
        1
176
     1
 90
        1
176
     1
 40
1.0
176
     1
 90
        8
176
     1
 62
     7
176
     1
 40
1.0
176
     1
 90
        1
176
     1
 90
        6
176
     1
 90
        2
176
     1
 62
     7
176
     1
 90
        5
176
     1
 90
        0
176
     1
 90
        0
176
     1
290
     0
176
     1
 90
        1
176
     1
 40
-50.0
176
     1
 90
        0
176
     1
290
     0
176
     1
290
     1
176
     1
290
     1
176
     1
290
     0
176
     1
290
     0
176
     1
290
     0
176
     1
290
     0
176
     1
290
     0
176
     1
290
     0
176
     1
 90
       50
176
     1
 40
0.0
176
     1
 40
1.0
176
     1
 90
        0
176
     1
 62
    18
420
        0
176
     1
 90
       50
176
     1
 90
        3
176
     1
 62
     5
420
      255
176
     1
290
     0
176
     1
 90
       50
176
     1
 90
       50
176
     1
 90
       50
176
     1
290
     0
176
     1
 90
       50
176
     1
 62
   256
176
     0
 40
1.0
176
     0
 90
        2
176
     1
  1
strokes_ogs.tif
176
     1
290
     0
176
     1
 40
1.0
176
     1
 40
1.0
176
     1
1001
ACAD
1000
AcDbSavedByObjectVersion
1070
     0
  0
VISUALSTYLE
  5
41
102
{ACAD_REACTORS
330
29
102
}
330
29
100
AcDbVisualStyle
  2

 70
    22
177
     3
291
     1
 70
    58
 90
        2
176
     0
 90
        2
176
     0
 90
        0
176
     0
 90
        0
176
     0
 40
0.6
176
     0
 40
30.0
176
     0
 62
     7
420
 16777215
176
     0
 90
        1
176
     0
 90
        4
176
     0
 62
     7
176
     0
 62
   257
176
     0
 90
        1
176
     0
 90
        1
176
     0
 40
1.0
176
     0
 90
        8
176
     2
 62
     7
176
     0
 40
1.0
176
     0
 90
        1
176
     0
 90
        6
176
     0
 90
        2
176
     0
 62
     7
176
     0
 90
        5
176
     0
 90
        0
176
     0
 90
        0
176
     0
290
     0
176
     0
 90
        1
176
     0
 40
0.0
176
     0
 90
        0
176
     0
290
     0
176
     0
290
     1
176
     0
290
     1
176
     0
290
     0
176
     0
290
     0
176
     0
290
     0
176
     0
290
     0
176
     0
290
     0
176
     0
290
     0
176
     0
 90
       50
176
     0
 40
0.0
176
     0
 40
1.0
176
     0
 90
        0
176
     0
 62
    18
420
        0
176
     0
 90
       50
176
     0
 90
        3
176
     0
 62
     5
420
      255
176
     0
290
     0
176
     0
 90
       50
176
     0
 90
       50
176
     0
 90
       50
176
     0
290
     0
176
     0
 90
       50
176
     0
 62
   256
176
     0
 40
1.0
176
     0
 90
        2
176
     0
  1
strokes_ogs.tif
176
     0
290
     0
176
     0
 40
1.0
176
     0
 40
1.0
176
     0
1001
ACAD
1000
AcDbSavedByObjectVersion
1070
     0
  0
VISUALSTYLE
  5
38
102
{ACAD_REACTORS
330
29
102
}
330
29
100
AcDbVisualStyle
  2

 70
    15
177
     3
291
     1
 70
    58
 90
        2
176
     1
 90
        2
176
     1
 90
        0
176
     1
 90
        0
176
     1
 40
0.6
176
     1
 40
30.0
176
     1
 62
     7
420
 16777215
176
     1
 90
        1
176
     1
 90
        4
176
     1
 62
     7
176
     1
 62
   257
176
     1
 90
        1
176
     1
 90
        1
176
     1
 40
1.0
176
     1
 90
        8
176
     1
 62
     7
176
     1
 40
1.0
176
     1
 90
        1
176
     1
 90
        6
176
     1
 90
        2
176
     1
 62
     7
176
     1
 90
        5
176
     1
 90
        0
176
     1
 90
        0
176
     1
290
     0
176
     1
 90
        1
176
     1
 40
0.0
176
     1
 90
        0
176
     1
290
     0
176
     1
290
     1
176
     1
290
     1
176
     1
290
     0
176
     1
290
     0
176
     1
290
     0
176
     1
290
     0
176
     1
290
     0
176
     1
290
     0
176
     1
 90
       50
176
     1
 40
0.0
176
     1
 40
1.0
176
     1
 90
        0
176
     1
 62
    18
420
        0
176
     1
 90
       50
176
     1
 90
        3
176
     1
 62
     5
420
      255
176
     1
290
     0
176
     1
 90
       50
176
     1
 90
       50
176
     1
 90
       50
176
     1
290
     0
176
     1
 90
       50
176
     1
 62
   256
176
     0
 40
1.0
176
     0
 90
        2
176
     1
  1
strokes_ogs.tif
176
     1
290
     0
176
     1
 40
1.0
176
     1
 40
1.0
176
     1
1001
ACAD
1000
AcDbSavedByObjectVersion
1070
     0
  0
VISUALSTYLE
  5
2A
102
{ACAD_REACTORS
330
29
102
}
330
29
100
AcDbVisualStyle
  2

 70
     0
177
     3
291
     1
 70
    58
 90
        2
176
     1
 90
        1
176
     1
 90
        1
176
     1
 90
        2
176
     1
 40
0.6
176
     1
 40
30.0
176
     1
 62
     7
420
 16777215
176
     1
 90
        0
176
     1
 90
        0
176
     1
 62
     7
176
     1
 62
   257
176
     1
 90
        1
176
     1
 90
        1
176
     1
 40
1.0
176
     1
 90
        8
176
     1
 62
     7
176
     1
 40
1.0
176
     1
 90
        1
176
     1
 90
        6
176
     1
 90
        2
176
     1
 62
     7
176
     1
 90
        5
176
     1
 90
        0
176
     1
 90
        0
176
     1
290
     0
176
     1
 90
       13
176
     1
 40
0.0
176
     1
 90
        0
176
     1
290
     0
176
     1
290
     1
176
     1
290
     1
176
     1
290
     0
176
     1
290
     0
176
     1
290
     0
176
     1
290
     0
176
     1
290
     0
176
     1
290
     0
176
     1
 90
       50
176
     1
 40
0.0
176
     1
 40
1.0
176
     1
 90
        0
176
     1
 62
    18
420
        0
176
     1
 90
       50
176
     1
 90
        3
176
     1
 62
     5
420
      255
176
     1
290
     0
176
     1
 90
       50
176
     1
 90
       50
176
     1
 90
       50
176
     1
290
     0
176
     1
 90
       50
176
     1
 62
   256
176
     0
 40
1.0
176
     0
 90
        2
176
     1
  1
strokes_ogs.tif
176
     1
290
     0
176
     1
 40
1.0
176
     1
 40
1.0
176
     1
1001
ACAD
1000
AcDbSavedByObjectVersion
1070
     0
  0
VISUALSTYLE
  5
2B
102
{ACAD_REACTORS
330
29
102
}
330
29
100
AcDbVisualStyle
  2

 70
     1
177
     3
291
     1
 70
    58
 90
        2
176
     1
 90
        1
176
     1
 90
        1
176
     1
 90
        2
176
     1
 40
0.6
176
     1
 40
30.0
176
     1
 62
     7
420
 16777215
176
     1
 90
        1
176
     1
 90
        0
176
     1
 62
     7
176
     1
 62
   257
176
     1
 90
        1
176
     1
 90
        1
176
     1
 40
1.0
176
     1
 90
        0
176
     1
 62
   257
176
     1
 40
1.0
176
     1
 90
        1
176
     1
 90
        6
176
     1
 90
        2
176
     1
 62
     7
176
     1
 90
        5
176
     1
 90
        0
176
     1
 90
        0
176
     1
290
     0
176
     1
 90
       13
176
     1
 40
0.0
176
     1
 90
        0
176
     1
290
     0
176
     1
290
     1
176
     1
290
     1
176
     1
290
     0
176
     1
290
     0
176
     1
290
     0
176
     1
290
     0
176
     1
290
     0
176
     1
290
     0
176
     1
 90
       50
176
     1
 40
0.0
176
     1
 40
1.0
176
     1
 90
        0
176
     1
 62
    18
420
        0
176
     1
 90
       50
176
     1
 90
        3
176
     1
 62
     5
420
      255
176
     1
290
     0
176
     1
 90
       50
176
     1
 90
       50
176
     1
 90
       50
176
     1
290
     0
176
     1
 90
       50
176
     1
 62
   256
176
     0
 40
1.0
176
     0
 90
        2
176
     1
  1
strokes_ogs.tif
176
     1
290
     0
176
     1
 40
1.0
176
     1
 40
1.0
176
     1
1001
ACAD
1000
AcDbSavedByObjectVersion
1070
     0
  0
VISUALSTYLE
  5
2C
102
{ACAD_REACTORS
330
29
102
}
330
29
100
AcDbVisualStyle
  2

 70
     2
177
     3
291
     1
 70
    58
 90
        2
176
     1
 90
        2
176
     1
 90
        1
176
     1
 90
        2
176
     1
 40
0.6
176
     1
 40
30.0
176
     1
 62
     7
420
 16777215
176
     1
 90
        0
176
     1
 90
        0
176
     1
 62
     7
176
     1
 62
   257
176
     1
 90
        1
176
     1
 90
        1
176
     1
 40
1.0
176
     1
 90
        0
176
     1
 62
     7
176
     1
 40
1.0
176
     1
 90
        1
176
     1
 90
        6
176
     1
 90
        2
176
     1
 62
     7
176
     1
 90
        5
176
     1
 90
        0
176
     1
 90
        0
176
     1
290
     0
176
     1
 90
       13
176
     1
 40
0.0
176
     1
 90
        0
176
     1
290
     0
176
     1
290
     1
176
     1
290
     1
176
     1
290
     0
176
     1
290
     0
176
     1
290
     0
176
     1
290
     0
176
     1
290
     0
176
     1
290
     0
176
     1
 90
       50
176
     1
 40
0.0
176
     1
 40
1.0
176
     1
 90
        0
176
     1
 62
    18
420
        0
176
     1
 90
       50
176
     1
 90
        3
176
     1
 62
     5
420
      255
176
     1
290
     0
176
     1
 90
       50
176
     1
 90
       50
176
     1
 90
       50
176
     1
290
     0
176
     1
 90
       50
176
     1
 62
   256
176
     0
 40
1.0
176
     0
 90
        2
176
     1
  1
strokes_ogs.tif
176
     1
290
     0
176
     1
 40
1.0
176
     1
 40
1.0
176
     1
1001
ACAD
1000
AcDbSavedByObjectVersion
1070
     0
  0
VISUALSTYLE
  5
2D
102
{ACAD_REACTORS
330
29
102
}
330
29
100
AcDbVisualStyle
  2

 70
     3
177
     3
291
     1
 70
    58
 90
        2
176
     1
 90
        2
176
     1
 90
        1
176
     1
 90
        2
176
     1
 40
0.6
176
     1
 40
30.0
176
     1
 62
     7
420
 16777215
176
     1
 90
        1
176
     1
 90
        0
176
     1
 62
     7
176
     1
 62
   257
176
     1
 90
        1
176
     1
 90
        1
176
     1
 40
1.0
176
     1
 90
        0
176
     1
 62
   257
176
     1
 40
1.0
176
     1
 90
        1
176
     1
 90
        6
176
     1
 90
        2
176
     1
 62
     7
176
     1
 90
        5
176
     1
 90
        0
176
     1
 90
        0
176
     1
290
     0
176
     1
 90
       13
176
     1
 40
0.0
176
     1
 90
        0
176
     1
290
     0
176
     1
290
     1
176
     1
290
     1
176
     1
290
     0
176
     1
290
     0
176
     1
290
     0
176
     1
290
     0
176
     1
290
     0
176
     1
290
     0
176
     1
 90
       50
176
     1
 40
0.0
176
     1
 40
1.0
176
     1
 90
        0
176
     1
 62
    18
420
        0
176
     1
 90
       50
176
     1
 90
        3
176
     1
 62
     5
420
      255
176
     1
290
     0
176
     1
 90
       50
176
     1
 90
       50
176
     1
 90
       50
176
     1
290
     0
176
     1
 90
       50
176
     1
 62
   256
176
     0
 40
1.0
176
     0
 90
        2
176
     1
  1
strokes_ogs.tif
176
     1
290
     0
176
     1
 40
1.0
176
     1
 40
1.0
176
     1
1001
ACAD
1000
AcDbSavedByObjectVersion
1070
     0
  0
VISUALSTYLE
  5
31
102
{ACAD_REACTORS
330
29
102
}
330
29
100
AcDbVisualStyle
  2

 70
     6
177
     3
291
     0
 70
    58
 90
        1
176
     1
 90
        2
176
     1
 90
        2
176
     1
 90
        0
176
     1
 40
0.6
176
     1
 40
30.0
176
     1
 62
     7
420
 16777215
176
     1
 90
        2
176
     1
 90
        2
176
     1
 62
     7
176
     1
 62
   257
176
     1
 90
        2
176
     1
 90
        1
176
     1
 40
40.0
176
     1
 90
        0
176
     1
 62
   257
176
     1
 40
1.0
176
     1
 90
        1
176
     1
 90
        6
176
     1
 90
        2
176
     1
 62
     7
176
     1
 90
        3
176
     1
 90
        0
176
     1
 90
        0
176
     1
290
     0
176
     1
 90
        1
176
     1
 40
0.0
176
     1
 90
        0
176
     1
290
     0
176
     1
290
     1
176
     1
290
     1
176
     1
290
     0
176
     1
290
     0
176
     1
290
     0
176
     1
290
     0
176
     1
290
     0
176
     1
290
     0
176
     1
 90
       50
176
     1
 40
0.0
176
     1
 40
1.0
176
     1
 90
        0
176
     1
 62
    18
420
        0
176
     1
 90
       50
176
     1
 90
        3
176
     1
 62
     5
420
      255
176
     1
290
     0
176
     1
 90
       50
176
     1
 90
       50
176
     1
 90
       50
176
     1
290
     0
176
     1
 90
       50
176
     1
 62
   256
176
     0
 40
1.0
176
     0
 90
        2
176
     1
  1
strokes_ogs.tif
176
     1
290
     0
176
     1
 40
1.0
176
     1
 40
1.0
176
     1
1001
ACAD
1000
AcDbSavedByObjectVersion
1070
     0
  0
VISUALSTYLE
  5
3F
102
{ACAD_REACTORS
330
29
102
}
330
29
100
AcDbVisualStyle
  2

 70
    20
177
     3
291
     1
 70
    58
 90
        2
176
     0
 90
        2
176
     0
 90
        0
176
     0
 90
        0
176
     0
 40
0.6
176
     0
 40
30.0
176
     0
 62
     7
420
 16777215
176
     0
 90
        1
176
     0
 90
        4
176
     0
 62
     7
176
     0
 62
   257
176
     0
 90
        1
176
     0
 90
        1
176
     0
 40
1.0
176
     0
 90
       10
176
     2
 62
     7
176
     0
 40
1.0
176
     0
 90
        1
176
     0
 90
        6
176
     0
 90
        2
176
     0
 62
     7
176
     0
 90
        5
176
     0
 90
        0
176
     0
 90
        0
176
     0
290
     0
176
     0
 90
        1
176
     0
 40
0.0
176
     0
 90
        0
176
     0
290
     0
176
     0
290
     1
176
     0
290
     1
176
     0
290
     0
176
     0
290
     0
176
     0
290
     0
176
     0
290
     0
176
     0
290
     0
176
     0
290
     0
176
     0
 90
       50
176
     0
 40
0.0
176
     0
 40
1.0
176
     0
 90
        0
176
     0
 62
    18
420
        0
176
     0
 90
       50
176
     0
 90
        3
176
     0
 62
     5
420
      255
176
     0
290
     0
176
     0
 90
       50
176
     0
 90
       50
176
     0
 90
       50
176
     0
290
     0
176
     0
 90
       50
176
     0
 62
   256
176
     0
 40
1.0
176
     0
 90
        2
176
     0
  1
strokes_ogs.tif
176
     0
290
     0
176
     0
 40
1.0
176
     0
 40
1.0
176
     0
1001
ACAD
1000
AcDbSavedByObjectVersion
1070
     0
  0
VISUALSTYLE
  5
37
102
{ACAD_REACTORS
330
29
102
}
330
29
100
AcDbVisualStyle
  2

 70
    14
177
     3
291
     1
 70
    58
 90
        2
176
     1
 90
        2
176
     1
 90
        0
176
     1
 90
        0
176
     1
 40
0.6
176
     1
 40
30.0
176
     1
 62
     7
420
 16777215
176
     1
 90
        1
176
     1
 90
        4
176
     1
 62
     7
176
     1
 62
   257
176
     1
 90
        7
176
     1
 90
        7
176
     1
 40
1.0
176
     1
 90
        8
176
     1
 62
     7
176
     1
 40
1.0
176
     1
 90
        1
176
     1
 90
        6
176
     1
 90
        2
176
     1
 62
     7
176
     1
 90
        5
176
     1
 90
        0
176
     1
 90
        0
176
     1
290
     0
176
     1
 90
        1
176
     1
 40
0.0
176
     1
 90
        0
176
     1
290
     0
176
     1
290
     1
176
     1
290
     1
176
     1
290
     0
176
     1
290
     0
176
     1
290
     0
176
     1
290
     0
176
     1
290
     0
176
     1
290
     0
176
     1
 90
       50
176
     1
 40
0.0
176
     1
 40
1.0
176
     1
 90
        0
176
     1
 62
    18
420
        0
176
     1
 90
       50
176
     1
 90
        3
176
     1
 62
     5
420
      255
176
     1
290
     0
176
     1
 90
       50
176
     1
 90
       50
176
     1
 90
       50
176
     1
290
     0
176
     1
 90
       50
176
     1
 62
   256
176
     0
 40
1.0
176
     0
 90
        2
176
     1
  1
strokes_ogs.tif
176
     1
290
     0
176
     1
 40
1.0
176
     1
 40
1.0
176
     1
1001
ACAD
1000
AcDbSavedByObjectVersion
1070
     0
  0
VISUALSTYLE
  5
40
102
{ACAD_REACTORS
330
29
102
}
330
29
100
AcDbVisualStyle
  2

 70
    21
177
     3
291
     1
 70
    58
 90
        2
176
     0
 90
        2
176
     0
 90
        0
176
     0
 90
        0
176
     0
 40
0.6
176
     0
 40
30.0
176
     0
 62
     7
420
 16777215
176
     0
 90
        1
176
     0
 90
        4
176
     0
 62
     7
176
     0
 62
   257
176
     0
 90
        1
176
     0
 90
        1
176
     0
 40
1.0
176
     0
 90
        9
176
     2
 62
     7
176
     0
 40
1.0
176
     0
 90
        1
176
     0
 90
        6
176
     0
 90
        2
176
     0
 62
     7
176
     0
 90
        5
176
     0
 90
        0
176
     0
 90
        0
176
     0
290
     0
176
     0
 90
        1
176
     0
 40
0.0
176
     0
 90
        0
176
     0
290
     0
176
     0
290
     1
176
     0
290
     1
176
     0
290
     0
176
     0
290
     0
176
     0
290
     0
176
     0
290
     0
176
     0
290
     0
176
     0
290
     0
176
     0
 90
       50
176
     0
 40
0.0
176
     0
 40
1.0
176
     0
 90
        0
176
     0
 62
    18
420
        0
176
     0
 90
       50
176
     0
 90
        3
176
     0
 62
     5
420
      255
176
     0
290
     0
176
     0
 90
       50
176
     0
 90
       50
176
     0
 90
       50
176
     0
290
     0
176
     0
 90
       50
176
     0
 62
   256
176
     0
 40
1.0
176
     0
 90
        2
176
     0
  1
strokes_ogs.tif
176
     0
290
     0
176
     0
 40
1.0
176
     0
 40
1.0
176
     0
1001
ACAD
1000
AcDbSavedByObjectVersion
1070
     0
  0
VISUALSTYLE
  5
33
102
{ACAD_REACTORS
330
29
102
}
330
29
100
AcDbVisualStyle
  2

 70
     8
177
     3
291
     0
 70
    58
 90
        2
176
     1
 90
        3
176
     1
 90
        0
176
     1
 90
        2
176
     1
 40
0.6
176
     1
 40
30.0
176
     1
 62
     7
420
 16777215
176
     1
 90
        0
176
     1
 90
        0
176
     1
 62
     7
176
     1
 62
   257
176
     1
 90
        1
176
     1
 90
        1
176
     1
 40
1.0
176
     1
 90
        8
176
     1
 62
   257
176
     1
 40
1.0
176
     1
 90
        1
176
     1
 90
        6
176
     1
 90
        2
176
     1
 62
     7
176
     1
 90
        3
176
     1
 90
        0
176
     1
 90
        0
176
     1
290
     0
176
     1
 90
       13
176
     1
 40
0.0
176
     1
 90
        0
176
     1
290
     0
176
     1
290
     1
176
     1
290
     1
176
     1
290
     0
176
     1
290
     0
176
     1
290
     0
176
     1
290
     0
176
     1
290
     0
176
     1
290
     0
176
     1
 90
       50
176
     1
 40
0.0
176
     1
 40
1.0
176
     1
 90
        0
176
     1
 62
    18
420
        0
176
     1
 90
       50
176
     1
 90
        3
176
     1
 62
     5
420
      255
176
     1
290
     0
176
     1
 90
       50
176
     1
 90
       50
176
     1
 90
       50
176
     1
290
     0
176
     1
 90
       50
176
     1
 62
   256
176
     0
 40
1.0
176
     0
 90
        2
176
     1
  1
strokes_ogs.tif
176
     1
290
     0
176
     1
 40
1.0
176
     1
 40
1.0
176
     1
1001
ACAD
1000
AcDbSavedByObjectVersion
1070
     0
  0
VISUALSTYLE
  5
3E
102
{ACAD_REACTORS
330
29
102
}
330
29
100
AcDbVisualStyle
  2

 70
    27
177
     3
291
     0
 70
    58
 90
        2
176
     1
 90
        2
176
     1
 90
        1
176
     1
 90
        2
176
     1
 40
0.6
176
     1
 40
30.0
176
     1
 62
     7
420
 16777215
176
     1
 90
        0
176
     1
 90
        4
176
     1
 62
     7
176
     1
 62
   257
176
     1
 90
        1
176
     1
 90
        1
176
     1
 40
1.0
176
     1
 90
        8
176
     1
 62
   257
176
     1
 40
1.0
176
     1
 90
        1
176
     1
 90
        6
176
     1
 90
        2
176
     1
 62
     8
420
  7895160
176
     1
 90
        3
176
     1
 90
        0
176
     1
 90
        0
176
     1
290
     0
176
     1
 90
        5
176
     1
 40
0.0
176
     1
 90
        0
176
     1
290
     0
176
     1
290
     1
176
     1
290
     1
176
     1
290
     0
176
     1
290
     0
176
     1
290
     0
176
     1
290
     0
176
     1
290
     0
176
     1
290
     0
176
     1
 90
       50
176
     1
 40
0.0
176
     1
 40
1.0
176
     1
 90
        0
176
     1
 62
    18
420
        0
176
     1
 90
       50
176
     1
 90
        3
176
     1
 62
     5
420
      255
176
     1
290
     0
176
     1
 90
       50
176
     1
 90
       50
176
     1
 90
       50
176
     1
290
     0
176
     1
 90
       50
176
     1
 62
   256
176
     0
 40
1.0
176
     0
 90
        2
176
     1
  1
strokes_ogs.tif
176
     1
290
     0
176
     1
 40
1.0
176
     1
 40
1.0
176
     1
1001
ACAD
1000
AcDbSavedByObjectVersion
1070
     0
  0
VISUALSTYLE
  5
3D
102
{ACAD_REACTORS
330
29
102
}
330
29
100
AcDbVisualStyle
  2

 70
    26
177
     3
291
     0
 70
    58
 90
        2
176
     1
 90
        2
176
     1
 90
        1
176
     1
 90
        2
176
     1
 40
0.6
176
     1
 40
30.0
176
     1
 62
     7
420
 16777215
176
     1
 90
        1
176
     1
 90
        2
176
     1
 62
     7
176
     1
 62
   257
176
     1
 90
        2
176
     1
 90
        1
176
     1
 40
1.0
176
     1
 90
        8
176
     1
 62
   257
176
     1
 40
1.0
176
     1
 90
        1
176
     1
 90
        6
176
     1
 90
        2
176
     1
 62
     7
176
     1
 90
        3
176
     1
 90
        0
176
     1
 90
        0
176
     1
290
     0
176
     1
 90
        5
176
     1
 40
0.0
176
     1
 90
        0
176
     1
290
     0
176
     1
290
     1
176
     1
290
     1
176
     1
290
     0
176
     1
290
     0
176
     1
290
     0
176
     1
290
     0
176
     1
290
     0
176
     1
290
     0
176
     1
 90
       50
176
     1
 40
0.0
176
     1
 40
1.0
176
     1
 90
        0
176
     1
 62
    18
420
        0
176
     1
 90
       50
176
     1
 90
        3
176
     1
 62
     5
420
      255
176
     1
290
     0
176
     1
 90
       50
176
     1
 90
       50
176
     1
 90
       50
176
     1
290
     0
176
     1
 90
       50
176
     1
 62
   256
176
     0
 40
1.0
176
     0
 90
        2
176
     1
  1
strokes_ogs.tif
176
     1
290
     0
176
     1
 40
1.0
176
     1
 40
1.0
176
     1
1001
ACAD
1000
AcDbSavedByObjectVersion
1070
     0
  0
VISUALSTYLE
  5
3A
102
{ACAD_REACTORS
330
29
102
}
330
29
100
AcDbVisualStyle
  2

 70
    23
177
     3
291
     0
 70
    58
 90
        2
176
     1
 90
        2
176
     1
 90
        3
176
     1
 90
        0
176
     1
 40
0.6
176
     1
 40
30.0
176
     1
 62
     7
420
 16777215
176
     1
 90
        2
176
     1
 90
        2
176
     1
 62
     7
176
     1
 62
     7
176
     1
 90
        1
176
     1
 90
        1
176
     1
 40
40.0
176
     1
 90
        8
176
     1
 62
     7
176
     1
 40
1.0
176
     1
 90
        1
176
     1
 90
        6
176
     1
 90
        2
176
     1
 62
     7
176
     1
 90
        3
176
     1
 90
        0
176
     1
 90
        0
176
     1
290
     0
176
     1
 90
        1
176
     1
 40
0.0
176
     1
 90
        0
176
     1
290
     0
176
     1
290
     1
176
     1
290
     1
176
     1
290
     0
176
     1
290
     0
176
     1
290
     0
176
     1
290
     0
176
     1
290
     0
176
     1
290
     0
176
     1
 90
       50
176
     1
 40
0.0
176
     1
 40
1.0
176
     1
 90
        0
176
     1
 62
    18
420
        0
176
     1
 90
       50
176
     1
 90
        3
176
     1
 62
     5
420
      255
176
     1
290
     0
176
     1
 90
       50
176
     1
 90
       50
176
     1
 90
       50
176
     1
290
     0
176
     1
 90
       50
176
     1
 62
   256
176
     0
 40
1.0
176
     0
 90
        2
176
     1
  1
strokes_ogs.tif
176
     1
290
     0
176
     1
 40
1.0
176
     1
 40
1.0
176
     1
1001
ACAD
1000
AcDbSavedByObjectVersion
1070
     0
  0
VISUALSTYLE
  5
3B
102
{ACAD_REACTORS
330
29
102
}
330
29
100
AcDbVisualStyle
  2

 70
    24
177
     3
291
     0
 70
    58
 90
        1
176
     1
 90
        2
176
     1
 90
        2
176
     1
 90
        0
176
     1
 40
0.6
176
     1
 40
30.0
176
     1
 62
     7
420
 16777215
176
     1
 90
        2
176
     1
 90
        2
176
     1
 62
     7
176
     1
 62
     7
176
     1
 90
        1
176
     1
 90
        1
176
     1
 40
40.0
176
     1
 90
       11
176
     1
 62
     7
176
     1
 40
1.0
176
     1
 90
        1
176
     1
 90
        6
176
     1
 90
        2
176
     1
 62
     7
176
     1
 90
        6
176
     1
 90
        0
176
     1
 90
        0
176
     1
290
     0
176
     1
 90
        1
176
     1
 40
0.0
176
     1
 90
        0
176
     1
290
     0
176
     1
290
     1
176
     1
290
     1
176
     1
290
     0
176
     1
290
     0
176
     1
290
     0
176
     1
290
     0
176
     1
290
     0
176
     1
290
     0
176
     1
 90
       50
176
     1
 40
0.0
176
     1
 40
1.0
176
     1
 90
        0
176
     1
 62
    18
420
        0
176
     1
 90
       50
176
     1
 90
        3
176
     1
 62
     5
420
      255
176
     1
290
     0
176
     1
 90
       50
176
     1
 90
       50
176
     1
 90
       50
176
     1
290
     0
176
     1
 90
       50
176
     1
 62
   256
176
     0
 40
1.0
176
     0
 90
        2
176
     1
  1
strokes_ogs.tif
176
     1
290
     0
176
     1
 40
1.0
176
     1
 40
1.0
176
     1
1001
ACAD
1000
AcDbSavedByObjectVersion
1070
     0
  0
VISUALSTYLE
  5
36
102
{ACAD_REACTORS
330
29
102
}
330
29
100
AcDbVisualStyle
  2

 70
    13
177
     3
291
     1
 70
    58
 90
        2
176
     1
 90
        2
176
     1
 90
        0
176
     1
 90
        0
176
     1
 40
0.6
176
     1
 40
30.0
176
     1
 62
     7
420
 16777215
176
     1
 90
        1
176
     1
 90
        4
176
     1
 62
     7
176
     1
 62
   257
176
     1
 90
        1
176
     1
 90
        1
176
     1
 40
1.0
176
     1
 90
       12
176
     1
 62
     7
176
     1
 40
1.0
176
     1
 90
        1
176
     1
 90
        6
176
     1
 90
        2
176
     1
 62
     7
176
     1
 90
        5
176
     1
 90
        0
176
     1
 90
        0
176
     1
290
     0
176
     1
 90
        1
176
     1
 40
0.0
176
     1
 90
        0
176
     1
290
     0
176
     1
290
     1
176
     1
290
     1
176
     1
290
     0
176
     1
290
     0
176
     1
290
     0
176
     1
290
     0
176
     1
290
     0
176
     1
290
     0
176
     1
 90
       50
176
     1
 40
0.0
176
     1
 40
1.0
176
     1
 90
        0
176
     1
 62
    18
420
        0
176
     1
 90
       50
176
     1
 90
        3
176
     1
 62
     5
420
      255
176
     1
290
     0
176
     1
 90
       50
176
     1
 90
       50
176
     1
 90
       50
176
     1
290
     0
176
     1
 90
       50
176
     1
 62
   256
176
     0
 40
1.0
176
     0
 90
        2
176
     1
  1
strokes_ogs.tif
176
     1
290
     0
176
     1
 40
1.0
176
     1
 40
1.0
176
     1
1001
ACAD
1000
AcDbSavedByObjectVersion
1070
     0
  0
VISUALSTYLE
  5
30
102
{ACAD_REACTORS
330
29
102
}
330
29
100
AcDbVisualStyle
  2

 70
     5
177
     3
291
     0
 70
    58
 90
        0
176
     1
 90
        2
176
     1
 90
        0
176
     1
 90
        0
176
     1
 40
0.6
176
     1
 40
30.0
176
     1
 62
     7
420
 16777215
176
     1
 90
        1
176
     1
 90
        4
176
     1
 62
     7
176
     1
 62
   257
176
     1
 90
        1
176
     1
 90
        1
176
     1
 40
1.0
176
     1
 90
        0
176
     1
 62
   257
176
     1
 40
1.0
176
     1
 90
        1
176
     1
 90
        6
176
     1
 90
        2
176
     1
 62
     7
176
     1
 90
        3
176
     1
 90
        0
176
     1
 90
        0
176
     1
290
     0
176
     1
 90
        1
176
     1
 40
0.0
176
     1
 90
        0
176
     1
290
     0
176
     1
290
     1
176
     1
290
     1
176
     1
290
     0
176
     1
290
     0
176
     1
290
     0
176
     1
290
     0
176
     1
290
     0
176
     1
290
     0
176
     1
 90
       50
176
     1
 40
0.0
176
     1
 40
1.0
176
     1
 90
        0
176
     1
 62
    18
420
        0
176
     1
 90
       50
176
     1
 90
        3
176
     1
 62
     5
420
      255
176
     1
290
     0
176
     1
 90
       50
176
     1
 90
       50
176
     1
 90
       50
176
     1
290
     0
176
     1
 90
       50
176
     1
 62
   256
176
     0
 40
1.0
176
     0
 90
        2
176
     1
  1
strokes_ogs.tif
176
     1
290
     0
176
     1
 40
1.0
176
     1
 40
1.0
176
     1
1001
ACAD
1000
AcDbSavedByObjectVersion
1070
     0
  0
VISUALSTYLE
  5
3C
102
{ACAD_REACTORS
330
29
102
}
330
29
100
AcDbVisualStyle
  2

 70
    25
177
     3
291
     0
 70
    58
 90
        2
176
     1
 90
        2
176
     1
 90
        1
176
     1
 90
        1
176
     1
 40
0.5
176
     1
 40
30.0
176
     1
 62
     7
420
 16777215
176
     1
 90
        1
176
     1
 90
        0
176
     1
 62
     7
176
     1
 62
   257
176
     1
 90
        1
176
     1
 90
        1
176
     1
 40
1.0
176
     1
 90
        8
176
     1
 62
     7
176
     1
 40
1.0
176
     1
 90
        1
176
     1
 90
        6
176
     1
 90
        2
176
     1
 62
     7
176
     1
 90
        3
176
     1
 90
        0
176
     1
 90
        0
176
     1
290
     0
176
     1
 90
       13
176
     1
 40
0.0
176
     1
 90
        0
176
     1
290
     0
176
     1
290
     1
176
     1
290
     1
176
     1
290
     0
176
     1
290
     0
176
     1
290
     0
176
     1
290
     0
176
     1
290
     0
176
     1
290
     0
176
     1
 90
       50
176
     1
 40
0.0
176
     1
 40
1.0
176
     1
 90
        0
176
     1
 62
    18
420
        0
176
     1
 90
       50
176
     1
 90
        3
176
     1
 62
     5
420
      255
176
     1
290
     0
176
     1
 90
       50
176
     1
 90
       50
176
     1
 90
       50
176
     1
290
     0
176
     1
 90
       50
176
     1
 62
   256
176
     0
 40
1.0
176
     0
 90
        2
176
     1
  1
strokes_ogs.tif
176
     1
290
     0
176
     1
 40
1.0
176
     1
 40
1.0
176
     1
1001
ACAD
1000
AcDbSavedByObjectVersion
1070
     0
  0
DICTIONARYVAR
  5
286
102
{ACAD_REACTORS
330
281
102
}
330
281
100
DictionaryVariables
280
     0
  1
1:1
  0
DICTIONARYVAR
  5
283
102
{ACAD_REACTORS
330
281
102
}
330
281
100
DictionaryVariables
280
     0
  1
STANDARD
  0
DICTIONARYVAR
  5
282
102
{ACAD_REACTORS
330
281
102
}
330
281
100
DictionaryVariables
280
     0
  1
STANDARD
  0
DICTIONARYVAR
  5
284
102
{ACAD_REACTORS
330
281
102
}
330
281
100
DictionaryVariables
280
     0
  1
Imperial24
  0
DICTIONARYVAR
  5
285
102
{ACAD_REACTORS
330
281
102
}
330
281
100
DictionaryVariables
280
     0
  1
Imperial24
  0
DICTIONARY
  5
693
102
{ACAD_REACTORS
330
691
102
}
330
691
100
AcDbDictionary
281
     1
  0
DICTIONARY
  5
692
102
{ACAD_REACTORS
330
691
102
}
330
691
100
AcDbDictionary
281
     1
  3
1875526045504
350
68C
  3
1875526045520
350
68D
  3
1875526045536
350
68E
  3
1875526045552
350
68F
  3
1875867768832
350
690
  0
DICTIONARY
  5
696
330
6B
100
AcDbDictionary
280
     1
281
     1
  3
ACAD_XREC_ROUNDTRIP
360
697
  0
DICTIONARY
  5
1A
330
19
100
AcDbDictionary
280
     1
281
     1
  3
BUMPTILE
360
1C
  3
DIFFUSETILE
360
1B
  3
OPACITYTILE
360
1F
  3
REFLECTIONTILE
360
1E
  3
REFRACTIONTILE
360
20
  3
SPECULARTILE
360
1D
  0
DICTIONARY
  5
12
330
11
100
AcDbDictionary
280
     1
281
     1
  3
BUMPTILE
360
14
  3
DIFFUSETILE
360
13
  3
OPACITYTILE
360
17
  3
REFLECTIONTILE
360
16
  3
REFRACTIONTILE
360
18
  3
SPECULARTILE
360
15
  0
DICTIONARY
  5
22
330
21
100
AcDbDictionary
280
     1
281
     1
  3
BUMPTILE
360
24
  3
DIFFUSETILE
360
23
  3
OPACITYTILE
360
27
  3
REFLECTIONTILE
360
26
  3
REFRACTIONTILE
360
28
  3
SPECULARTILE
360
25
  0
DICTIONARY
  5
694
330
69
100
AcDbDictionary
280
     1
281
     1
  3
ACAD_XREC_ROUNDTRIP
360
695
  0
DICTIONARY
  5
2C9
330
65
100
AcDbDictionary
280
     1
281
     1
  3
ACAD_ROUNDTRIP_2008_TABLESTYLE_CELLSTYLEMAP
360
68A
  0
XRECORD
  5
68C
102
{ACAD_REACTORS
330
692
102
}
330
692
100
AcDbXrecord
280
     1
  1
AcDb_Thumbnail_Schema
102
{ATTRRECORD
341
68D
  2
AcDbDs::TreatedAsObjectData
280
     1
291
     1
102
ATTRRECORD}
102
{ATTRRECORD
341
68E
  2
AcDbDs::Legacy
280
     1
291
     1
102
ATTRRECORD}
  2
AcDbDs::ID
280
    10
 91
        8
102
{ATTRRECORD
341
68F
  2
AcDs:Indexable
280
     1
291
     1
102
ATTRRECORD}
102
{ATTRRECORD
341
690
  2
AcDbDs::HandleAttribute
280
     7
282
     1
102
ATTRRECORD}
  2
Thumbnail_Data
280
    15
 91
        0
  0
XRECORD
  5
68D
102
{ACAD_REACTORS
330
692
102
}
330
692
100
AcDbXrecord
280
     1
  1
AcDbDs::TreatedAsObjectDataSchema
  2
AcDbDs::TreatedAsObjectData
280
     1
 91
        0
  0
XRECORD
  5
68E
102
{ACAD_REACTORS
330
692
102
}
330
692
100
AcDbXrecord
280
     1
  1
AcDbDs::LegacySchema
  2
AcDbDs::Legacy
280
     1
 91
        0
  0
XRECORD
  5
68F
102
{ACAD_REACTORS
330
692
102
}
330
692
100
AcDbXrecord
280
     1
  1
AcDbDs::IndexedPropertySchema
  2
AcDs:Indexable
280
     1
 91
        0
  0
XRECORD
  5
690
102
{ACAD_REACTORS
330
692
102
}
330
692
100
AcDbXrecord
280
     1
  1
AcDbDs::HandleAttributeSchema
  2
AcDbDs::HandleAttribute
280
     7
 91
        1
284
     1
  0
XRECORD
  5
697
102
{ACAD_REACTORS
330
696
102
}
330
696
100
AcDbXrecord
280
     1
102
DISPLAYNAME
  1
Imperial24
102
FLAGS
 90
        0
  0
XRECORD
  5
1C
102
{ACAD_REACTORS
330
1A
102
}
330
1A
100
AcDbXrecord
280
     1
270
     1
271
     1
  0
XRECORD
  5
1B
102
{ACAD_REACTORS
330
1A
102
}
330
1A
100
AcDbXrecord
280
     1
270
     1
271
     1
  0
XRECORD
  5
1F
102
{ACAD_REACTORS
330
1A
102
}
330
1A
100
AcDbXrecord
280
     1
270
     1
271
     1
  0
XRECORD
  5
1E
102
{ACAD_REACTORS
330
1A
102
}
330
1A
100
AcDbXrecord
280
     1
270
     1
271
     1
  0
XRECORD
  5
20
102
{ACAD_REACTORS
330
1A
102
}
330
1A
100
AcDbXrecord
280
     1
270
     1
271
     1
  0
XRECORD
  5
1D
102
{ACAD_REACTORS
330
1A
102
}
330
1A
100
AcDbXrecord
280
     1
270
     1
271
     1
  0
XRECORD
  5
14
102
{ACAD_REACTORS
330
12
102
}
330
12
100
AcDbXrecord
280
     1
270
     1
271
     1
  0
XRECORD
  5
13
102
{ACAD_REACTORS
330
12
102
}
330
12
100
AcDbXrecord
280
     1
270
     1
271
     1
  0
XRECORD
  5
17
102
{ACAD_REACTORS
330
12
102
}
330
12
100
AcDbXrecord
280
     1
270
     1
271
     1
  0
XRECORD
  5
16
102
{ACAD_REACTORS
330
12
102
}
330
12
100
AcDbXrecord
280
     1
270
     1
271
     1
  0
XRECORD
  5
18
102
{ACAD_REACTORS
330
12
102
}
330
12
100
AcDbXrecord
280
     1
270
     1
271
     1
  0
XRECORD
  5
15
102
{ACAD_REACTORS
330
12
102
}
330
12
100
AcDbXrecord
280
     1
270
     1
271
     1
  0
XRECORD
  5
24
102
{ACAD_REACTORS
330
22
102
}
330
22
100
AcDbXrecord
280
     1
270
     1
271
     1
  0
XRECORD
  5
23
102
{ACAD_REACTORS
330
22
102
}
330
22
100
AcDbXrecord
280
     1
270
     1
271
     1
  0
XRECORD
  5
27
102
{ACAD_REACTORS
330
22
102
}
330
22
100
AcDbXrecord
280
     1
270
     1
271
     1
  0
XRECORD
  5
26
102
{ACAD_REACTORS
330
22
102
}
330
22
100
AcDbXrecord
280
     1
270
     1
271
     1
  0
XRECORD
  5
28
102
{ACAD_REACTORS
330
22
102
}
330
22
100
AcDbXrecord
280
     1
270
     1
271
     1
  0
XRECORD
  5
25
102
{ACAD_REACTORS
330
22
102
}
330
22
100
AcDbXrecord
280
     1
270
     1
271
     1
  0
XRECORD
  5
695
102
{ACAD_REACTORS
330
694
102
}
330
694
100
AcDbXrecord
280
     1
102
DISPLAYNAME
  1
Imperial24
102
FLAGS
 90
        0
  0
CELLSTYLEMAP
  5
68A
102
{ACAD_REACTORS
330
2C9
102
}
330
2C9
100
AcDbCellStyleMap
 90
        3
300
CELLSTYLE
  1
TABLEFORMAT_BEGIN
 90
        5
170
     1
 91
        0
 92
    32768
 62
   257
 93
        1
300
CONTENTFORMAT
  1
CONTENTFORMAT_BEGIN
 90
        0
 91
        0
 92
      512
 93
        0
300

 40
0.0
140
1.0
 94
        5
 62
     0
340
55
144
0.25
309
CONTENTFORMAT_END
171
     1
301
MARGIN
  1
CELLMARGIN_BEGIN
 40
0.06
 40
0.06
 40
0.06
 40
0.06
 40
0.18
 40
0.18
309
CELLMARGIN_END
 94
        6
 95
        1
302
GRIDFORMAT
  1
GRIDFORMAT_BEGIN
 90
        0
 91
        1
 62
     0
 92
       -2
340
0
 93
        0
 40
0.045
309
GRIDFORMAT_END
 95
        2
302
GRIDFORMAT
  1
GRIDFORMAT_BEGIN
 90
        0
 91
        1
 62
     0
 92
       -2
340
0
 93
        0
 40
0.045
309
GRIDFORMAT_END
 95
        4
302
GRIDFORMAT
  1
GRIDFORMAT_BEGIN
 90
        0
 91
        1
 62
     0
 92
       -2
340
0
 93
        0
 40
0.045
309
GRIDFORMAT_END
 95
        8
302
GRIDFORMAT
  1
GRIDFORMAT_BEGIN
 90
        0
 91
        1
 62
     0
 92
       -2
340
0
 93
        0
 40
0.045
309
GRIDFORMAT_END
 95
       16
302
GRIDFORMAT
  1
GRIDFORMAT_BEGIN
 90
        0
 91
        1
 62
     0
 92
       -2
340
0
 93
        0
 40
0.045
309
GRIDFORMAT_END
 95
       32
302
GRIDFORMAT
  1
GRIDFORMAT_BEGIN
 90
        0
 91
        1
 62
     0
 92
       -2
340
0
 93
        0
 40
0.045
309
GRIDFORMAT_END
309
TABLEFORMAT_END
  1
CELLSTYLE_BEGIN
 90
        1
 91
        1
300
_TITLE
309
CELLSTYLE_END
300
CELLSTYLE
  1
TABLEFORMAT_BEGIN
 90
        5
170
     1
 91
        0
 92
        0
 62
   257
 93
        1
300
CONTENTFORMAT
  1
CONTENTFORMAT_BEGIN
 90
        0
 91
        0
 92
      512
 93
        0
300

 40
0.0
140
1.0
 94
        5
 62
     0
340
55
144
0.18
309
CONTENTFORMAT_END
171
     1
301
MARGIN
  1
CELLMARGIN_BEGIN
 40
0.06
 40
0.06
 40
0.06
 40
0.06
 40
0.18
 40
0.18
309
CELLMARGIN_END
 94
        6
 95
        1
302
GRIDFORMAT
  1
GRIDFORMAT_BEGIN
 90
        0
 91
        1
 62
     0
 92
       -2
340
0
 93
        0
 40
0.045
309
GRIDFORMAT_END
 95
        2
302
GRIDFORMAT
  1
GRIDFORMAT_BEGIN
 90
        0
 91
        1
 62
     0
 92
       -2
340
0
 93
        0
 40
0.045
309
GRIDFORMAT_END
 95
        4
302
GRIDFORMAT
  1
GRIDFORMAT_BEGIN
 90
        0
 91
        1
 62
     0
 92
       -2
340
0
 93
        0
 40
0.045
309
GRIDFORMAT_END
 95
        8
302
GRIDFORMAT
  1
GRIDFORMAT_BEGIN
 90
        0
 91
        1
 62
     0
 92
       -2
340
0
 93
        0
 40
0.045
309
GRIDFORMAT_END
 95
       16
302
GRIDFORMAT
  1
GRIDFORMAT_BEGIN
 90
        0
 91
        1
 62
     0
 92
       -2
340
0
 93
        0
 40
0.045
309
GRIDFORMAT_END
 95
       32
302
GRIDFORMAT
  1
GRIDFORMAT_BEGIN
 90
        0
 91
        1
 62
     0
 92
       -2
340
0
 93
        0
 40
0.045
309
GRIDFORMAT_END
309
TABLEFORMAT_END
  1
CELLSTYLE_BEGIN
 90
        2
 91
        1
300
_HEADER
309
CELLSTYLE_END
300
CELLSTYLE
  1
TABLEFORMAT_BEGIN
 90
        5
170
     1
 91
        0
 92
        0
 62
   257
 93
        1
300
CONTENTFORMAT
  1
CONTENTFORMAT_BEGIN
 90
        0
 91
        0
 92
      512
 93
        0
300

 40
0.0
140
1.0
 94
        2
 62
     0
340
55
144
0.18
309
CONTENTFORMAT_END
171
     1
301
MARGIN
  1
CELLMARGIN_BEGIN
 40
0.06
 40
0.06
 40
0.06
 40
0.06
 40
0.18
 40
0.18
309
CELLMARGIN_END
 94
        6
 95
        1
302
GRIDFORMAT
  1
GRIDFORMAT_BEGIN
 90
        0
 91
        1
 62
     0
 92
       -2
340
0
 93
        0
 40
0.045
309
GRIDFORMAT_END
 95
        2
302
GRIDFORMAT
  1
GRIDFORMAT_BEGIN
 90
        0
 91
        1
 62
     0
 92
       -2
340
0
 93
        0
 40
0.045
309
GRIDFORMAT_END
 95
        4
302
GRIDFORMAT
  1
GRIDFORMAT_BEGIN
 90
        0
 91
        1
 62
     0
 92
       -2
340
0
 93
        0
 40
0.045
309
GRIDFORMAT_END
 95
        8
302
GRIDFORMAT
  1
GRIDFORMAT_BEGIN
 90
        0
 91
        1
 62
     0
 92
       -2
340
0
 93
        0
 40
0.045
309
GRIDFORMAT_END
 95
       16
302
GRIDFORMAT
  1
GRIDFORMAT_BEGIN
 90
        0
 91
        1
 62
     0
 92
       -2
340
0
 93
        0
 40
0.045
309
GRIDFORMAT_END
 95
       32
302
GRIDFORMAT
  1
GRIDFORMAT_BEGIN
 90
        0
 91
        1
 62
     0
 92
       -2
340
0
 93
        0
 40
0.045
309
GRIDFORMAT_END
309
TABLEFORMAT_END
  1
CELLSTYLE_BEGIN
 90
        3
 91
        2
300
_DATA
309
CELLSTYLE_END
  0
ENDSEC
  0
SECTION
  2
ACDSDATA
 70
     2
 71
     8
  0
ACDSSCHEMA
 90
        0
  1
AcDb_Thumbnail_Schema
  2
AcDbDs::ID
280
    10
 91
        8
  2
Thumbnail_Data
280
    15
 91
        0
101
ACDSRECORD
 95
        0
 90
        1
  2
AcDbDs::TreatedAsObjectData
280
     1
291
     1
101
ACDSRECORD
 95
        0
 90
        2
  2
AcDbDs::Legacy
280
     1
291
     1
101
ACDSRECORD
  1
AcDbDs::ID
 90
        3
  2
AcDs:Indexable
280
     1
291
     1
101
ACDSRECORD
  1
AcDbDs::ID
 90
        4
  2
AcDbDs::HandleAttribute
280
     7
282
     1
  0
ACDSSCHEMA
 90
        1
  1
AcDbDs::TreatedAsObjectDataSchema
  2
AcDbDs::TreatedAsObjectData
280
     1
 91
        0
  0
ACDSSCHEMA
 90
        2
  1
AcDbDs::LegacySchema
  2
AcDbDs::Legacy
280
     1
 91
        0
  0
ACDSSCHEMA
 90
        3
  1
AcDbDs::IndexedPropertySchema
  2
AcDs:Indexable
280
     1
 91
        0
  0
ACDSSCHEMA
 90
        4
  1
AcDbDs::HandleAttributeSchema
  2
AcDbDs::HandleAttribute
280
     7
 91
        1
284
     1
  0
ACDSRECORD
 90
        0
  2
AcDbDs::ID
280
    10
320
73
  2
Thumbnail_Data
280
    15
 94
     1329
310
89504E470D0A1A0A0000000D4948445200000100000000770803000000DBFC6E9900000300504C5445212830FFFFFF2128300000000000000000000000000000000000000000000000000000330000660000990000CC0000FF0033000033330033660033990033CC0033FF0066000066330066660066990066CC0066FF0099
310
000099330099660099990099CC0099FF00CC0000CC3300CC6600CC9900CCCC00CCFF00FF0000FF3300FF6600FF9900FFCC00FFFF3300003300333300663300993300CC3300FF3333003333333333663333993333CC3333FF3366003366333366663366993366CC3366FF3399003399333399663399993399CC3399FF33CC00
310
33CC3333CC6633CC9933CCCC33CCFF33FF0033FF3333FF6633FF9933FFCC33FFFF6600006600336600666600996600CC6600FF6633006633336633666633996633CC6633FF6666006666336666666666996666CC6666FF6699006699336699666699996699CC6699FF66CC0066CC3366CC6666CC9966CCCC66CCFF66FF0066
310
FF3366FF6666FF9966FFCC66FFFF9900009900339900669900999900CC9900FF9933009933339933669933999933CC9933FF9966009966339966669966999966CC9966FF9999009999339999669999999999CC9999FF99CC0099CC3399CC6699CC9999CCCC99CCFF99FF0099FF3399FF6699FF9999FFCC99FFFFCC0000CC00
310
33CC0066CC0099CC00CCCC00FFCC3300CC3333CC3366CC3399CC33CCCC33FFCC6600CC6633CC6666CC6699CC66CCCC66FFCC9900CC9933CC9966CC9999CC99CCCC99FFCCCC00CCCC33CCCC66CCCC99CCCCCCCCCCFFCCFF00CCFF33CCFF66CCFF99CCFFCCCCFFFFFF0000FF0033FF0066FF0099FF00CCFF00FFFF3300FF3333
310
FF3366FF3399FF33CCFF33FFFF6600FF6633FF6666FF6699FF66CCFF66FFFF9900FF9933FF9966FF9999FF99CCFF99FFFFCC00FFCC33FFCC66FFCC99FFCCCCFFCCFFFFFF00FFFF33FFFF66FFFF99FFFFCCFFFFFF0000000D0D0D1A1A1A2828283535354343435050505D5D5D6B6B6B787878868686939393A1A1A1AEAEAEBB
310
BBBBC9C9C9D6D6D6E4E4E4F1F1F1FFFFFF0000000000000000000000000000000000000000000000000000000000002E4550F1000001744944415478DAEDDAD19282201400D0FBFFFFCBFBEE4CA9808AB538B350E73C64A66374BD5CD08C0000000000000000003892FAF74833FFCC94AE9A7FB94763876142934EFDB631B5
310
5D6D6FEF324304FA7E7F343E1BA8733C4EC5F384E42BCF46DEBB3DCAA5000880002882E34F773EE96BDFCB80A896B766C40C3520AAE5FD35410004400D300A8C9C0151BDE9CD84EC8873D480A8DEF4D682A8CA8A008C7E2DB0ACA6BB02B01D71B26B81BB6AC064A3C0D2CA7B8AD6633C7DF57EE3FF6640D1E4A56AF78FFFC5
310
C462E81AB006262F5ADD33C0FC68130420EF217958FE1C8083977103B075846F0DC0DAC46F08C0E17F226B00D664E82D82D5D1C61E0653B3892F57B0C68EC365C0FEFCA4383C75F54AFBA3DDF661FF19AABB7A316A55FD76C9EB6C34DB6DAFE67BDBF837E06DF1F3EA74BAE9D9B1E32C0051CF77270840CA272CC525D04906
310
147D7C1FA098270396521D45DE9E95EF4FAB019E0FF8F62744BAEE5B7EC433420000000000000000000000CCE80710D936871B4251940000000049454E44AE4260827CDD1760F9E9E304B8D70C30753EB125C0C7FB00951B0820714F8A8A2974D6E1F87A61703AE768163A078F9E980869DE4B43B6221DD96B3D13635F193A
310
24D4A0BC23F9F9255F1C9C5E62C1BD00000000000000000000000000000000000000000000E00F78CB8A0C357C587C0000000049454E44AE426082
  0
ENDSEC
  0
EOF
