G04 #@! TF.GenerationSoftware,KiCad,Pcbnew,(6.0.0)*
G04 #@! TF.CreationDate,2022-03-08T15:06:03-05:00*
G04 #@! TF.ProjectId,next_plate,6e657874-5f70-46c6-9174-652e6b696361,rev?*
G04 #@! TF.SameCoordinates,Original*
G04 #@! TF.FileFunction,Profile,NP*
%FSLAX46Y46*%
G04 Gerber Fmt 4.6, Leading zero omitted, Abs format (unit mm)*
G04 Created by KiCad (PCBNEW (6.0.0)) date 2022-03-08 15:06:03*
%MOMM*%
%LPD*%
G01*
G04 APERTURE LIST*
G04 #@! TA.AperFunction,Profile*
%ADD10C,0.100000*%
G04 #@! TD*
G04 #@! TA.AperFunction,Profile*
%ADD11C,0.010000*%
G04 #@! TD*
G04 APERTURE END LIST*
D10*
X374362500Y-91000000D02*
G75*
G03*
X374362500Y-91000000I-2500000J0D01*
G01*
D11*
X47050000Y-89375000D02*
X47050000Y-91975000D01*
X41950000Y-117575000D02*
X41950000Y-120175000D01*
X41950000Y-120175000D02*
X47050000Y-120175000D01*
X107506250Y-91400000D02*
X110106250Y-91400000D01*
X107506250Y-86300000D02*
X107506250Y-91400000D01*
X47050000Y-117575000D02*
X41950000Y-117575000D01*
X47050000Y-120175000D02*
X47050000Y-117575000D01*
X47050000Y-91975000D02*
X41950000Y-91975000D01*
X41950000Y-89375000D02*
X47050000Y-89375000D01*
X41950000Y-91975000D02*
X41950000Y-89375000D01*
D10*
X353500000Y-109500000D02*
X357500000Y-109500000D01*
X357500000Y-109500000D02*
X357500000Y-118500000D01*
D11*
X199912500Y-113200000D02*
X199912500Y-115400000D01*
X380675000Y-124500000D02*
G75*
G03*
X381675000Y-123500000I1J999999D01*
G01*
X377631250Y-80050000D02*
X377631250Y-85150000D01*
X377631250Y-85150000D02*
X375031250Y-85150000D01*
X106587500Y-128250000D02*
X109437500Y-124500000D01*
X105987500Y-25400000D02*
X105987500Y-24650000D01*
X300137500Y-124500000D02*
X209437500Y-124500000D01*
X105987500Y-24150000D02*
X105987500Y-24650000D01*
X51275000Y-118150000D02*
X51275000Y-123250000D01*
X305987500Y-25400000D02*
X305987500Y-24150000D01*
X207912500Y-114300000D02*
G75*
G03*
X207912500Y-114300000I-3125000J0D01*
G01*
X202987500Y-24150000D02*
X200137500Y-27900000D01*
X306587500Y-24150000D02*
X305987500Y-24150000D01*
X351031253Y-80050000D02*
X351031253Y-85150000D01*
X199912500Y-115400000D02*
X197712500Y-115400000D01*
X197712500Y-115400000D02*
X197712500Y-113200000D01*
X211862500Y-115400000D02*
X209662500Y-115400000D01*
X53875000Y-118150000D02*
X51275000Y-118150000D01*
D10*
X353500000Y-118500000D02*
X357500000Y-118500000D01*
D11*
X205987500Y-127000000D02*
G75*
G03*
X203587500Y-127000000I-1200000J0D01*
G01*
X375031250Y-85150000D02*
X375031250Y-80050000D01*
X180487500Y-118150000D02*
X180487500Y-123250000D01*
X206587500Y-24150000D02*
X209437500Y-27900000D01*
X51275000Y-123250000D02*
X53875000Y-123250000D01*
X28900000Y-27900000D02*
G75*
G03*
X27900000Y-28900000I-1J-999999D01*
G01*
X105987500Y-127000000D02*
X105987500Y-127750000D01*
X353631253Y-80050000D02*
X351031253Y-80050000D01*
X302687500Y-110450000D02*
X302687500Y-105350000D01*
X300137500Y-27900000D02*
X209437500Y-27900000D01*
X106587500Y-128250000D02*
X105987500Y-128250000D01*
X144906250Y-91400000D02*
X142306250Y-91400000D01*
X340868750Y-86300000D02*
X340868750Y-91400000D01*
X303587500Y-25400000D02*
X303587500Y-24150000D01*
X305287500Y-118150000D02*
X305287500Y-123250000D01*
X183087500Y-123250000D02*
X183087500Y-118150000D01*
X183087500Y-110450000D02*
X180487500Y-110450000D01*
X82075000Y-118150000D02*
X82075000Y-123250000D01*
X180487500Y-105350000D02*
X183087500Y-105350000D01*
X132143750Y-80050000D02*
X134743750Y-80050000D01*
X343468750Y-86300000D02*
X340868750Y-86300000D01*
X276112500Y-115400000D02*
X276112500Y-113200000D01*
X79475000Y-118150000D02*
X82075000Y-118150000D01*
X110106250Y-91400000D02*
X110106250Y-86300000D01*
X285862500Y-115400000D02*
X288062500Y-115400000D01*
X209662500Y-115400000D02*
X209662500Y-113200000D01*
X305987500Y-127000000D02*
X305987500Y-128250000D01*
X378268750Y-86300000D02*
X378268750Y-91400000D01*
X206587500Y-128250000D02*
X209437500Y-124500000D01*
X351031253Y-85150000D02*
X353631253Y-85150000D01*
X343468750Y-91400000D02*
X343468750Y-86300000D01*
X305987500Y-127000000D02*
G75*
G03*
X303587500Y-127000000I-1200000J0D01*
G01*
X27900000Y-123500000D02*
G75*
G03*
X28900000Y-124500000I999999J-1D01*
G01*
X102987500Y-24150000D02*
X103587500Y-24150000D01*
X305287500Y-123250000D02*
X302687500Y-123250000D01*
X302687500Y-118150000D02*
X305287500Y-118150000D01*
X105987500Y-127000000D02*
G75*
G03*
X103587500Y-127000000I-1200000J0D01*
G01*
X53875000Y-123250000D02*
X53875000Y-118150000D01*
X302987500Y-128250000D02*
X300137500Y-124500000D01*
X375668750Y-86300000D02*
X378268750Y-86300000D01*
X27900000Y-123500000D02*
X27900000Y-28900000D01*
X110743753Y-85150000D02*
X110743753Y-80050000D01*
X203587500Y-25400000D02*
X203587500Y-24150000D01*
X110106250Y-86300000D02*
X107506250Y-86300000D01*
X134743750Y-80050000D02*
X134743750Y-85150000D01*
X303587500Y-25400000D02*
G75*
G03*
X305987500Y-25400000I1200000J0D01*
G01*
X200137500Y-27900000D02*
X109437500Y-27900000D01*
X211862500Y-113200000D02*
X211862500Y-115400000D01*
D10*
X40100000Y-47625000D02*
G75*
G03*
X40100000Y-47625000I-2000000J0D01*
G01*
D11*
X142306250Y-86300000D02*
X144906250Y-86300000D01*
X302987500Y-24150000D02*
X300137500Y-27900000D01*
X306587500Y-128250000D02*
X305987500Y-128250000D01*
X110743753Y-80050000D02*
X108143753Y-80050000D01*
X103587500Y-24150000D02*
X103587500Y-24650000D01*
X284112500Y-114300000D02*
G75*
G03*
X284112500Y-114300000I-3125000J0D01*
G01*
X108143753Y-80050000D02*
X108143753Y-85150000D01*
X378268750Y-91400000D02*
X375668750Y-91400000D01*
X381675000Y-123500000D02*
X381675000Y-28900000D01*
X306587500Y-128250000D02*
X309437500Y-124500000D01*
X180487500Y-123250000D02*
X183087500Y-123250000D01*
X303587500Y-127000000D02*
X303587500Y-128250000D01*
X79475000Y-123250000D02*
X79475000Y-118150000D01*
X102987500Y-128250000D02*
X103587500Y-128250000D01*
X134743750Y-85150000D02*
X132143750Y-85150000D01*
X340868750Y-91400000D02*
X343468750Y-91400000D01*
D10*
X353500000Y-109500000D02*
X353500000Y-118500000D01*
D11*
X144906250Y-86300000D02*
X144906250Y-91400000D01*
X102987500Y-24150000D02*
X100137500Y-27900000D01*
D10*
X141000000Y-91000000D02*
G75*
G03*
X141000000Y-91000000I-2500000J0D01*
G01*
D11*
X302987500Y-24150000D02*
X303587500Y-24150000D01*
X108143753Y-85150000D02*
X110743753Y-85150000D01*
X142306250Y-91400000D02*
X142306250Y-86300000D01*
X288062500Y-113200000D02*
X285862500Y-113200000D01*
X206587500Y-128250000D02*
X205987500Y-128250000D01*
X206587500Y-24150000D02*
X205987500Y-24150000D01*
X183087500Y-105350000D02*
X183087500Y-110450000D01*
X103587500Y-25400000D02*
X103587500Y-24650000D01*
X183087500Y-118150000D02*
X180487500Y-118150000D01*
X305287500Y-110450000D02*
X302687500Y-110450000D01*
X209662500Y-113200000D02*
X211862500Y-113200000D01*
X273912500Y-113200000D02*
X273912500Y-115400000D01*
X302687500Y-105350000D02*
X305287500Y-105350000D01*
X202987500Y-128250000D02*
X200137500Y-124500000D01*
X375031250Y-80050000D02*
X377631250Y-80050000D01*
X380675000Y-124500000D02*
X309437500Y-124500000D01*
X197712500Y-113200000D02*
X199912500Y-113200000D01*
X306587500Y-24150000D02*
X309437500Y-27900000D01*
X100137500Y-124500000D02*
X28900000Y-124500000D01*
X302687500Y-123250000D02*
X302687500Y-118150000D01*
X180487500Y-110450000D02*
X180487500Y-105350000D01*
X105987500Y-128250000D02*
X105987500Y-127750000D01*
X273912500Y-115400000D02*
X276112500Y-115400000D01*
X302987500Y-128250000D02*
X303587500Y-128250000D01*
X305287500Y-105350000D02*
X305287500Y-110450000D01*
X200137500Y-124500000D02*
X109437500Y-124500000D01*
X82075000Y-123250000D02*
X79475000Y-123250000D01*
X202987500Y-128250000D02*
X203587500Y-128250000D01*
X103587500Y-25400000D02*
G75*
G03*
X105987500Y-25400000I1200000J0D01*
G01*
X103587500Y-127000000D02*
X103587500Y-127750000D01*
X288062500Y-115400000D02*
X288062500Y-113200000D01*
X203587500Y-25400000D02*
G75*
G03*
X205987500Y-25400000I1200000J0D01*
G01*
X205987500Y-25400000D02*
X205987500Y-24150000D01*
X100137500Y-27900000D02*
X28900000Y-27900000D01*
X103587500Y-128250000D02*
X103587500Y-127750000D01*
X353631253Y-85150000D02*
X353631253Y-80050000D01*
X375668750Y-91400000D02*
X375668750Y-86300000D01*
X106587500Y-24150000D02*
X105987500Y-24150000D01*
X205987500Y-127000000D02*
X205987500Y-128250000D01*
X276112500Y-113200000D02*
X273912500Y-113200000D01*
X381675000Y-28900000D02*
G75*
G03*
X380675000Y-27900000I-999999J1D01*
G01*
X380675000Y-27900000D02*
X309437500Y-27900000D01*
X106587500Y-24150000D02*
X109437500Y-27900000D01*
X132143750Y-85150000D02*
X132143750Y-80050000D01*
X102987500Y-128250000D02*
X100137500Y-124500000D01*
X202987500Y-24150000D02*
X203587500Y-24150000D01*
X285862500Y-113200000D02*
X285862500Y-115400000D01*
X203587500Y-127000000D02*
X203587500Y-128250000D01*
D10*
X250637500Y-120750000D02*
X235137500Y-120750000D01*
X250637500Y-107850000D02*
X250637500Y-120750000D01*
X235137500Y-107850000D02*
X235137500Y-120750000D01*
X250637500Y-107850000D02*
X235137500Y-107850000D01*
X83950000Y-88800000D02*
X68450000Y-88800000D01*
X68450000Y-88800000D02*
X68450000Y-101700000D01*
X83950000Y-101700000D02*
X68450000Y-101700000D01*
X83950000Y-88800000D02*
X83950000Y-101700000D01*
X293500000Y-31650000D02*
X278000000Y-31650000D01*
X293500000Y-31650000D02*
X293500000Y-44550000D01*
X278000000Y-31650000D02*
X278000000Y-44550000D01*
X293500000Y-44550000D02*
X278000000Y-44550000D01*
X274450000Y-31650000D02*
X274450000Y-44550000D01*
X258950000Y-31650000D02*
X258950000Y-44550000D01*
X274450000Y-31650000D02*
X258950000Y-31650000D01*
X274450000Y-44550000D02*
X258950000Y-44550000D01*
X297050000Y-31650000D02*
X297050000Y-44550000D01*
X312550000Y-44550000D02*
X297050000Y-44550000D01*
X312550000Y-31650000D02*
X312550000Y-44550000D01*
X312550000Y-31650000D02*
X297050000Y-31650000D01*
X331600000Y-44550000D02*
X316100000Y-44550000D01*
X331600000Y-31650000D02*
X316100000Y-31650000D01*
X331600000Y-31650000D02*
X331600000Y-44550000D01*
X316100000Y-31650000D02*
X316100000Y-44550000D01*
X345887500Y-69750000D02*
X330387500Y-69750000D01*
X345887500Y-69750000D02*
X345887500Y-82650000D01*
X345887500Y-82650000D02*
X330387500Y-82650000D01*
X330387500Y-69750000D02*
X330387500Y-82650000D01*
X87500000Y-88800000D02*
X87500000Y-101700000D01*
X103000000Y-88800000D02*
X87500000Y-88800000D01*
X103000000Y-101700000D02*
X87500000Y-101700000D01*
X103000000Y-88800000D02*
X103000000Y-101700000D01*
X31650000Y-97025000D02*
X31650000Y-112525000D01*
X31650000Y-97025000D02*
X44550000Y-97025000D01*
X31650000Y-112525000D02*
X44550000Y-112525000D01*
X44550000Y-97025000D02*
X44550000Y-112525000D01*
X288737500Y-69750000D02*
X288737500Y-82650000D01*
X273237500Y-69750000D02*
X273237500Y-82650000D01*
X288737500Y-82650000D02*
X273237500Y-82650000D01*
X288737500Y-69750000D02*
X273237500Y-69750000D01*
X64900000Y-63600000D02*
X49400000Y-63600000D01*
X64900000Y-50700000D02*
X49400000Y-50700000D01*
X49400000Y-50700000D02*
X49400000Y-63600000D01*
X64900000Y-50700000D02*
X64900000Y-63600000D01*
X374462500Y-120750000D02*
X358962500Y-120750000D01*
X358962500Y-107850000D02*
X358962500Y-120750000D01*
X374462500Y-107850000D02*
X374462500Y-120750000D01*
X374462500Y-107850000D02*
X358962500Y-107850000D01*
X103000000Y-63600000D02*
X87500000Y-63600000D01*
X103000000Y-50700000D02*
X103000000Y-63600000D01*
X103000000Y-50700000D02*
X87500000Y-50700000D01*
X87500000Y-50700000D02*
X87500000Y-63600000D01*
X83950000Y-44550000D02*
X68450000Y-44550000D01*
X68450000Y-31650000D02*
X68450000Y-44550000D01*
X83950000Y-31650000D02*
X68450000Y-31650000D01*
X83950000Y-31650000D02*
X83950000Y-44550000D01*
X74425000Y-107850000D02*
X74425000Y-120750000D01*
X58925000Y-107850000D02*
X58925000Y-120750000D01*
X74425000Y-120750000D02*
X58925000Y-120750000D01*
X74425000Y-107850000D02*
X58925000Y-107850000D01*
X222062500Y-88800000D02*
X222062500Y-101700000D01*
X222062500Y-88800000D02*
X206562500Y-88800000D01*
X222062500Y-101700000D02*
X206562500Y-101700000D01*
X206562500Y-88800000D02*
X206562500Y-101700000D01*
X49400000Y-31650000D02*
X49400000Y-44550000D01*
X64900000Y-31650000D02*
X49400000Y-31650000D01*
X64900000Y-31650000D02*
X64900000Y-44550000D01*
X64900000Y-44550000D02*
X49400000Y-44550000D01*
X231587500Y-69750000D02*
X216087500Y-69750000D01*
X231587500Y-69750000D02*
X231587500Y-82650000D01*
X231587500Y-82650000D02*
X216087500Y-82650000D01*
X216087500Y-69750000D02*
X216087500Y-82650000D01*
X374462500Y-31650000D02*
X374462500Y-44550000D01*
X374462500Y-44550000D02*
X358962500Y-44550000D01*
X374462500Y-31650000D02*
X358962500Y-31650000D01*
X358962500Y-31650000D02*
X358962500Y-44550000D01*
X111312500Y-50700000D02*
X111312500Y-63600000D01*
X126812500Y-63600000D02*
X111312500Y-63600000D01*
X126812500Y-50700000D02*
X126812500Y-63600000D01*
X126812500Y-50700000D02*
X111312500Y-50700000D01*
X197037500Y-69750000D02*
X197037500Y-82650000D01*
X212537500Y-69750000D02*
X212537500Y-82650000D01*
X212537500Y-69750000D02*
X197037500Y-69750000D01*
X212537500Y-82650000D02*
X197037500Y-82650000D01*
X307787500Y-69750000D02*
X292287500Y-69750000D01*
X307787500Y-82650000D02*
X292287500Y-82650000D01*
X307787500Y-69750000D02*
X307787500Y-82650000D01*
X292287500Y-69750000D02*
X292287500Y-82650000D01*
X220850000Y-31650000D02*
X220850000Y-44550000D01*
X236350000Y-31650000D02*
X236350000Y-44550000D01*
X236350000Y-31650000D02*
X220850000Y-31650000D01*
X236350000Y-44550000D02*
X220850000Y-44550000D01*
X283975000Y-50700000D02*
X268475000Y-50700000D01*
X283975000Y-63600000D02*
X268475000Y-63600000D01*
X268475000Y-50700000D02*
X268475000Y-63600000D01*
X283975000Y-50700000D02*
X283975000Y-63600000D01*
X298262500Y-101700000D02*
X282762500Y-101700000D01*
X282762500Y-88800000D02*
X282762500Y-101700000D01*
X298262500Y-88800000D02*
X282762500Y-88800000D01*
X298262500Y-88800000D02*
X298262500Y-101700000D01*
X379225000Y-63600000D02*
X363725000Y-63600000D01*
X363725000Y-50700000D02*
X363725000Y-63600000D01*
X379225000Y-50700000D02*
X363725000Y-50700000D01*
X379225000Y-50700000D02*
X379225000Y-63600000D01*
X241112500Y-88800000D02*
X241112500Y-101700000D01*
X241112500Y-88800000D02*
X225612500Y-88800000D01*
X225612500Y-88800000D02*
X225612500Y-101700000D01*
X241112500Y-101700000D02*
X225612500Y-101700000D01*
X155387500Y-107850000D02*
X139887500Y-107850000D01*
X155387500Y-120750000D02*
X139887500Y-120750000D01*
X139887500Y-107850000D02*
X139887500Y-120750000D01*
X155387500Y-107850000D02*
X155387500Y-120750000D01*
X188725000Y-50700000D02*
X188725000Y-63600000D01*
X173225000Y-50700000D02*
X173225000Y-63600000D01*
X188725000Y-63600000D02*
X173225000Y-63600000D01*
X188725000Y-50700000D02*
X173225000Y-50700000D01*
X87500000Y-107850000D02*
X87500000Y-120750000D01*
X103000000Y-107850000D02*
X87500000Y-107850000D01*
X103000000Y-107850000D02*
X103000000Y-120750000D01*
X103000000Y-120750000D02*
X87500000Y-120750000D01*
X83950000Y-50700000D02*
X83950000Y-63600000D01*
X83950000Y-63600000D02*
X68450000Y-63600000D01*
X83950000Y-50700000D02*
X68450000Y-50700000D01*
X68450000Y-50700000D02*
X68450000Y-63600000D01*
X155387500Y-69750000D02*
X139887500Y-69750000D01*
X155387500Y-69750000D02*
X155387500Y-82650000D01*
X139887500Y-69750000D02*
X139887500Y-82650000D01*
X155387500Y-82650000D02*
X139887500Y-82650000D01*
X193487500Y-69750000D02*
X177987500Y-69750000D01*
X193487500Y-82650000D02*
X177987500Y-82650000D01*
X193487500Y-69750000D02*
X193487500Y-82650000D01*
X177987500Y-69750000D02*
X177987500Y-82650000D01*
X264925000Y-63600000D02*
X249425000Y-63600000D01*
X264925000Y-50700000D02*
X264925000Y-63600000D01*
X249425000Y-50700000D02*
X249425000Y-63600000D01*
X264925000Y-50700000D02*
X249425000Y-50700000D01*
X279212500Y-101700000D02*
X263712500Y-101700000D01*
X263712500Y-88800000D02*
X263712500Y-101700000D01*
X279212500Y-88800000D02*
X263712500Y-88800000D01*
X279212500Y-88800000D02*
X279212500Y-101700000D01*
X45850000Y-44550000D02*
X30350000Y-44550000D01*
X30350000Y-31650000D02*
X30350000Y-44550000D01*
X45850000Y-31650000D02*
X45850000Y-44550000D01*
X45850000Y-31650000D02*
X30350000Y-31650000D01*
X164912500Y-88800000D02*
X149412500Y-88800000D01*
X149412500Y-88800000D02*
X149412500Y-101700000D01*
X164912500Y-101700000D02*
X149412500Y-101700000D01*
X164912500Y-88800000D02*
X164912500Y-101700000D01*
X169675000Y-50700000D02*
X169675000Y-63600000D01*
X169675000Y-63600000D02*
X154175000Y-63600000D01*
X154175000Y-50700000D02*
X154175000Y-63600000D01*
X169675000Y-50700000D02*
X154175000Y-50700000D01*
X226825000Y-63600000D02*
X211325000Y-63600000D01*
X226825000Y-50700000D02*
X226825000Y-63600000D01*
X211325000Y-50700000D02*
X211325000Y-63600000D01*
X226825000Y-50700000D02*
X211325000Y-50700000D01*
X45850000Y-50700000D02*
X30350000Y-50700000D01*
X45850000Y-63600000D02*
X30350000Y-63600000D01*
X30350000Y-50700000D02*
X30350000Y-63600000D01*
X45850000Y-50700000D02*
X45850000Y-63600000D01*
X198250000Y-31650000D02*
X182750000Y-31650000D01*
X182750000Y-31650000D02*
X182750000Y-44550000D01*
X198250000Y-44550000D02*
X182750000Y-44550000D01*
X198250000Y-31650000D02*
X198250000Y-44550000D01*
X306575000Y-50700000D02*
X306575000Y-63600000D01*
X322075000Y-50700000D02*
X306575000Y-50700000D01*
X322075000Y-63600000D02*
X306575000Y-63600000D01*
X322075000Y-50700000D02*
X322075000Y-63600000D01*
X255400000Y-31650000D02*
X255400000Y-44550000D01*
X239900000Y-31650000D02*
X239900000Y-44550000D01*
X255400000Y-44550000D02*
X239900000Y-44550000D01*
X255400000Y-31650000D02*
X239900000Y-31650000D01*
X133956250Y-88800000D02*
X118456250Y-88800000D01*
X118456250Y-88800000D02*
X118456250Y-101700000D01*
X133956250Y-101700000D02*
X118456250Y-101700000D01*
X133956250Y-88800000D02*
X133956250Y-101700000D01*
X103000000Y-31650000D02*
X103000000Y-44550000D01*
X87500000Y-31650000D02*
X87500000Y-44550000D01*
X103000000Y-44550000D02*
X87500000Y-44550000D01*
X103000000Y-31650000D02*
X87500000Y-31650000D01*
X203012500Y-101700000D02*
X187512500Y-101700000D01*
X203012500Y-88800000D02*
X187512500Y-88800000D01*
X203012500Y-88800000D02*
X203012500Y-101700000D01*
X187512500Y-88800000D02*
X187512500Y-101700000D01*
X160150000Y-44550000D02*
X144650000Y-44550000D01*
X160150000Y-31650000D02*
X144650000Y-31650000D01*
X144650000Y-31650000D02*
X144650000Y-44550000D01*
X160150000Y-31650000D02*
X160150000Y-44550000D01*
X64900000Y-82650000D02*
X49400000Y-82650000D01*
X49400000Y-69750000D02*
X49400000Y-82650000D01*
X64900000Y-69750000D02*
X49400000Y-69750000D01*
X64900000Y-69750000D02*
X64900000Y-82650000D01*
X179200000Y-31650000D02*
X179200000Y-44550000D01*
X179200000Y-31650000D02*
X163700000Y-31650000D01*
X179200000Y-44550000D02*
X163700000Y-44550000D01*
X163700000Y-31650000D02*
X163700000Y-44550000D01*
X360175000Y-63600000D02*
X344675000Y-63600000D01*
X360175000Y-50700000D02*
X360175000Y-63600000D01*
X360175000Y-50700000D02*
X344675000Y-50700000D01*
X344675000Y-50700000D02*
X344675000Y-63600000D01*
X129193750Y-69750000D02*
X113693750Y-69750000D01*
X129193750Y-69750000D02*
X129193750Y-82650000D01*
X129193750Y-82650000D02*
X113693750Y-82650000D01*
X113693750Y-69750000D02*
X113693750Y-82650000D01*
X326837500Y-82650000D02*
X311337500Y-82650000D01*
X311337500Y-69750000D02*
X311337500Y-82650000D01*
X326837500Y-69750000D02*
X326837500Y-82650000D01*
X326837500Y-69750000D02*
X311337500Y-69750000D01*
X301812500Y-88800000D02*
X301812500Y-101700000D01*
X317312500Y-101700000D02*
X301812500Y-101700000D01*
X317312500Y-88800000D02*
X317312500Y-101700000D01*
X317312500Y-88800000D02*
X301812500Y-88800000D01*
X335150000Y-31650000D02*
X335150000Y-44550000D01*
X350650000Y-44550000D02*
X335150000Y-44550000D01*
X350650000Y-31650000D02*
X335150000Y-31650000D01*
X350650000Y-31650000D02*
X350650000Y-44550000D01*
X303025000Y-50700000D02*
X303025000Y-63600000D01*
X303025000Y-63600000D02*
X287525000Y-63600000D01*
X287525000Y-50700000D02*
X287525000Y-63600000D01*
X303025000Y-50700000D02*
X287525000Y-50700000D01*
X68450000Y-69750000D02*
X68450000Y-82650000D01*
X83950000Y-69750000D02*
X68450000Y-69750000D01*
X83950000Y-69750000D02*
X83950000Y-82650000D01*
X83950000Y-82650000D02*
X68450000Y-82650000D01*
X345887500Y-120750000D02*
X330387500Y-120750000D01*
X330387500Y-107850000D02*
X330387500Y-120750000D01*
X345887500Y-107850000D02*
X345887500Y-120750000D01*
X345887500Y-107850000D02*
X330387500Y-107850000D01*
X372081250Y-69750000D02*
X356581250Y-69750000D01*
X372081250Y-69750000D02*
X372081250Y-82650000D01*
X372081250Y-82650000D02*
X356581250Y-82650000D01*
X356581250Y-69750000D02*
X356581250Y-82650000D01*
X260162500Y-88800000D02*
X260162500Y-101700000D01*
X260162500Y-88800000D02*
X244662500Y-88800000D01*
X260162500Y-101700000D02*
X244662500Y-101700000D01*
X244662500Y-88800000D02*
X244662500Y-101700000D01*
X126812500Y-120750000D02*
X111312500Y-120750000D01*
X126812500Y-107850000D02*
X111312500Y-107850000D01*
X126812500Y-107850000D02*
X126812500Y-120750000D01*
X111312500Y-107850000D02*
X111312500Y-120750000D01*
X217300000Y-31650000D02*
X217300000Y-44550000D01*
X201800000Y-31650000D02*
X201800000Y-44550000D01*
X217300000Y-44550000D02*
X201800000Y-44550000D01*
X217300000Y-31650000D02*
X201800000Y-31650000D01*
X122050000Y-44550000D02*
X106550000Y-44550000D01*
X106550000Y-31650000D02*
X106550000Y-44550000D01*
X122050000Y-31650000D02*
X122050000Y-44550000D01*
X122050000Y-31650000D02*
X106550000Y-31650000D01*
X45850000Y-82650000D02*
X30350000Y-82650000D01*
X45850000Y-69750000D02*
X45850000Y-82650000D01*
X45850000Y-69750000D02*
X30350000Y-69750000D01*
X30350000Y-69750000D02*
X30350000Y-82650000D01*
X141100000Y-44550000D02*
X125600000Y-44550000D01*
X125600000Y-31650000D02*
X125600000Y-44550000D01*
X141100000Y-31650000D02*
X141100000Y-44550000D01*
X141100000Y-31650000D02*
X125600000Y-31650000D01*
X183962500Y-101700000D02*
X168462500Y-101700000D01*
X168462500Y-88800000D02*
X168462500Y-101700000D01*
X183962500Y-88800000D02*
X183962500Y-101700000D01*
X183962500Y-88800000D02*
X168462500Y-88800000D01*
X250637500Y-69750000D02*
X250637500Y-82650000D01*
X235137500Y-69750000D02*
X235137500Y-82650000D01*
X250637500Y-82650000D02*
X235137500Y-82650000D01*
X250637500Y-69750000D02*
X235137500Y-69750000D01*
X174437500Y-82650000D02*
X158937500Y-82650000D01*
X158937500Y-69750000D02*
X158937500Y-82650000D01*
X174437500Y-69750000D02*
X158937500Y-69750000D01*
X174437500Y-69750000D02*
X174437500Y-82650000D01*
X269687500Y-82650000D02*
X254187500Y-82650000D01*
X269687500Y-69750000D02*
X269687500Y-82650000D01*
X269687500Y-69750000D02*
X254187500Y-69750000D01*
X254187500Y-69750000D02*
X254187500Y-82650000D01*
X367318750Y-101700000D02*
X351818750Y-101700000D01*
X351818750Y-88800000D02*
X351818750Y-101700000D01*
X367318750Y-88800000D02*
X367318750Y-101700000D01*
X367318750Y-88800000D02*
X351818750Y-88800000D01*
X103000000Y-69750000D02*
X87500000Y-69750000D01*
X103000000Y-69750000D02*
X103000000Y-82650000D01*
X103000000Y-82650000D02*
X87500000Y-82650000D01*
X87500000Y-69750000D02*
X87500000Y-82650000D01*
X325625000Y-50700000D02*
X325625000Y-63600000D01*
X341125000Y-50700000D02*
X325625000Y-50700000D01*
X341125000Y-63600000D02*
X325625000Y-63600000D01*
X341125000Y-50700000D02*
X341125000Y-63600000D01*
X245875000Y-50700000D02*
X230375000Y-50700000D01*
X245875000Y-50700000D02*
X245875000Y-63600000D01*
X245875000Y-63600000D02*
X230375000Y-63600000D01*
X230375000Y-50700000D02*
X230375000Y-63600000D01*
X320862500Y-88800000D02*
X320862500Y-101700000D01*
X336362500Y-88800000D02*
X336362500Y-101700000D01*
X336362500Y-101700000D02*
X320862500Y-101700000D01*
X336362500Y-88800000D02*
X320862500Y-88800000D01*
X192275000Y-50700000D02*
X192275000Y-63600000D01*
X207775000Y-63600000D02*
X192275000Y-63600000D01*
X207775000Y-50700000D02*
X192275000Y-50700000D01*
X207775000Y-50700000D02*
X207775000Y-63600000D01*
X64900000Y-101700000D02*
X49400000Y-101700000D01*
X64900000Y-88800000D02*
X49400000Y-88800000D01*
X64900000Y-88800000D02*
X64900000Y-101700000D01*
X49400000Y-88800000D02*
X49400000Y-101700000D01*
X150625000Y-63600000D02*
X135125000Y-63600000D01*
X150625000Y-50700000D02*
X135125000Y-50700000D01*
X135125000Y-50700000D02*
X135125000Y-63600000D01*
X150625000Y-50700000D02*
X150625000Y-63600000D01*
M02*
