%FSLAX45Y45*%
G04 Gerber Fmt 4.5, Leading zero omitted, Abs format (unit mm)*
G04 Created by KiCad (PCBNEW (6.0.0)) date 2022-03-08 15:06:07*
%MOMM*%
%LPD*%
G01*
G04 APERTURE LIST*
%TA.AperFunction,Profile*%
%ADD10C,0.100000*%
%TD*%
%TA.AperFunction,Profile*%
%ADD11C,0.010000*%
%TD*%
%ADD12C,0.200000*%
G04 APERTURE END LIST*
D10*
X37436250Y-9100000D02*
G75*
G03*
X37436250Y-9100000I-250000J0D01*
G01*
D11*
X4705000Y-8937500D02*
X4705000Y-9197500D01*
X4195000Y-11757500D02*
X4195000Y-12017500D01*
X4195000Y-12017500D02*
X4705000Y-12017500D01*
X10750625Y-9140000D02*
X11010625Y-9140000D01*
X10750625Y-8630000D02*
X10750625Y-9140000D01*
X4705000Y-11757500D02*
X4195000Y-11757500D01*
X4705000Y-12017500D02*
X4705000Y-11757500D01*
X4705000Y-9197500D02*
X4195000Y-9197500D01*
X4195000Y-8937500D02*
X4705000Y-8937500D01*
X4195000Y-9197500D02*
X4195000Y-8937500D01*
D10*
X35350000Y-10950000D02*
X35750000Y-10950000D01*
X35750000Y-10950000D02*
X35750000Y-11850000D01*
D11*
X19991250Y-11320000D02*
X19991250Y-11540000D01*
X38067500Y-12450000D02*
G75*
G03*
X38167500Y-12350000I0J100000D01*
G01*
X37763125Y-8005000D02*
X37763125Y-8515000D01*
X37763125Y-8515000D02*
X37503125Y-8515000D01*
X10658750Y-12825000D02*
X10943750Y-12450000D01*
X10598750Y-2540000D02*
X10598750Y-2465000D01*
X30013750Y-12450000D02*
X20943750Y-12450000D01*
X10598750Y-2415000D02*
X10598750Y-2465000D01*
X5127500Y-11815000D02*
X5127500Y-12325000D01*
X30598750Y-2540000D02*
X30598750Y-2415000D01*
X20791250Y-11430000D02*
G75*
G03*
X20791250Y-11430000I-312500J0D01*
G01*
X20298750Y-2415000D02*
X20013750Y-2790000D01*
X30658750Y-2415000D02*
X30598750Y-2415000D01*
X35103125Y-8005000D02*
X35103125Y-8515000D01*
X19991250Y-11540000D02*
X19771250Y-11540000D01*
X19771250Y-11540000D02*
X19771250Y-11320000D01*
X21186250Y-11540000D02*
X20966250Y-11540000D01*
X5387500Y-11815000D02*
X5127500Y-11815000D01*
D10*
X35350000Y-11850000D02*
X35750000Y-11850000D01*
D11*
X20598750Y-12700000D02*
G75*
G03*
X20358750Y-12700000I-120000J0D01*
G01*
X37503125Y-8515000D02*
X37503125Y-8005000D01*
X18048750Y-11815000D02*
X18048750Y-12325000D01*
X20658750Y-2415000D02*
X20943750Y-2790000D01*
X5127500Y-12325000D02*
X5387500Y-12325000D01*
X2890000Y-2790000D02*
G75*
G03*
X2790000Y-2890000I0J-100000D01*
G01*
X10598750Y-12700000D02*
X10598750Y-12775000D01*
X35363125Y-8005000D02*
X35103125Y-8005000D01*
X30268750Y-11045000D02*
X30268750Y-10535000D01*
X30013750Y-2790000D02*
X20943750Y-2790000D01*
X10658750Y-12825000D02*
X10598750Y-12825000D01*
X14490625Y-9140000D02*
X14230625Y-9140000D01*
X34086875Y-8630000D02*
X34086875Y-9140000D01*
X30358750Y-2540000D02*
X30358750Y-2415000D01*
X30528750Y-11815000D02*
X30528750Y-12325000D01*
X18308750Y-12325000D02*
X18308750Y-11815000D01*
X18308750Y-11045000D02*
X18048750Y-11045000D01*
X8207500Y-11815000D02*
X8207500Y-12325000D01*
X18048750Y-10535000D02*
X18308750Y-10535000D01*
X13214375Y-8005000D02*
X13474375Y-8005000D01*
X34346875Y-8630000D02*
X34086875Y-8630000D01*
X27611250Y-11540000D02*
X27611250Y-11320000D01*
X7947500Y-11815000D02*
X8207500Y-11815000D01*
X11010625Y-9140000D02*
X11010625Y-8630000D01*
X28586250Y-11540000D02*
X28806250Y-11540000D01*
X20966250Y-11540000D02*
X20966250Y-11320000D01*
X30598750Y-12700000D02*
X30598750Y-12825000D01*
X37826875Y-8630000D02*
X37826875Y-9140000D01*
X20658750Y-12825000D02*
X20943750Y-12450000D01*
X35103125Y-8515000D02*
X35363125Y-8515000D01*
X34346875Y-9140000D02*
X34346875Y-8630000D01*
X30598750Y-12700000D02*
G75*
G03*
X30358750Y-12700000I-120000J0D01*
G01*
X2790000Y-12350000D02*
G75*
G03*
X2890000Y-12450000I100000J0D01*
G01*
X10298750Y-2415000D02*
X10358750Y-2415000D01*
X30528750Y-12325000D02*
X30268750Y-12325000D01*
X30268750Y-11815000D02*
X30528750Y-11815000D01*
X10598750Y-12700000D02*
G75*
G03*
X10358750Y-12700000I-120000J0D01*
G01*
X5387500Y-12325000D02*
X5387500Y-11815000D01*
X30298750Y-12825000D02*
X30013750Y-12450000D01*
X37566875Y-8630000D02*
X37826875Y-8630000D01*
X2790000Y-12350000D02*
X2790000Y-2890000D01*
X11074375Y-8515000D02*
X11074375Y-8005000D01*
X20358750Y-2540000D02*
X20358750Y-2415000D01*
X11010625Y-8630000D02*
X10750625Y-8630000D01*
X13474375Y-8005000D02*
X13474375Y-8515000D01*
X30358750Y-2540000D02*
G75*
G03*
X30598750Y-2540000I120000J0D01*
G01*
X20013750Y-2790000D02*
X10943750Y-2790000D01*
X21186250Y-11320000D02*
X21186250Y-11540000D01*
D10*
X4010000Y-4762500D02*
G75*
G03*
X4010000Y-4762500I-200000J0D01*
G01*
D11*
X14230625Y-8630000D02*
X14490625Y-8630000D01*
X30298750Y-2415000D02*
X30013750Y-2790000D01*
X30658750Y-12825000D02*
X30598750Y-12825000D01*
X11074375Y-8005000D02*
X10814375Y-8005000D01*
X10358750Y-2415000D02*
X10358750Y-2465000D01*
X28411250Y-11430000D02*
G75*
G03*
X28411250Y-11430000I-312500J0D01*
G01*
X10814375Y-8005000D02*
X10814375Y-8515000D01*
X37826875Y-9140000D02*
X37566875Y-9140000D01*
X38167500Y-12350000D02*
X38167500Y-2890000D01*
X30658750Y-12825000D02*
X30943750Y-12450000D01*
X18048750Y-12325000D02*
X18308750Y-12325000D01*
X30358750Y-12700000D02*
X30358750Y-12825000D01*
X7947500Y-12325000D02*
X7947500Y-11815000D01*
X10298750Y-12825000D02*
X10358750Y-12825000D01*
X13474375Y-8515000D02*
X13214375Y-8515000D01*
X34086875Y-9140000D02*
X34346875Y-9140000D01*
D10*
X35350000Y-10950000D02*
X35350000Y-11850000D01*
D11*
X14490625Y-8630000D02*
X14490625Y-9140000D01*
X10298750Y-2415000D02*
X10013750Y-2790000D01*
D10*
X14100000Y-9100000D02*
G75*
G03*
X14100000Y-9100000I-250000J0D01*
G01*
D11*
X30298750Y-2415000D02*
X30358750Y-2415000D01*
X10814375Y-8515000D02*
X11074375Y-8515000D01*
X14230625Y-9140000D02*
X14230625Y-8630000D01*
X28806250Y-11320000D02*
X28586250Y-11320000D01*
X20658750Y-12825000D02*
X20598750Y-12825000D01*
X20658750Y-2415000D02*
X20598750Y-2415000D01*
X18308750Y-10535000D02*
X18308750Y-11045000D01*
X10358750Y-2540000D02*
X10358750Y-2465000D01*
X18308750Y-11815000D02*
X18048750Y-11815000D01*
X30528750Y-11045000D02*
X30268750Y-11045000D01*
X20966250Y-11320000D02*
X21186250Y-11320000D01*
X27391250Y-11320000D02*
X27391250Y-11540000D01*
X30268750Y-10535000D02*
X30528750Y-10535000D01*
X20298750Y-12825000D02*
X20013750Y-12450000D01*
X37503125Y-8005000D02*
X37763125Y-8005000D01*
X38067500Y-12450000D02*
X30943750Y-12450000D01*
X19771250Y-11320000D02*
X19991250Y-11320000D01*
X30658750Y-2415000D02*
X30943750Y-2790000D01*
X10013750Y-12450000D02*
X2890000Y-12450000D01*
X30268750Y-12325000D02*
X30268750Y-11815000D01*
X18048750Y-11045000D02*
X18048750Y-10535000D01*
X10598750Y-12825000D02*
X10598750Y-12775000D01*
X27391250Y-11540000D02*
X27611250Y-11540000D01*
X30298750Y-12825000D02*
X30358750Y-12825000D01*
X30528750Y-10535000D02*
X30528750Y-11045000D01*
X20013750Y-12450000D02*
X10943750Y-12450000D01*
X8207500Y-12325000D02*
X7947500Y-12325000D01*
X20298750Y-12825000D02*
X20358750Y-12825000D01*
X10358750Y-2540000D02*
G75*
G03*
X10598750Y-2540000I120000J0D01*
G01*
X10358750Y-12700000D02*
X10358750Y-12775000D01*
X28806250Y-11540000D02*
X28806250Y-11320000D01*
X20358750Y-2540000D02*
G75*
G03*
X20598750Y-2540000I120000J0D01*
G01*
X20598750Y-2540000D02*
X20598750Y-2415000D01*
X10013750Y-2790000D02*
X2890000Y-2790000D01*
X10358750Y-12825000D02*
X10358750Y-12775000D01*
X35363125Y-8515000D02*
X35363125Y-8005000D01*
X37566875Y-9140000D02*
X37566875Y-8630000D01*
X10658750Y-2415000D02*
X10598750Y-2415000D01*
X20598750Y-12700000D02*
X20598750Y-12825000D01*
X27611250Y-11320000D02*
X27391250Y-11320000D01*
X38167500Y-2890000D02*
G75*
G03*
X38067500Y-2790000I-100000J0D01*
G01*
X38067500Y-2790000D02*
X30943750Y-2790000D01*
X10658750Y-2415000D02*
X10943750Y-2790000D01*
X13214375Y-8515000D02*
X13214375Y-8005000D01*
X10298750Y-12825000D02*
X10013750Y-12450000D01*
X20298750Y-2415000D02*
X20358750Y-2415000D01*
X28586250Y-11320000D02*
X28586250Y-11540000D01*
X20358750Y-12700000D02*
X20358750Y-12825000D01*
D12*
X3047119Y-13135976D02*
X3047119Y-12935976D01*
X3094738Y-12935976D01*
X3123309Y-12945500D01*
X3142357Y-12964548D01*
X3151881Y-12983595D01*
X3161405Y-13021690D01*
X3161405Y-13050262D01*
X3151881Y-13088357D01*
X3142357Y-13107405D01*
X3123309Y-13126452D01*
X3094738Y-13135976D01*
X3047119Y-13135976D01*
X3247119Y-13135976D02*
X3247119Y-13002643D01*
X3247119Y-13040738D02*
X3256643Y-13021690D01*
X3266167Y-13012167D01*
X3285214Y-13002643D01*
X3304262Y-13002643D01*
X3370928Y-13135976D02*
X3370928Y-13002643D01*
X3370928Y-12935976D02*
X3361405Y-12945500D01*
X3370928Y-12955024D01*
X3380452Y-12945500D01*
X3370928Y-12935976D01*
X3370928Y-12955024D01*
X3494738Y-13135976D02*
X3475690Y-13126452D01*
X3466167Y-13107405D01*
X3466167Y-12935976D01*
X3599500Y-13135976D02*
X3580452Y-13126452D01*
X3570928Y-13107405D01*
X3570928Y-12935976D01*
X3828071Y-13135976D02*
X3828071Y-12935976D01*
X3894738Y-13078833D01*
X3961405Y-12935976D01*
X3961405Y-13135976D01*
X4142357Y-13135976D02*
X4142357Y-13031214D01*
X4132833Y-13012167D01*
X4113786Y-13002643D01*
X4075690Y-13002643D01*
X4056643Y-13012167D01*
X4142357Y-13126452D02*
X4123309Y-13135976D01*
X4075690Y-13135976D01*
X4056643Y-13126452D01*
X4047119Y-13107405D01*
X4047119Y-13088357D01*
X4056643Y-13069309D01*
X4075690Y-13059786D01*
X4123309Y-13059786D01*
X4142357Y-13050262D01*
X4237595Y-13002643D02*
X4237595Y-13202643D01*
X4237595Y-13012167D02*
X4256643Y-13002643D01*
X4294738Y-13002643D01*
X4313786Y-13012167D01*
X4323310Y-13021690D01*
X4332833Y-13040738D01*
X4332833Y-13097881D01*
X4323310Y-13116928D01*
X4313786Y-13126452D01*
X4294738Y-13135976D01*
X4256643Y-13135976D01*
X4237595Y-13126452D01*
X4418548Y-13116928D02*
X4428071Y-13126452D01*
X4418548Y-13135976D01*
X4409024Y-13126452D01*
X4418548Y-13116928D01*
X4418548Y-13135976D01*
X4418548Y-13012167D02*
X4428071Y-13021690D01*
X4418548Y-13031214D01*
X4409024Y-13021690D01*
X4418548Y-13012167D01*
X4418548Y-13031214D01*
M02*
